<svg width="100" height="100" viewBox="0 0 100 100" fill="none" xmlns="http://www.w3.org/2000/svg">
<path d="M50.0178 0H49.8444C36.7808 0.0578035 24.4687 5.14451 15.2779 14.3931C6.02939 23.6416 0.942684 35.8382 1.00049 48.8439C1.05829 75.6069 23.0236 97.3988 49.96 97.3988H50.1334C63.197 97.341 75.5092 92.2543 84.6999 83.0058C93.9485 73.7572 98.9774 61.5029 98.9774 48.4971C98.8618 21.7919 76.9542 0 50.0178 0Z" fill="#F6E9E3"/>
<path d="M56.4336 12.1387C56.2602 12.1387 56.0868 12.1387 55.8556 12.1387C51.5781 12.1387 47.8209 12.6011 44.4683 13.4103C40.3642 14.4508 36.9538 16.0693 34.4683 18.3814C34.2949 18.3814 34.1215 18.3814 33.9481 18.3814C33.4856 18.3814 33.0232 18.3814 32.5608 18.4392C31.9249 18.4971 31.2891 18.6705 30.5955 18.9017C29.4394 19.3063 28.3411 19.8843 27.3007 20.7514C26.3758 21.5028 25.5087 22.4855 24.7573 23.6416C24.0637 24.682 23.4278 25.8381 22.792 27.2832C21.8671 29.4219 21.1157 31.8497 20.422 34.971C20.1908 36.0115 19.9596 37.2254 19.6706 38.5549L19.555 39.1329C19.4394 39.7109 19.3238 40.3468 19.2082 40.9248C19.0348 41.9075 18.8035 42.8323 18.5723 43.7572V43.6994V43.6416C18.1677 45.0288 17.7631 46.3583 17.2428 47.5722C16.7226 48.8439 16.0868 50.1734 15.3353 51.445C14.8729 52.2543 14.2949 53.0635 13.659 53.9306C13.2544 54.5086 12.8498 55.0866 12.3874 55.6647L11.8093 56.4739C10.6533 58.0346 9.43938 59.7687 8.34111 61.6184C7.24285 63.4681 6.4336 65.3757 5.91337 67.2832C5.45094 69.0173 5.21973 70.7514 5.21973 72.4855C5.21973 73.2947 5.27753 74.1618 5.39314 74.971C5.50874 75.7225 5.68215 76.4739 5.91337 77.341C6.31799 78.8439 6.95383 80.289 7.82088 81.734C9.38158 84.4508 11.7515 86.8207 14.6417 88.7283C15.6822 89.4219 16.8382 90.0577 18.1099 90.578C19.3816 91.156 20.7689 91.6184 22.3874 92.0809C22.6186 92.1965 22.9076 92.2543 23.1388 92.3699C24.1793 92.7167 25.3353 93.0057 26.5492 93.2369C28.5723 93.6416 30.7689 93.8728 33.5434 93.9884C34.8151 94.0462 36.1446 94.0462 37.185 94.0462H38.4567C39.266 94.0462 40.133 94.0462 40.9423 94.0462H41.8671C43.9481 94.0462 46.029 94.104 48.1099 94.104H48.6301C52.8498 94.104 58.4567 93.9884 64.0059 93.3525C65.2197 93.2369 66.4336 93.0635 67.7053 92.8323C68.6879 92.6589 69.7284 92.4855 70.9423 92.1965C72.9654 91.7918 74.5839 91.3872 76.0868 90.9248C77.9943 90.3468 79.6706 89.7109 81.2313 88.9017C82.9076 88.0346 84.4105 86.9942 85.5666 85.8381C86.1446 85.2601 86.7226 84.5664 87.1851 83.815C87.6475 83.1213 88.0521 82.3121 88.4567 81.2138C89.1504 79.3063 89.4394 77.1676 89.3238 74.971C89.2082 73.3525 88.9192 71.6184 88.2833 69.7109C87.7631 67.919 87.0116 66.1849 86.318 64.5086L85.9134 63.526C85.3353 62.1387 84.7573 60.6936 84.2371 59.3063C83.8902 58.3814 83.6012 57.5144 83.37 56.7051C83.081 55.7225 82.9076 54.8554 82.792 54.0462V53.9884C82.7342 53.2947 82.6764 52.6011 82.6764 51.9075C82.6764 51.2716 82.7342 50.578 82.8498 49.7687V49.8843C83.1388 47.7456 83.7746 45.6647 84.3527 43.6416C84.9307 41.6762 85.5087 39.7109 85.7978 37.6878C85.9712 36.5895 86.029 35.5491 86.029 34.5664C86.029 33.6416 85.9134 32.6589 85.6244 31.445C85.2775 29.6531 84.6417 27.8612 83.7746 26.1271C83.0232 24.5664 81.9827 23.0635 80.7689 21.6184C79.6706 20.3468 78.2833 19.0751 76.7804 17.9768C73.9481 15.8959 70.5377 14.3352 66.7804 13.3525C65.0463 12.8901 63.1388 12.6011 61.2313 12.4277C60.3064 12.3699 59.3816 12.3121 58.5723 12.3121C57.8209 12.1387 57.1272 12.1387 56.4336 12.1387Z" fill="#192E35"/>
<path d="M61.8094 23.1214C60.3065 23.1214 58.8614 23.237 57.3585 23.4104C57.3585 23.4104 57.3585 23.4104 57.4163 23.4104C55.9134 23.6416 54.4105 23.9306 52.9654 24.3353C51.5203 24.7399 50.0753 25.2023 48.7458 25.7804C47.5319 26.3006 46.318 26.8786 45.162 27.5723C44.0637 28.2081 42.9654 28.9596 41.9828 29.711C41.1157 30.4046 40.3065 31.0983 39.4972 31.8497C38.7458 32.6012 37.9943 33.4104 37.3585 34.2775C36.7805 35.0867 36.2024 35.896 35.6822 36.763C35.162 37.6301 34.7573 38.4971 34.3527 39.3642C34.3527 39.3642 34.3527 39.3642 34.3527 39.3064C33.8325 40.578 33.3701 41.9075 33.081 43.2948C32.5608 45.6648 32.3296 48.0925 31.8672 50.4624C31.6359 51.6763 31.3469 52.8902 30.9423 54.0463C30.5955 55.1445 30.1331 56.185 29.555 57.1676C29.0348 58.0347 28.4568 58.9018 27.8209 59.711C27.1851 60.5202 26.4336 61.3295 25.74 62.0809C24.9885 62.8324 24.2949 63.5838 23.5435 64.3931C22.792 65.2023 22.0984 66.0116 21.4625 66.8208C21.0001 67.3989 20.5955 67.9769 20.2487 68.6127C19.9018 69.1908 19.6128 69.8266 19.3238 70.4046C19.3238 70.4046 19.3238 70.4046 19.3238 70.3468C19.0348 71.0405 18.7458 71.7919 18.5724 72.5434C18.399 73.2948 18.2255 74.0463 18.1099 74.7977C18.1099 74.7977 18.1099 74.7977 18.1099 74.7399C17.9943 75.5491 17.9365 76.4162 17.9365 77.2832C17.9365 78.1503 17.9943 78.9596 18.1099 79.8266C18.1099 79.8266 18.1099 79.8266 18.1099 79.7688C18.2255 80.6937 18.399 81.6763 18.688 82.6012C18.8036 83.0636 18.977 83.5838 19.1504 84.0463C19.3238 84.5087 19.4972 84.9133 19.6706 85.3179C20.0174 86.185 20.4221 86.9942 20.8845 87.8035C21.3469 88.6127 21.8672 89.3642 22.4452 90.1156C22.9654 90.8093 23.5435 91.4451 24.1215 92.0231C24.2371 92.1387 24.4105 92.3121 24.5261 92.4278C25.162 92.6012 25.8556 92.7746 26.607 92.8902C28.6302 93.2948 30.8267 93.526 33.6013 93.6416C34.9307 93.6994 36.2024 93.6994 37.2429 93.6994H38.5146C39.3238 93.6994 40.1331 93.6994 41.0001 93.6994H41.925C44.0059 93.6994 46.0868 93.7572 48.1677 93.7572H48.688C52.9076 93.7572 58.4568 93.6416 64.0637 93.0058C65.2776 92.8902 66.5492 92.7168 67.7631 92.4856C68.7458 92.3122 69.844 92.1387 71.0001 91.8497C73.0232 91.4451 74.6417 91.0405 76.1446 90.578C77.3007 90.2312 78.3411 89.8844 79.3238 89.422C79.6706 88.9595 79.9596 88.4393 80.2487 87.9769C80.5377 87.5145 80.7689 87.052 81.0579 86.5896C81.2891 86.1272 81.5203 85.607 81.7516 85.1445C82.0984 84.2775 82.4452 83.4104 82.6764 82.4856C82.792 82.0231 82.9076 81.5607 83.0232 81.0405C83.1388 80.578 83.1966 80.1156 83.2544 79.6532C83.3122 78.9596 83.4279 78.3237 83.4279 77.6301C83.4857 76.8786 83.4857 76.0694 83.4857 75.3179C83.4857 74.5665 83.4279 73.815 83.37 73.0636C83.3122 72.37 83.2544 71.6763 83.1388 70.9827C82.9654 69.711 82.7342 68.4393 82.503 67.2254C82.2718 66.0116 81.9828 64.7977 81.6359 63.5838C81.4625 62.948 81.2891 62.3122 81.1735 61.6763L80.9423 60.8093C80.8845 60.5202 80.7689 60.1734 80.7111 59.8844C80.4799 58.7283 80.2487 57.5145 80.1909 56.3006C80.1331 55.1445 80.1331 53.9885 80.2487 52.8324C80.3643 51.7341 80.4799 50.6359 80.7111 49.5376C80.8845 48.3815 81.1735 47.2255 81.4047 46.1272C81.6359 44.9133 81.925 43.7572 82.1562 42.5434C82.3296 41.6185 82.503 40.6359 82.6186 39.711C82.8498 37.9769 82.9654 36.185 82.7342 34.4509C82.7342 34.4509 82.7342 34.4509 82.7342 34.5087C82.6764 34.0463 82.5608 33.5838 82.4452 33.1214C82.3874 32.8902 82.3296 32.7168 82.2718 32.4856C82.214 32.2543 82.0984 32.0809 82.0406 31.9075V31.9653C81.925 31.6763 81.7516 31.3873 81.6359 31.0983C81.4625 30.8671 81.3469 30.6359 81.1735 30.4046C81.0001 30.1734 80.8267 29.9422 80.5955 29.7688C80.4221 29.5954 80.2487 29.4798 80.0753 29.3064C79.7284 29.0174 79.4394 28.7861 79.0926 28.4971C78.2255 27.8613 77.3007 27.2254 76.3758 26.7052C75.451 26.185 74.5261 25.7226 73.5435 25.3179C72.3874 24.8555 71.1735 24.3931 69.9596 24.1041C68.7458 23.7572 67.4741 23.526 66.2024 23.3526C64.8151 23.1792 63.37 23.0636 61.9828 23.0636H61.8094V23.1214Z" fill="#0F1D21"/>
<path d="M31.4046 48.4393C31.2889 48.4393 31.1733 48.4393 31.0577 48.4393C30.7109 48.4393 30.3641 48.5549 29.9595 48.7283C29.2658 49.0174 28.5722 49.5954 27.9942 50.4625C27.6473 50.9249 27.4161 51.4451 27.1849 52.0231C27.0115 52.5434 26.8381 53.1214 26.7803 53.7572C26.6647 54.9133 26.8381 56.0694 27.2427 57.3411C27.6473 58.4393 28.2832 59.5376 29.0924 60.4625C29.497 60.9249 29.9595 61.3295 30.4219 61.6763C30.9421 62.0809 31.578 62.4278 32.2716 62.659C33.3121 63.0636 34.5259 63.2948 36.0288 63.3526C36.26 63.3526 36.4335 63.3526 36.6647 63.3526C37.7051 63.3526 38.7456 63.2948 39.7283 63.1792H39.9595C40.0751 63.1792 40.1907 63.0636 40.1907 63.0058C40.2485 62.948 40.2485 62.8324 40.2485 62.7168C40.2485 62.659 40.1907 62.5434 40.1329 62.4856C40.1907 61.5607 40.2485 60.8093 40.2485 60.1156C40.2485 59.5954 40.1907 58.9018 40.0751 58.2081C39.9595 57.5145 39.7283 56.8208 39.3236 55.9538C38.9768 55.1445 38.5722 54.3931 37.9942 53.5838C37.4739 52.7168 36.8381 51.9653 36.26 51.2717C35.6242 50.5203 34.9306 49.9422 34.2369 49.4798C33.4855 48.9596 32.734 48.6705 32.0404 48.4971C31.867 48.4971 31.6358 48.4393 31.4046 48.4393Z" fill="#FEBE9C"/>
<path d="M32.2144 53.237C32.041 53.6416 31.8676 54.0462 31.8098 54.5086C31.752 54.9133 31.752 55.3757 31.752 55.7803C31.8098 56.6474 32.0988 57.5144 32.5612 58.2659C32.7924 58.6705 33.0236 59.0173 33.3126 59.3063C33.6017 59.6531 33.8907 59.9422 34.2375 60.1734C34.8733 60.6936 35.6248 61.0404 36.434 61.2716C36.4918 61.2716 36.6074 61.2716 36.6074 61.156C36.6074 61.0982 36.6074 60.9826 36.4918 60.9826C36.3184 60.9248 36.2028 60.867 36.0294 60.8092C35.567 60.6358 35.1624 60.4046 34.8155 60.1156C34.4109 59.7687 34.0641 59.4219 33.7173 59.0173C33.3704 58.5549 33.0814 58.0346 32.8502 57.5144C32.6768 57.052 32.5612 56.5896 32.5034 56.1271C32.4456 55.7225 32.4456 55.3179 32.5034 54.9133C32.5612 54.5664 32.6768 54.1618 32.7924 53.815C32.8502 53.7572 32.8502 53.6416 32.908 53.5838C32.9658 53.4682 32.9658 53.4104 32.9658 53.2948C32.9658 53.1791 32.8502 53.1213 32.7924 53.0635C32.7346 53.0057 32.6768 53.0057 32.619 53.0057C32.3878 53.0635 32.2722 53.1213 32.2144 53.237Z" fill="#FF9B68"/>
<path d="M29.2664 52.1965C28.8618 52.3121 28.515 52.6011 28.226 52.8901C28.1682 52.9479 28.1682 53.0636 28.226 53.1214C28.2838 53.1792 28.3994 53.1792 28.4572 53.1214C28.5728 53.0058 28.6306 52.9479 28.7462 52.8901C28.8618 52.7745 29.0352 52.7167 29.2086 52.6589C29.382 52.6011 29.4976 52.5433 29.6711 52.5433C29.8445 52.5433 30.0757 52.5433 30.2491 52.5433C30.5381 52.6011 30.7693 52.6589 31.0583 52.7745C31.5208 52.948 31.9254 53.237 32.33 53.526C32.33 53.526 32.3878 53.526 32.3878 53.5838L32.4456 53.6416C32.5034 53.6994 32.5612 53.6994 32.619 53.6994C32.7346 53.6994 32.7924 53.6416 32.8502 53.5838C32.9081 53.526 32.9659 53.4104 32.9659 53.3526C32.9659 53.2948 32.9081 53.1792 32.8502 53.1214C32.2144 52.5433 31.3474 52.2543 30.4803 52.1387C30.4225 52.1387 30.3069 52.1387 30.2491 52.1387C29.9023 52.0231 29.6133 52.0809 29.2664 52.1965Z" fill="#FF9B68"/>
<path d="M82.2134 42.948C81.9822 42.948 81.6932 42.948 81.462 43.0058C80.7106 43.1792 79.9591 43.4682 79.2655 43.9885C78.5718 44.4509 77.8782 45.0289 77.2423 45.7804C76.6065 46.474 76.0285 47.2255 75.5082 48.0925C74.988 48.9018 74.5256 49.711 74.1788 50.4624C73.8319 51.3295 73.6007 52.0231 73.4273 52.7168C73.3117 53.4104 73.2539 54.1041 73.2539 54.6243C73.2539 55.3757 73.2539 56.1272 73.3695 56.9942C73.3117 57.052 73.2539 57.1098 73.2539 57.2255C73.2539 57.3411 73.2539 57.4567 73.3117 57.5145C73.3695 57.5723 73.4851 57.6879 73.6007 57.6879H73.8319H73.8897H73.9475C74.9302 57.7457 75.9129 57.8613 76.8955 57.8613C77.1267 57.8613 77.3001 57.8613 77.5314 57.8613C79.0342 57.8035 80.2481 57.5723 81.2886 57.1677C81.9822 56.8786 82.6181 56.5318 83.1383 56.185C83.6585 55.8382 84.0632 55.4335 84.4678 54.9711C85.277 54.0463 85.9129 52.948 86.3175 51.8497C86.7799 50.5781 86.8955 49.422 86.8377 48.2659C86.7799 47.6301 86.6643 47.052 86.4331 46.5318C86.2019 46.0116 85.9707 45.4914 85.6238 44.9711C85.0458 44.1041 84.41 43.526 83.6585 43.237C83.3117 43.0636 82.9071 43.0058 82.5603 42.948C82.4447 42.948 82.3291 42.948 82.2134 42.948Z" fill="#FEA97E"/>
<path d="M83.3697 45.0867C82.0403 45.3179 80.7686 45.8959 79.7281 46.763C79.2079 47.2254 78.6877 47.6878 78.283 48.2659C77.8784 48.8439 77.4738 49.4219 77.2426 50.1156C77.1848 50.3468 77.3004 50.578 77.4738 50.6358C77.5894 50.6936 77.705 50.6936 77.7628 50.6358C77.8784 50.578 77.9362 50.5202 77.994 50.4046C78.0518 50.2312 78.1674 50.0578 78.283 49.8844C78.6877 49.1329 79.1501 48.4971 79.7281 47.8612C80.2484 47.341 80.8264 46.8786 81.4044 46.474C81.4044 46.474 81.4044 46.474 81.3466 46.474C81.3466 46.474 81.3466 46.474 81.4044 46.474C81.4044 46.474 81.4044 46.474 81.4622 46.474C81.9247 46.1849 82.3293 46.0115 82.8495 45.8381C82.8495 45.8381 82.8495 45.8381 82.9073 45.8381C82.9073 45.8381 82.9073 45.8381 82.8495 45.8381C83.0807 45.7803 83.2541 45.7225 83.4854 45.7225C83.601 45.7225 83.7166 45.5491 83.7166 45.4335C83.6588 45.2023 83.5432 45.0867 83.3697 45.0867ZM78.2252 49.8266C78.2252 49.8844 78.1674 49.8844 78.1674 49.9422C78.2252 49.8844 78.2252 49.8266 78.2252 49.8266Z" fill="#CA8664"/>
<path d="M47.4743 68.2081C47.4743 68.2081 47.4165 68.2081 47.3587 68.2081C47.2431 68.2081 47.1275 68.2659 47.0697 68.3237C47.0119 68.3815 46.9541 68.4971 46.9541 68.6128C46.8963 69.422 46.8385 70.2313 46.8385 71.0405C46.7807 72.2544 46.7229 73.526 46.5495 74.7977V74.7399C46.3761 76.0116 46.0871 77.1099 45.6824 78.0347C45.3934 78.7284 45.0466 79.3064 44.642 79.8266C44.353 80.2313 44.0061 80.5781 43.6015 80.8671C43.1391 81.2139 42.6189 81.5029 42.0408 81.7919C41.0582 82.1966 40.0177 82.4278 38.6304 82.659C38.6304 82.659 38.6304 82.659 38.5726 82.659C37.879 82.7746 37.1275 82.8324 36.4339 82.8902C35.9137 82.948 35.3934 83.0058 34.8732 83.0636C34.0061 83.1792 33.2547 83.2948 32.561 83.4104C31.8096 83.5839 31.0582 83.8151 30.3645 84.1619C30.3067 84.2197 30.2489 84.2775 30.1911 84.3931C30.0177 84.5087 30.0177 84.7399 30.1333 84.9711C31.405 86.7052 33.0813 88.1503 35.1622 89.422C37.0119 90.5203 39.1506 91.4451 41.5784 92.081C43.7171 92.659 46.0293 93.1214 48.6304 93.3526C50.3067 93.5261 52.0408 93.5838 53.8327 93.5838C54.353 93.5838 54.931 93.5838 55.4512 93.5838C56.7807 93.526 57.9368 93.4682 59.035 93.3526C60.4223 93.237 61.8096 93.0058 63.1969 92.659C66.0293 92.0232 68.6882 91.0405 71.0582 89.711C72.2142 89.0752 73.3125 88.3237 74.353 87.5145C74.8732 87.1099 75.3934 86.6474 75.9137 86.185C76.4917 85.6648 77.0697 85.1445 77.5321 84.6243C77.59 84.5665 77.6478 84.5087 77.6478 84.3931H77.7056C77.7634 84.3931 77.7634 84.3931 77.7634 84.3931C77.879 84.3931 77.9368 84.2775 77.9946 84.2197C78.0524 84.1041 78.0524 84.0463 78.0524 83.9307C78.0524 83.8729 77.9368 83.7573 77.879 83.6995C77.4165 83.4682 76.9541 83.2948 76.4339 83.1792C76.0293 83.0636 75.5668 82.8902 74.9888 82.7746C74.642 82.7168 74.1796 82.6012 73.7749 82.5434C73.4859 82.4856 73.1391 82.4278 72.6767 82.4278C72.0408 82.37 71.3472 82.3122 70.7113 82.2544C69.9021 82.1966 69.035 82.1388 68.168 82.0232C67.1853 81.8497 66.3761 81.6763 65.6824 81.3873C65.22 81.2139 64.8154 80.9249 64.4686 80.6937C64.1796 80.4625 63.8905 80.1735 63.6593 79.8266C63.4281 79.4798 63.1969 79.133 63.0235 78.7284C62.7923 78.2081 62.6767 77.6879 62.5611 77.1099C62.4454 76.1272 62.4454 75.0867 62.6189 73.7573C62.7345 73.1214 62.8501 72.4856 62.9079 71.8498C62.9657 71.5607 63.0235 71.2139 63.0813 70.9249C63.1969 70.8671 63.2547 70.7515 63.2547 70.6359C63.2547 70.5203 63.2547 70.4047 63.1391 70.3469C63.0813 70.2891 62.9657 70.2313 62.8501 70.2313C60.1333 70.0578 57.4165 69.711 54.8154 69.3064C52.4454 68.7284 49.9599 68.3815 47.4743 68.2081Z" fill="#FEBE9C"/>
<path d="M47.3581 68.2081C47.2425 68.2081 47.1269 68.2659 47.0691 68.3237C47.0113 68.3815 46.9535 68.4971 46.9535 68.6128C46.8957 69.2486 46.8957 69.9422 46.8379 70.5781C47.2425 71.0405 47.7049 71.5607 48.1674 71.9654C48.8032 72.5434 49.439 73.1214 50.1327 73.6417C50.8263 74.1619 51.52 74.6243 52.2714 75.0289C52.9651 75.3758 53.6587 75.7226 54.3523 75.9538C55.046 76.185 55.7396 76.4162 56.4911 76.5896C57.1847 76.763 57.8205 76.8787 58.5142 76.9365C59.2078 76.9943 59.9015 77.0521 60.6529 76.9943H60.5951C61.231 76.9943 61.8668 76.9365 62.5026 76.8208C62.387 75.896 62.4448 74.8555 62.6182 73.526C62.7338 72.8902 62.7916 72.2544 62.9073 71.6763C62.9651 71.3295 63.0229 71.0405 63.0807 70.7515C63.1963 70.6937 63.2541 70.5781 63.2541 70.4625C63.2541 70.3469 63.1963 70.2313 63.1385 70.1734C63.0807 70.1156 62.9651 70.0578 62.8494 70.0578C60.1327 69.8844 57.4159 69.5376 54.8148 69.133C52.387 68.7862 49.9015 68.4393 47.4159 68.2659C47.4159 68.2081 47.4159 68.2081 47.3581 68.2081Z" fill="#FF9B68"/>
<path d="M77.0692 82.5433C77.0114 82.5433 76.9536 82.6011 76.8958 82.6589C76.3756 83.2948 75.7398 83.8728 75.0461 84.4509C73.0808 85.9537 70.8265 87.052 68.919 87.8613C68.0519 88.2081 67.3005 88.5549 66.6068 88.7861C65.7976 89.0751 64.9883 89.3641 64.1791 89.5954C62.5606 90.0578 60.8843 90.4624 59.1502 90.6936C57.2426 90.9826 55.3351 91.0983 53.4276 91.0983C51.9825 91.0983 50.4796 91.0404 49.0346 90.867C45.9132 90.5202 42.9074 89.711 40.1328 88.6127L40.1906 88.6705H40.2484C37.7629 87.63 35.4507 86.3584 33.4276 84.7977C32.8496 84.3352 32.2716 83.8728 31.6935 83.3526C31.6935 83.3526 31.6357 83.2948 31.5779 83.2948C31.5201 83.237 31.4045 83.1792 31.2889 83.1792H31.2311C28.7455 83.5838 26.26 84.6243 23.601 86.3584C22.445 87.1098 21.2889 88.0347 20.1906 89.0173C19.2658 89.8266 18.4565 90.7514 17.7051 91.6763C17.7629 91.7341 17.7629 91.7341 17.8207 91.7919C17.9941 91.9075 18.1675 92.0809 18.3409 92.1965C19.9016 93.4104 21.6935 94.3352 23.4854 95.0867C24.6993 95.6069 25.971 96.0693 27.3005 96.474C28.6299 96.8786 29.9594 97.2254 31.2889 97.5722C33.9479 98.2081 36.6646 98.6705 39.3814 99.0751C39.4392 99.0751 39.4392 99.0751 39.497 99.0751C44.2369 99.711 49.0346 100 53.7744 100C58.5721 100 63.3698 99.711 68.1097 99.0751C68.1097 99.0751 68.1097 99.0751 68.0519 99.0751C70.7687 98.7283 73.5432 98.2081 76.2022 97.5722C78.8612 96.9364 81.4623 96.1272 83.9479 95.0867C83.9479 95.0867 83.9479 95.0867 83.89 95.0867C85.7398 94.3352 87.4739 93.4104 89.0924 92.1965C89.4392 91.9075 89.786 91.6763 90.075 91.3873C90.2484 91.2139 90.4218 91.0404 90.5953 90.867C90.6531 90.8092 90.7109 90.7514 90.7687 90.6936C90.0172 89.8266 89.1502 89.0173 88.1097 88.2081C87.127 87.3988 86.0288 86.6474 84.8149 85.8959C83.6588 85.2023 82.445 84.5665 81.2311 83.9884C80.0172 83.4104 78.8033 82.948 77.5895 82.6011C77.5317 82.6011 77.5317 82.6011 77.4739 82.6011C77.2427 82.4855 77.127 82.4855 77.0692 82.5433Z" fill="#EF306C"/>
<path d="M77.0698 82.5433C77.0119 82.5433 76.9541 82.6011 76.8963 82.6589C76.3761 83.2947 75.7403 83.8728 75.0466 84.4508C73.0813 85.9537 70.827 87.0519 68.9195 87.8612C68.0524 88.208 67.3588 88.497 66.6073 88.7861C65.8559 89.0751 65.0466 89.3063 64.1796 89.5953C62.5611 90.0577 60.8848 90.4623 59.1507 90.6936C57.2432 90.9826 55.3356 91.0982 53.4281 91.0982C51.983 91.0982 50.4802 91.0404 49.0351 90.867C45.9137 90.5202 42.9079 89.7687 40.1333 88.6126L40.1911 88.6704C37.7056 87.63 35.3934 86.3005 33.4281 84.7976C32.7923 84.3352 32.2143 83.8728 31.694 83.3525C31.6362 83.3525 31.6362 83.2947 31.5784 83.2947C31.5206 83.2369 31.405 83.1791 31.2894 83.1791H31.2316C30.3067 83.2947 29.3819 83.5837 28.457 83.8728C28.8039 84.393 29.2085 84.8554 29.6709 85.3178C30.1333 85.7803 30.5958 86.2427 31.116 86.6473C32.7345 87.9768 34.5842 89.0751 36.4917 89.9999C39.7287 91.5028 43.2547 92.5433 46.7807 93.1213C48.5726 93.4103 50.4223 93.6415 52.2721 93.6994C53.1969 93.7572 54.1218 93.7572 55.0466 93.6994C55.9715 93.6994 56.8385 93.6415 57.7634 93.5259C57.7634 93.5259 57.7634 93.5259 57.7056 93.5259C59.7287 93.3525 61.7518 92.9479 63.775 92.4855C65.3356 92.0809 66.8963 91.6184 68.3992 91.0404C71.2316 89.9421 74.0062 88.5548 76.4917 86.8207C77.301 86.2427 78.1102 85.6069 78.8617 84.9132C79.3819 84.4508 79.8443 83.9884 80.3067 83.4681C79.3819 83.0635 78.3992 82.7167 77.4744 82.4855C77.4166 82.4855 77.3588 82.4855 77.3588 82.4855C77.2432 82.4855 77.1276 82.4855 77.0698 82.5433Z" fill="#F55E84"/>
<path d="M52.4455 14.7977C51.0004 14.7977 49.4975 14.8555 48.0524 15.0289C46.8963 15.1446 45.7981 15.318 44.6998 15.5492C43.7171 15.7804 42.7345 16.0116 41.6362 16.3584C39.3819 17.0521 37.3588 17.9191 35.4513 19.0174C33.3703 20.2313 31.6362 21.6185 30.3067 23.1214C29.6131 23.9307 29.0351 24.7977 28.5726 25.7804C28.1102 26.7052 27.7634 27.7457 27.59 28.844C27.3588 30.1157 27.3588 31.5029 27.4744 32.948C27.59 34.1619 27.879 35.4336 28.2836 36.8787C28.9195 39.0752 29.8443 41.2139 30.7692 43.237C30.9426 43.6417 31.116 44.0463 31.2894 44.3931C32.0408 46.0694 32.7345 47.9191 33.3125 49.7688C33.6015 50.8671 33.8906 52.0232 34.064 53.3526C34.1218 53.6417 34.1796 53.9885 34.1796 54.2775C34.2952 55.0289 34.4108 55.8382 34.5842 56.5896C34.8154 57.7457 35.1622 58.6706 35.6825 59.5376C35.9715 60 36.3183 60.4625 36.7229 60.9249C36.9541 61.1561 37.1854 61.3873 37.4166 61.6185C37.5322 61.7341 37.7056 61.8498 37.8212 62.0232C37.9368 62.1388 38.0524 62.1966 38.168 62.3122C38.3414 62.4856 38.457 62.659 38.5726 62.8324C38.5726 62.948 38.6304 63.0058 38.6304 63.0636C39.7865 65.0868 41.405 66.9365 43.4859 68.555C45.4513 70.0578 47.6478 71.3295 50.1333 72.3122C52.5033 73.237 54.8732 73.7573 57.301 73.9307C57.7634 73.9885 58.2836 73.9885 58.7461 73.9885C59.3819 73.9885 60.0177 73.9885 60.7114 73.9307C61.8096 73.8729 62.9657 73.7573 64.1218 73.5261C68.7461 72.7746 72.8501 70.9249 75.8559 68.2659C77.4166 66.8787 78.7461 65.2024 79.7287 63.3526C80.1911 62.4278 80.6536 61.3873 80.9426 60.2891C81.2316 59.1908 81.4628 58.0925 81.5784 56.8209C81.694 55.8382 81.694 54.8555 81.6362 53.8151C81.5784 52.8324 81.4628 51.7341 81.2316 50.4047C81.0582 49.422 80.8848 48.4393 80.7114 47.5145C80.4802 46.3006 80.2489 44.9711 80.0177 43.7573V43.6995C79.9021 42.8902 79.8443 42.1388 79.8443 41.4451C79.7865 40.6937 79.7865 40 79.7865 39.2486V38.4394C79.7287 37.2833 79.7287 36.1272 79.6709 34.9711C79.5553 33.4104 79.3819 32.0232 79.1507 30.8093C78.8617 29.422 78.457 28.0347 77.879 26.763C77.5322 26.0116 77.1276 25.2024 76.6073 24.4509C76.6073 24.3931 76.5495 24.2775 76.5495 24.2197C74.8154 22.4278 72.7923 20.8671 70.538 19.5376C68.3992 18.2659 65.9715 17.2833 63.4281 16.5318C59.8443 15.318 56.2027 14.7977 52.4455 14.7977Z" fill="#FEBE9C"/>
<path d="M54.121 14.0463C53.4273 14.0463 52.6759 14.0463 51.9244 14.1041C49.1499 14.2197 46.4331 14.6243 43.7742 15.3179C41.173 15.9538 38.6875 16.8208 36.4331 17.9191C35.1614 18.5549 34.0632 19.1908 33.0805 19.8844C32.0401 20.6359 31.0574 21.5029 30.2481 22.37C29.4389 23.237 28.6875 24.2197 28.1094 25.2601C27.5314 26.2428 27.0112 27.2833 26.6065 28.4393C25.8551 30.5203 25.3927 32.8902 25.2192 35.4914C25.1036 37.8035 25.2192 40.2312 25.6239 42.948C25.8551 44.6243 26.2019 46.4162 26.6643 48.2659C26.6065 48.4393 26.6643 48.6127 26.7799 48.6705C27.4158 49.0752 28.1094 49.422 28.8031 49.5954C29.1499 49.711 29.4967 49.7688 29.8435 49.7688C30.0747 49.8266 30.3638 49.8266 30.7106 49.8266C30.8262 49.8266 30.884 49.8266 30.9996 49.8266C31.6354 49.8266 32.3291 49.711 33.1383 49.4798C33.7742 49.3064 34.4678 49.0752 35.1614 48.7283C35.6239 48.4971 36.0285 48.2659 36.4331 48.0347L36.5487 47.9769C37.0112 47.6879 37.4736 47.3989 37.936 47.1677C39.0343 46.4162 39.9591 45.7226 40.7106 44.9711C41.0574 44.6243 41.4042 44.2197 41.6354 43.8729C41.9245 43.4682 42.0979 43.0636 42.2135 42.659C42.3291 42.2544 42.3869 41.7919 42.3291 41.3873C42.2713 40.9827 42.1557 40.6359 41.9823 40.289C41.8088 40 41.5776 39.711 41.2886 39.4798C41.0574 39.2486 40.7106 39.0752 40.4216 38.9018C40.1325 38.7283 39.8435 38.6127 39.6123 38.4971C39.3233 38.3815 39.0343 38.2659 38.8031 38.0925C38.6297 37.9769 38.4562 37.8613 38.3406 37.7457C38.2828 37.6879 38.225 37.5723 38.1672 37.5145C38.1094 37.4567 38.1094 37.3989 38.1094 37.3411C38.1094 37.2833 38.0516 37.1677 38.0516 37.052C38.0516 36.9364 38.0516 36.763 38.1094 36.5896C38.1672 36.3006 38.3406 36.0116 38.514 35.607C38.6875 35.3179 38.9187 35.0289 39.1499 34.6821C39.3811 34.3931 39.6123 34.1041 39.7857 33.7572C39.9013 33.4682 40.0169 33.1214 39.9591 32.7746C39.9591 32.5434 39.9013 32.3122 39.7857 32.1388C39.6701 31.9075 39.5545 31.6185 39.4389 31.4451C39.2077 31.0983 38.9765 30.8093 38.6297 30.5203C38.3406 30.289 37.9938 30.1156 37.5314 29.9422C37.3002 29.8266 37.0112 29.7688 36.7799 29.711C36.3175 29.5954 35.7973 29.422 35.3927 29.1908C35.2192 29.0752 35.0458 28.9596 34.9302 28.844C34.7568 28.6127 34.5834 28.4393 34.41 28.2081C34.3522 28.1503 34.3522 28.0347 34.2944 27.9191C34.2944 27.8613 34.2944 27.8613 34.2944 27.8035V27.7457C34.2944 27.6879 34.2944 27.6879 34.3522 27.6301C34.41 27.5145 34.4678 27.4567 34.5834 27.3989C34.6412 27.3411 34.7568 27.2255 34.8146 27.1677C35.0458 26.9364 35.3349 26.7052 35.5083 26.4162C35.6817 26.185 35.7395 25.9538 35.8551 25.7226L35.9129 25.607C36.0285 25.3757 36.0863 25.1445 36.1441 24.9711C36.2019 24.5665 35.9129 24.2775 35.6817 23.9885L35.5661 23.8729C35.3349 23.5838 35.1036 23.237 34.9302 22.948C34.7568 22.7168 34.6412 22.5434 34.5256 22.3122C34.41 22.1388 34.3522 21.9653 34.2366 21.7341C34.2366 21.6763 34.2366 21.6185 34.1788 21.5029C34.1788 21.4451 34.1788 21.4451 34.1788 21.3873C34.1788 21.3295 34.1788 21.3295 34.2366 21.2717C34.2944 21.2139 34.2944 21.1561 34.3522 21.1561C34.41 21.0983 34.5256 20.9827 34.6412 20.9249C35.1036 20.6937 35.6239 20.5203 36.1441 20.4046C36.8377 20.2312 37.4736 20.0578 38.225 20.0578C38.4562 20.0578 38.6875 20.1156 38.9187 20.1156C39.0921 20.1734 39.2655 20.2312 39.3811 20.289C39.4967 20.3468 39.6123 20.4624 39.7279 20.5781C39.9591 20.8093 40.1325 21.0983 40.306 21.3295C40.4216 21.5607 40.595 21.7341 40.7684 21.9653C40.884 22.0809 40.9418 22.1966 41.0574 22.2544C41.173 22.37 41.3464 22.4278 41.462 22.5434C41.751 22.7168 42.0979 22.8324 42.4447 22.8902C42.5603 22.8902 42.6181 22.8902 42.7337 22.8902C43.1961 22.8902 43.6586 22.7746 44.2366 22.4856C44.41 22.4278 44.5834 22.3122 44.699 22.2544C45.1036 22.0809 45.5083 21.8497 45.9129 21.7341C46.1441 21.6763 46.3753 21.6763 46.5487 21.6763C46.7799 21.6763 47.0112 21.7341 47.2424 21.7919C47.5314 21.8497 47.8782 22.0231 48.1672 22.1966C48.6875 22.4856 49.2077 22.948 49.8435 23.526C50.2481 23.9307 50.6528 24.3931 51.0574 24.8555C51.4042 25.2601 51.8088 25.7226 52.1557 26.1272C52.3291 26.3006 52.5025 26.5318 52.7337 26.7052C52.9649 26.9364 53.1961 27.1098 53.4851 27.3411L53.5429 27.3989C54.121 27.8613 54.699 28.2659 55.3349 28.6705C56.5487 29.4798 57.8782 30.1734 59.2655 30.7515C60.5372 31.2717 61.9823 31.7341 63.4851 32.0809C64.8724 32.4278 66.3175 32.6012 67.8782 32.7168C68.5718 32.7746 69.3233 32.7746 70.0169 32.7746C70.8262 32.7746 71.5776 32.7168 72.3291 32.659C73.832 32.5434 75.2771 32.2544 76.6643 31.8497C78.1094 31.4451 79.4389 30.8093 80.7106 30.0578C80.7684 30 80.884 29.9422 80.9418 29.9422C80.9996 29.8844 81.0574 29.8266 81.1152 29.711C81.1152 29.5954 81.1152 29.4798 81.0574 29.422C80.9996 29.3064 80.884 29.2486 80.7684 29.2486C79.2077 26.5318 77.3002 23.9885 74.8724 21.7341C73.7164 20.6359 72.5025 19.6532 71.2308 18.7861C70.2481 18.0925 69.1499 17.5145 67.936 16.9364C65.6817 15.896 63.2539 15.2023 60.3638 14.7399C58.1672 14.2197 56.1441 14.0463 54.121 14.0463Z" fill="#192E35"/>
<path d="M33.0227 20.8092C32.9649 21.0982 33.0227 21.4451 33.1383 21.7341C33.2539 22.0231 33.4273 22.3121 33.6007 22.6011C33.9475 23.1214 34.41 23.526 34.8146 24.0462C34.9302 24.2196 35.0458 24.393 35.1036 24.5665C35.1614 24.6821 35.1614 24.8555 35.2192 25.0289C35.2192 25.2023 35.2192 25.3179 35.2192 25.4913C35.1614 25.7225 35.1036 25.8959 35.0458 26.1271C34.8146 26.6474 34.4678 27.1098 34.2365 27.5722C34.1209 27.8034 34.0631 28.0347 34.0631 28.2659C34.0631 28.3815 34.0631 28.4971 34.1209 28.6705C34.1209 28.7283 34.1787 28.8439 34.2365 28.9017C34.2944 28.9595 34.3522 29.0751 34.41 29.1329C34.5256 29.2485 34.6412 29.3641 34.7568 29.4797C34.9302 29.5954 35.1036 29.711 35.277 29.8266C35.566 30 35.9128 30.1734 36.2597 30.289C36.8377 30.5202 37.4735 30.6358 37.9938 30.9248C38.225 31.0404 38.3984 31.156 38.5718 31.2717C38.6874 31.3873 38.803 31.4451 38.8608 31.5607C38.9186 31.6763 38.9764 31.7919 39.0342 31.9075C39.092 32.0809 39.1498 32.3121 39.1498 32.4855C39.1498 32.7167 39.1498 32.948 39.1498 33.1214C39.092 33.4104 38.9764 33.6416 38.9186 33.9306C38.514 34.7977 37.8204 35.6069 37.4735 36.5318C37.3001 36.9942 37.2423 37.5144 37.3579 37.9769C37.4157 38.2081 37.5313 38.4393 37.647 38.6705C37.8204 38.9595 38.0516 39.2485 38.3406 39.4798C38.3984 39.5376 38.514 39.5954 38.6296 39.5954C38.7452 39.5954 38.803 39.5376 38.9186 39.4798C38.9764 39.4219 39.0342 39.3063 39.0342 39.1907C39.0342 39.0751 38.9764 38.9595 38.9186 38.9017C38.7452 38.7283 38.5718 38.5549 38.3984 38.3815C38.3406 38.2659 38.225 38.1503 38.1672 37.9769C38.1094 37.8613 38.1094 37.6878 38.0516 37.5722C38.0516 37.3988 38.0516 37.2832 38.0516 37.1098C38.1094 36.8786 38.1672 36.6474 38.2828 36.4162C38.6296 35.6647 39.1498 34.9711 39.5545 34.2196C39.6701 34.0462 39.7279 33.815 39.7857 33.6416C39.8435 33.4104 39.9013 33.1792 39.9013 32.948C39.9013 32.7167 39.9013 32.4855 39.9013 32.2543C39.9013 32.0231 39.8435 31.7919 39.7279 31.5607C39.6123 31.2139 39.3811 30.867 39.092 30.578C38.803 30.289 38.4562 30.1156 38.1094 30C37.7626 29.8266 37.3579 29.711 37.0111 29.5954C36.6643 29.4797 36.3175 29.3641 35.9707 29.1907C35.6816 29.0751 35.3926 28.9017 35.1036 28.6705C35.0458 28.6127 34.9302 28.5549 34.8724 28.4393C34.8146 28.3815 34.8146 28.3237 34.7568 28.2659C34.7568 28.2081 34.7568 28.2081 34.699 28.1503C34.699 28.0925 34.699 28.0347 34.699 27.9769C34.699 27.8613 34.7568 27.7456 34.8146 27.6878C34.988 27.2832 35.277 26.8786 35.5082 26.474C35.6238 26.2428 35.7394 25.9537 35.7972 25.7225C35.855 25.4335 35.9128 25.0867 35.855 24.7399C35.7972 24.1618 35.5082 23.6416 35.1036 23.1792C34.7568 22.7745 34.41 22.3699 34.0631 21.9653C33.9475 21.7919 33.8319 21.6185 33.7741 21.4451C33.7163 21.3295 33.7163 21.2139 33.6585 21.0982C33.6585 20.9826 33.6585 20.867 33.6585 20.7514C33.6585 20.5202 33.4851 20.3468 33.3117 20.3468C33.1961 20.4624 33.0805 20.578 33.0227 20.8092Z" fill="#192E35"/>
<path d="M33.3703 20.5781C33.3125 20.7515 33.3125 20.9249 33.3125 21.0983C33.3125 21.2717 33.3125 21.4451 33.3703 21.6185C33.4859 21.9654 33.6593 22.2544 33.8905 22.5434C34.2952 23.0636 34.8732 23.4683 35.2778 24.0463C35.3934 24.1619 35.4512 24.3353 35.509 24.4509C35.5668 24.6243 35.6246 24.7977 35.6246 24.9711C35.6246 25.2024 35.6246 25.4336 35.6246 25.6648C35.5668 26.0694 35.3934 26.474 35.22 26.8209C34.8154 27.5723 34.353 28.3237 33.8905 29.0174C33.7749 29.1908 33.8327 29.422 34.0061 29.5376C34.1796 29.6532 34.4108 29.5954 34.5264 29.422C34.9888 28.7284 35.4512 28.0347 35.798 27.3411C36.1449 26.5896 36.4339 25.7804 36.3761 24.9711C36.3761 24.6243 36.2605 24.2775 36.0871 23.9307C35.9715 23.6417 35.7402 23.4104 35.5668 23.1792C35.1622 22.7168 34.6998 22.37 34.353 21.8498C34.2952 21.7341 34.1796 21.6185 34.1217 21.4451C34.0639 21.3295 34.0639 21.2139 34.0639 21.1561C34.0639 21.0405 34.0639 20.9249 34.0639 20.8093V20.7515C34.0639 20.6359 34.0639 20.5781 34.0639 20.4625C34.0061 20.4047 33.9483 20.2891 33.8327 20.2891C33.7749 20.2891 33.7749 20.2891 33.7171 20.2891C33.5437 20.2891 33.3703 20.4047 33.3703 20.5781Z" fill="#192E35"/>
<path d="M18.7455 50.0578C18.1675 51.2717 17.5316 52.4856 16.838 53.6416C16.1443 54.8555 15.4507 56.0116 14.7571 57.2254C14.0634 58.4393 13.3698 59.5954 12.7339 60.8093C12.0981 61.9653 11.5201 63.1792 10.9998 64.4509C10.4796 65.6647 10.0172 66.8786 9.67036 68.1503C9.32354 69.3642 9.09232 70.6358 9.03452 71.9075C8.97672 73.1792 9.03452 74.5087 9.26573 75.7804C9.49695 77.1098 10.0172 78.4393 10.5952 79.6532C10.942 80.4046 11.4045 81.0983 11.8669 81.7919C12.4449 82.6012 13.023 83.3526 13.7166 84.0462C14.0056 84.3353 14.5258 84.3353 14.8149 84.0462C14.9305 83.8728 15.0461 83.6994 15.0461 83.526C15.0461 83.4682 15.0461 83.4104 15.0461 83.2948C14.9883 83.1792 14.9305 83.0636 14.8727 82.948C14.5259 82.5434 14.2368 82.1387 13.89 81.7341C12.9652 80.5202 12.1559 79.1908 11.5201 77.8035C11.0576 76.6474 10.7108 75.3757 10.4796 74.104C10.3062 72.7746 10.364 71.3873 10.5374 70.0578C10.7108 68.9595 10.942 67.8613 11.2311 66.8208C11.5201 65.7225 11.9247 64.6821 12.3293 63.6416C13.312 61.3873 14.4102 59.133 15.6241 56.9942C16.838 54.7977 17.9941 52.5434 19.0923 50.289C19.1501 50.1734 19.0923 50.0578 19.0345 50C18.9767 50 18.9767 50 18.9189 50C18.8611 49.9422 18.8033 49.9422 18.7455 50.0578ZM10.4796 74.0463V74.104C10.4796 74.0462 10.4796 74.0463 10.4796 74.0463ZM11.4623 77.6879V77.7457C11.5201 77.7457 11.5201 77.7457 11.4623 77.6879Z" fill="#0F1D21"/>
<path d="M38.7457 40.6359C38.4567 41.2717 38.1099 41.8497 37.6474 42.4278C37.0116 43.2948 36.2023 44.0463 35.3931 44.6821C34.9307 45.0289 34.4682 45.318 34.0058 45.607C33.5434 45.896 33.081 46.0694 32.5607 46.3006C32.4451 46.3584 32.2717 46.4162 32.1561 46.474C31.9827 46.5318 31.8671 46.5896 31.8093 46.763C31.7515 46.8786 31.6937 47.0521 31.7515 47.2255C31.8093 47.3989 31.8671 47.5145 32.0405 47.5723C32.1561 47.6301 32.3295 47.6879 32.5029 47.6301C32.8497 47.4567 33.1966 47.2833 33.5434 47.1099C33.8902 46.8786 34.237 46.6474 34.5839 46.4162C35.2775 45.9538 35.9133 45.4336 36.4914 44.8555C37.0694 44.2775 37.5896 43.6417 38.1099 43.0058C38.5723 42.37 38.9191 41.6763 39.2659 40.9249C39.3237 40.8093 39.3237 40.6359 39.1503 40.5781C39.0925 40.5781 39.0925 40.5203 39.0347 40.5203C38.8613 40.5203 38.7457 40.5203 38.7457 40.6359ZM32.5607 46.3006C32.5029 46.3006 32.5029 46.3584 32.4451 46.3584C32.4451 46.3006 32.5029 46.3006 32.5607 46.3006Z" fill="#0F1D21"/>
<path d="M36.5496 32.1965C36.5496 32.5433 36.5496 32.8901 36.5496 33.237C36.4918 33.6994 36.3184 34.1618 36.145 34.6242C36.145 34.6242 36.145 34.5664 36.2028 34.5664C35.9716 35.1445 35.6248 35.7225 35.2201 36.2427C34.9311 36.5896 34.5843 36.9364 34.2375 37.2254C34.0641 37.3988 34.0641 37.6878 34.2375 37.8034C34.4109 37.9768 34.6421 37.9768 34.8155 37.8034C35.567 37.052 36.2028 36.1849 36.6074 35.2601C37.012 34.2774 37.1855 33.237 37.1277 32.1965C37.1277 32.0231 37.012 31.9075 36.8386 31.9075C36.6652 31.9075 36.4918 32.0231 36.5496 32.1965ZM35.2201 36.1271L35.1623 36.1849C35.1623 36.1849 35.1623 36.1271 35.2201 36.1271Z" fill="#0F1D21"/>
<path d="M49.2661 20.6359C49.9598 21.0405 50.5956 21.5029 51.2893 21.9654C51.2893 21.9654 51.2893 21.9654 51.2315 21.9654C52.3297 22.7746 53.3702 23.6417 54.4107 24.5087C55.4511 25.3758 56.6072 26.185 57.7632 26.8787C58.3413 27.2255 58.9771 27.5723 59.5552 27.9191C60.2488 28.2659 60.9424 28.555 61.6361 28.7862C62.3875 29.0752 63.0812 29.3064 63.8326 29.4798C64.5841 29.6532 65.3355 29.8266 66.087 30C67.0696 30.1735 68.0523 30.2891 69.0927 30.2891C70.0754 30.3469 71.0002 30.2891 71.9829 30.1735C72.9656 30.0578 73.9482 29.8844 74.9309 29.5954C75.3933 29.4798 75.8557 29.3064 76.3182 29.133C76.8384 28.9596 77.3586 28.7284 77.8789 28.4393C78.1679 28.2659 78.2835 27.9191 78.2257 27.5723C78.1679 27.3989 78.0523 27.2255 77.8789 27.1099C77.7054 26.9943 77.4742 26.9943 77.3008 27.0521C76.8962 27.2255 76.4916 27.3989 76.0869 27.5145C75.6823 27.6879 75.2199 27.8035 74.7575 27.9769C73.9482 28.2081 73.139 28.3815 72.2719 28.555C70.5378 28.7862 68.7459 28.844 67.0118 28.6706C65.9135 28.555 64.7575 28.3815 63.6592 28.0925C62.5609 27.8035 61.4049 27.5723 60.3644 27.1677C60.4222 27.1677 60.4222 27.2255 60.48 27.2255C60.3644 27.1677 60.3066 27.1677 60.191 27.1099C60.2488 27.1099 60.2488 27.1677 60.3066 27.1677C59.2661 26.763 58.3413 26.3006 57.4164 25.7226C56.4916 25.2024 55.6245 24.5665 54.7575 23.9885C53.8904 23.4104 53.0234 22.7746 52.1563 22.1966C51.2315 21.5607 50.3066 20.9827 49.3817 20.4047H49.3239C49.2083 20.4047 49.1505 20.5781 49.2661 20.6359Z" fill="#0F1D21"/>
<path d="M59.7857 25.2023C59.7279 25.2601 59.7857 25.3757 59.8435 25.3757C60.4793 25.6647 61.0573 25.8959 61.6932 26.1271H61.6354C61.9244 26.2427 62.2712 26.3583 62.5602 26.474C62.9071 26.5896 63.2539 26.7052 63.6585 26.763C64.0053 26.8208 64.3521 26.9364 64.6412 26.9942C64.988 27.052 65.3926 27.1098 65.7394 27.1676C65.7972 27.1676 65.9128 27.1098 65.9706 27.052C66.0284 26.9942 66.0862 26.8786 66.0862 26.8208C66.0862 26.763 66.0284 26.6474 65.9706 26.5896C65.9128 26.5318 65.7972 26.474 65.7394 26.474C65.3348 26.474 64.988 26.4161 64.5834 26.4161H64.6412C63.8897 26.3583 63.0805 26.1271 62.329 25.9537C61.9822 25.8381 61.6354 25.7225 61.2307 25.6069C60.8261 25.4913 60.4793 25.3179 60.0747 25.2023C60.0747 25.2023 60.0747 25.2023 60.1325 25.2023C60.0169 25.1445 59.9591 25.1445 59.8435 25.0867H59.7857C59.8435 25.0867 59.7857 25.1445 59.7857 25.2023Z" fill="#0F1D21"/>
<path d="M64.7575 59.1908C64.6997 59.1908 64.6419 59.1908 64.5841 59.1908C64.2373 59.1908 63.8905 59.2486 63.4858 59.3642C63.139 59.4798 62.7922 59.5954 62.5032 59.8266C62.1563 60.0578 61.8673 60.2891 61.6361 60.6359C61.5783 60.7515 61.5205 60.8093 61.5205 60.9249C61.5205 61.0405 61.5783 61.1561 61.6361 61.2139C61.6939 61.2717 61.8095 61.3295 61.9251 61.3295C62.0407 61.3295 62.1563 61.2717 62.2142 61.2139C62.4454 60.9827 62.6188 60.7515 62.85 60.5781C63.0812 60.4047 63.3702 60.2313 63.6592 60.1157C63.9483 60 64.2373 59.9422 64.5263 59.8844C64.6419 59.8844 64.8153 59.8844 64.9309 59.8844C65.0465 59.8844 65.1621 59.8844 65.2777 59.8844C65.3355 59.8844 65.3933 59.8844 65.5089 59.9422H65.5668C65.7402 59.9422 65.8558 59.8266 65.9136 59.711C65.9136 59.6532 65.9136 59.5376 65.8558 59.422C65.798 59.3642 65.7402 59.3064 65.6824 59.3064C65.3933 59.1908 65.1043 59.1908 64.7575 59.1908Z" fill="#192E35"/>
<path d="M54.2377 39.8266C53.8331 39.1907 51.9833 39.6532 50.1914 40.8092C48.3417 42.0231 47.2435 43.4682 47.6481 44.104C48.0527 44.7399 49.9024 44.2774 51.6943 43.1214C53.4862 41.9075 54.6423 40.4624 54.2377 39.8266Z" fill="#0F1D21"/>
<path d="M77.4164 41.2138C77.7054 40.578 76.4337 39.3641 74.5262 38.497C72.6187 37.63 70.8846 37.5144 70.5956 38.1502C70.3066 38.7861 71.5783 39.9999 73.4858 40.867C75.3355 41.734 77.1274 41.9074 77.4164 41.2138Z" fill="#0F1D21"/>
<path d="M53.2537 48.6705H53.1959C52.8491 48.7283 52.5601 49.0752 52.3867 49.5954C52.2133 50.1734 52.1555 50.8671 52.2711 51.6185C52.4445 53.1214 53.1381 54.2775 53.8318 54.2775H53.8896C54.2364 54.2197 54.5254 53.8728 54.6988 53.3526C54.8722 52.7746 54.93 52.0809 54.8144 51.3295C54.641 49.8844 53.9474 48.6705 53.2537 48.6705Z" fill="#192E35"/>
<path d="M73.1385 45.3757H73.0807C72.7339 45.4335 72.4449 45.7804 72.2715 46.3006C72.098 46.8786 72.0402 47.5723 72.1558 48.3237C72.3293 49.8266 73.0229 50.9827 73.7165 50.9827H73.7743C74.1212 50.9249 74.4102 50.578 74.5836 50.0578C74.757 49.4798 74.8148 48.7861 74.6992 48.0347C74.5258 46.5318 73.8322 45.3757 73.1385 45.3757Z" fill="#192E35"/>
<path d="M64.8732 43.526C64.7576 43.526 64.642 43.6416 64.642 43.7572C64.5842 44.8555 64.5842 45.8959 64.642 46.9364C64.6998 47.9191 64.8154 49.0173 64.931 50.1734C64.931 50.289 65.0466 50.3468 65.1622 50.3468H65.22C65.7403 50.1156 66.2027 50 66.6651 49.9422C66.8385 49.9422 66.9541 49.9422 67.1275 49.9422C67.2431 49.9422 67.3587 49.9422 67.4744 49.9422C67.6478 50 67.8212 50 67.9946 50.0578C68.1102 50.1156 68.2258 50.1734 68.3414 50.289C68.457 50.3468 68.5148 50.4624 68.6304 50.578C68.746 50.6936 68.8038 50.8092 68.8616 50.9826C68.9194 51.1561 68.9772 51.3295 68.9772 51.5029C68.9772 51.7919 68.9772 52.0231 68.9772 52.2543C68.9194 52.4855 68.8616 52.7746 68.746 53.0058C68.6304 53.237 68.5148 53.526 68.3414 53.7572C68.168 53.9884 67.9368 54.2196 67.7056 54.393C67.4744 54.5665 67.2431 54.6821 67.0119 54.7977H66.9541C66.7229 54.9133 66.4339 54.9711 66.1449 55.0289C66.0293 55.0289 65.9137 55.1445 65.9137 55.2023C65.8559 55.3179 65.8559 55.4335 65.8559 55.5491C65.8559 55.6647 65.9715 55.7225 66.0293 55.7803C66.0871 55.8381 66.1449 55.8381 66.2027 55.8381C66.2605 55.8381 66.2605 55.8381 66.3183 55.8381C66.7229 55.7225 67.1275 55.6069 67.4744 55.4335C67.7634 55.2601 68.1102 55.0289 68.3992 54.7399C68.8616 54.2774 69.2663 53.6416 69.4397 52.948C69.6131 52.3121 69.6131 51.6763 69.4397 51.0983C69.2663 50.5202 68.9194 50.0578 68.3992 49.7688C68.0524 49.5376 67.59 49.422 67.0697 49.422H66.9541C66.4339 49.422 65.8559 49.5954 65.22 49.8266V49.6532L65.1622 49.422C64.931 47.63 64.8732 45.7225 64.931 43.7572C64.931 43.6994 64.931 43.6416 64.8732 43.6416C64.9888 43.526 64.931 43.526 64.8732 43.526Z" fill="#CA8664"/>
</svg>
