<svg width="100" height="100" viewBox="0 0 100 100" fill="none" xmlns="http://www.w3.org/2000/svg">
<path d="M50.0178 0H49.8444C36.7808 0.0578035 24.4687 5.14451 15.2779 14.3931C6.02939 23.6416 0.942684 35.8382 1.00049 48.8439C1.05829 75.6069 23.0236 97.3988 49.96 97.3988H50.1334C63.197 97.341 75.5092 92.2543 84.6999 83.0058C93.9485 73.7572 98.9774 61.5029 98.9774 48.4971C98.8618 21.7919 76.9542 0 50.0178 0Z" fill="#F6E9E3"/>
<path d="M54.8147 12.2543C50.8841 12.2543 47.4737 12.6589 44.2945 13.3525H44.2367C43.6009 13.5259 43.0228 13.6994 42.387 13.9306C42.1558 13.9884 41.9246 14.104 41.6933 14.2196C41.6933 14.2196 41.6933 14.2196 41.7512 14.2196C40.8841 14.5664 40.017 14.971 39.15 15.3757C38.8032 15.5491 38.4564 15.7803 38.0517 15.9537C37.7627 16.1271 37.5315 16.3583 37.2425 16.5317C36.6066 16.9942 36.0286 17.5144 35.4506 18.0924C34.8725 18.6705 34.2945 19.3063 33.8321 19.9421C33.4275 20.4624 33.0806 20.9826 32.676 21.5606C32.676 21.6184 32.676 21.6762 32.676 21.734C32.6182 21.7918 32.5604 21.7918 32.5026 21.734C32.3292 21.5606 32.1558 21.3872 31.9824 21.2716C31.809 21.156 31.6355 21.0404 31.4621 20.9248C31.2887 20.8092 31.1153 20.7514 30.9419 20.6358C30.8841 20.6358 30.8263 20.578 30.7685 20.578C30.6529 20.578 30.5951 20.5202 30.4795 20.5202C30.4217 20.5202 30.4217 20.5202 30.3639 20.5202C30.3061 20.5202 30.3061 20.5202 30.2483 20.5202C30.1905 20.5202 30.0749 20.5202 30.017 20.5202C29.7858 20.5202 29.5546 20.578 29.3234 20.578C29.3234 20.578 29.3234 20.578 29.3812 20.578C29.15 20.6358 28.861 20.6936 28.6298 20.7514C28.3986 20.8092 28.1673 20.9248 27.9361 21.0404C27.6471 21.156 27.3003 21.3294 27.0113 21.5028C26.7222 21.6762 26.4332 21.9075 26.202 22.0809C25.335 22.8323 24.5835 23.6994 23.8899 24.6242C23.0806 25.7225 22.4448 26.9364 21.8668 28.1502C21.5777 28.7283 21.3465 29.3063 21.1153 29.8843C20.8263 30.5202 20.5951 31.2138 20.3061 31.8496C20.1327 32.3121 20.017 32.7745 19.8436 33.2369C19.6702 33.8728 19.4968 34.5664 19.3234 35.3179C19.0922 36.3583 18.861 37.5722 18.572 38.9017L18.4564 39.4797C18.3407 40.0577 18.2251 40.6936 18.1095 41.2716C17.9361 42.2543 17.7049 43.1791 17.4737 44.104V44.0462V43.9884C17.0691 45.3757 16.6644 46.7051 16.1442 47.919C15.624 49.1907 14.9881 50.5202 14.2367 51.7918C13.7743 52.6011 13.1962 53.4103 12.5604 54.2774C12.1558 54.8554 11.7512 55.4335 11.2887 56.0115L10.7107 56.8208C9.55462 58.3814 8.34075 60.1155 7.24248 61.9653C6.14422 63.815 5.33497 65.7225 4.81474 67.63C4.35231 69.3641 4.12109 71.0982 4.12109 72.8323C4.12109 73.6416 4.1789 74.5086 4.2945 75.3179C4.41011 76.0693 4.58352 76.8207 4.81474 77.6878C5.21936 79.1907 5.8552 80.6358 6.72225 82.0809C8.28294 84.7976 10.6529 87.1676 13.5431 89.0751C14.5835 89.7687 15.7396 90.4046 17.0113 90.9248C18.2829 91.5028 19.6702 91.9653 21.2887 92.4277C21.5199 92.5433 21.809 92.6011 22.0402 92.7167C23.0806 93.0635 24.2367 93.3525 25.4506 93.5838C27.4737 93.9884 29.6702 94.2196 32.4448 94.3352C33.7165 94.393 35.0459 94.393 36.0864 94.393H37.3581C38.1673 94.393 39.0344 94.393 39.8436 94.393H40.7685C42.8494 94.393 44.9303 94.4508 47.0113 94.4508H47.5315C51.7512 94.4508 57.3581 94.3352 62.9072 93.6994C64.1211 93.5838 65.335 93.4103 66.6066 93.1791C67.5893 93.0057 68.6298 92.8323 69.8436 92.5433C71.8668 92.1387 73.4853 91.734 74.9881 91.2716C76.8957 90.6936 78.572 90.0577 80.1327 89.2485C81.809 88.3814 83.3118 87.341 84.4679 86.1849C85.046 85.6069 85.624 84.9132 86.0864 84.1618C86.5488 83.4682 86.9535 82.6589 87.3581 81.5606C88.0517 79.6531 88.3408 77.5144 88.2251 75.3179C88.1095 73.6994 87.8205 71.9653 87.1847 70.0577C86.6645 68.2658 85.913 66.5317 85.2194 64.8554L84.8147 63.8728C84.2367 62.4855 83.6587 61.0404 83.1384 59.6531C82.7916 58.7283 82.5026 57.8612 82.2714 57.052C81.9824 56.0693 81.809 55.2022 81.6934 54.393V54.3352C81.6356 53.6416 81.5777 52.9479 81.5777 52.2543C81.5777 51.6184 81.6356 50.9248 81.7512 50.1155V50.2312C82.0402 48.0924 82.676 46.0115 83.2541 43.9884C83.8321 42.0231 84.4101 40.0577 84.6991 38.0346C84.8725 36.9364 84.9303 35.8959 84.9303 34.9132C84.9303 33.9884 84.8147 33.0057 84.5257 31.7918C84.1789 29.9999 83.5431 28.208 82.676 26.4739C81.9246 24.9132 80.8841 23.4103 79.6702 21.9653C78.572 20.6936 77.1847 19.4219 75.6818 18.3236C72.8494 16.2427 69.439 14.682 65.6818 13.6994C63.9477 13.2369 62.0402 12.9479 60.1327 12.7745C59.2078 12.7167 58.2829 12.6589 57.4737 12.6589C56.7801 12.6589 56.0286 12.6011 55.335 12.6011C55.1616 12.2543 54.9881 12.2543 54.8147 12.2543Z" fill="#192E35"/>
<path d="M59.2665 21.6763C57.5902 21.6763 55.8561 21.7919 54.1798 22.0231C54.1798 22.0231 54.1798 22.0231 54.2376 22.0231C53.2549 22.1387 52.2723 22.3121 51.3474 22.5433C50.7116 22.7167 50.0757 22.8901 49.4399 23.0636C48.8619 23.237 48.226 23.4682 47.648 23.7572H47.7058C46.8387 24.104 45.9717 24.5664 45.1046 25.0289C44.3532 25.4913 43.6017 25.9537 42.9081 26.5318C42.1566 27.1098 41.4052 27.7456 40.7694 28.4393C40.1335 29.0751 39.4977 29.7688 38.9197 30.5202C38.1104 31.5607 37.359 32.6589 36.7231 33.815C36.0873 34.9711 35.5092 36.1271 34.989 37.341C33.5439 40.6936 32.6191 44.2774 31.8098 47.8612C31.6364 48.7283 31.463 49.5953 31.2896 50.4624C31.174 50.9248 31.1162 51.4451 31.0006 51.9075C30.885 52.3699 30.7694 52.7745 30.6538 53.237C30.3647 54.0462 30.0179 54.9133 29.6711 55.6647C29.2665 56.474 28.8618 57.2254 28.3416 57.9768C27.4168 59.4219 26.3185 60.7514 25.1624 62.0809C24.0642 63.4104 22.9081 64.7399 21.8098 66.0693C21.174 66.8786 20.596 67.6878 20.0757 68.5549C19.7867 69.0173 19.5555 69.4797 19.2665 69.9422C19.0353 70.4046 18.804 70.8092 18.6306 71.2716C18.3416 71.9653 18.1104 72.6011 17.937 73.2948C17.8214 73.7572 17.7058 74.2196 17.5902 74.682C17.4746 75.1445 17.4168 75.6069 17.359 76.0693C17.2433 76.9942 17.1855 77.919 17.1855 78.8439C17.1855 79.3063 17.1855 79.7688 17.2434 80.2312C17.3012 80.6358 17.3012 81.0404 17.359 81.4451C17.4746 82.3121 17.648 83.1792 17.8792 84.0462C17.9948 84.4508 18.1104 84.8555 18.2838 85.2601C18.3994 85.6647 18.5728 86.0115 18.7462 86.4162C19.3821 87.8612 20.1913 89.3063 21.174 90.578C21.5786 91.0982 22.041 91.6185 22.5035 92.0809C22.7347 92.3121 22.9081 92.4855 23.1393 92.6589C23.8907 92.8901 24.7 93.0636 25.6249 93.237C27.648 93.6416 29.8445 93.8728 32.6191 93.9884C33.8908 94.0462 35.1046 94.0462 36.2607 94.0462H37.5324C38.3416 94.0462 39.1509 94.0462 39.9601 94.0462H40.885C42.9659 94.0462 45.0468 94.104 47.1277 94.104H47.648C51.8676 94.104 57.4168 93.9884 63.0237 93.3526C64.2376 93.237 65.5092 93.0636 66.7231 92.8323C67.7058 92.6589 68.804 92.4855 69.9601 92.1965C71.9832 91.7919 73.6017 91.3873 75.1046 90.9248C75.3358 90.6936 75.5093 90.4624 75.7405 90.2312C76.2607 89.6532 76.7231 89.1329 77.1856 88.4971C77.8214 87.6878 78.3994 86.8208 78.9775 85.8959C79.2665 85.4335 79.4977 84.9711 79.7289 84.4508C79.9601 83.9884 80.1913 83.526 80.3647 83.0636V83.1214C80.7694 82.1965 81.1162 81.2138 81.3474 80.2312C81.5208 79.6532 81.6364 79.0751 81.752 78.4971C81.8676 77.919 81.9832 77.2832 82.041 76.7052C82.2144 75.3179 82.3301 73.8728 82.2723 72.4277C82.2723 71.6763 82.2144 70.9826 82.1566 70.2312C82.0988 69.5375 82.041 68.9017 81.9254 68.2081C81.8676 67.5722 81.752 66.9364 81.6364 66.3005C81.4052 65.0289 81.174 63.815 80.885 62.6011C80.7116 61.9653 80.596 61.2716 80.4803 60.6358C80.3647 60.0578 80.2491 59.4219 80.1335 58.8439C79.7289 56.474 79.4399 54.0462 79.4399 51.6185C79.4399 50.4046 79.4977 49.1907 79.6133 47.9768C79.7289 46.763 79.9023 45.5491 80.1913 44.393C80.3069 43.7572 80.4803 43.0636 80.6538 42.4277C80.7694 41.9075 80.9428 41.3873 81.0584 40.867C81.2318 40.289 81.3474 39.711 81.463 39.1329C81.5786 38.6127 81.6942 38.0347 81.752 37.5144C81.752 37.5144 81.752 37.5144 81.752 37.5722C81.8098 36.9364 81.9254 36.3005 81.9254 35.6647C81.9254 35.3757 81.9254 35.0289 81.9254 34.7399C81.9254 34.5086 81.8676 34.2196 81.8676 33.9884C81.8098 33.5838 81.752 33.1792 81.6364 32.8323C81.5786 32.6011 81.5208 32.3699 81.463 32.1965C81.4052 32.0231 81.3474 31.8497 81.2896 31.6763C81.0584 31.2138 80.8272 30.7514 80.596 30.289C80.3647 29.9422 80.1335 29.5375 79.8445 29.1907C79.4977 28.7283 79.0931 28.2659 78.6884 27.8612C78.2838 27.4566 77.8214 27.052 77.359 26.7052C76.7231 26.1849 76.0295 25.7803 75.3358 25.3757C74.5844 24.9711 73.8329 24.5664 73.0237 24.2774C73.0237 24.2774 73.0237 24.2774 73.0815 24.2774C70.4803 23.1792 67.7636 22.5433 64.989 22.1387C62.9659 21.7919 61.1162 21.6763 59.2665 21.6763Z" fill="#0F1D21"/>
<path d="M29.9602 48.3237C29.8446 48.3237 29.729 48.3237 29.6134 48.3237C29.2666 48.3237 28.9198 48.4393 28.5151 48.6127C27.8215 48.9018 27.1278 49.4798 26.5498 50.3469C26.203 50.8093 25.9718 51.3295 25.7406 51.9075C25.5672 52.4278 25.3937 53.0058 25.3359 53.6417C25.2203 54.7977 25.3937 55.9538 25.7984 57.2255C26.203 58.3237 26.8388 59.422 27.6481 60.3469C28.0527 60.8093 28.5151 61.2139 28.9776 61.5607C29.4978 61.9654 30.1336 62.3122 30.8273 62.5434C31.8677 62.948 33.0816 63.1792 34.5845 63.237C34.8157 63.237 34.9891 63.237 35.2203 63.237C36.2608 63.237 37.3013 63.1792 38.2839 63.0636H38.5151C38.6307 63.0636 38.7463 62.948 38.7463 62.8902C38.8042 62.8324 38.8042 62.7168 38.8042 62.6012C38.8042 62.5434 38.7463 62.4278 38.6885 62.37C38.7463 61.4451 38.8042 60.6937 38.8042 60C38.8042 59.4798 38.7463 58.7862 38.6307 58.0925C38.5151 57.3989 38.2839 56.7052 37.8793 55.8382C37.5325 55.0289 37.1278 54.2775 36.5498 53.4682C36.0296 52.6012 35.3937 51.8497 34.8157 51.1561C34.1799 50.4047 33.4862 49.8266 32.7926 49.3642C32.0411 48.844 31.2897 48.5549 30.5961 48.3815C30.4226 48.3237 30.1914 48.3237 29.9602 48.3237Z" fill="#FEBE9C"/>
<path d="M30.7691 53.1214C30.5957 53.526 30.4222 53.9306 30.3644 54.393C30.3066 54.7977 30.3066 55.2601 30.3066 55.6647C30.3644 56.5318 30.6535 57.3988 31.1159 58.1503C31.3471 58.5549 31.5783 58.9017 31.8673 59.1907C32.1564 59.5375 32.4454 59.8266 32.7922 60.0578C33.428 60.578 34.1795 60.9248 34.9887 61.156C35.0465 61.156 35.1621 61.156 35.1621 61.0404C35.1621 60.9826 35.1621 60.867 35.0465 60.867C34.8731 60.8092 34.7575 60.7514 34.5841 60.6936C34.1217 60.5202 33.717 60.289 33.3702 60C32.9656 59.6531 32.6188 59.3063 32.272 58.9017C31.9251 58.4393 31.6361 57.919 31.4049 57.3988C31.2315 56.9364 31.1159 56.474 31.0581 56.0115C31.0003 55.6069 31.0003 55.2023 31.0581 54.7977C31.1159 54.4508 31.2315 54.0462 31.3471 53.6994C31.4049 53.6416 31.4049 53.526 31.4627 53.4682C31.5205 53.3526 31.5205 53.2948 31.5205 53.1792C31.5205 53.0635 31.4049 53.0057 31.3471 52.9479C31.2893 52.8901 31.2315 52.8901 31.1737 52.8901C30.9425 52.9479 30.8269 53.0057 30.7691 53.1214Z" fill="#FF9B68"/>
<path d="M27.8201 52.0809C27.4155 52.1965 27.0687 52.4855 26.7797 52.7745C26.7219 52.8323 26.7219 52.948 26.7797 53.0058C26.8375 53.0636 26.9531 53.0636 27.0109 53.0058C27.1265 52.8901 27.1843 52.8323 27.2999 52.7745C27.4155 52.6589 27.5889 52.6011 27.7623 52.5433C27.9358 52.4855 28.0514 52.4277 28.2248 52.4277C28.3982 52.4277 28.6294 52.4277 28.8028 52.4277C29.0918 52.4855 29.323 52.5433 29.6121 52.6589C30.0745 52.8323 30.4791 53.1214 30.8837 53.4104C30.8837 53.4104 30.9415 53.4104 30.9415 53.4682L30.9993 53.526C31.0571 53.5838 31.1149 53.5838 31.1727 53.5838C31.2884 53.5838 31.3462 53.526 31.404 53.4682C31.4618 53.4104 31.5196 53.2948 31.5196 53.237C31.5196 53.1792 31.4618 53.0636 31.404 53.0058C30.7681 52.4277 29.9011 52.1387 29.034 52.0231C28.9762 52.0231 28.8606 52.0231 28.8028 52.0231C28.456 51.9075 28.167 51.9653 27.8201 52.0809Z" fill="#FF9B68"/>
<path d="M80.7681 42.8324C80.5369 42.8324 80.2479 42.8324 80.0167 42.8902C79.2652 43.0636 78.5138 43.3526 77.8202 43.8729C77.1265 44.3353 76.4329 44.9133 75.797 45.6648C75.1612 46.3584 74.5832 47.1099 74.0629 47.9769C73.5427 48.7862 73.0803 49.5954 72.7334 50.3468C72.3866 51.2139 72.0976 51.9075 71.982 52.6012C71.8664 53.2948 71.8086 53.9885 71.8086 54.5087C71.8086 55.2601 71.8086 56.0116 71.9242 56.8786C71.8664 56.9364 71.8086 56.9943 71.8086 57.1099C71.8086 57.2255 71.8086 57.3411 71.8664 57.3989C71.9242 57.4567 72.0398 57.5723 72.1554 57.5723H72.3866H72.4444H72.5022C73.4849 57.6301 74.4676 57.7457 75.4502 57.7457C75.6814 57.7457 75.8548 57.7457 76.086 57.7457C77.5889 57.6879 78.8028 57.4567 79.8433 57.0521C80.5369 56.763 81.1728 56.4162 81.693 56.0694C82.2132 55.7226 82.6178 55.3179 83.0225 54.8555C83.8317 53.9307 84.4676 52.8324 84.8722 51.7341C85.3346 50.4625 85.4502 49.3064 85.3924 48.1503C85.3346 47.5145 85.219 46.9364 84.9878 46.4162C84.7566 45.896 84.5254 45.3758 84.1785 44.8555C83.6005 43.9885 82.9647 43.4104 82.2132 43.1214C81.8664 42.948 81.4618 42.8902 81.115 42.8324C80.9993 42.8324 80.8837 42.8324 80.7681 42.8324Z" fill="#FEA97E"/>
<path d="M81.9235 44.9711C80.594 45.2023 79.3223 45.7803 78.2818 46.6474C77.7616 47.1098 77.2414 47.5722 76.8368 48.1503C76.4321 48.7283 76.0275 49.3063 75.7963 50C75.7385 50.2312 75.8541 50.4624 76.0275 50.5202C76.1431 50.578 76.2587 50.578 76.3165 50.5202C76.4321 50.4624 76.4899 50.4046 76.5477 50.289C76.6055 50.1156 76.7211 49.9422 76.8368 49.7688C77.2414 49.0173 77.7038 48.3815 78.2818 47.7456C78.8021 47.2254 79.3801 46.763 79.9581 46.3583C79.9581 46.3583 79.9581 46.3583 79.9003 46.3583C79.9003 46.3583 79.9003 46.3583 79.9581 46.3583C79.9581 46.3583 79.9581 46.3583 80.0159 46.3583C80.4784 46.0693 80.883 45.8959 81.4032 45.7225H81.461C81.461 45.7225 81.461 45.7225 81.4032 45.7225C81.6344 45.6647 81.8078 45.6069 82.0391 45.6069C82.1547 45.6069 82.2703 45.4335 82.2703 45.3179C82.2125 45.0867 82.0969 44.9711 81.9235 44.9711ZM76.779 49.711C76.779 49.7688 76.7211 49.7688 76.7211 49.8266C76.7789 49.7688 76.779 49.711 76.779 49.711Z" fill="#CA8664"/>
<path d="M46.3767 68.2081C46.3767 68.2081 46.3189 68.2081 46.2611 68.2081C46.1455 68.2081 46.0299 68.2659 45.9721 68.3237C45.9143 68.3815 45.8565 68.4971 45.8565 68.6128C45.7987 69.422 45.7409 70.2313 45.7409 71.0405C45.683 72.2544 45.6252 73.526 45.4518 74.7977V74.7399C45.2784 76.0116 44.9894 77.1099 44.5848 78.0347C44.2958 78.7284 43.9489 79.3064 43.5443 79.8266C43.2553 80.2313 42.9085 80.5781 42.5039 80.8671C42.0414 81.2139 41.5212 81.5029 40.9432 81.7919C39.9605 82.1966 38.92 82.4856 37.5328 82.659C37.5328 82.659 37.5328 82.659 37.475 82.659C36.7813 82.7746 36.0299 82.8324 35.3362 82.8902C34.816 82.948 34.2958 83.0058 33.7755 83.0636C32.9085 83.1792 32.157 83.2948 31.4634 83.4104C30.712 83.5839 29.9605 83.8151 29.2669 84.1619C29.2091 84.2197 29.1513 84.2775 29.0935 84.3931C28.92 84.5087 28.92 84.7399 29.0356 84.9711C30.3073 86.7052 31.9836 88.1503 34.0646 89.422C35.9143 90.5203 38.053 91.4451 40.4807 92.081C42.6195 92.659 44.9316 93.1214 47.5328 93.3526C49.2091 93.5261 50.9432 93.5838 52.7351 93.5838C53.2553 93.5838 53.8333 93.5838 54.3536 93.5838C55.683 93.526 56.8391 93.4682 57.9374 93.3526C59.3247 93.237 60.7119 93.0058 62.0992 92.659C64.9316 92.0232 67.5906 91.0405 69.9605 89.711C71.1166 89.0752 72.2148 88.3237 73.2553 87.5145C73.7755 87.1099 74.2958 86.6474 74.816 86.185C75.394 85.6648 75.9721 85.1445 76.4345 84.6243C76.4923 84.5665 76.5501 84.5087 76.5501 84.3931H76.6079C76.6657 84.3931 76.6657 84.3931 76.6657 84.3931C76.7813 84.3931 76.8391 84.2775 76.8969 84.2197C76.9547 84.1041 76.9547 84.0463 76.9547 83.9307C76.9547 83.8729 76.8391 83.7573 76.7813 83.6995C76.3189 83.4682 75.8565 83.2948 75.3362 83.1792C74.9316 83.0636 74.4692 82.8902 73.8911 82.7746C73.5443 82.7168 73.0819 82.6012 72.6773 82.5434C72.3882 82.4856 72.0414 82.4278 71.579 82.4278C70.9432 82.37 70.2495 82.3122 69.6137 82.2544C68.8044 82.1966 67.9374 82.1388 67.0703 82.0232C66.0877 81.8497 65.2784 81.6763 64.5848 81.3873C64.1224 81.2139 63.7177 80.9249 63.3709 80.6937C63.0819 80.4625 62.7929 80.1735 62.5617 79.8266C62.3304 79.4798 62.0992 79.133 61.9258 78.7284C61.6946 78.2081 61.579 77.6879 61.4634 77.1099C61.3478 76.1272 61.3478 75.0867 61.5212 73.7573C61.6368 73.1214 61.7524 72.4856 61.8102 71.8498C61.868 71.5607 61.9258 71.2139 61.9836 70.9249C62.0992 70.8671 62.157 70.7515 62.157 70.6359C62.157 70.5203 62.157 70.4047 62.0414 70.3469C61.9836 70.2891 61.868 70.2313 61.7524 70.2313C59.0356 70.0578 56.3189 69.711 53.7177 69.3064C51.3478 68.7284 48.8622 68.3815 46.3767 68.2081Z" fill="#FEBE9C"/>
<path d="M46.2605 68.2081C46.1449 68.2081 46.0293 68.2659 45.9714 68.3237C45.9136 68.3815 45.8558 68.4971 45.8558 68.6128C45.798 69.2486 45.798 69.9422 45.7402 70.5781C46.1449 71.0405 46.6073 71.5607 47.0697 71.9654C47.7055 72.5434 48.3414 73.1214 49.035 73.6417C49.7287 74.1619 50.4223 74.6243 51.1738 75.0289C51.8674 75.3758 52.561 75.7226 53.2547 75.9538C53.9483 76.185 54.642 76.4162 55.3934 76.5896C56.0871 76.763 56.7229 76.8787 57.4165 76.9365C58.1102 76.9943 58.8038 77.0521 59.5553 76.9943H59.4975C60.1333 76.9943 60.7691 76.9365 61.405 76.8208C61.2894 75.896 61.3472 74.8555 61.5206 73.526C61.6362 72.8902 61.694 72.2544 61.8096 71.6763C61.8674 71.3295 61.9252 71.0405 61.983 70.7515C62.0986 70.6937 62.1564 70.5781 62.1564 70.4625C62.1564 70.3469 62.0986 70.2313 62.0408 70.1734C61.983 70.1156 61.8674 70.0578 61.7518 70.0578C59.035 69.8844 56.3183 69.5376 53.7171 69.133C51.2894 68.7862 48.8038 68.4393 46.3183 68.2659C46.3183 68.2081 46.3183 68.2081 46.2605 68.2081Z" fill="#FF9B68"/>
<path d="M75.9716 82.5433C75.9138 82.5433 75.856 82.6011 75.7982 82.6589C75.2779 83.2948 74.6421 83.8728 73.9485 84.4509C71.9831 85.9537 69.7288 87.052 67.8213 87.8613C66.9542 88.2081 66.2028 88.5549 65.5092 88.7861C64.6999 89.0751 63.8907 89.3641 63.0814 89.5954C61.4629 90.0578 59.7866 90.4624 58.0525 90.6936C56.145 90.9826 54.2375 91.0983 52.33 91.0983C50.8849 91.0983 49.382 91.0404 47.9369 90.867C44.8155 90.5202 41.8097 89.711 39.0352 88.6127L39.093 88.6705H39.1508C36.6652 87.63 34.3531 86.3584 32.33 84.7977C31.7519 84.3352 31.1739 83.8728 30.5959 83.3526C30.5959 83.3526 30.5381 83.2948 30.4803 83.2948C30.4225 83.237 30.3068 83.1792 30.1912 83.1792H30.1334C27.6479 83.5838 25.1623 84.6243 22.5034 86.3584C21.3473 87.1098 20.1912 88.0347 19.093 89.0173C18.1681 89.8266 17.3589 90.7514 16.6074 91.6763C16.6652 91.7341 16.6652 91.7341 16.723 91.7919C16.8964 91.9075 17.0698 92.0809 17.2433 92.1965C18.804 93.4104 20.5959 94.3352 22.3878 95.0867C23.6016 95.6069 24.8733 96.0693 26.2028 96.474C27.5323 96.8786 28.8618 97.2254 30.1912 97.5722C32.8502 98.2081 35.567 98.6705 38.2837 99.0751C38.3415 99.0751 38.3415 99.0751 38.3993 99.0751C43.1392 99.711 47.9369 100 52.6768 100C57.4745 100 62.2722 99.711 67.012 99.0751C67.012 99.0751 67.012 99.0751 66.9542 99.0751C69.671 98.7283 72.4456 98.2081 75.1045 97.5722C77.7635 96.9364 80.3647 96.1272 82.8502 95.0867C82.8502 95.0867 82.8502 95.0867 82.7924 95.0867C84.6421 94.3352 86.3762 93.4104 87.9947 92.1965C88.3415 91.9075 88.6883 91.6763 88.9774 91.3873C89.1508 91.2139 89.3242 91.0404 89.4976 90.867C89.5554 90.8092 89.6132 90.7514 89.671 90.6936C88.9196 89.8266 88.0525 89.0173 87.012 88.2081C86.0294 87.3988 84.9311 86.6474 83.7173 85.8959C82.5612 85.2023 81.3473 84.5665 80.1334 83.9884C78.9196 83.4104 77.7057 82.948 76.4918 82.6011C76.434 82.6011 76.434 82.6011 76.3762 82.6011C76.145 82.4855 76.0294 82.4855 75.9716 82.5433Z" fill="#EF306C"/>
<path d="M75.9701 82.5433C75.9123 82.5433 75.8545 82.6011 75.7967 82.6589C75.2765 83.2947 74.6407 83.8728 73.947 84.4508C71.9817 85.9537 69.7274 87.0519 67.8198 87.8612C66.9528 88.208 66.2592 88.497 65.5077 88.7861C64.7563 89.0751 63.947 89.3063 63.08 89.5953C61.4615 90.0577 59.7852 90.4623 58.0511 90.6936C56.1435 90.9826 54.236 91.0982 52.3285 91.0982C50.8834 91.0982 49.3805 91.0404 47.9355 90.867C44.8141 90.5202 41.8083 89.7687 39.0337 88.6126L39.0915 88.6704C36.606 87.63 34.2938 86.3005 32.3285 84.7976C31.6927 84.3352 31.1146 83.8728 30.5944 83.3525C30.5366 83.3525 30.5366 83.2947 30.4788 83.2947C30.421 83.2369 30.3054 83.1791 30.1898 83.1791H30.132C29.2071 83.2947 28.2823 83.5259 27.3574 83.8728C27.7042 84.393 28.1089 84.8554 28.5713 85.3178C29.0337 85.7803 29.4962 86.2427 30.0164 86.6473C31.6349 87.9768 33.4846 89.0751 35.3921 89.9999C38.6291 91.5028 42.1551 92.5433 45.6811 93.1213C47.473 93.4103 49.3227 93.6415 51.1725 93.6994C52.0973 93.7572 53.0222 93.7572 53.947 93.6994C54.8719 93.6994 55.7389 93.6415 56.6638 93.5259C56.6638 93.5259 56.6638 93.5259 56.606 93.5259C58.6291 93.3525 60.6522 92.9479 62.6753 92.4855C64.236 92.0809 65.7967 91.6184 67.2996 91.0404C70.132 89.9421 72.9066 88.5548 75.3921 86.8207C76.2013 86.2427 77.0106 85.6069 77.762 84.9132C78.2823 84.4508 78.7447 83.9884 79.2071 83.4681C78.2823 83.0635 77.2996 82.7167 76.3748 82.4855C76.317 82.4855 76.2592 82.4855 76.2592 82.4855C76.1435 82.4855 76.0279 82.4855 75.9701 82.5433Z" fill="#F55E84"/>
<path d="M51.3478 14.7977C49.9027 14.7977 48.3998 14.8555 46.9548 15.0289C45.7987 15.1446 44.7004 15.318 43.6021 15.5492C42.6195 15.7804 41.6368 16.0116 40.5386 16.3584C38.2842 17.0521 36.2611 17.9191 34.3536 19.0174C32.2727 20.2313 30.5386 21.6185 29.2091 23.1214C28.5154 23.9307 27.9374 24.7977 27.475 25.7804C27.0126 26.7052 26.6657 27.7457 26.4923 28.844C26.2611 30.1157 26.2611 31.5029 26.3767 32.948C26.4923 34.1619 26.7813 35.4336 27.186 36.8787C27.8218 39.0752 28.7467 41.2139 29.6715 43.237C29.8449 43.6417 30.0183 44.0463 30.1917 44.3931C30.9432 46.0694 31.6368 47.9191 32.2149 49.7688C32.5039 50.8671 32.7929 52.0232 32.9663 53.3526C33.0241 53.6417 33.0819 53.9885 33.0819 54.2775C33.1975 55.0289 33.3131 55.8382 33.4865 56.5896C33.7178 57.7457 34.0646 58.6706 34.5848 59.5376C34.8738 60 35.2206 60.4625 35.6253 60.9249C35.8565 61.1561 36.0877 61.3873 36.3189 61.6185C36.4345 61.7341 36.6079 61.8498 36.7235 62.0232C36.8391 62.1388 36.9548 62.1966 37.0704 62.3122C37.2438 62.4856 37.3594 62.659 37.475 62.8324C37.475 62.948 37.5328 63.0058 37.5328 63.0636C38.6889 65.0868 40.3074 66.9365 42.3883 68.555C44.3536 70.0578 46.5501 71.3295 49.0357 72.3122C51.4056 73.237 53.7756 73.7573 56.2033 73.9307C56.6657 73.9885 57.186 73.9885 57.6484 73.9885C58.2842 73.9885 58.9201 73.9885 59.6137 73.9307C60.712 73.8729 61.868 73.7573 63.0241 73.5261C67.6484 72.7746 71.7524 70.9249 74.7582 68.2659C76.3189 66.8787 77.6484 65.2024 78.6311 63.3526C79.0935 62.4278 79.5559 61.3873 79.8449 60.2891C80.1339 59.1908 80.3652 58.0925 80.4808 56.8209C80.5964 55.8382 80.5964 54.8555 80.5386 53.8151C80.4808 52.8324 80.3652 51.7341 80.1339 50.4047C79.9605 49.422 79.7871 48.4393 79.6137 47.5145C79.3825 46.3006 79.1513 44.9711 78.9201 43.7573V43.6995C78.8045 42.8902 78.7467 42.1388 78.7467 41.4451C78.6889 40.6937 78.6889 40 78.6889 39.2486V38.4394C78.6311 37.2833 78.6311 36.1272 78.5732 34.9711C78.4576 33.4104 78.2842 32.0232 78.053 30.8093C77.764 29.422 77.3594 28.0347 76.7813 26.763C76.4345 26.0116 76.0299 25.2024 75.5097 24.4509C75.5097 24.3931 75.4519 24.2775 75.4519 24.2197C73.7178 22.4278 71.6946 20.8671 69.4403 19.5376C67.3016 18.2659 64.8738 17.2833 62.3305 16.5318C58.7467 15.318 55.105 14.7977 51.3478 14.7977Z" fill="#FEBE9C"/>
<path d="M30.4803 20.6359H30.4225H30.3647C30.1913 20.6359 29.96 20.6937 29.7866 20.6937C29.4398 20.7515 29.1508 20.9249 28.804 21.1561C28.2259 21.5607 27.6479 22.1388 27.1277 23.0058C26.6652 23.6994 26.2606 24.5087 25.9138 25.5492C25.567 26.3584 25.3358 27.2833 25.0468 28.2659C24.8733 29.0174 24.6999 29.7688 24.5265 30.5781C24.3531 31.4451 24.3531 32.37 24.2953 33.1792C24.2375 34.4509 24.2375 35.7804 24.2953 37.052C24.4109 39.1908 24.6999 41.0983 25.1624 42.8324C25.4514 43.7573 25.7404 44.6821 26.145 45.4914C26.3184 45.8382 26.5496 46.2428 26.7809 46.7052C27.0121 47.0521 27.2433 47.3411 27.4745 47.6301C27.4745 47.7457 27.4745 47.8613 27.5901 47.9769C28.3415 48.7862 29.3242 49.3064 30.4225 49.5954C30.8849 49.711 31.3473 49.7688 31.8098 49.7688C32.4456 49.7688 33.0814 49.6532 33.7173 49.4798C34.8155 49.133 35.7404 48.5549 36.434 47.7457C36.7809 47.3411 37.0699 46.8208 37.3589 46.185C37.5901 45.607 37.7635 44.9711 37.8791 44.2775C37.9369 43.9307 37.9369 43.526 37.9369 43.1792C37.9369 43.0058 37.8791 42.7746 37.8791 42.6012C37.8213 42.4278 37.7635 42.1966 37.7057 42.0231C37.5323 41.5607 37.1855 41.1561 36.8965 40.7515C36.7809 40.5781 36.6652 40.4625 36.5496 40.289C36.434 40.1156 36.3184 39.8844 36.2028 39.711C36.0872 39.4798 36.0294 39.1908 36.0294 38.7862C35.9716 38.3237 36.0294 37.8613 36.0872 37.3411C36.145 37.052 36.2028 36.7052 36.3184 36.4162C36.3762 36.1272 36.434 35.896 36.4918 35.607C36.5496 35.3757 36.6074 35.0867 36.5496 34.7977C36.5496 34.5087 36.434 34.2197 36.3184 33.9885C36.145 33.7573 35.9138 33.526 35.6248 33.3526C35.2202 33.1214 34.7577 32.948 34.4109 32.8324C34.1219 32.7168 33.7751 32.659 33.4861 32.6012C33.2548 32.5434 33.0236 32.4856 32.8502 32.4278C32.3878 32.3122 31.9832 32.1966 31.6941 32.0231C31.4629 31.9075 31.3473 31.8497 31.1739 31.7341C31.1161 31.6763 31.0583 31.6185 31.0005 31.5607C30.9427 31.5029 30.9427 31.4451 30.8849 31.3873C30.8849 31.3295 30.8271 31.2717 30.8271 31.2139C30.8271 31.0983 30.8271 30.9827 30.8271 30.8671C30.8849 30.5781 30.9427 30.3468 31.0583 30.0578C31.1739 29.711 31.3473 29.3642 31.5207 29.0174L31.6941 28.6127C31.8676 28.2081 32.0988 27.8035 32.2722 27.3411C32.3878 27.1099 32.4456 26.8208 32.5034 26.6474C32.5612 26.4162 32.5612 26.2428 32.5612 26.0694C32.5612 25.896 32.5034 25.7226 32.4456 25.607C32.3878 25.4914 32.2722 25.3757 32.2144 25.2601C32.1566 25.2023 32.0988 25.1445 32.041 25.0867L31.9254 25.0289C31.8098 24.9133 31.752 24.8555 31.6363 24.7399C31.5207 24.5665 31.4629 24.4509 31.4051 24.2775C31.3473 24.1041 31.2895 23.9307 31.2895 23.7573C31.2895 23.5838 31.2895 23.4104 31.2895 23.237C31.3473 23.0058 31.4051 22.7746 31.4629 22.6012C31.5207 22.37 31.5785 22.081 31.6363 21.8497C31.6941 21.6185 31.6363 21.4451 31.5785 21.2717C31.5207 21.2139 31.5207 21.0983 31.4051 21.0405C31.2895 20.9249 31.1739 20.8671 31.0583 20.8093C30.9427 20.7515 30.8271 20.7515 30.7693 20.7515C30.5959 20.6359 30.5381 20.6359 30.4803 20.6359ZM25.1624 38.4971V38.4393C25.1624 38.5549 25.1624 38.6127 25.1624 38.7283C25.1624 38.6127 25.1624 38.5549 25.1624 38.4971Z" fill="#192E35"/>
<path d="M50.653 13.0057C48.1674 13.0057 45.9709 13.237 44.0056 13.6416C42.6183 13.9306 41.3466 14.3352 40.2483 14.8554C39.0345 15.4335 38.0518 16.1271 37.1847 16.9942C37.0113 17.1676 37.0113 17.3988 37.1847 17.5722C37.2425 17.63 37.3004 17.63 37.3582 17.6878C37.3582 17.6878 37.416 17.7456 37.4738 17.7456C37.5894 17.8034 37.705 17.8034 37.8784 17.8034C37.994 17.8034 38.1674 17.8034 38.283 17.8034C38.6876 17.7456 39.0923 17.6878 39.4391 17.63L40.0171 17.5144C40.653 17.3988 41.2888 17.2254 41.9246 17.1676H41.9824H42.0402C42.3293 17.1676 42.5605 17.1098 42.7339 17.1098C42.8495 17.1098 43.0229 17.1098 43.1385 17.1098C43.3119 17.1098 43.4275 17.1676 43.5431 17.2254C43.6009 17.2254 43.6587 17.2832 43.6587 17.2832L43.7165 17.341C43.7165 17.341 43.7165 17.3988 43.7743 17.3988C43.7743 17.4566 43.7743 17.4566 43.7743 17.5144V17.5722V17.63C43.7743 17.6878 43.7165 17.7456 43.6587 17.8034C43.4853 18.0346 43.2541 18.208 43.0229 18.3815C42.9651 18.4393 42.8495 18.4971 42.7917 18.5549C42.6183 18.6705 42.5027 18.8439 42.3871 18.9595C42.3293 19.0173 42.2714 19.1329 42.1558 19.2485C42.098 19.3641 42.0402 19.4797 41.9824 19.5953C41.9246 19.7687 41.8668 20 41.9246 20.2312C41.9824 20.4624 42.0402 20.6936 42.1558 20.867C42.3871 21.2138 42.7917 21.445 43.2541 21.5606C43.4275 21.6185 43.6587 21.6185 43.8899 21.6185C44.1212 21.6185 44.4102 21.6185 44.6992 21.5606C45.1616 21.5028 45.6241 21.3872 46.0287 21.2716C46.4911 21.156 46.8957 21.0404 47.3004 20.9248L47.4738 20.867C47.9362 20.6936 48.4564 20.578 48.9189 20.4046C49.2657 20.289 49.6125 20.2312 49.9593 20.1734C50.1327 20.1734 50.3061 20.1156 50.5373 20.1156C50.7108 20.1156 50.8264 20.1156 50.9998 20.1156C51.231 20.1734 51.4044 20.2312 51.5778 20.289C51.7512 20.3468 51.8668 20.4624 52.0402 20.578C52.1558 20.6936 52.3293 20.8092 52.4449 20.9826C52.5027 21.0982 52.5605 21.2138 52.6183 21.3294C52.6761 21.445 52.6761 21.6185 52.7339 21.7919C52.7339 22.0809 52.7339 22.3121 52.7339 22.6011V22.7167C52.7339 23.1213 52.7339 23.4682 52.7917 23.815C52.9073 24.4508 53.1963 25.0289 53.6009 25.6069C54.0056 26.1849 54.5258 26.7052 54.9304 27.1098C55.335 27.5144 55.7975 27.919 56.3177 28.3237C58.1674 29.7687 60.3639 30.8092 62.7917 31.5028C64.757 32.0231 66.8379 32.3121 68.9767 32.3121C69.3235 32.3121 69.6703 32.3121 70.0749 32.3121C72.5027 32.1965 74.9304 31.7341 77.1847 30.9248C78.1674 30.578 79.1501 30.1734 80.0749 29.6531C80.2483 29.5375 80.3061 29.3641 80.2483 29.1907C80.3061 29.0751 80.3061 28.9595 80.3061 28.9017C79.4969 26.7052 78.283 24.6242 76.5489 22.7745C75.046 21.0982 73.1963 19.5953 71.0576 18.2659C69.0923 17.052 66.8957 16.0693 64.468 15.2023C62.2715 14.4508 59.9593 13.8728 57.5894 13.526C56.6645 13.4104 55.6241 13.2948 54.4102 13.1791C53.3119 13.1213 52.2136 13.0635 51.1154 13.0635C50.942 13.0057 50.7686 13.0057 50.653 13.0057Z" fill="#192E35"/>
<path d="M54.9301 22.3121C54.8723 22.3699 54.8723 22.4855 54.9301 22.6012C55.6815 23.5838 56.4908 24.5087 57.4156 25.3757C58.3405 26.185 59.3231 26.9364 60.3636 27.5723C60.8838 27.9191 61.4619 28.2081 61.9821 28.4393C62.5601 28.7283 63.0804 28.9595 63.6584 29.1329C64.2364 29.3642 64.8145 29.5376 65.3925 29.6532C66.0283 29.8266 66.6642 29.9422 67.2422 30C68.7451 30.2312 70.3058 30.1734 71.8087 30C72.5601 29.8844 73.2538 29.7688 74.0052 29.5376C74.8145 29.3064 75.5659 29.0751 76.3174 28.6705C76.6642 28.4971 76.8376 28.0925 76.6642 27.6879C76.6064 27.5145 76.433 27.3988 76.2595 27.341C76.0861 27.2832 75.9127 27.2832 75.7393 27.3988C75.2191 27.6301 74.6989 27.8035 74.1786 27.9769C72.7335 28.4393 71.2885 28.7283 69.7856 28.7861C69.8434 28.7861 69.9012 28.7861 69.959 28.7861C69.1497 28.8439 68.2827 28.7861 67.4734 28.7283C66.6642 28.6705 65.9127 28.5549 65.1613 28.3815C64.352 28.2081 63.6006 27.9769 62.8491 27.7457C62.0977 27.5145 61.4041 27.1676 60.7104 26.8208C60.7104 26.8208 60.6526 26.8208 60.6526 26.763C59.3231 26.0694 58.1671 25.2023 57.0688 24.2197C57.0688 24.2197 57.1266 24.2197 57.1266 24.2775C56.7798 23.9884 56.4908 23.6416 56.1439 23.3526C55.7971 23.0058 55.5081 22.659 55.2191 22.2543C55.1613 22.1965 55.1035 22.1965 55.0457 22.1965C54.9879 22.2543 54.9301 22.3121 54.9301 22.3121ZM60.6526 26.8786C60.6526 26.9364 60.7104 26.9364 60.6526 26.8786V26.8786Z" fill="#0F1D21"/>
<path d="M52.6758 17.8612C52.6758 17.919 52.6758 17.9768 52.7336 18.0346C52.907 18.0924 53.0804 18.208 53.2538 18.2658C54.2365 18.7283 55.0457 19.4219 55.855 20.1155C55.855 20.1155 55.855 20.1155 55.9128 20.1734C56.9532 21.0982 57.8781 22.1387 58.9186 23.0635C60.0168 24.0462 61.1729 24.9132 62.5024 25.4913C62.618 25.5491 62.7914 25.5491 62.907 25.4913C63.0226 25.4335 63.1382 25.3179 63.196 25.2023C63.2538 25.0866 63.2538 24.9132 63.196 24.7976C63.1382 24.682 63.0226 24.5664 62.907 24.5086C62.618 24.393 62.3868 24.2774 62.1556 24.1618C61.3463 23.7572 60.5949 23.2369 59.9012 22.6589C59.1498 22.0809 58.3983 21.445 57.6469 20.8092C56.8954 20.2312 56.2018 19.6531 55.3925 19.1329C54.5833 18.6127 53.774 18.1502 52.8492 17.7456C52.8492 17.7456 52.8492 17.7456 52.7914 17.7456C52.7336 17.8034 52.6758 17.8612 52.6758 17.8612ZM62.0977 24.1618C62.1555 24.1618 62.1556 24.2196 62.2134 24.2196C62.2134 24.2196 62.1555 24.2196 62.0977 24.1618ZM53.3116 18.3236C53.2538 18.2658 53.2538 18.2658 53.3116 18.3236V18.3236Z" fill="#0F1D21"/>
<path d="M33.8903 39.4797C33.7747 39.5375 33.7747 39.6531 33.7747 39.7687C33.8325 39.9999 33.9481 40.1733 34.0059 40.4045V40.3467C34.1794 40.9248 34.295 41.5606 34.295 42.1964C34.295 42.4855 34.295 42.7745 34.295 43.0635C34.295 43.3525 34.2372 43.5837 34.1794 43.8727C34.0638 44.2774 33.9481 44.6242 33.7747 44.971C33.6013 45.26 33.3701 45.549 33.1389 45.8381C32.8499 46.1271 32.5609 46.3583 32.2718 46.5317C31.9828 46.7051 31.636 46.8785 31.347 46.9941C31.058 47.1097 30.9424 47.5144 31.058 47.8034C31.1158 47.919 31.2314 48.0346 31.4048 48.0924C31.5782 48.1502 31.6938 48.1502 31.8672 48.0924C32.2718 47.919 32.6765 47.6878 33.0811 47.3988C33.4279 47.1675 33.7747 46.8207 34.0059 46.4739C34.2372 46.1849 34.4684 45.8381 34.584 45.4912C34.7574 45.1444 34.873 44.7398 34.9308 44.3352C35.1042 43.5837 35.0464 42.7745 34.9308 41.9652C34.873 41.5606 34.7574 41.156 34.6418 40.7514C34.5262 40.3467 34.3528 39.9421 34.2372 39.5375C34.1794 39.4797 34.1216 39.4219 34.0638 39.4219C33.9481 39.4219 33.9481 39.4219 33.8903 39.4797ZM34.3528 42.1386V42.1964C34.3528 42.1964 34.3528 42.1964 34.3528 42.1386ZM33.2545 45.7225L33.1967 45.7803C33.1967 45.7803 33.1967 45.7225 33.2545 45.7225ZM32.3296 46.4739L32.2718 46.5317C32.3296 46.4739 32.3296 46.4739 32.3296 46.4739Z" fill="#0F1D21"/>
<path d="M31.174 36.9942C31.0584 37.052 31.0006 37.1676 31.0584 37.2832C31.2318 37.63 31.4052 37.9769 31.5208 38.3237C31.5208 38.3237 31.5208 38.3237 31.5208 38.2659C31.6942 38.7861 31.752 39.3063 31.8098 39.8266C31.8098 40.3468 31.8098 40.867 31.6942 41.3295C31.5786 41.7341 31.463 42.1387 31.2318 42.5433C31.174 42.6589 31.1162 42.7745 31.0584 42.8324C30.9428 43.0058 30.9428 43.237 31.174 43.4104C31.2896 43.4682 31.3474 43.526 31.463 43.4682C31.5786 43.4682 31.6942 43.4104 31.6942 43.2948C31.8098 43.0636 31.9254 42.8324 32.041 42.6011C32.1566 42.3699 32.2144 42.0809 32.2722 41.8497C32.3878 41.3295 32.4456 40.7514 32.3878 40.1734C32.33 39.0751 32.041 37.9769 31.463 37.052C31.4052 36.9942 31.3474 36.9364 31.2318 36.9364C31.2318 36.9942 31.174 36.9942 31.174 36.9942Z" fill="#0F1D21"/>
<path d="M17.7057 50.1157C17.3011 51.0983 16.8965 52.0232 16.3762 52.948C16.3762 52.948 16.3762 52.948 16.3762 52.8902C15.2202 55.0868 13.7751 57.0521 12.3878 59.133C11.6941 60.1735 11.0583 61.1561 10.4803 62.2544C9.90223 63.3527 9.3242 64.4509 8.91957 65.6648C8.45715 66.9365 8.16813 68.266 8.05252 69.5954C7.87911 70.8671 7.87911 72.1388 7.93691 73.4105C7.99472 74.6821 8.22593 75.9538 8.57275 77.1677C8.91957 78.4394 9.382 79.6532 10.0178 80.8093C10.5959 81.9076 11.2895 82.948 12.0988 83.9307C12.5034 84.4509 12.9658 84.8556 13.4282 85.318C13.8907 85.7226 14.3531 86.1272 14.8155 86.4741C15.1623 86.7053 15.6248 86.6475 15.9138 86.3006C16.145 85.9538 16.0872 85.4914 15.7404 85.2602C15.278 84.9134 14.7577 84.5087 14.2953 84.0463C13.3126 83.1214 12.5034 82.081 11.7519 80.9249C10.9427 79.5954 10.3069 78.2082 9.84443 76.7053V76.7631C9.3242 75.0868 9.03518 73.4105 8.91957 71.6764C8.86177 70.1735 9.03518 68.6128 9.382 67.1677C9.382 67.1677 9.382 67.1677 9.382 67.1099C9.61322 66.1272 9.96004 65.1446 10.3069 64.2197C10.6537 63.2949 11.1161 62.37 11.5785 61.503C11.5785 61.503 11.5785 61.5608 11.5207 61.5608C12.5612 59.711 13.7173 57.9191 14.8155 56.0694C15.3936 55.1446 15.9138 54.2197 16.434 53.2371C16.9543 52.2544 17.4167 51.2139 17.8213 50.1735C17.8791 50.0579 17.7635 49.9423 17.6479 49.9423C17.7635 50.0001 17.7057 50.0579 17.7057 50.1157ZM14.3531 84.0463C14.4109 84.1041 14.4109 84.1041 14.4687 84.1619C14.4687 84.1041 14.4109 84.0463 14.3531 84.0463Z" fill="#0F1D21"/>
<path d="M61.983 58.208C61.7518 58.208 61.4628 58.2658 61.1737 58.3236C60.8847 58.3814 60.5957 58.497 60.2489 58.6704C60.0177 58.786 59.7287 58.9595 59.4396 59.1907C59.2084 59.3641 58.9772 59.5953 58.746 59.8843C58.5148 60.1733 58.3414 60.4623 58.2258 60.7514C58.168 60.867 58.168 60.9248 58.168 61.0404C58.168 61.156 58.2258 61.2138 58.3414 61.2716C58.3992 61.3294 58.457 61.3294 58.5148 61.3294C58.6304 61.3294 58.746 61.2716 58.8038 61.156C58.9194 60.9248 59.035 60.6936 59.2084 60.5201C59.4396 60.2311 59.7287 59.9421 60.0755 59.6531C60.3645 59.4219 60.6535 59.2485 60.9425 59.1329C61.2315 59.0173 61.5206 58.9595 61.7518 58.9017C61.8674 58.9017 61.983 58.9017 62.0986 58.9017C62.2142 58.9017 62.3298 58.9017 62.3876 58.9017C62.561 58.9017 62.7344 58.9595 62.9657 59.0751C63.1391 59.1907 63.3125 59.2485 63.4859 59.3641C63.6593 59.4797 63.8327 59.6531 64.0061 59.8843L64.0639 59.9421C64.1217 59.9999 64.1795 60.0577 64.2373 60.0577H64.2951C64.3529 60.0577 64.4107 60.0577 64.4107 59.9999C64.4685 59.9421 64.5264 59.8843 64.5264 59.8265C64.5264 59.7687 64.5264 59.7109 64.4685 59.6531C64.2373 59.3641 64.0639 59.1329 63.7749 58.9017C63.5437 58.7282 63.2547 58.5548 62.9657 58.4392C62.7344 58.3236 62.3876 58.2658 62.0986 58.2658C62.0986 58.208 62.0408 58.208 61.983 58.208Z" fill="#192E35"/>
<path d="M52.3887 40.5781C51.8685 40.0579 50.1922 40.8671 48.6315 42.4278C47.0708 43.9885 46.3194 45.6648 46.8396 46.185C47.3598 46.7053 49.0361 45.896 50.5968 44.3353C52.0997 42.7746 52.909 41.0983 52.3887 40.5781Z" fill="#0F1D21"/>
<path d="M75.9145 42.5433C76.2613 41.9075 75.163 40.578 73.4289 39.4797C71.6948 38.3815 69.9607 38.0346 69.5561 38.6127C69.2093 39.2485 70.3075 40.578 72.0416 41.6763C73.7757 42.7745 75.5099 43.1791 75.9145 42.5433Z" fill="#0F1D21"/>
<path d="M51.9823 48.5549H51.9245C51.5776 48.6127 51.2886 48.9596 51.1152 49.4798C50.9418 50.0578 50.884 50.7515 50.9996 51.5029C51.173 53.0058 51.8666 54.1619 52.5603 54.1619H52.6181C52.9649 54.1041 53.2539 53.7572 53.4273 53.237C53.6008 52.659 53.6586 51.9653 53.543 51.2139C53.3695 49.711 52.6759 48.5549 51.9823 48.5549Z" fill="#192E35"/>
<path d="M71.8084 45.2023H71.7506C71.4038 45.2601 71.1148 45.6069 70.9414 46.1271C70.768 46.7052 70.7102 47.3988 70.8258 48.1503C70.9992 49.6531 71.6928 50.8092 72.3865 50.8092H72.4443C72.7911 50.7514 73.0801 50.4046 73.2535 49.8844C73.4269 49.3063 73.4847 48.6127 73.3691 47.8612C73.1957 46.3583 72.5599 45.2023 71.8084 45.2023Z" fill="#192E35"/>
<path d="M63.6007 43.3525C63.4851 43.3525 63.3695 43.4681 63.3695 43.5838C63.3117 44.682 63.3117 45.7225 63.3695 46.7629C63.4273 47.7456 63.5429 48.8439 63.6585 49.9999C63.6585 50.1155 63.7741 50.1734 63.8898 50.1734H63.9476C64.4678 49.9421 64.9302 49.8265 65.3926 49.7687C65.5661 49.7687 65.6817 49.7687 65.8551 49.7687C65.9707 49.7687 66.0863 49.7687 66.2019 49.7687C66.3753 49.8265 66.5487 49.8265 66.7221 49.8843C66.8377 49.9421 66.9533 49.9999 67.0689 50.1155C67.1846 50.1733 67.2424 50.289 67.358 50.4046C67.4736 50.5202 67.5314 50.6358 67.5892 50.8092C67.647 50.9826 67.7048 51.156 67.7048 51.3294C67.7048 51.6184 67.7048 51.8496 67.7048 52.0809C67.647 52.3121 67.5892 52.6011 67.4736 52.8323C67.358 53.0635 67.2424 53.3525 67.0689 53.5838C66.8955 53.815 66.6643 54.0462 66.4331 54.2196C66.2019 54.393 65.9707 54.5086 65.7395 54.6242H65.6817C65.4504 54.7398 65.1614 54.7976 64.8724 54.8554C64.7568 54.8554 64.6412 54.971 64.6412 55.0288C64.5834 55.1444 64.5834 55.2601 64.5834 55.3757C64.5834 55.4913 64.699 55.5491 64.7568 55.6069C64.8146 55.6647 64.8724 55.6647 64.9302 55.6647C64.988 55.6647 64.988 55.6647 65.0458 55.6647C65.4505 55.5491 65.8551 55.4335 66.2019 55.2601C66.4909 55.0866 66.8377 54.8554 67.1267 54.5664C67.5892 54.104 67.9938 53.4681 68.1672 52.7745C68.3406 52.1387 68.3406 51.5028 68.1672 50.9248C67.9938 50.3468 67.647 49.8843 67.1267 49.5953C66.7799 49.3641 66.3175 49.2485 65.7973 49.2485H65.6817C65.1614 49.2485 64.5834 49.4219 63.9476 49.6531V49.4797L63.8898 49.2485C63.6585 47.4566 63.6007 45.5491 63.6585 43.5838C63.6585 43.526 63.6585 43.4681 63.6007 43.4681C63.7163 43.4103 63.6585 43.3525 63.6007 43.3525Z" fill="#CA8664"/>
</svg>
