<svg width="100" height="100" viewBox="0 0 100 100" fill="none" xmlns="http://www.w3.org/2000/svg">
<path d="M50.1314 0H49.9576C36.8638 0.0579374 24.5231 5.15643 15.311 14.4264C6.04104 23.6964 0.942551 35.9212 1.00049 48.9571C1.05843 75.7822 23.0746 97.6246 50.0735 97.6246H50.2473C63.3412 97.5666 75.6818 92.4681 84.8939 83.1981C94.1639 73.9282 99.2044 61.6454 99.2044 48.6095C99.0885 21.8424 77.1303 0 50.1314 0Z" fill="#F6E9E3"/>
<path d="M55.5767 11.8772C55.4029 11.8772 55.2291 11.8772 54.9973 11.8772C50.71 11.9351 46.944 12.3407 43.5837 13.1518C39.4701 14.1947 36.0518 15.8169 33.5605 18.1344C33.3867 18.1344 33.2129 18.1344 33.039 18.1344C32.5755 18.1344 32.112 18.1344 31.6485 18.1924C31.0112 18.2503 30.3739 18.4241 29.6787 18.6559C28.5199 19.0614 27.4191 19.6408 26.3762 20.5099C25.4492 21.2631 24.5802 22.248 23.827 23.4067C23.1317 24.4496 22.4944 25.6663 21.8571 27.0568C20.9301 29.2005 20.1769 31.6339 19.4817 34.7625C19.2499 35.8054 19.0182 37.022 18.7285 38.3546L18.6126 38.934C18.4967 39.5133 18.3809 40.1507 18.265 40.73C18.0912 41.715 17.8594 42.642 17.6277 43.569V43.511V43.4531C17.2221 44.8436 16.8166 46.1762 16.2951 47.3928C15.7737 48.6675 15.1364 50 14.3832 51.2746C13.9197 52.0858 13.3403 52.8969 12.703 53.766C12.2974 54.3453 11.8919 54.9247 11.4284 55.5041L10.849 56.3152C9.69026 57.8795 8.47357 59.6176 7.37276 61.4716C6.27195 63.3256 5.46083 65.2376 4.93939 67.1495C4.47589 68.8876 4.24414 70.6257 4.24414 72.3639C4.24414 73.175 4.30208 74.0441 4.41795 74.8552C4.53383 75.6084 4.70764 76.3616 4.93939 77.2306C5.34495 78.737 5.98226 80.1854 6.85133 81.6339C8.41564 84.3569 10.7911 86.7324 13.6879 88.6443C14.7308 89.3395 15.8896 89.9768 17.1642 90.4983C18.4388 91.0777 19.8293 91.5412 21.4516 92.0047C21.6833 92.1205 21.973 92.1785 22.2047 92.2943C23.2476 92.642 24.4064 92.9317 25.6231 93.1634C27.6509 93.569 29.8525 93.8007 32.6335 93.9166C33.9081 93.9745 35.2407 93.9745 36.2835 93.9745H37.5582C38.3693 93.9745 39.2383 93.9745 40.0495 93.9745H40.9765C43.0622 93.9745 45.148 94.0325 47.2337 94.0325H47.7551C51.9846 94.0325 57.6045 93.9166 63.1665 93.2793C64.3832 93.1634 65.5999 92.9896 66.8745 92.7578C67.8594 92.584 68.9023 92.4102 70.119 92.1205C72.1468 91.715 73.7691 91.3094 75.2754 90.8459C77.1874 90.2665 78.8675 89.6292 80.4319 88.8181C82.112 87.949 83.6184 86.9062 84.7772 85.7474C85.3565 85.168 85.9359 84.4728 86.3994 83.7196C86.8629 83.0244 87.2685 82.2132 87.674 81.1124C88.3693 79.2005 88.659 77.0568 88.5431 74.8552C88.4272 73.2329 88.1375 71.4948 87.5002 69.5829C86.9788 67.7868 86.2256 66.0487 85.5303 64.3685L85.1248 63.3836C84.5454 61.9931 83.966 60.5446 83.4446 59.1541C83.097 58.2271 82.8073 57.3581 82.5755 56.547C82.2859 55.562 82.112 54.693 81.9962 53.8818V53.8239C81.9382 53.1286 81.8803 52.4334 81.8803 51.7381C81.8803 51.1008 81.9382 50.4056 82.0541 49.5945V49.7103C82.3438 47.5667 82.9811 45.4809 83.5605 43.4531C84.1398 41.4832 84.7192 39.5133 85.0089 37.4855C85.1827 36.3847 85.2407 35.3419 85.2407 34.3569C85.2407 33.4299 85.1248 32.445 84.8351 31.2283C84.4875 29.4322 83.8502 27.6362 82.9811 25.8981C82.2279 24.3337 81.185 22.8274 79.9684 21.3789C78.8675 20.1043 77.477 18.8297 75.9707 17.7289C73.1317 15.6431 69.7134 14.0788 65.9475 13.0939C64.2094 12.6304 62.2974 12.3407 60.3855 12.1669C59.4585 12.1089 58.5315 12.051 57.7204 12.051C57.0251 11.9351 56.3299 11.8772 55.5767 11.8772Z" fill="#192E35"/>
<path d="M53.8393 18.6558C53.202 18.7138 52.5647 18.7717 51.9273 18.8297C50.8845 19.0035 49.7837 19.1773 48.7987 19.467C48.2773 19.6408 47.6979 19.7566 47.1765 19.9884C46.655 20.1622 46.1915 20.336 45.728 20.5678H45.786C44.859 20.9733 43.932 21.4368 43.0629 21.9583C42.5994 22.248 42.1359 22.5376 41.6724 22.8273C41.2669 23.117 40.8613 23.4067 40.4557 23.6964C38.7756 25.029 37.2112 26.5353 35.8787 28.2735C35.2993 29.0266 34.7199 29.8378 34.2564 30.7068C34.0247 31.1703 33.735 31.5759 33.5612 32.0394C33.3294 32.4449 33.1556 32.8505 32.9818 33.314C32.9818 33.314 32.9818 33.314 32.9818 33.2561C32.5183 34.2989 32.1707 35.3998 31.881 36.4426C31.7651 36.9641 31.5913 37.5434 31.5334 38.0649C31.4175 38.5863 31.3596 39.1657 31.2437 39.7451C31.1278 40.5562 31.0699 41.3094 31.0119 42.1205C30.954 42.9316 30.954 43.7427 30.954 44.5539C30.954 45.365 31.0119 46.2341 31.0119 47.0452C31.0119 47.8563 31.0699 48.7254 31.0119 49.5365C31.0119 50.1738 30.954 50.8111 30.8961 51.4484C30.8381 51.9699 30.7802 52.5492 30.6643 53.0707C30.5484 53.708 30.3746 54.2874 30.2008 54.8667C30.027 55.3302 29.8532 55.7937 29.6214 56.2572C29.2159 57.1842 28.7524 58.0533 28.2309 58.9223C27.7095 59.7914 27.1881 60.6025 26.6666 61.4137C25.6238 63.0359 24.465 64.5423 23.4221 66.1645C22.9007 66.9757 22.3793 67.7288 21.9158 68.5979C21.4523 69.409 21.0467 70.2781 20.6411 71.1471C20.3515 71.9003 20.0618 72.6535 19.83 73.4067C19.7141 73.8123 19.5983 74.2758 19.5403 74.6813C19.4824 75.0869 19.3665 75.4925 19.3086 75.898C19.3086 75.898 19.3086 75.898 19.3086 75.8401C19.1927 76.7091 19.1348 77.6361 19.1348 78.5631C19.1348 78.9687 19.1348 79.3743 19.1927 79.7798C19.2506 80.1854 19.2506 80.591 19.3086 80.9965C19.4245 81.8656 19.5983 82.7346 19.83 83.5458C19.9459 83.9513 20.0618 84.3569 20.2356 84.7624C20.4094 85.168 20.5253 85.5736 20.6991 85.9791C21.0467 86.8482 21.5102 87.6593 21.9737 88.4704C22.2055 88.876 22.4372 89.2816 22.7269 89.6871C22.9586 90.0927 23.2483 90.4403 23.538 90.7879C24.1174 91.5411 24.7547 92.2364 25.392 92.9316C25.5079 92.9316 25.6238 92.9895 25.7976 92.9895C27.8254 93.3951 30.027 93.6269 32.808 93.7427C34.1406 93.8007 35.4731 93.8007 36.4581 93.8007H37.7327H39.0073H40.224H41.151C43.2367 93.8007 45.3225 93.8586 47.4082 93.8586H47.9297C52.1591 93.8586 57.7211 93.7427 63.341 93.1054C64.5577 92.9896 65.7744 92.8157 67.049 92.584C68.034 92.4102 69.0768 92.2364 70.2935 91.9467C72.3213 91.5411 74.0015 91.1356 75.4499 90.6721C77.1301 90.1506 78.5786 89.6292 79.9691 88.9919C80.2588 88.5284 80.4905 88.0069 80.7802 87.5434C81.0699 86.9641 81.3596 86.3268 81.6492 85.6894C81.6492 85.6894 81.6492 85.6894 81.6492 85.7474C82.1127 84.5886 82.5762 83.4299 82.8659 82.2132C83.0397 81.5759 83.2136 80.9386 83.3294 80.3013C83.4453 79.664 83.5612 79.0846 83.6191 78.4473C83.6191 78.4473 83.6191 78.4473 83.6191 78.5052C83.7929 77.4044 83.8509 76.2456 83.8509 75.1448C83.8509 74.8551 83.8509 74.5075 83.8509 74.2178C83.8509 73.9281 83.8509 73.6385 83.8509 73.4067C83.8509 73.0591 83.7929 72.7115 83.7929 72.3638C83.7929 72.0741 83.735 71.7845 83.6771 71.5527C83.5612 70.6257 83.3874 69.7566 83.1556 68.8297C82.9239 67.9606 82.6921 67.0336 82.4024 66.1645C82.0548 65.0058 81.6493 63.847 81.3016 62.6883C80.954 61.5295 80.5484 60.3708 80.2588 59.212C79.9691 58.0533 79.7373 56.8945 79.6214 55.7358C79.5635 55.0985 79.5056 54.4612 79.5056 53.8239C79.5056 53.2445 79.5056 52.6651 79.5635 52.0857C79.6214 50.927 79.7952 49.8262 80.027 48.6674C80.2587 47.5087 80.4905 46.4079 80.7802 45.2491C81.0699 44.1483 81.3596 42.9896 81.5913 41.8308C81.8231 40.6721 82.0548 39.5713 82.2286 38.4125C82.3445 37.6014 82.4024 36.7323 82.4604 35.8633C82.4604 35.4577 82.4604 34.9942 82.4604 34.5886C82.4604 34.241 82.4024 33.8934 82.3445 33.4878C82.2866 33.0243 82.2286 32.5608 82.0548 32.0973C81.9969 31.8656 81.9389 31.6918 81.881 31.46C81.8231 31.2283 81.7072 31.0544 81.6492 30.8806C81.6492 30.8806 81.6492 30.8806 81.6492 30.9386C81.4754 30.533 81.3016 30.1274 81.0119 29.7219C80.7802 29.3743 80.5484 29.0266 80.3167 28.7369C79.9691 28.3314 79.6214 27.9258 79.2159 27.5203C78.8103 27.1147 78.4048 26.7671 77.9413 26.4195C76.6666 25.4345 75.2761 24.6234 73.8277 23.8123C73.0745 23.4067 72.2634 22.9432 71.5102 22.5956C70.6991 22.19 69.8879 21.8424 69.0768 21.4948H69.1348C67.6284 20.8575 66.0641 20.2781 64.4418 19.8725C63.6307 19.6408 62.8196 19.467 62.0085 19.2931C61.2553 19.1193 60.5021 19.0035 59.691 18.8876C58.4163 18.7138 57.0838 18.5979 55.8092 18.5979H55.6933C55.056 18.5979 54.4766 18.5979 53.8393 18.6558Z" fill="#0F1D21"/>
<path d="M29.9105 48.088C29.7946 48.088 29.6787 48.088 29.5628 48.088C29.2152 48.088 28.8676 48.2039 28.462 48.3777C27.7088 48.6674 27.0715 49.2468 26.4922 50.1158C26.1445 50.5793 25.9128 51.1008 25.681 51.6801C25.5072 52.2016 25.3334 52.7809 25.2755 53.4183C25.1596 54.577 25.3334 55.7358 25.739 57.0104C26.1445 58.1112 26.7818 59.212 27.593 60.139C27.9985 60.6025 28.462 61.0081 28.9255 61.3557C29.447 61.7612 30.0843 62.1089 30.7795 62.3406C31.8224 62.7462 33.0391 62.9779 34.5455 63.0359C34.7772 63.0359 34.951 63.0359 35.1828 63.0359C36.2256 63.0359 37.2685 62.9779 38.2535 62.8621H38.4852C38.6011 62.8621 38.717 62.7462 38.717 62.6882C38.7749 62.6303 38.7749 62.5144 38.7749 62.3986C38.7749 62.3406 38.717 62.2247 38.659 62.1668C38.717 61.2398 38.7749 60.4866 38.7749 59.7914C38.7749 59.2699 38.717 58.5747 38.6011 57.8794C38.4852 57.1842 38.2535 56.4889 37.8479 55.6199C37.5003 54.8088 37.0947 54.0556 36.5153 53.2444C35.9939 52.3754 35.3566 51.6222 34.7772 50.9269C34.1399 50.1738 33.4447 49.5944 32.7494 49.1309C31.9962 48.6095 31.243 48.3198 30.5478 48.1459C30.374 48.088 30.1422 48.088 29.9105 48.088Z" fill="#FEBE9C"/>
<path d="M30.7223 52.8389C30.5485 53.2445 30.3747 53.6501 30.3167 54.1135C30.2588 54.5191 30.2588 54.9826 30.2588 55.3882C30.3167 56.2572 30.6064 57.1263 31.0699 57.8795C31.3017 58.285 31.5334 58.6327 31.8231 58.9224C32.1128 59.27 32.4025 59.5597 32.7501 59.7914C33.3874 60.3129 34.1406 60.6605 34.9517 60.8922C35.0097 60.8922 35.1255 60.8922 35.1255 60.7764C35.1255 60.7184 35.1255 60.6025 35.0097 60.6025C34.8358 60.5446 34.72 60.4867 34.5462 60.4287C34.0827 60.2549 33.6771 60.0232 33.3295 59.7335C32.9239 59.3859 32.5763 59.0382 32.2287 58.6327C31.881 58.1692 31.5914 57.6477 31.3596 57.1263C31.1858 56.6628 31.0699 56.1993 30.954 55.7358C30.8961 55.3302 30.8961 54.9247 30.954 54.5191C31.012 54.1715 31.1279 53.7659 31.2437 53.4183C31.3017 53.3604 31.3017 53.2445 31.3596 53.1866C31.4175 53.0707 31.4175 53.0127 31.4175 52.8969C31.4175 52.781 31.3017 52.7231 31.2437 52.6651C31.1858 52.6072 31.1279 52.6072 31.0699 52.6072C30.8961 52.6651 30.7802 52.723 30.7223 52.8389Z" fill="#FF9B68"/>
<path d="M27.767 51.7961C27.3614 51.912 27.0138 52.2017 26.7241 52.4914C26.6662 52.5493 26.6662 52.6652 26.7241 52.7231C26.7821 52.7811 26.8979 52.7811 26.9559 52.7231C27.0717 52.6073 27.1297 52.5493 27.2456 52.4914C27.3614 52.3755 27.5352 52.3176 27.7091 52.2596C27.8829 52.2017 27.9987 52.1438 28.1726 52.1438C28.3464 52.1438 28.5781 52.1438 28.7519 52.1438C29.0416 52.2017 29.2734 52.2596 29.563 52.3755C30.0265 52.5493 30.4321 52.839 30.8377 53.1287C30.8377 53.1287 30.8956 53.1287 30.8956 53.1866L30.9535 53.2446C31.0115 53.3025 31.0694 53.3025 31.1274 53.3025C31.2432 53.3025 31.3012 53.2446 31.3591 53.1866C31.417 53.1287 31.475 53.0128 31.475 52.9549C31.475 52.897 31.417 52.7811 31.3591 52.7231C30.7218 52.1438 29.8527 51.8541 28.9837 51.7382C28.9257 51.7382 28.8099 51.7382 28.7519 51.7382C28.4043 51.6223 28.1146 51.6803 27.767 51.7961Z" fill="#FF9B68"/>
<path d="M80.8377 42.5261C80.606 42.5261 80.3163 42.5261 80.0845 42.5841C79.3313 42.7579 78.5782 43.0476 77.8829 43.569C77.1877 44.0325 76.4924 44.6119 75.8551 45.3651C75.2178 46.0603 74.6384 46.8135 74.117 47.6826C73.5955 48.4937 73.132 49.3048 72.7844 50.058C72.4368 50.927 72.1471 51.6223 72.0312 52.3175C71.9154 53.0128 71.8574 53.708 71.8574 54.2295C71.8574 54.9827 71.8574 55.7359 71.9733 56.6049C71.9154 56.6629 71.8574 56.7208 71.8574 56.8367C71.8574 56.9525 71.8574 57.0684 71.9154 57.1264C71.9733 57.1843 72.0892 57.3002 72.205 57.3002H72.4368H72.4947H72.5527C73.5376 57.3581 74.5225 57.474 75.5075 57.474C75.7392 57.474 75.913 57.474 76.1448 57.474C77.6512 57.416 78.8678 57.1843 79.9107 56.7787C80.606 56.489 81.2433 56.1414 81.7647 55.7938C82.2862 55.4462 82.6917 55.0406 83.0973 54.5771C83.9084 53.6501 84.5457 52.5493 84.9513 51.4485C85.4148 50.1739 85.5307 49.0151 85.4727 47.8564C85.4148 47.2191 85.2989 46.6397 85.0672 46.1182C84.8354 45.5968 84.6037 45.0754 84.256 44.5539C83.6767 43.6849 83.0393 43.1055 82.2862 42.8158C81.9385 42.642 81.533 42.5841 81.1853 42.5261C81.0695 42.5261 80.9536 42.5261 80.8377 42.5261Z" fill="#FEA97E"/>
<path d="M81.9963 44.7277C80.6637 44.9594 79.3891 45.5388 78.3462 46.4078C77.8248 46.8713 77.3034 47.3348 76.8978 47.9142C76.4922 48.4936 76.0867 49.073 75.8549 49.7682C75.797 50 75.9129 50.2317 76.0867 50.2897C76.2025 50.3476 76.3184 50.3476 76.3764 50.2897C76.4922 50.2317 76.5502 50.1738 76.6081 50.0579C76.666 49.8841 76.7819 49.7103 76.8978 49.5365C77.3034 48.7833 77.7669 48.146 78.3462 47.5087C78.8677 46.9872 79.447 46.5237 80.0264 46.1182C80.0264 46.1182 80.0264 46.1182 79.9685 46.1182C79.9685 46.1182 79.9685 46.1182 80.0264 46.1182C80.0264 46.1182 80.0264 46.1182 80.0843 46.1182C80.5478 45.8285 80.9534 45.6547 81.4748 45.4808C81.4748 45.4808 81.4748 45.4808 81.5328 45.4808C81.5328 45.4808 81.5328 45.4808 81.4748 45.4808C81.7066 45.4229 81.8804 45.365 82.1122 45.365C82.228 45.365 82.3439 45.1912 82.3439 45.0753C82.286 44.7856 82.1701 44.7277 81.9963 44.7277ZM76.8398 49.4206C76.8398 49.4785 76.7819 49.4785 76.7819 49.5365C76.8399 49.5365 76.8398 49.4785 76.8398 49.4206Z" fill="#CA8664"/>
<path d="M46.7706 68.0764C46.7706 68.0764 46.7126 68.0764 46.6547 68.0764C46.5388 68.0764 46.423 68.1344 46.365 68.1923C46.3071 68.2502 46.2491 68.3661 46.2491 68.482C46.1912 69.2931 46.1333 70.1042 46.1333 70.9154C46.0753 72.132 46.0174 73.4067 45.8436 74.6813V74.6233C45.6698 75.898 45.3801 76.9988 44.9745 77.9258C44.6848 78.621 44.3372 79.2004 43.9316 79.7218C43.642 80.1274 43.2943 80.475 42.8888 80.7647C42.4253 81.1123 41.9038 81.402 41.3245 81.6917C40.3395 82.0973 39.2967 82.329 37.9062 82.5608C37.9062 82.5608 37.9062 82.5608 37.8482 82.5608C37.153 82.6766 36.3998 82.7346 35.7045 82.7925C35.1831 82.8505 34.6617 82.9084 34.1402 82.9663C33.2712 83.0822 32.518 83.1981 31.8227 83.314C31.0695 83.4878 30.3164 83.7195 29.6211 84.0671C29.5632 84.1251 29.5052 84.183 29.4473 84.2989C29.2735 84.4148 29.2735 84.6465 29.3894 84.8783C30.664 86.6164 32.3442 88.0648 34.4299 89.2815C36.2839 90.3823 38.4276 91.3093 40.861 91.9466C43.0046 92.526 45.3221 92.9895 47.9293 93.2213C49.6095 93.3951 51.3476 93.453 53.1437 93.453C53.6651 93.453 54.2445 93.453 54.7659 93.453C56.0985 93.3951 57.2573 93.3371 58.3581 93.2213C59.7486 93.1054 61.1391 92.8736 62.5296 92.526C65.3685 91.8887 68.0336 90.9038 70.409 89.5712C71.5678 88.9339 72.6686 88.1807 73.7115 87.3696C74.2329 86.964 74.7544 86.5005 75.2758 86.037C75.8552 85.5156 76.3766 84.9941 76.898 84.4727C76.956 84.4148 77.0139 84.3568 77.0139 84.241H77.0719C77.1298 84.241 77.1298 84.241 77.1298 84.241C77.2457 84.241 77.3036 84.1251 77.3615 84.0671C77.4195 83.9513 77.4195 83.8933 77.4195 83.7775C77.4195 83.7195 77.3036 83.6036 77.2457 83.5457C76.7822 83.314 76.3187 83.1401 75.7972 83.0243C75.3917 82.9084 74.9282 82.7346 74.3488 82.6187C74.0012 82.5608 73.5377 82.4449 73.1321 82.387C72.8424 82.329 72.4948 82.2711 72.0313 82.2711C71.394 82.2131 70.6987 82.1552 70.0614 82.0973C69.2503 82.0393 68.3812 81.9814 67.5122 81.8655C66.5272 81.6917 65.7161 81.5179 65.0209 81.2282C64.5574 81.0544 64.1518 80.7647 63.8042 80.533C63.5145 80.3012 63.2248 80.0115 62.9931 79.6639C62.7613 79.3163 62.5296 78.9687 62.3557 78.5631C62.124 78.0417 62.0081 77.5202 61.8922 76.9408C61.7764 75.9559 61.7764 74.913 61.9502 73.5805C62.0661 72.9432 62.1819 72.3058 62.2399 71.6685C62.2978 71.3788 62.3557 71.0312 62.4137 70.7415C62.5296 70.6836 62.5875 70.5677 62.5875 70.4518C62.5875 70.336 62.5875 70.2201 62.4716 70.1622C62.4137 70.1042 62.2978 70.0463 62.1819 70.0463C59.4589 69.8725 56.7358 69.5249 54.1286 69.1193C51.8111 68.6558 49.2619 68.3082 46.7706 68.0764Z" fill="#FEBE9C"/>
<path d="M46.6552 68.0764C46.5394 68.0764 46.4235 68.1344 46.3655 68.1923C46.3076 68.2502 46.2497 68.3661 46.2497 68.482C46.1917 69.1193 46.1917 69.8145 46.1338 70.4518C46.5394 70.9153 47.0028 71.4368 47.4663 71.8423C48.1037 72.4217 48.741 73.0011 49.4362 73.5225C50.1315 74.044 50.8267 74.5075 51.5799 74.913C52.2752 75.2607 52.9704 75.6083 53.6657 75.84C54.3609 76.0718 55.0562 76.3035 55.8093 76.4773C56.5046 76.6512 57.1419 76.767 57.8371 76.825C58.5324 76.8829 59.2276 76.9408 59.9808 76.8829H59.9229C60.5602 76.8829 61.1975 76.825 61.8348 76.7091C61.719 75.7821 61.7769 74.7392 61.9507 73.4067C62.0666 72.7693 62.1245 72.132 62.2404 71.5527C62.2983 71.205 62.3563 70.9154 62.4142 70.6257C62.5301 70.5677 62.588 70.4519 62.588 70.336C62.588 70.2201 62.5301 70.1042 62.4721 70.0463C62.4142 69.9884 62.2983 69.9304 62.1825 69.9304C59.4594 69.7566 56.7363 69.409 54.1292 69.0034C51.6958 68.6558 49.2045 68.3082 46.7132 68.1344C46.7132 68.0764 46.7132 68.0764 46.6552 68.0764Z" fill="#FF9B68"/>
<path d="M76.4344 82.5029C76.3764 82.5029 76.3185 82.5608 76.2605 82.6188C75.7391 83.2561 75.1018 83.8355 74.4065 84.4148C72.4367 85.9212 70.1771 87.022 68.2652 87.8331C67.3961 88.1808 66.6429 88.5284 65.9477 88.7601C65.1366 89.0498 64.3254 89.3395 63.5143 89.5713C61.8921 90.0348 60.2119 90.4403 58.4738 90.6721C56.5618 90.9618 54.6499 91.0776 52.7379 91.0776C51.2895 91.0776 49.7831 91.0197 48.3347 90.8459C45.2061 90.4983 42.1933 89.6871 39.4123 88.5863L39.4703 88.6443H39.5282C37.0369 87.6014 34.7194 86.3268 32.6916 84.7625C32.1122 84.299 31.5328 83.8355 30.9535 83.314C30.9535 83.314 30.8955 83.2561 30.8376 83.2561C30.7797 83.1981 30.6638 83.1402 30.5479 83.1402H30.49C27.9987 83.5458 25.5074 84.5886 22.8422 86.3268C21.6835 87.08 20.5247 88.007 19.4239 88.9919C18.4969 89.803 17.6858 90.73 16.9326 91.657C16.9906 91.715 16.9906 91.7149 17.0485 91.7729C17.2223 91.8888 17.3961 92.0626 17.5699 92.1785C19.1342 93.3951 20.9303 94.3221 22.7264 95.0753C23.943 95.5968 25.2177 96.0603 26.5502 96.4658C27.8828 96.8714 29.2154 97.219 30.5479 97.5666C33.213 98.2039 35.9361 98.6674 38.6592 99.073C38.7171 99.073 38.7171 99.073 38.775 99.073C43.5259 99.7103 48.3347 100 53.0856 100C57.8944 100 62.7032 99.7103 67.4541 99.073C67.4541 99.073 67.4541 99.073 67.3961 99.073C70.1192 98.7254 72.9002 98.2039 75.5653 97.5666C78.2304 96.9293 80.8376 96.1182 83.3289 95.0753C83.3289 95.0753 83.3289 95.0753 83.271 95.0753C85.125 94.3221 86.8631 93.3951 88.4853 92.1785C88.833 91.8888 89.1806 91.657 89.4703 91.3673C89.6441 91.1935 89.8179 91.0197 89.9917 90.8459C90.0497 90.788 90.1076 90.73 90.1655 90.6721C89.4123 89.803 88.5433 88.9919 87.5004 88.1808C86.5155 87.3696 85.4147 86.6165 84.198 85.8633C83.0392 85.168 81.8225 84.5307 80.6058 83.9513C79.3892 83.372 78.1725 82.9085 76.9558 82.5608C76.8979 82.5608 76.8979 82.5608 76.8399 82.5608C76.6082 82.445 76.4923 82.445 76.4344 82.5029Z" fill="#EF306C"/>
<path d="M76.4344 82.5028C76.3764 82.5028 76.3185 82.5608 76.2605 82.6187C75.7391 83.256 75.1018 83.8354 74.4065 84.4148C72.4367 85.9211 70.1771 87.022 68.2652 87.8331C67.3961 88.1807 66.7009 88.4704 65.9477 88.7601C65.1945 89.0498 64.3834 89.2815 63.5143 89.5712C61.8921 90.0347 60.2119 90.4403 58.4738 90.672C56.5618 90.9617 54.6499 91.0776 52.738 91.0776C51.2895 91.0776 49.7831 91.0196 48.3347 90.8458C45.2061 90.4982 42.1933 89.6871 39.4123 88.5863L39.4703 88.6442C36.979 87.6013 34.6615 86.2688 32.6916 84.7624C32.0543 84.2989 31.4749 83.8354 30.9535 83.314C30.8955 83.314 30.8955 83.256 30.8376 83.256C30.7797 83.1981 30.6638 83.1401 30.5479 83.1401H30.49C29.563 83.256 28.636 83.4878 27.709 83.8354C28.0566 84.3568 28.4622 84.8203 28.9257 85.2838C29.3892 85.7473 29.8527 86.2108 30.3741 86.6164C31.9964 87.949 33.8504 89.0498 35.7623 89.9768C39.0068 91.4831 42.541 92.526 46.0752 93.1054C47.8712 93.3951 49.7252 93.6268 51.5792 93.6848C52.5062 93.7427 53.4332 93.7427 54.3602 93.6848C55.2872 93.6848 56.1563 93.6268 57.0833 93.5109C57.0833 93.5109 57.0833 93.5109 57.0253 93.5109C59.0531 93.3371 61.0809 92.9316 63.1087 92.4681C64.6731 92.0625 66.2374 91.599 67.7437 91.0196C70.5827 89.9188 73.3637 88.5283 75.855 86.7902C76.6661 86.2108 77.4772 85.5735 78.2304 84.8783C78.7519 84.4148 79.2154 83.9513 79.6789 83.4298C78.7519 83.0243 77.7669 82.6766 76.8399 82.4449C76.782 82.4449 76.724 82.4449 76.724 82.4449C76.6082 82.387 76.4923 82.4449 76.4344 82.5028Z" fill="#F55E84"/>
<path d="M51.7535 14.5422C50.3051 14.5422 48.7987 14.6002 47.3503 14.774C46.1915 14.8899 45.0907 15.0637 43.9899 15.2954C43.005 15.5272 42.02 15.7589 40.9192 16.1065C38.6597 16.8018 36.6319 17.6709 34.7199 18.7717C32.6342 19.9884 30.896 21.3789 29.5635 22.8852C28.8682 23.6963 28.2889 24.5654 27.8254 25.5503C27.3619 26.4773 27.0142 27.5202 26.8404 28.621C26.6087 29.8957 26.6087 31.2862 26.7246 32.7346C26.8404 33.9513 27.1301 35.2259 27.5357 36.6743C28.173 38.876 29.1 41.0196 30.027 43.0475C30.2008 43.453 30.3746 43.8586 30.5484 44.2062C31.3016 45.8864 31.9969 47.7404 32.5762 49.5944C32.8659 50.6952 33.1556 51.8539 33.3294 53.1865C33.3874 53.4762 33.4453 53.8238 33.4453 54.1135C33.5612 54.8667 33.677 55.6778 33.8509 56.431C34.0826 57.5897 34.4302 58.5167 34.9517 59.3858C35.2414 59.8493 35.589 60.3128 35.9945 60.7763C36.2263 61.0081 36.458 61.2398 36.6898 61.4715C36.8057 61.5874 36.9795 61.7033 37.0953 61.8771C37.2112 61.993 37.3271 62.0509 37.443 62.1668C37.6168 62.3406 37.7327 62.5144 37.8485 62.6882C37.8485 62.8041 37.9065 62.862 37.9065 62.92C39.0652 64.9478 40.6875 66.8018 42.7732 68.424C44.7431 69.9304 46.9447 71.205 49.436 72.19C51.8115 73.117 54.1869 73.6384 56.6203 73.8122C57.0838 73.8702 57.6052 73.8702 58.0687 73.8702C58.706 73.8702 59.3433 73.8702 60.0386 73.8122C61.1394 73.7543 62.2981 73.6384 63.4569 73.4067C68.0919 72.6535 72.2054 70.7995 75.2182 68.1344C76.7825 66.7439 78.115 65.0057 79.1 63.2097C79.5635 62.2827 80.027 61.2398 80.3167 60.139C80.6063 59.0382 80.8381 57.9374 80.954 56.6627C81.0699 55.6778 81.0699 54.6929 81.0119 53.65C80.954 52.6651 80.8381 51.5643 80.6063 50.2317C80.4325 49.2468 80.2587 48.2618 80.0849 47.3348C79.8532 46.1181 79.6214 44.7856 79.3897 43.5689V43.5109C79.2738 42.6998 79.2159 41.9466 79.2159 41.2514C79.1579 40.4982 79.1579 39.803 79.1579 39.0498V38.2386C79.1 37.0799 79.1 35.9211 79.042 34.7624C78.9262 33.1981 78.7524 31.8076 78.5206 30.5909C78.2309 29.2004 77.8254 27.8099 77.246 26.5353C76.8984 25.7821 76.4928 24.971 75.9714 24.2178C75.9714 24.1598 75.9134 24.044 75.9134 23.986C74.1753 22.19 72.1475 20.6257 69.8879 19.2931C67.7442 18.0185 65.3109 17.0335 62.7616 16.2804C59.2274 15.0637 55.5194 14.5422 51.7535 14.5422Z" fill="#FEBE9C"/>
<path d="M52.7375 13.7312C52.332 13.7312 51.9264 13.7312 51.5208 13.7312C49.2613 13.7891 46.8858 14.1367 44.5683 14.6002C42.135 15.1217 39.7595 15.8748 37.5579 16.8598C35.2404 17.9026 33.0967 19.1193 31.3007 20.5678C29.3887 22.0741 27.8244 23.8123 26.7236 25.7242C26.1442 26.7091 25.6228 27.8099 25.2752 28.9108C25.1014 29.4901 24.9855 30.1274 24.8696 30.9386C24.6958 32.4449 24.6958 34.1251 24.8696 36.095C25.0434 38.0649 25.3911 39.9189 25.9125 41.657C26.4919 43.6269 27.2451 45.1332 28.1721 46.4079C28.8673 47.3349 30.026 48.5515 31.6483 48.9571C31.9959 49.073 32.4015 49.073 32.807 49.073C33.1547 49.073 33.5602 49.015 33.9079 48.9571C34.719 48.7833 35.5301 48.4357 36.4571 47.8563C37.6159 47.161 38.6587 46.2341 39.7016 45.1912C40.6865 44.1483 41.5556 42.9896 42.3088 41.657C43.062 40.3824 43.6413 39.0498 44.1048 37.7172C44.3366 37.0799 44.5104 36.4426 44.6263 35.6894C44.8001 34.9363 44.858 34.2989 44.858 33.6616C44.858 32.6767 44.6842 31.6338 44.3945 30.5909C44.1048 29.7219 43.6413 28.7949 43.062 27.8099C42.4247 26.7671 41.6715 25.7242 40.9183 24.7972C40.3968 24.102 39.8754 23.4067 39.354 22.6535C39.0063 22.1321 38.7167 21.6686 38.4849 21.2051C38.7167 21.1471 39.0063 21.1471 39.2381 21.1471C39.5857 21.1471 39.9913 21.2051 40.3968 21.321C41.0921 21.5527 41.8453 21.8424 42.7143 22.3638C43.7572 23.0011 44.7422 23.7543 45.6692 24.4496L45.843 24.5655C46.1906 24.8551 46.5962 25.1448 47.0017 25.3766C47.5231 25.7821 48.1025 26.1298 48.624 26.4194C51.2311 27.9838 53.9542 29.2004 56.7931 30.1274C58.1836 30.5909 59.69 30.9386 61.1384 31.2283C62.5289 31.46 63.9774 31.6918 65.5996 31.8076C66.5266 31.8656 67.4536 31.9235 68.3806 31.9235C70.5243 31.9235 72.5521 31.6918 74.4641 31.2862C75.5069 31.0544 76.5498 30.7648 77.5347 30.3592C78.5197 30.0116 79.5046 29.4901 80.5475 28.9108C80.5475 28.9108 80.6054 28.9108 80.6054 28.8528C80.6634 28.7949 80.6634 28.7949 80.7213 28.7369C80.7792 28.679 80.8372 28.5631 80.7792 28.4473C80.6634 28.0996 80.5475 27.6941 80.3737 27.4044C80.1999 27.1147 80.026 26.7671 79.7364 26.3615C79.2729 25.6663 78.7514 25.029 78.3459 24.5075C77.4189 23.4067 76.4339 22.3638 75.2752 21.321C73.1894 19.467 70.7561 17.9606 68.033 16.686C65.5417 15.5852 62.7607 14.7161 59.8059 14.1947C58.4154 13.9629 56.9669 13.7891 55.4606 13.6732C54.4177 13.7891 53.5486 13.7312 52.7375 13.7312ZM25.5069 35.5736C25.5069 35.5156 25.5069 35.3998 25.5069 35.3418V35.2839C25.5069 35.3418 25.5069 35.4577 25.5069 35.5736Z" fill="#192E35"/>
<path d="M39.7597 28.1576C39.6438 28.2155 39.5279 28.3314 39.5859 28.4473C39.7597 29.0267 39.8756 29.664 39.9914 30.3013C40.1652 31.5759 40.1652 32.8505 39.9914 34.1251C39.9914 34.0672 39.9914 34.0672 39.9914 34.0093C39.8176 35.2839 39.47 36.6165 38.9486 37.8331C38.8327 38.1808 38.6589 38.4705 38.4851 38.8181C38.3112 39.1657 38.1374 39.5133 37.9636 39.803C37.616 40.4403 37.1525 41.0197 36.7469 41.5991C35.8199 42.8158 34.6612 43.9166 33.4445 44.9015C33.2707 45.0174 33.0969 45.1333 32.981 45.2491C32.8072 45.365 32.6913 45.4809 32.6334 45.7126C32.5754 45.8864 32.6334 46.1182 32.6913 46.292C32.8072 46.4658 32.981 46.5817 33.1548 46.6396C33.3286 46.6976 33.5604 46.6976 33.7342 46.5817C34.835 45.7706 35.8199 44.8436 36.7469 43.8586C37.616 42.8737 38.3692 41.7729 38.9486 40.5562C39.2382 39.9768 39.5279 39.3395 39.7597 38.7601C39.9914 38.1808 40.1652 37.5435 40.3391 36.9641C40.6867 35.7474 40.8025 34.4148 40.8025 33.1402C40.8025 31.518 40.5708 29.8957 40.1652 28.3314C40.1073 28.2155 40.0494 28.1576 39.9335 28.1576C39.8176 28.1576 39.7597 28.1576 39.7597 28.1576Z" fill="#0F1D21"/>
<path d="M20.2353 44.496C20.0035 45.6547 19.598 46.7555 19.1924 47.7984V47.7405C17.1067 52.7231 13.3407 56.7208 10.8494 61.4137C10.2121 62.5725 9.63274 63.7891 9.22718 65.0638C8.76368 66.3963 8.474 67.7868 8.30018 69.1773C8.12637 70.5099 8.06843 71.9004 8.18431 73.2329C8.30018 74.6234 8.53193 75.956 8.87956 77.2886C9.28512 78.737 9.86449 80.0696 10.6177 81.3442C10.9653 81.9815 11.3709 82.5609 11.8344 83.1402C12.3558 83.7776 12.8772 84.4149 13.4566 84.9942C13.7463 85.2839 14.2677 85.2839 14.5574 84.9942C14.8471 84.7046 14.8471 84.2411 14.5574 83.8934C14.0939 83.4299 13.6884 82.9085 13.2828 82.3871C12.3558 81.1704 11.5447 79.8378 10.9653 78.3894C10.3859 76.9409 9.92243 75.3766 9.69068 73.7544C9.45893 71.9583 9.45893 70.1623 9.69068 68.3662C9.69068 68.4241 9.69068 68.4821 9.69068 68.54C9.80656 67.5551 10.0383 66.5701 10.2701 65.6431C10.5018 64.7741 10.8494 63.905 11.1971 63.036C12.2399 60.6026 13.6884 58.343 15.1947 56.0835C16.6432 53.8239 18.1495 51.6223 19.3083 49.1889C20.0035 47.6825 20.5829 46.1762 20.9305 44.5539C20.9885 44.3801 20.8726 44.2642 20.7567 44.2063H20.6988C20.3512 44.3222 20.2353 44.3801 20.2353 44.496ZM11.1391 62.978V63.036C11.1391 63.036 11.1391 63.036 11.1391 62.978ZM10.8494 78.4473C10.8494 78.5052 10.9074 78.5632 10.9074 78.6211C10.9074 78.5053 10.9074 78.4473 10.8494 78.4473Z" fill="#0F1D21"/>
<path d="M43.1787 20.2202C43.1787 20.2781 43.1787 20.394 43.2366 20.394C45.9597 21.263 48.3931 22.5956 50.8844 23.9861C52.1011 24.6814 53.3178 25.3766 54.5924 26.0139C55.867 26.6512 57.1416 27.2306 58.4742 27.752C59.8067 28.2155 61.1393 28.5632 62.5298 28.8528C63.2251 28.9687 63.8624 29.1425 64.5576 29.2005C65.2529 29.3163 65.9481 29.3743 66.6434 29.4322C68.0918 29.5481 69.5402 29.5481 70.9887 29.4322C72.3792 29.3163 73.8276 29.0267 75.1602 28.6211C75.8554 28.3893 76.4927 28.1576 77.13 27.81C77.188 27.752 77.2459 27.752 77.3039 27.6941C77.4197 27.6362 77.4777 27.5203 77.5356 27.4044C77.5935 27.2306 77.6515 26.9988 77.5356 26.825C77.4777 26.6512 77.3038 26.4774 77.13 26.4195C76.9562 26.3615 76.7245 26.3036 76.5507 26.4195C75.4499 26.9409 74.349 27.3465 73.1903 27.6362C71.2204 28.0997 69.1347 28.2735 67.1069 28.2155C65.7164 28.1576 64.3259 28.0417 62.8774 27.8679C62.1822 27.81 61.4869 27.6362 60.8496 27.5203C60.0964 27.4044 59.4012 27.1727 58.7059 26.9988C58.7639 26.9988 58.7639 26.9988 58.8218 27.0568C57.4893 26.6512 56.1567 26.1298 54.8821 25.4925C54.2448 25.2028 53.6074 24.9131 52.9701 24.5655C52.3328 24.2758 51.6955 23.9282 51.1161 23.5805C48.6248 22.3059 46.0756 21.0313 43.4105 20.1622H43.3525C43.2946 20.1622 43.2366 20.1622 43.1787 20.2202ZM73.2482 27.5782C73.3062 27.5782 73.3062 27.5782 73.2482 27.5782V27.5782Z" fill="#0F1D21"/>
<path d="M60.9075 25.2607C60.8496 25.3765 60.9075 25.5504 61.0234 25.5504C61.6027 25.7242 62.1242 25.898 62.7036 26.0718C63.2829 26.1877 63.8623 26.3035 64.4996 26.3615C65.7163 26.5353 66.933 26.5353 68.2076 26.4774C68.3235 26.4774 68.4394 26.4194 68.4973 26.3035C68.5552 26.2456 68.6132 26.1297 68.6132 26.0139C68.6132 25.7821 68.3814 25.6083 68.1497 25.6662C67.2806 25.7821 66.4695 25.84 65.6004 25.84C65.6004 25.84 65.6004 25.84 65.5425 25.84C65.5425 25.84 65.5425 25.84 65.4846 25.84C64.8472 25.84 64.2099 25.7821 63.5726 25.6662C63.225 25.6083 62.8774 25.5504 62.5297 25.4924C62.1821 25.4345 61.8924 25.3186 61.5448 25.2607C61.4289 25.2027 61.3131 25.2027 61.1972 25.1448C61.1392 25.1448 61.1392 25.1448 61.0813 25.1448C61.0234 25.0869 60.9075 25.1448 60.9075 25.2607Z" fill="#0F1D21"/>
<path d="M53.3754 41.4252C53.0857 40.73 51.2317 40.8459 49.2039 41.7149C47.1761 42.584 45.7856 43.8007 46.0753 44.4959C46.365 45.1912 48.2189 45.0753 50.2468 44.2062C52.2746 43.3951 53.6651 42.1205 53.3754 41.4252Z" fill="#0F1D21"/>
<path d="M76.5508 41.4252C76.6667 40.73 75.1603 39.803 73.1325 39.3974C71.1047 38.9919 69.3666 39.2236 69.1928 39.9189C69.0769 40.6141 70.5833 41.5411 72.6111 41.9467C74.6389 42.4102 76.377 42.1784 76.5508 41.4252Z" fill="#0F1D21"/>
<path d="M52.1009 48.2039H52.0429C51.6953 48.2618 51.4056 48.6094 51.2318 49.1309C51.058 49.7102 51.0001 50.4055 51.1159 51.1587C51.2898 52.665 51.985 53.8238 52.6803 53.8238H52.7382C53.0858 53.7659 53.3755 53.4182 53.5493 52.8968C53.7231 52.3174 53.7811 51.6222 53.6652 50.869C53.4914 49.3626 52.7961 48.2039 52.1009 48.2039Z" fill="#192E35"/>
<path d="M71.9739 44.8436H71.916C71.5684 44.9016 71.2787 45.2492 71.1049 45.7706C70.9311 46.35 70.8731 47.0452 70.989 47.7984C71.1628 49.3048 71.8581 50.4636 72.5533 50.4636H72.6112C72.9589 50.4056 73.2486 50.058 73.4224 49.5366C73.5962 48.9572 73.6541 48.2619 73.5382 47.5087C73.3644 46.0024 72.7271 44.8436 71.9739 44.8436Z" fill="#192E35"/>
<path d="M61.4863 58.5168C61.3704 58.5168 61.2545 58.5748 61.1966 58.6907C61.1387 58.7486 61.1387 58.8645 61.1387 58.9803C61.1387 59.0383 61.1966 59.0962 61.1966 59.1542C61.2545 59.2121 61.3125 59.2121 61.3704 59.27C61.718 59.3859 61.9498 59.5018 62.2395 59.5597C62.4712 59.6177 62.7609 59.6756 63.1085 59.7335C63.2824 59.7335 63.4562 59.7335 63.63 59.7335C64.0355 59.7335 64.499 59.6756 64.9625 59.5597C65.0205 59.5597 65.0784 59.5018 65.0784 59.5018C65.1364 59.4438 65.1364 59.3859 65.0784 59.328C65.0784 59.27 64.9625 59.1542 64.9046 59.1542H64.7887C64.6729 59.1542 64.557 59.2121 64.4411 59.2121C64.2673 59.2121 64.0935 59.2121 63.9197 59.2121C63.7459 59.2121 63.5141 59.2121 63.3403 59.1542C62.9927 59.0962 62.645 58.9803 62.2974 58.8645C62.0657 58.7486 61.8919 58.6327 61.718 58.5748C61.6022 58.5168 61.5442 58.5168 61.4863 58.5168Z" fill="#192E35"/>
<path d="M63.7459 42.9895C63.63 42.9895 63.5142 43.1054 63.5142 43.2213C63.4562 44.3221 63.4562 45.3649 63.5142 46.4078C63.5721 47.3927 63.688 48.4936 63.8038 49.6523C63.8038 49.7682 63.9197 49.8261 64.0356 49.8261H64.0935C64.615 49.5944 65.0785 49.4785 65.542 49.4206C65.7158 49.4206 65.8317 49.4206 66.0055 49.4206C66.1213 49.4206 66.2372 49.4206 66.3531 49.4206C66.5269 49.4785 66.7007 49.4785 66.8745 49.5364C66.9904 49.5944 67.1063 49.6523 67.2222 49.7682C67.338 49.8261 67.396 49.942 67.5118 50.0579C67.6277 50.1737 67.6856 50.2896 67.7436 50.4634C67.8015 50.6372 67.8595 50.8111 67.8595 50.9849C67.8595 51.2746 67.8595 51.5063 67.8595 51.7381C67.8015 51.9698 67.7436 52.2595 67.6277 52.4912C67.5118 52.723 67.396 53.0127 67.2222 53.2444C67.0483 53.4762 66.8166 53.7079 66.5848 53.8817C66.3531 54.0556 66.1213 54.1714 65.8896 54.2873H65.8317C65.5999 54.4032 65.3102 54.4611 65.0205 54.5191C64.9047 54.5191 64.7888 54.6349 64.7888 54.6929C64.7308 54.8087 64.7308 54.9246 64.7308 55.0405C64.7308 55.1564 64.8467 55.2143 64.9047 55.2722C64.9626 55.3302 65.0205 55.3302 65.0785 55.3302C65.1364 55.3302 65.1364 55.3302 65.1943 55.3302C65.5999 55.2143 66.0055 55.0984 66.3531 54.9246C66.6428 54.7508 66.9904 54.5191 67.2801 54.2294C67.7436 53.7659 68.1491 53.1286 68.323 52.4333C68.4968 51.796 68.4968 51.1587 68.323 50.5793C68.1491 49.9999 67.8015 49.5364 67.2801 49.2467C66.9325 49.015 66.469 48.8991 65.9475 48.8991H65.8317C65.3102 48.8991 64.7308 49.0729 64.0935 49.3047V49.1309L64.0356 48.8991C63.8038 47.1031 63.7459 45.1911 63.8038 43.2213C63.8038 43.1633 63.8038 43.1054 63.7459 43.1054C63.8618 42.9895 63.8038 42.9895 63.7459 42.9895Z" fill="#CA8664"/>
</svg>
