<svg width="100" height="100" viewBox="0 0 100 100" fill="none" xmlns="http://www.w3.org/2000/svg">
<path d="M50.1314 0H49.9576C36.8638 0.0579374 24.5231 5.15643 15.311 14.4264C6.04104 23.6964 0.942551 35.9212 1.00049 48.9571C1.05843 75.7822 23.0746 97.6246 50.0735 97.6246H50.2473C63.3412 97.5666 75.6818 92.4681 84.8939 83.1981C94.1639 73.9282 99.2044 61.6454 99.2044 48.6095C99.0885 21.8424 77.1303 0 50.1314 0Z" fill="#F6E9E3"/>
<path d="M56.4458 11.7614C56.272 11.7614 56.0982 11.7614 55.8665 11.7614C51.5791 11.8193 47.8132 12.2249 44.4528 13.036C40.3392 14.0789 36.9209 15.7011 34.4296 18.0186C34.2558 18.0186 34.082 18.0186 33.9082 18.0186C33.4447 18.0186 32.9812 18.0186 32.5177 18.0765C31.8804 18.1345 31.2431 18.3083 30.5478 18.54C29.3891 18.9456 28.2883 19.525 27.2454 20.394C26.3184 21.1472 25.4493 22.1322 24.6961 23.2909C24.0009 24.3338 23.3636 25.4925 22.7263 26.941C21.7993 29.0846 21.0461 31.518 20.3508 34.6466C20.1191 35.6895 19.8873 36.9062 19.5976 38.2388L19.4818 38.8181C19.3659 39.3975 19.25 40.0348 19.1341 40.6142C18.9603 41.5991 18.7286 42.5261 18.4968 43.4531V43.3952V43.3373C18.0913 44.7277 17.6857 46.0603 17.1643 47.277C16.6428 48.5516 16.0055 49.8842 15.2523 51.1588C14.7888 51.9699 14.2095 52.7811 13.5721 53.6501C13.1666 54.2295 12.761 54.8089 12.2975 55.3882L11.7181 56.1994C10.5594 57.7637 9.34271 59.5018 8.2419 61.3558C7.14109 63.2098 6.32997 65.1217 5.80853 67.0337C5.34503 68.7718 5.11328 70.5099 5.11328 72.248C5.11328 73.0591 5.17122 73.9282 5.28709 74.7393C5.40297 75.4925 5.57678 76.2457 5.80853 77.1148C6.21409 78.6211 6.8514 80.0696 7.72047 81.518C9.28478 84.2411 11.6602 86.6165 14.5571 88.5284C15.6 89.2237 16.7587 89.861 18.0333 90.3824C19.308 90.9618 20.6984 91.4253 22.3207 91.8888C22.5524 92.0047 22.8421 92.0626 23.0739 92.1785C24.1168 92.5261 25.2755 92.8158 26.4922 93.0476C28.52 93.4531 30.7216 93.6849 33.5026 93.8007C34.7772 93.8587 36.1098 93.8587 37.1527 93.8587H38.4273C39.2384 93.8587 40.1075 93.8587 40.9186 93.8587H41.8456C43.9314 93.8587 46.0171 93.9166 48.1029 93.9166H48.6243C52.8537 93.9166 58.4737 93.8007 64.0356 93.1634C65.2523 93.0476 66.469 92.8737 67.7436 92.642C68.7286 92.4682 69.7715 92.2944 70.9881 92.0047C73.0159 91.5991 74.6382 91.1936 76.1446 90.7301C78.0565 90.1507 79.7367 89.5134 81.301 88.7023C82.9812 87.8332 84.4876 86.7903 85.6463 85.6316C86.2257 85.0522 86.805 84.3569 87.2685 83.6038C87.732 82.9085 88.1376 82.0974 88.5432 80.9966C89.2384 79.0846 89.5281 76.941 89.4122 74.7393C89.2964 73.1171 89.0067 71.379 88.3694 69.467C87.8479 67.671 87.0947 65.9328 86.3995 64.2527L85.9939 63.2677C85.4146 61.8772 84.8352 60.4288 84.3137 59.0383C83.9661 58.1113 83.6764 57.2422 83.4447 56.4311C83.155 55.4462 82.9812 54.5771 82.8653 53.766V53.708C82.8074 53.0128 82.7494 52.3176 82.7494 51.6223C82.7494 50.985 82.8074 50.2897 82.9232 49.4786V49.5945C83.2129 47.4508 83.8502 45.3651 84.4296 43.3373C85.009 41.3674 85.5884 39.3975 85.8781 37.3697C86.0519 36.2689 86.1098 35.226 86.1098 34.2411C86.1098 33.3141 85.9939 32.3291 85.7042 31.1125C85.3566 29.3164 84.7193 27.5203 83.8502 25.7822C83.0971 24.2179 82.0542 22.7115 80.8375 21.2631C79.7367 19.9885 78.3462 18.7138 76.8398 17.613C74.0009 15.5273 70.5826 13.963 66.8166 12.978C65.0785 12.5145 63.1666 12.2249 61.2546 12.051C60.3276 11.9931 59.4007 11.9352 58.5895 11.9352C57.8943 11.8193 57.1411 11.7614 56.4458 11.7614Z" fill="#192E35"/>
<path d="M50.4204 19.3511C49.4355 19.467 48.3926 19.6987 47.4076 19.9305C46.4227 20.2202 45.4378 20.5099 44.5108 20.9154C43.7576 21.2051 43.0623 21.5527 42.3671 21.9583C41.6718 22.3639 41.0345 22.7694 40.3972 23.2909C39.8178 23.7544 39.2964 24.2179 38.775 24.7393C38.2535 25.2607 37.79 25.8401 37.3265 26.4195C36.863 27.0568 36.3995 27.6941 35.994 28.3894C35.5884 29.1425 35.1829 29.8957 34.8352 30.6489V30.591C34.5455 31.3442 34.2559 32.0974 34.0241 32.8505C33.8503 33.372 33.7344 33.8934 33.6185 34.4148C33.5027 34.9363 33.4447 35.4577 33.3289 35.9792C33.155 37.1958 33.0971 38.4125 33.0971 39.6292C33.0971 40.788 33.155 41.9467 33.213 43.1634C33.2709 44.3221 33.3868 45.4809 33.4447 46.6396C33.5027 47.7984 33.5606 48.9571 33.5606 50.058C33.5606 51.1588 33.4447 52.2596 33.2709 53.3604C33.0971 54.5191 32.8074 55.6199 32.4019 56.6628C32.1701 57.1843 31.9384 57.7636 31.7066 58.2851C31.4169 58.8065 31.1272 59.3279 30.7796 59.8494C30.432 60.3129 30.0844 60.7764 29.7367 61.2399C29.3891 61.6454 29.0415 62.1089 28.6939 62.5145C27.2454 64.2526 25.7391 65.8749 24.3486 67.613C23.7692 68.3662 23.2477 69.1194 22.7263 69.9305C22.4946 70.3361 22.2049 70.7995 21.9731 71.2051C21.7414 71.6107 21.5676 72.0162 21.3937 72.4218C21.1041 73.175 20.8144 73.9861 20.5826 74.7393C20.4667 75.1449 20.4088 75.4925 20.2929 75.898C20.235 76.3036 20.1771 76.6512 20.1191 77.0568C20.0032 77.9259 19.9453 78.7949 19.9453 79.664C19.9453 80.1275 19.9453 80.533 20.0032 80.9965C20.0612 81.46 20.0612 81.8656 20.1191 82.2712C20.235 83.1982 20.4088 84.1252 20.6985 84.9942C20.8144 85.4577 20.9882 85.9212 21.162 86.3847C21.3358 86.7903 21.4517 87.1958 21.6255 87.6593V87.6014C21.9731 88.4125 22.3207 89.1657 22.7263 89.9189C22.9001 90.2086 23.0739 90.5562 23.2477 90.8459C23.4216 91.1356 23.5954 91.3673 23.8271 91.657C24.0589 91.9467 24.2327 92.1785 24.4644 92.4682C25.1017 92.642 25.7391 92.7578 26.4343 92.9316C28.4621 93.3372 30.6637 93.569 33.4447 93.6848C34.7194 93.7428 35.936 93.7428 37.0948 93.7428H38.3694H39.1805C39.7599 93.7428 40.2813 93.7428 40.8607 93.7428H41.7877C43.8735 93.7428 45.9592 93.8007 48.045 93.8007H48.5664C52.7958 93.8007 58.4158 93.6848 63.9778 93.0475C65.1944 92.9317 66.4691 92.7578 67.6857 92.5261C68.6707 92.3523 69.7136 92.1785 70.9302 91.8888C72.9581 91.4832 74.5803 91.0777 76.0867 90.6142C77.8248 90.0927 79.3891 89.5133 80.7796 88.8181C80.8375 88.7602 80.8375 88.7022 80.8955 88.5863C81.1272 88.1228 81.359 87.6593 81.5328 87.1958V87.2538C82.1122 85.8633 82.5757 84.4728 82.9812 83.0244C83.155 82.2712 83.3289 81.518 83.5027 80.7648C83.6185 80.0695 83.7344 79.3164 83.8503 78.5632C83.8503 78.5632 83.8503 78.5632 83.8503 78.6211C84.082 76.9409 84.1979 75.2607 84.2559 73.5226C84.2559 72.6535 84.2559 71.7845 84.2559 70.9154C84.2559 70.4519 84.2559 69.9884 84.1979 69.467C84.14 69.0035 84.14 68.54 84.082 68.0765C84.082 68.0765 84.082 68.0765 84.082 68.1344C84.0241 67.613 83.9082 67.0336 83.7924 66.5122C83.5606 65.2955 83.213 64.0788 82.8654 62.8621C82.5177 61.6454 82.1701 60.4288 81.8225 59.27C81.4749 58.0533 81.1852 56.8366 80.9534 55.562C80.8375 54.9247 80.7217 54.2874 80.6637 53.6501C80.6058 53.0128 80.5479 52.3755 80.5479 51.7961C80.5479 50.5215 80.6058 49.3048 80.7217 48.0301C80.8376 46.8714 81.0693 45.6547 81.3011 44.496C81.5328 43.2793 81.7645 42.0626 82.0542 40.8459C82.286 39.5713 82.5177 38.2967 82.6915 37.022C82.7495 36.3847 82.8654 35.6895 82.8654 35.0522C82.8654 34.7625 82.8654 34.4148 82.8654 34.1252C82.8654 33.8934 82.8074 33.6037 82.8074 33.372C82.7495 32.9664 82.6915 32.5609 82.5757 32.2132C82.5177 31.9815 82.4598 31.8077 82.4019 31.5759C82.3439 31.4021 82.286 31.2283 82.228 31.0545C82.228 31.0545 82.228 31.0545 82.228 31.1124C82.1122 30.7648 81.9384 30.4751 81.7645 30.1275C81.5907 29.8378 81.359 29.4902 81.1852 29.2005C80.9534 28.8529 80.6637 28.5632 80.3741 28.2735C80.2002 28.0997 80.0264 27.9259 79.8526 27.752C79.6788 27.6362 79.505 27.4624 79.3891 27.3465C79.0415 27.0568 78.6359 26.825 78.2883 26.5354C77.9986 26.3036 77.651 26.1298 77.3613 25.898C76.6661 25.4925 75.9708 25.029 75.2756 24.6814C73.8271 23.8702 72.3207 23.1171 70.7564 22.4797H70.8144C67.1064 20.9154 63.1666 19.8146 59.2269 19.2932C57.6626 19.0614 56.0403 18.9456 54.4181 18.9456C53.0276 19.0614 51.695 19.1773 50.4204 19.3511Z" fill="#0F1D21"/>
<path d="M31.1273 48.2039C31.0114 48.2039 30.8955 48.2039 30.7796 48.2039C30.432 48.2039 30.0844 48.3197 29.6788 48.4935C28.9836 48.7832 28.2883 49.3626 27.709 50.2317C27.3613 50.6952 27.1296 51.2166 26.8978 51.796C26.724 52.3174 26.5502 52.8968 26.4923 53.5341C26.3764 54.6929 26.5502 55.8516 26.9558 57.1262C27.3613 58.227 27.9986 59.3278 28.8098 60.2548C29.2153 60.7183 29.6788 61.1239 30.1423 61.4715C30.6638 61.8771 31.3011 62.2247 31.9963 62.4565C33.0392 62.862 34.2559 63.0938 35.7623 63.1517C35.994 63.1517 36.1678 63.1517 36.3996 63.1517C37.4424 63.1517 38.4853 63.0938 39.4703 62.9779H39.702C39.8179 62.9779 39.9338 62.862 39.9338 62.8041C39.9917 62.7462 39.9917 62.6303 39.9917 62.5144C39.9917 62.4565 39.9338 62.3406 39.8758 62.2827C39.9338 61.3557 39.9917 60.6025 39.9917 59.9072C39.9917 59.3858 39.9338 58.6905 39.8179 57.9953C39.702 57.3 39.4703 56.6048 39.0647 55.7357C38.7171 54.9246 38.3115 54.1714 37.7321 53.3603C37.2107 52.4912 36.5734 51.738 35.994 51.0428C35.3567 50.2896 34.6614 49.7102 33.9662 49.2467C33.213 48.7253 32.4598 48.4356 31.7646 48.2618C31.6487 48.2039 31.359 48.2039 31.1273 48.2039Z" fill="#FEBE9C"/>
<path d="M31.9381 53.0128C31.7643 53.4183 31.5905 53.8239 31.5325 54.2874C31.4746 54.6929 31.4746 55.1564 31.4746 55.562C31.5325 56.4311 31.8222 57.3001 32.2857 58.0533C32.5175 58.4589 32.7492 58.8065 33.0389 59.0962C33.3286 59.4438 33.6183 59.7335 33.9659 59.9652C34.6032 60.4867 35.3564 60.8343 36.1675 61.0661C36.2255 61.0661 36.3414 61.0661 36.3414 60.9502C36.3414 60.8922 36.3414 60.7764 36.2255 60.7764C36.0517 60.7184 35.9358 60.6605 35.762 60.6026C35.2985 60.4287 34.8929 60.197 34.5453 59.9073C34.1397 59.5597 33.7921 59.2121 33.4445 58.8065C33.0969 58.343 32.8072 57.8216 32.5754 57.3001C32.4016 56.8366 32.2857 56.3731 32.2278 55.9096C32.1699 55.5041 32.1699 55.0985 32.2278 54.6929C32.2857 54.3453 32.4016 53.9398 32.5175 53.5921C32.5754 53.5342 32.5754 53.4183 32.6334 53.3604C32.6913 53.2445 32.6913 53.1866 32.6913 53.0707C32.6913 52.9548 32.5754 52.8969 32.5175 52.8389C32.4595 52.781 32.4016 52.781 32.3437 52.781C32.1699 52.781 31.996 52.8389 31.9381 53.0128Z" fill="#FF9B68"/>
<path d="M29.0424 51.912C28.6368 52.0278 28.2892 52.3175 27.9995 52.6072C27.9416 52.6652 27.9416 52.781 27.9995 52.839C28.0574 52.8969 28.1733 52.8969 28.2313 52.839C28.3471 52.7231 28.4051 52.6652 28.5209 52.6072C28.6368 52.4913 28.8106 52.4334 28.9844 52.3755C29.1583 52.3175 29.2741 52.2596 29.4479 52.2596C29.6218 52.2596 29.8535 52.2596 30.0273 52.2596C30.317 52.3175 30.5488 52.3755 30.8384 52.4913C31.3019 52.6652 31.7075 52.9548 32.1131 53.2445C32.1131 53.2445 32.171 53.2445 32.171 53.3025L32.2289 53.3604C32.2289 53.3025 32.2869 53.3025 32.3448 53.3025C32.4607 53.3025 32.5186 53.2445 32.5766 53.1866C32.6345 53.1287 32.6924 53.0128 32.6924 52.9548C32.6924 52.8969 32.6345 52.781 32.5766 52.7231C31.9393 52.1437 31.0702 51.854 30.2011 51.7382C30.1432 51.7382 30.0273 51.7382 29.9694 51.7382C29.6797 51.7382 29.3321 51.7961 29.0424 51.912Z" fill="#FF9B68"/>
<path d="M82.1121 42.642C81.8804 42.642 81.5907 42.642 81.3589 42.6999C80.6058 42.8737 79.8526 43.1634 79.1573 43.6848C78.4621 44.1483 77.7668 44.7277 77.1295 45.4809C76.4922 46.1762 75.9128 46.9293 75.3914 47.7984C74.87 48.6095 74.4065 49.4206 74.0588 50.1738C73.7112 51.0429 73.4795 51.7381 73.3056 52.4334C73.1898 53.1286 73.1318 53.8239 73.1318 54.3453C73.1318 55.0985 73.1318 55.8517 73.2477 56.7208C73.1898 56.7787 73.1318 56.8366 73.1318 56.9525C73.1318 57.0684 73.1318 57.1843 73.1898 57.2422C73.2477 57.3001 73.3636 57.416 73.4795 57.416H73.7112H73.7691H73.8271C74.812 57.4739 75.797 57.5898 76.7819 57.5898C77.0136 57.5898 77.1875 57.5898 77.4192 57.5898C78.9256 57.5319 80.1423 57.3001 81.1851 56.8946C81.8804 56.6049 82.5177 56.2573 83.0391 55.9096C83.5606 55.562 83.9661 55.1565 84.3717 54.693C85.1828 53.766 85.8201 52.6651 86.2257 51.5643C86.6892 50.2897 86.8051 49.131 86.7471 47.9722C86.6892 47.3349 86.5733 46.7555 86.3416 46.2341C86.1098 45.7127 85.8781 45.1912 85.5304 44.6698C84.9511 43.8007 84.3138 43.2213 83.5606 42.9317C83.2129 42.7578 82.8074 42.6999 82.4598 42.642C82.3439 42.642 82.228 42.642 82.1121 42.642Z" fill="#FEA97E"/>
<path d="M83.2131 44.8436C81.8805 45.0754 80.6059 45.6548 79.563 46.5238C79.0416 46.9873 78.5201 47.4508 78.1146 48.0302C77.709 48.6096 77.3035 49.1889 77.0717 49.8842C77.0138 50.1159 77.1296 50.3477 77.3035 50.4056C77.4193 50.4636 77.5352 50.4636 77.5931 50.4056C77.709 50.3477 77.767 50.2897 77.8249 50.1739C77.8828 50.0001 77.9987 49.8262 78.1146 49.6524C78.5201 48.8992 78.9836 48.2619 79.563 47.6246C80.0845 47.1032 80.6638 46.6397 81.2432 46.2341C81.2432 46.2341 81.2432 46.2341 81.1853 46.2341C81.1853 46.2341 81.1853 46.2341 81.2432 46.2341C81.2432 46.2341 81.2432 46.2341 81.3011 46.2341C81.7646 45.9444 82.1702 45.7706 82.6916 45.5968C82.6916 45.5968 82.6916 45.5968 82.7496 45.5968C82.7496 45.5968 82.7496 45.5968 82.6916 45.5968C82.9234 45.5389 83.0972 45.4809 83.329 45.4809C83.4448 45.4809 83.5607 45.3071 83.5607 45.1913C83.5028 44.9016 83.3869 44.8436 83.2131 44.8436C83.271 44.8436 83.271 44.8436 83.2131 44.8436ZM78.1146 49.5366C78.1146 49.5945 78.0566 49.5945 78.0566 49.6524C78.0566 49.6524 78.0567 49.5945 78.1146 49.5366ZM81.2432 46.1182C81.3011 46.1182 81.3011 46.1182 81.2432 46.1182V46.1182Z" fill="#CA8664"/>
<path d="M47.6973 68.0764C47.6973 68.0764 47.6394 68.0764 47.5815 68.0764C47.4656 68.0764 47.3497 68.1344 47.2918 68.1923C47.2338 68.2502 47.1759 68.3661 47.1759 68.482C47.118 69.2931 47.06 70.1042 47.06 70.9154C47.0021 72.132 46.9442 73.4067 46.7703 74.6813V74.6233C46.5965 75.898 46.3068 76.9988 45.9013 77.9258C45.6116 78.621 45.264 79.2004 44.8584 79.7218C44.5687 80.1274 44.2211 80.475 43.8155 80.7647C43.352 81.1123 42.8306 81.402 42.2512 81.6917C41.2663 82.0973 40.2234 82.387 38.8329 82.5608C38.8329 82.5608 38.8329 82.5608 38.775 82.5608C38.0797 82.6766 37.3265 82.7346 36.6313 82.7925C36.1099 82.8505 35.5884 82.9084 35.067 82.9663C34.1979 83.0822 33.4447 83.1981 32.7495 83.314C31.9963 83.4878 31.2431 83.7195 30.5479 84.0671C30.4899 84.1251 30.432 84.183 30.374 84.2989C30.2002 84.4148 30.2002 84.6465 30.3161 84.8783C31.5907 86.6164 33.2709 88.0648 35.3567 89.3394C37.2107 90.4403 39.3543 91.3673 41.7877 92.0046C43.9314 92.5839 46.2489 93.0474 48.8561 93.2792C50.5363 93.453 52.2744 93.5109 54.0705 93.5109C54.5919 93.5109 55.1713 93.5109 55.6927 93.5109C57.0253 93.453 58.184 93.3951 59.2848 93.2792C60.6753 93.1633 62.0658 92.9316 63.4563 92.5839C66.2952 91.9466 68.9604 90.9617 71.3358 89.6291C72.4946 88.9918 73.5954 88.2386 74.6382 87.4275C75.1597 87.0219 75.6811 86.5585 76.2026 86.095C76.7819 85.5735 77.3613 85.0521 77.8248 84.5306C77.8827 84.4727 77.9407 84.4148 77.9407 84.2989H77.9986C78.0565 84.2989 78.0565 84.2989 78.0565 84.2989C78.1724 84.2989 78.2304 84.183 78.2883 84.1251C78.3462 84.0092 78.3462 83.9513 78.3462 83.8354C78.3462 83.7775 78.2304 83.6616 78.1724 83.6036C77.7089 83.3719 77.2454 83.1981 76.724 83.0822C76.3184 82.9663 75.8549 82.7925 75.2756 82.6766C74.9279 82.6187 74.4644 82.5028 74.0589 82.4449C73.7692 82.387 73.4216 82.329 72.9581 82.329C72.3207 82.2711 71.6255 82.2132 70.9882 82.1552C70.1771 82.0973 69.308 82.0393 68.4389 81.9235C67.454 81.7496 66.6429 81.5758 65.9476 81.2862C65.4841 81.1123 65.0786 80.8227 64.7309 80.5909C64.4413 80.3592 64.1516 80.0695 63.9198 79.7218C63.6881 79.3742 63.4563 79.0266 63.2825 78.621C63.0508 78.0996 62.9349 77.5781 62.819 76.9988C62.7031 76.0138 62.7031 74.971 62.8769 73.6384C62.9928 73.0011 63.1087 72.3638 63.1666 71.7265C63.2246 71.4368 63.2825 71.0892 63.3404 70.7995C63.4563 70.7415 63.5143 70.6257 63.5143 70.5098C63.5143 70.3939 63.5143 70.278 63.3984 70.2201C63.3404 70.1622 63.2246 70.1042 63.1087 70.1042C60.3856 69.9304 57.6626 69.5828 55.0554 69.1772C52.68 68.6558 50.1886 68.3082 47.6973 68.0764Z" fill="#FEBE9C"/>
<path d="M47.582 68.0764C47.4661 68.0764 47.3502 68.1344 47.2923 68.1923C47.2344 68.2502 47.1764 68.3661 47.1764 68.482C47.1185 69.1193 47.1185 69.8145 47.0605 70.4518C47.4661 70.9153 47.9296 71.4368 48.3931 71.8423C49.0304 72.4217 49.6677 73.0011 50.363 73.5225C51.0582 74.044 51.7535 74.5075 52.5067 74.913C53.2019 75.2607 53.8972 75.6083 54.5924 75.84C55.2877 76.0718 55.9829 76.3035 56.7361 76.4773C57.4313 76.6512 58.0687 76.767 58.7639 76.825C59.4592 76.8829 60.1544 76.9408 60.9076 76.8829H60.8497C61.487 76.8829 62.1243 76.825 62.7616 76.7091C62.6457 75.7821 62.7037 74.7392 62.8775 73.4067C62.9933 72.7693 63.0513 72.132 63.1672 71.5527C63.2251 71.205 63.283 70.9154 63.341 70.6257C63.4568 70.5677 63.5148 70.4519 63.5148 70.336C63.5148 70.2201 63.4568 70.1042 63.3989 70.0463C63.341 69.9884 63.2251 69.9304 63.1092 69.9304C60.3862 69.7566 57.6631 69.409 55.0559 69.0034C52.6225 68.6558 50.1312 68.3082 47.6399 68.1344C47.6399 68.0764 47.582 68.0764 47.582 68.0764Z" fill="#FF9B68"/>
<path d="M77.3611 82.5029C77.3032 82.5029 77.2452 82.5608 77.1873 82.6188C76.6659 83.2561 76.0286 83.8355 75.3333 84.4148C73.3634 85.9212 71.1039 87.022 69.1919 87.8331C68.3229 88.1808 67.5697 88.5284 66.8744 88.7601C66.0633 89.0498 65.2522 89.3395 64.4411 89.5713C62.8188 90.0348 61.1386 90.4403 59.4005 90.6721C57.4886 90.9618 55.5766 91.0776 53.6647 91.0776C52.2163 91.0776 50.7099 91.0197 49.2615 90.8459C46.1328 90.4983 43.1201 89.6871 40.3391 88.5863L40.397 88.6443H40.455C37.9637 87.6014 35.6462 86.3268 33.6184 84.7625C33.039 84.299 32.4596 83.8355 31.8802 83.314C31.8802 83.314 31.8223 83.2561 31.7644 83.2561C31.7064 83.1981 31.5905 83.1402 31.4747 83.1402H31.4167C28.9254 83.5458 26.4341 84.5886 23.769 86.3268C22.6102 87.08 21.4515 88.007 20.3507 88.9919C19.4237 89.803 18.6126 90.73 17.8594 91.657C17.9173 91.715 17.9173 91.7149 17.9752 91.7729C18.1491 91.8888 18.3229 92.0626 18.4967 92.1785C20.061 93.3951 21.8571 94.3221 23.6531 95.0753C24.8698 95.5968 26.1444 96.0603 27.477 96.4658C28.8095 96.8714 30.1421 97.219 31.4747 97.5666C34.1398 98.2039 36.8629 98.6674 39.5859 99.073C39.6438 99.073 39.6439 99.073 39.7018 99.073C44.4527 99.7103 49.2615 100 54.0123 100C58.8211 100 63.6299 99.7103 68.3808 99.073C68.3808 99.073 68.3808 99.073 68.3229 99.073C71.0459 98.7254 73.8269 98.2039 76.4921 97.5666C79.1572 96.9293 81.7644 96.1182 84.2557 95.0753C84.2557 95.0753 84.2557 95.0753 84.1977 95.0753C86.0517 94.3221 87.7898 93.3951 89.4121 92.1785C89.7597 91.8888 90.1073 91.657 90.397 91.3673C90.5708 91.1935 90.7447 91.0197 90.9185 90.8459C90.9764 90.788 91.0343 90.73 91.0923 90.6721C90.3391 89.803 89.47 88.9919 88.4272 88.1808C87.4422 87.3696 86.3414 86.6165 85.1247 85.8633C83.966 85.168 82.7493 84.5307 81.5326 83.9513C80.3159 83.372 79.0992 82.9085 77.8825 82.5608C77.8246 82.5608 77.8246 82.5608 77.7667 82.5608C77.477 82.445 77.4191 82.445 77.3611 82.5029Z" fill="#EF306C"/>
<path d="M77.3621 82.5028C77.3042 82.5028 77.2462 82.5608 77.1883 82.6187C76.6668 83.256 76.0295 83.8354 75.3343 84.4148C73.3644 85.9211 71.1049 87.022 69.1929 87.8331C68.3239 88.1807 67.6286 88.4704 66.8754 88.7601C66.1222 89.0498 65.3111 89.2815 64.442 89.5712C62.8198 90.0347 61.1396 90.4403 59.4015 90.672C57.4896 90.9617 55.5776 91.0776 53.6657 91.0776C52.2173 91.0776 50.7109 91.0196 49.2624 90.8458C46.1338 90.4982 43.1211 89.6871 40.3401 88.5863L40.398 88.6442C37.9067 87.6013 35.5892 86.2688 33.6193 84.7624C32.982 84.2989 32.4027 83.8354 31.8812 83.314C31.8233 83.314 31.8233 83.256 31.7653 83.256C31.7074 83.1981 31.5915 83.1401 31.4757 83.1401H31.4177C30.4907 83.256 29.5637 83.5457 28.6367 83.8354C28.9843 84.3568 29.3899 84.8203 29.8534 85.2838C30.3169 85.7473 30.7804 86.2108 31.3018 86.6164C32.9241 87.949 34.7781 89.0498 36.69 89.9768C39.9345 91.4831 43.4687 92.526 47.0029 93.1054C48.7989 93.3951 50.6529 93.6268 52.5069 93.6848C53.4339 93.7427 54.3609 93.7427 55.2879 93.6848C56.2149 93.6848 57.084 93.6268 58.011 93.5109C58.011 93.5109 58.011 93.5109 57.9531 93.5109C59.9809 93.3371 62.0087 92.9316 64.0365 92.4681C65.6008 92.0625 67.1651 91.599 68.6715 91.0196C71.5104 89.9188 74.2914 88.5283 76.7827 86.7902C77.5938 86.2108 78.405 85.5735 79.1582 84.8783C79.6796 84.4148 80.1431 83.9513 80.6066 83.4298C79.6796 83.0243 78.6947 82.6766 77.7677 82.4449C77.7097 82.4449 77.6518 82.4449 77.6518 82.4449C77.478 82.387 77.42 82.4449 77.3621 82.5028Z" fill="#F55E84"/>
<path d="M52.6227 14.5422C51.1742 14.5422 49.6678 14.6002 48.2194 14.774C47.0607 14.8899 45.9599 15.0637 44.859 15.2954C43.8741 15.5272 42.8892 15.7589 41.7884 16.1065C39.5288 16.8018 37.501 17.6709 35.5891 18.7717C33.5033 19.9884 31.7652 21.3789 30.4326 22.8852C29.7374 23.6963 29.158 24.5654 28.6945 25.5503C28.231 26.4773 27.8834 27.5202 27.7096 28.621C27.4778 29.8957 27.4778 31.2862 27.5937 32.7346C27.7096 33.9513 27.9993 35.2259 28.4048 36.6743C29.0421 38.876 29.9691 41.0196 30.8961 43.0475C31.0699 43.453 31.2437 43.8586 31.4176 44.2062C32.1707 45.8864 32.866 47.7404 33.4454 49.5944C33.7351 50.6952 34.0247 51.8539 34.1986 53.1865C34.2565 53.4762 34.3144 53.8238 34.3144 54.1135C34.4303 54.8667 34.5462 55.6778 34.72 56.431C34.9517 57.5897 35.2994 58.5167 35.8208 59.3858C36.1105 59.8493 36.4581 60.3128 36.8637 60.7763C37.0954 61.0081 37.3272 61.2398 37.5589 61.4715C37.6748 61.5874 37.8486 61.7033 37.9645 61.8771C38.0804 61.993 38.1962 62.0509 38.3121 62.1668C38.4859 62.3406 38.6018 62.5144 38.7177 62.6882C38.7177 62.8041 38.7756 62.862 38.7756 62.92C39.9344 64.9478 41.5566 66.8018 43.6424 68.424C45.6122 69.9304 47.8139 71.205 50.3052 72.19C52.6806 73.117 55.056 73.6384 57.4894 73.8122C57.9529 73.8702 58.4743 73.8702 58.9378 73.8702C59.5751 73.8702 60.2125 73.8702 60.9077 73.8122C62.0085 73.7543 63.1673 73.6384 64.326 73.4067C68.961 72.6535 73.0746 70.7995 76.0873 68.1344C77.6516 66.7439 78.9842 65.0637 79.9691 63.2097C80.4326 62.2827 80.8961 61.2398 81.1858 60.139C81.4755 59.0382 81.7072 57.9374 81.8231 56.6627C81.939 55.6778 81.939 54.6929 81.8811 53.65C81.8231 52.6651 81.7072 51.5643 81.4755 50.2317C81.3017 49.2468 81.1279 48.2618 80.9541 47.3348C80.7223 46.1181 80.4906 44.7856 80.2588 43.5689V43.5109C80.1429 42.6998 80.085 41.9466 80.085 41.2514C80.0271 40.4982 80.0271 39.803 80.0271 39.0498V38.2386C79.9691 37.0799 79.9691 35.9211 79.9112 34.7624C79.7953 33.1981 79.6794 31.8076 79.3898 30.5909C79.1001 29.2004 78.6945 27.8099 78.1151 26.5353C77.7675 25.7821 77.3619 24.971 76.8405 24.2178C76.8405 24.1598 76.7826 24.044 76.7826 23.986C75.0444 22.19 73.0166 20.6257 70.7571 19.2931C68.6134 18.0185 66.18 17.0335 63.6308 16.2804C60.0966 15.0637 56.3886 14.5422 52.6227 14.5422Z" fill="#FEBE9C"/>
<path d="M54.2439 14.0209C53.7224 14.0209 53.2589 14.0209 52.7375 14.0788C49.493 14.1947 46.1326 14.7161 42.7722 15.6431C42.0191 15.8169 41.2659 16.0487 40.4548 16.3384C39.7016 16.5701 39.0063 16.8019 38.369 17.0916C37.0944 17.613 35.8777 18.2503 34.7189 19.0035C32.5173 20.4519 30.6054 22.248 29.099 24.3337C28.4038 25.3187 27.7665 26.4195 27.245 27.5782C26.7815 28.679 26.376 29.8378 26.0863 31.1124C25.5648 33.5458 25.5648 36.153 26.1442 38.7022C26.4339 39.9768 26.8395 41.3094 27.4188 42.642C27.9403 43.8586 28.6355 45.0753 29.3308 46.1182C29.7363 46.6976 30.1419 47.219 30.5475 47.6246C31.011 48.146 31.5324 48.5516 32.0538 48.8413C32.6332 49.1889 33.2126 49.3627 33.7919 49.4786C33.9658 49.4786 34.0816 49.4786 34.2554 49.4786C34.7189 49.4786 35.2404 49.3627 35.7618 49.1889C36.0515 49.073 36.3412 48.8992 36.7468 48.7254C37.0944 48.5516 37.3841 48.2619 37.7896 48.0301C38.4269 47.5087 39.0063 46.9293 39.5857 46.35C40.1071 45.8285 40.5706 45.365 41.0341 44.7856C41.4976 44.2642 41.9032 43.7428 42.3667 43.1055C43.2937 41.8888 44.1048 40.6142 44.8001 39.2237C45.5532 37.7752 46.1906 36.3847 46.5961 34.9363C47.0596 33.4299 47.2914 31.9815 47.2914 30.6489C47.2914 30.3013 47.2914 30.0116 47.2334 29.664C47.1755 29.3164 47.1755 29.0267 47.1176 28.737C47.0017 28.2155 46.7699 27.752 46.4802 27.1727C46.0747 26.4774 45.4953 25.7822 44.8001 25.029C44.1627 24.3917 43.4096 23.7544 42.5405 23.0591C42.1929 22.8274 41.8453 22.5377 41.4976 22.3059C42.3088 22.7115 43.1778 23.175 44.1627 23.8123C44.9159 24.2758 45.6112 24.6814 46.3644 25.1449C46.8858 25.4925 47.4072 25.7822 47.9287 26.1298C49.3771 26.9989 50.6517 27.752 51.9264 28.3314C54.5915 29.664 57.4884 30.6489 60.4432 31.3442C63.2242 31.9815 66.0631 32.3291 69.0179 32.3291C69.1917 32.3291 69.3655 32.3291 69.4814 32.3291C72.8418 32.2712 75.7966 31.8077 78.3458 30.8807C79.3308 30.533 80.3736 30.0695 81.4165 29.4902C81.4744 29.4322 81.5324 29.3164 81.5903 29.2005C81.5903 29.0846 81.5903 28.9687 81.5324 28.9108C81.5324 28.8529 81.4744 28.8529 81.4744 28.7949C81.3006 28.3314 81.1848 27.9259 81.011 27.5782C80.8951 27.2306 80.6633 26.883 80.4895 26.4774C80.1998 25.956 79.8522 25.4345 79.4466 24.9131C78.6934 23.9282 77.8244 23.0591 76.7236 22.0742C74.8116 20.4519 72.5521 19.0035 69.6552 17.6709C67.2798 16.5701 64.7305 15.6431 62.0075 14.9479C61.3702 14.7741 60.7328 14.6582 60.1535 14.4844C59.4003 14.3106 58.6471 14.1947 57.778 14.0788C56.6193 14.0788 55.4605 14.0209 54.2439 14.0209Z" fill="#192E35"/>
<path d="M45.0325 20.6836C44.9746 20.8574 45.0325 20.9733 45.1484 21.0312C46.2492 21.7844 47.4079 22.4797 48.5667 23.1749C49.7834 23.8702 51.0001 24.5075 52.2747 25.0869C52.912 25.3765 53.5493 25.6662 54.1866 25.9559C54.8239 26.2456 55.5192 26.5353 56.1565 26.767C56.8517 27.0567 57.547 27.2885 58.2422 27.5202C58.9375 27.752 59.6327 27.9837 60.27 28.1575C60.9074 28.3313 61.5447 28.5052 62.182 28.679C62.8193 28.8528 63.5145 28.9687 64.2098 29.0845C65.6003 29.3163 66.9908 29.4901 68.3813 29.548C69.7138 29.606 70.9885 29.606 72.321 29.4901C72.9583 29.4322 73.6536 29.3163 74.2909 29.2004C74.6385 29.1425 75.0441 29.0845 75.3917 28.9687C75.7393 28.9107 76.029 28.7948 76.3187 28.7369C76.4925 28.679 76.6663 28.5052 76.7243 28.3893C76.7822 28.2155 76.8401 27.9837 76.7822 27.8099C76.7243 27.6361 76.6084 27.4623 76.4346 27.4043C76.3766 27.4043 76.3187 27.3464 76.2608 27.3464C76.1449 27.3464 75.9711 27.3464 75.8552 27.3464C74.4647 27.5782 73.0163 27.8099 71.5678 27.9258C70.1194 28.0417 68.671 28.0417 67.1646 27.9258H67.2225C67.1646 27.9258 67.1067 27.9258 67.0487 27.9258C67.0487 27.9258 67.0487 27.9258 66.9908 27.9258C66.0638 27.8678 65.1368 27.752 64.2098 27.6361C63.2248 27.5202 62.2399 27.3464 61.255 27.1147C60.27 26.8829 59.2851 26.6512 58.3581 26.4194C57.4311 26.1297 56.5041 25.84 55.635 25.5504C55.5771 25.5504 55.5771 25.5504 55.5192 25.4924C55.5192 25.4924 55.5192 25.4924 55.5771 25.4924C54.708 25.2027 53.781 24.8551 52.912 24.4495C51.985 24.044 51.1159 23.6384 50.2469 23.2329C48.5667 22.4217 46.9444 21.4947 45.3801 20.4519C45.3222 20.4519 45.3222 20.3939 45.2642 20.3939C45.2063 20.5098 45.0904 20.5677 45.0325 20.6836ZM67.1067 27.9258C67.1646 27.9258 67.1646 27.9258 67.2225 27.9258C67.1646 27.9837 67.1067 27.9258 67.1067 27.9258ZM55.693 25.6083H55.635C55.635 25.6083 55.635 25.6083 55.693 25.6083Z" fill="#0F1D21"/>
<path d="M59.6328 24.4495C59.6328 24.5075 59.6908 24.5654 59.7487 24.6234C61.4868 25.1448 63.167 25.6662 64.9631 26.0139C65.8321 26.1877 66.7012 26.2456 67.6282 26.3035C68.5552 26.3615 69.4242 26.3615 70.3512 26.3615C70.583 26.3615 70.8147 26.1297 70.8147 25.84C70.8147 25.6083 70.583 25.3765 70.2933 25.3765C68.9028 25.5504 67.5123 25.5504 66.1218 25.4924C65.0789 25.4345 64.0361 25.3186 62.9932 25.1448C61.8924 24.971 60.8495 24.6813 59.8066 24.3916C59.6908 24.3916 59.6328 24.3916 59.6328 24.4495Z" fill="#0F1D21"/>
<path d="M42.4252 26.3037C42.3093 26.3616 42.2514 26.4775 42.3093 26.5934C42.5411 27.2307 42.7149 27.868 42.8887 28.5053V28.4473C43.1204 29.5482 43.1784 30.649 43.1204 31.7498C43.0045 33.0823 42.7149 34.357 42.3093 35.6316C41.7879 37.138 41.0347 38.5864 40.1656 39.861C39.7021 40.4983 39.1807 41.1356 38.6592 41.715C38.1378 42.2944 37.5584 42.8738 36.9791 43.3952C36.4576 43.8587 35.9362 44.2643 35.3568 44.6698C35.0092 44.9016 34.9512 45.3651 35.183 45.7127C35.4147 46.0603 35.8782 46.1183 36.2259 45.8865C36.7473 45.5389 37.2687 45.0754 37.7322 44.6698C38.1957 44.2643 38.6592 43.8008 39.0648 43.3373C39.4704 42.8738 39.8759 42.3523 40.2235 41.8309C40.6291 41.3095 40.9767 40.7301 41.3244 40.1507C41.672 39.6293 41.9617 39.0499 42.1934 38.4705C42.4831 37.8912 42.7149 37.2538 42.8887 36.6745C43.2942 35.4578 43.526 34.2411 43.6419 33.0244C43.7577 31.9236 43.6998 30.7648 43.5839 29.664C43.468 28.5632 43.1204 27.4624 42.7149 26.3616C42.6569 26.3037 42.599 26.2457 42.541 26.2457C42.4831 26.3037 42.4831 26.3037 42.4252 26.3037ZM36.9211 43.4531L36.8632 43.5111C36.8632 43.5111 36.8632 43.5111 36.9211 43.4531Z" fill="#0F1D21"/>
<path d="M21.0462 45.1913C20.9882 45.3651 20.9303 45.5389 20.8723 45.7127V45.6548C19.7136 48.8992 17.8017 51.8541 15.8897 54.693L15.9477 54.6351C15.8897 54.7509 15.8318 54.8089 15.7739 54.9247C14.3254 57.1264 12.877 59.328 11.7182 61.7034C11.1389 62.9201 10.6754 64.1947 10.3277 65.4694C9.98011 66.686 9.8063 67.9607 9.69042 69.1773C9.45867 71.7266 9.69042 74.3338 10.3857 76.8251C10.7333 78.0418 11.1968 79.2585 11.8341 80.3593C12.4714 81.4601 13.2246 82.503 14.0357 83.4879C14.5572 84.0673 15.1945 84.6466 15.8318 85.1101C16.0056 85.226 16.1794 85.3419 16.4112 85.2839C16.6429 85.2839 16.8167 85.1681 16.9326 84.9943C17.0485 84.8204 17.1643 84.6466 17.1064 84.4149C17.1064 84.2411 16.9905 84.0093 16.8167 83.8935C16.0635 83.3141 15.3683 82.6768 14.731 81.9815C13.9199 81.0545 13.2246 79.9537 12.6452 78.8529C12.6452 78.8529 12.6452 78.8529 12.6452 78.9108C12.2976 78.2156 12.0079 77.5203 11.7762 76.7671C11.5444 76.014 11.3127 75.2608 11.1389 74.4497C11.1389 74.5076 11.1389 74.5076 11.1389 74.5655C11.1389 74.5076 11.1389 74.4497 11.1389 74.4497C11.1389 74.4497 11.1389 74.4496 11.1389 74.3917C10.7912 72.5377 10.6754 70.6837 10.7912 68.8297C10.9071 67.0337 11.2547 65.2376 11.8341 63.4995C11.8341 63.5574 11.8341 63.5574 11.7762 63.6154C12.6452 61.124 13.9778 58.8065 15.4262 56.547C16.8167 54.2874 18.3231 52.0858 19.5977 49.7683C20.4088 48.3199 21.0462 46.7556 21.5676 45.1913C21.6255 45.0754 21.5097 44.9016 21.3358 44.8436H21.2779C21.22 44.9595 21.1041 45.0174 21.0462 45.1913Z" fill="#0F1D21"/>
<path d="M62.1237 58.2271C62.0078 58.2271 61.9499 58.285 61.8919 58.3429C61.834 58.4009 61.834 58.4588 61.834 58.5747C61.834 58.8644 61.8919 59.0382 61.9499 59.2699C62.0078 59.5017 62.1237 59.7334 62.2975 59.9652C62.5292 60.3707 62.8769 60.7184 63.3404 60.9501C63.7459 61.1819 64.1515 61.2977 64.6729 61.2977C65.1944 61.2977 65.6579 61.1239 66.0634 60.8342C66.1793 60.7763 66.2372 60.6025 66.1214 60.4866C66.0634 60.4287 66.0055 60.3707 65.8896 60.3707C65.8317 60.3707 65.8317 60.3707 65.7737 60.4287C65.6579 60.5445 65.484 60.6025 65.3682 60.6604C65.1944 60.7184 65.0785 60.7763 64.9626 60.7763C64.9047 60.7763 64.7888 60.7763 64.7309 60.7763C64.6729 60.7763 64.557 60.7763 64.4991 60.7763C64.3253 60.7763 64.1515 60.7184 64.0356 60.6604C63.8618 60.6025 63.688 60.4866 63.5142 60.3707C63.3404 60.1969 63.1665 60.0231 62.9927 59.8493C62.8769 59.6755 62.761 59.4437 62.6451 59.2699C62.5292 59.0382 62.4713 58.8064 62.4713 58.5747C62.4134 58.3429 62.2395 58.2271 62.1237 58.2271Z" fill="#192E35"/>
<path d="M54.476 40.0347C54.1863 39.3395 52.3323 39.4554 50.3045 40.3244C48.2767 41.1935 46.8862 42.4102 47.1759 43.1054C47.4655 43.8007 49.3195 43.6848 51.3473 42.8157C53.3752 42.0046 54.7657 40.73 54.476 40.0347Z" fill="#0F1D21"/>
<path d="M77.6514 40.0347C77.7673 39.3395 76.2609 38.4125 74.2331 38.0069C72.2053 37.6014 70.4672 37.8331 70.2934 38.5284C70.1775 39.2236 71.6839 40.1506 73.7117 40.5562C75.7395 41.0197 77.4776 40.73 77.6514 40.0347Z" fill="#0F1D21"/>
<path d="M53.2015 48.3198H53.1435C52.7959 48.3778 52.5062 48.7254 52.3324 49.2468C52.1586 49.8262 52.1007 50.5214 52.2165 51.2746C52.3903 52.781 53.0856 53.9398 53.7808 53.9398H53.8388C54.1864 53.8818 54.4761 53.5342 54.6499 53.0128C54.8237 52.4334 54.8817 51.7381 54.7658 50.9849C54.592 49.4786 53.8967 48.3198 53.2015 48.3198Z" fill="#192E35"/>
<path d="M73.0735 44.9595H73.0156C72.668 45.0174 72.3783 45.365 72.2045 45.8865C72.0307 46.4658 71.9727 47.1611 72.0886 47.9143C72.2624 49.4207 72.9577 50.5794 73.6529 50.5794H73.7109C74.0585 50.5215 74.3482 50.1738 74.522 49.6524C74.6958 49.073 74.7537 48.3778 74.6379 47.6246C74.464 46.1182 73.7688 44.9595 73.0735 44.9595Z" fill="#192E35"/>
<path d="M64.8465 43.1055C64.7306 43.1055 64.6147 43.2213 64.6147 43.3372C64.5568 44.438 64.5568 45.4809 64.6147 46.5238C64.6727 47.5087 64.7886 48.6095 64.9044 49.7683C64.9044 49.8841 65.0203 49.9421 65.1362 49.9421H65.1941C65.7156 49.7103 66.1791 49.5945 66.6426 49.5365C66.8164 49.5365 66.9322 49.5365 67.106 49.5365C67.2219 49.5365 67.3378 49.5365 67.4537 49.5365C67.6275 49.5945 67.8013 49.5945 67.9751 49.6524C68.091 49.7103 68.2069 49.7683 68.3227 49.8841C68.4386 49.9421 68.4965 50.058 68.6124 50.1738C68.7283 50.2897 68.7862 50.4056 68.8442 50.5794C68.9021 50.7532 68.96 50.927 68.96 51.1008C68.96 51.3905 68.96 51.6223 68.96 51.854C68.9021 52.0858 68.8442 52.3755 68.7283 52.6072C68.6124 52.839 68.4965 53.1286 68.3227 53.3604C68.1489 53.5921 67.9172 53.8239 67.6854 53.9977C67.4537 54.1715 67.2219 54.2874 66.9902 54.4033H66.9322C66.7005 54.5191 66.4108 54.5771 66.1211 54.635C66.0052 54.635 65.8894 54.7509 65.8894 54.8088C65.8314 54.9247 65.8314 55.0406 65.8314 55.1565C65.8314 55.2723 65.9473 55.3303 66.0052 55.3882C66.0632 55.4461 66.1211 55.4461 66.1791 55.4461C66.237 55.4461 66.237 55.4461 66.2949 55.4461C66.7005 55.3303 67.106 55.2144 67.4537 55.0406C67.7434 54.8668 68.091 54.635 68.3807 54.3453C68.8442 53.8818 69.2497 53.2445 69.4235 52.5493C69.5974 51.912 69.5974 51.2746 69.4235 50.6953C69.2497 50.1159 68.9021 49.6524 68.3807 49.3627C68.0331 49.131 67.5695 49.0151 67.0481 49.0151H66.9322C66.4108 49.0151 65.8314 49.1889 65.1941 49.4206V49.2468L65.1362 49.0151C64.9044 47.219 64.8465 45.3071 64.9044 43.3372C64.9044 43.2793 64.9044 43.2213 64.8465 43.2213C64.9624 43.1634 64.9044 43.1055 64.8465 43.1055Z" fill="#CA8664"/>
</svg>
