<svg width="100" height="100" viewBox="0 0 100 100" fill="none" xmlns="http://www.w3.org/2000/svg">
<path d="M50.0178 0H49.8444C36.7808 0.0578035 24.4687 5.14451 15.2779 14.3931C6.02939 23.6416 0.942684 35.8382 1.00049 48.8439C1.05829 75.6069 23.0236 97.3988 49.96 97.3988H50.1334C63.197 97.341 75.5092 92.2543 84.6999 83.0058C93.9485 73.7572 98.9774 61.5029 98.9774 48.4971C98.8618 21.7919 76.9542 0 50.0178 0Z" fill="#F6E9E3"/>
<path d="M57.1846 12.5433C57.0112 12.5433 56.8378 12.5433 56.6065 12.5433C52.3291 12.6011 48.5719 13.0058 45.2193 13.815C41.1152 14.8555 37.7048 16.474 35.2193 18.7861C35.0458 18.7861 34.8724 18.7861 34.699 18.7861C34.2366 18.7861 33.7742 18.7861 33.3117 18.8439C32.6759 18.9017 32.0401 19.0751 31.3464 19.3063C30.1904 19.711 29.0921 20.289 28.0516 21.156C27.1268 21.9075 26.2597 22.8902 25.5083 24.0462C24.8146 25.0867 24.1788 26.2428 23.543 27.6878C22.6181 29.8266 21.8667 32.2543 21.173 35.3757C20.9418 36.4162 20.7106 37.63 20.4216 38.9595L20.306 39.5376C20.1904 40.1156 20.0747 40.7514 19.9591 41.3295C19.7857 42.3121 19.5545 43.237 19.3233 44.1618V44.104V44.0462C18.9187 45.4335 18.5141 46.763 17.9938 47.9769C17.4736 49.2485 16.8378 50.578 16.0863 51.8497C15.6239 52.6589 15.0458 53.4682 14.41 54.3352C14.0054 54.9133 13.6008 55.4913 13.1383 56.0693L12.5603 56.8786C11.4042 58.4393 10.1904 60.1734 9.09209 62.0231C7.99382 63.8728 7.18458 65.7803 6.66434 67.6878C6.20192 69.4219 5.9707 71.156 5.9707 72.8901C5.9707 73.6994 6.02851 74.5664 6.14411 75.3757C6.25972 76.1271 6.43313 76.8786 6.66434 77.7456C7.06897 79.2485 7.70481 80.6936 8.57186 82.1387C10.1326 84.8555 12.5025 87.2254 15.3927 89.1329C16.4331 89.8266 17.5892 90.4624 18.8609 90.9826C20.1326 91.5607 21.5198 92.0231 23.1383 92.4855C23.3695 92.6011 23.6586 92.6589 23.8898 92.7745C24.9302 93.1214 26.0863 93.4104 27.3002 93.6416C29.3233 94.0462 31.5198 94.2774 34.2944 94.393C35.5661 94.4508 36.8956 94.4508 37.936 94.4508H39.2077C40.0169 94.4508 40.884 94.4508 41.6932 94.4508H42.6181C44.699 94.4508 46.78 94.5087 48.8609 94.5087H49.3811C53.6008 94.5087 59.2077 94.393 64.7568 93.7572C65.9707 93.6416 67.1846 93.4682 68.4563 93.237C69.4389 93.0636 70.4794 92.8902 71.6933 92.6011C73.7164 92.1965 75.3349 91.7919 76.8378 91.3295C78.7453 90.7514 80.4216 90.1156 81.9823 89.3063C83.6586 88.4393 85.1615 87.3988 86.3175 86.2428C86.8956 85.6647 87.4736 84.9711 87.936 84.2196C88.3984 83.526 88.8031 82.7167 89.2077 81.6185C89.9013 79.711 90.1904 77.5722 90.0748 75.3757C89.9591 73.7572 89.6701 72.0231 89.0343 70.1156C88.5141 68.3237 87.7626 66.5896 87.069 64.9133L86.6643 63.9306C86.0863 62.5433 85.5083 61.0982 84.988 59.711C84.6412 58.7861 84.3522 57.9191 84.121 57.1098C83.832 56.1272 83.6586 55.2601 83.543 54.4508V54.393C83.4852 53.6994 83.4274 53.0058 83.4274 52.3121C83.4274 51.6763 83.4851 50.9826 83.6008 50.1734V50.289C83.8898 48.1503 84.5256 46.0693 85.1037 44.0462C85.6817 42.0809 86.2597 40.1156 86.5487 38.0925C86.7221 36.9942 86.7799 35.9537 86.7799 34.9711C86.7799 34.0462 86.6643 33.0636 86.3753 31.8497C86.0285 30.0578 85.3927 28.2659 84.5256 26.5318C83.7742 24.9711 82.7337 23.4682 81.5198 22.0231C80.4216 20.7514 79.0343 19.4797 77.5314 18.3815C74.699 16.3006 71.2886 14.7399 67.5314 13.7572C65.7973 13.2948 63.8898 13.0058 61.9823 12.8324C61.0574 12.7745 60.1326 12.7167 59.3233 12.7167C58.6297 12.5433 57.936 12.5433 57.1846 12.5433Z" fill="#192E35"/>
<path d="M54.0052 19.422C53.3693 19.4798 52.7335 19.5376 52.0977 19.5954C49.7855 19.9422 47.4734 20.5203 45.3347 21.3873H45.3925C44.5254 21.7341 43.7162 22.1388 42.9647 22.6012C42.2711 23.0058 41.5774 23.4682 40.8838 23.9885C40.248 24.4509 39.6699 24.9711 39.0919 25.5492C38.5717 26.1272 38.0514 26.7052 37.5312 27.2833C37.011 27.9769 36.4907 28.6706 36.0861 29.422C35.6815 30.1734 35.2769 30.9249 34.93 31.6763C34.4676 32.7168 34.1208 33.8729 33.8318 34.9711C33.5428 36.1272 33.3115 37.3411 33.1381 38.4971C33.1381 38.4971 33.1381 38.4971 33.1381 38.4393C32.9069 40.3469 32.7913 42.3122 32.8491 44.2197C32.8491 44.7399 32.8491 45.2602 32.9069 45.7226C32.9647 46.3006 32.9647 46.8208 33.0225 47.3989C33.1381 48.4971 33.2537 49.6532 33.3115 50.7515C33.3693 51.7919 33.3115 52.8902 33.1381 53.9307C33.0225 54.5087 32.9069 55.0867 32.7335 55.607C32.5601 56.1272 32.3867 56.5896 32.0977 57.0521C31.5774 58.0347 30.9416 58.9596 30.3058 59.8266C29.6699 60.6359 28.9763 61.4451 28.2826 62.1966C26.8376 63.7573 25.3925 65.318 24.063 66.9943C23.485 67.7457 22.9069 68.555 22.4445 69.422C22.0977 70.0578 21.7508 70.7515 21.4618 71.3873C21.4618 71.3873 21.4618 71.3873 21.4618 71.3295C21.0572 72.2544 20.7682 73.1792 20.4792 74.1619C20.248 75.1446 20.0167 76.1272 19.9011 77.1099C19.7855 78.1503 19.6699 79.2486 19.6699 80.2891C19.6699 81.3873 19.7277 82.4278 19.9011 83.5261C20.0167 84.5087 20.248 85.4336 20.4792 86.3584C20.7104 87.2833 21.0572 88.2081 21.404 89.0752C21.693 89.8266 22.0399 90.5203 22.4445 91.2139C22.6179 91.5029 22.7335 91.7341 22.9069 92.0232C22.9647 92.0232 23.0803 92.081 23.1381 92.081C23.3693 92.1966 23.6584 92.2544 23.8896 92.37C24.93 92.7168 26.0283 93.0058 27.3 93.237C29.3231 93.6417 31.5774 93.8729 34.2942 93.9885C35.5659 94.0463 36.7798 94.0463 37.9358 94.0463H39.2075C40.0167 94.0463 40.8838 94.0463 41.693 94.0463H42.6179C44.6988 94.0463 46.7798 94.1041 48.8607 94.1041H49.3809C53.6006 94.1041 59.1497 93.9885 64.7566 93.3526C65.9705 93.237 67.2422 93.0636 68.456 92.8324C69.4387 92.659 70.4792 92.4856 71.693 92.1966C73.7162 91.7919 75.3347 91.3873 76.8376 90.9249C77.2422 90.8093 77.589 90.6937 77.9936 90.5781C78.1092 90.4625 78.167 90.3469 78.2826 90.2313C79.0341 89.2486 79.7855 88.1503 80.4214 87.0521C80.7104 86.5318 81.0572 85.9538 81.2884 85.4336C81.5774 84.8555 81.8087 84.3353 82.0977 83.7573C82.0977 83.7573 82.0977 83.7573 82.0977 83.8151C82.5023 82.8324 82.9069 81.7919 83.1959 80.7515C83.3693 80.2313 83.4849 79.6532 83.6006 79.133C83.7162 78.5549 83.8318 77.9769 83.8896 77.4567C84.063 76.0694 84.1786 74.6821 84.1208 73.237C84.1208 72.5434 84.063 71.8497 84.0052 71.2139C83.9474 70.5203 83.8896 69.8844 83.774 69.1908C83.774 69.1908 83.774 69.1908 83.774 69.2486C83.5428 67.3989 83.1381 65.607 82.7335 63.8151C82.4445 62.6012 82.1555 61.3873 81.8087 60.1734C81.6352 59.5376 81.4618 58.9018 81.2884 58.2659C81.115 57.6879 80.9994 57.0521 80.8838 56.4162C80.7104 55.2602 80.537 54.1041 80.537 52.948C80.537 51.7919 80.537 50.6937 80.7104 49.5954C80.826 48.4972 80.9994 47.4567 81.1728 46.3584C81.404 45.2023 81.6352 44.0463 81.8665 42.948C82.0977 41.8498 82.3289 40.6937 82.5601 39.5376C82.7335 38.555 82.9647 37.5723 83.0803 36.5896C83.1381 35.896 83.2537 35.2602 83.2537 34.5665C83.2537 34.2197 83.2537 33.8729 83.2537 33.526C83.2537 33.237 83.1959 32.948 83.1959 32.6012C83.1381 32.1966 83.0803 31.8497 82.9647 31.5029C82.9069 31.3295 82.8491 31.1561 82.7913 30.9827C82.7335 30.8671 82.6757 30.6937 82.6179 30.5781V30.6359C82.5023 30.4047 82.3867 30.1734 82.2711 29.9422C82.2133 29.8266 82.0977 29.6532 82.0399 29.5376C81.9821 29.422 81.9243 29.3642 81.8665 29.2486C81.693 29.0174 81.5196 28.844 81.3462 28.6706C81.1728 28.4971 81.0572 28.3237 80.8838 28.2081C80.537 27.8613 80.1324 27.5723 79.7855 27.2833C78.8029 26.5318 77.7624 25.8382 76.6641 25.2602C75.5081 24.6243 74.352 24.1041 73.1381 23.5839C73.1381 23.5839 73.1381 23.5839 73.1959 23.5839C72.2133 23.1792 71.2306 22.7746 70.248 22.4278C69.3231 22.081 68.3982 21.7341 67.4734 21.4451C66.2017 21.0405 64.93 20.6359 63.6584 20.2891C63.0225 20.1156 62.3867 20 61.7509 19.8844C61.115 19.7688 60.4792 19.6532 59.8433 19.5954C58.5139 19.422 57.1844 19.3064 55.9127 19.3064C55.3347 19.3642 54.641 19.422 54.0052 19.422Z" fill="#0F1D21"/>
<path d="M31.9827 49.0173C31.8671 49.0173 31.7515 49.0173 31.6359 49.0173C31.289 49.0173 30.9422 49.1329 30.5376 49.3064C29.844 49.5954 29.1503 50.1734 28.5723 51.0405C28.2255 51.5029 27.9942 52.0231 27.763 52.6011C27.5896 53.1214 27.4162 53.6994 27.3584 54.3353C27.2428 55.4913 27.4162 56.6474 27.8208 57.9191C28.2255 59.0173 28.8613 60.1156 29.6705 61.0405C30.0752 61.5029 30.5376 61.9075 31 62.2543C31.5203 62.6589 32.1561 63.0058 32.8497 63.237C33.8902 63.6416 35.1041 63.8728 36.607 63.9306C36.8382 63.9306 37.0116 63.9306 37.2428 63.9306C38.2833 63.9306 39.3237 63.8728 40.3064 63.7572H40.5376C40.6532 63.7572 40.7688 63.6416 40.7688 63.5838C40.8266 63.526 40.8266 63.4104 40.8266 63.2948C40.8266 63.237 40.7688 63.1214 40.711 63.0636C40.7688 62.1387 40.8266 61.3873 40.8266 60.6936C40.8266 60.1734 40.7688 59.4798 40.6532 58.7861C40.5376 58.0925 40.3064 57.3988 39.9018 56.5318C39.5549 55.7225 39.1503 54.9711 38.5723 54.1618C38.052 53.2948 37.4162 52.5433 36.8382 51.8497C36.2023 51.0983 35.5087 50.5202 34.815 50.0578C34.0636 49.5376 33.3122 49.2485 32.6185 49.0751C32.5029 49.0173 32.2717 49.0173 31.9827 49.0173Z" fill="#FEBE9C"/>
<path d="M32.8491 53.815C32.6757 54.2196 32.5023 54.6242 32.4445 55.0866C32.3867 55.4913 32.3867 55.9537 32.3867 56.3583C32.4445 57.2254 32.7335 58.0924 33.196 58.8439C33.4272 59.2485 33.6584 59.5953 33.9474 59.8843C34.2364 60.2311 34.5254 60.5202 34.8723 60.7514C35.5081 61.2716 36.2596 61.6184 37.0688 61.8496C37.1266 61.8496 37.2422 61.8496 37.2422 61.734C37.2422 61.6762 37.2422 61.5606 37.1266 61.5606C36.9532 61.5028 36.8376 61.445 36.6642 61.3872C36.2017 61.2138 35.7971 60.9826 35.4503 60.6936C35.0457 60.3467 34.6989 59.9999 34.352 59.5953C34.0052 59.1329 33.7162 58.6126 33.485 58.0924C33.3116 57.63 33.196 57.1676 33.1382 56.7051C33.0804 56.3005 33.0804 55.8959 33.1382 55.4913C33.196 55.1444 33.3116 54.7398 33.4272 54.393C33.485 54.3352 33.485 54.2196 33.5428 54.1618C33.6006 54.0462 33.6006 53.9884 33.6006 53.8728C33.6006 53.7572 33.485 53.6994 33.4272 53.6415C33.3694 53.5837 33.3116 53.5837 33.2538 53.5837C33.0226 53.5837 32.9069 53.6415 32.8491 53.815ZM35.4503 60.6936C35.5081 60.6936 35.5081 60.7514 35.4503 60.6936V60.6936Z" fill="#FF9B68"/>
<path d="M29.9022 52.7168C29.4975 52.8324 29.1507 53.1214 28.8617 53.4104C28.8039 53.4682 28.8039 53.5838 28.8617 53.6416C28.9195 53.6994 29.0351 53.6994 29.0929 53.6416C29.2085 53.526 29.2663 53.4682 29.3819 53.4104C29.4975 53.2948 29.671 53.237 29.8444 53.1792C30.0178 53.1214 30.1334 53.0636 30.3068 53.0636C30.4802 53.0636 30.7114 53.0636 30.8848 53.0636C31.1739 53.1214 31.4051 53.1792 31.6941 53.2948C32.1565 53.4682 32.5611 53.7572 32.9658 54.0462C32.9658 54.0462 33.0236 54.0462 33.0236 54.104L33.0814 54.1619C33.1392 54.2197 33.197 54.2197 33.2548 54.2197C33.3704 54.2197 33.4282 54.1619 33.486 54.104C33.5438 54.0462 33.6016 53.9306 33.6016 53.8728C33.6016 53.815 33.5438 53.6994 33.486 53.6416C32.8502 53.0636 31.9831 52.7746 31.116 52.659C31.0582 52.659 30.9426 52.659 30.8848 52.659C30.538 52.5434 30.1912 52.6012 29.9022 52.7168Z" fill="#FF9B68"/>
<path d="M82.8492 43.4681C82.618 43.4681 82.329 43.4681 82.0977 43.5259C81.3463 43.6994 80.5949 43.9884 79.9012 44.5086C79.2076 44.971 78.5139 45.5491 77.8781 46.3005C77.2423 46.9942 76.6642 47.7456 76.144 48.6126C75.6238 49.4219 75.1613 50.2311 74.8145 50.9826C74.4677 51.8496 74.1787 52.5433 74.0631 53.2369C73.9475 53.9306 73.8896 54.6242 73.8896 55.1444C73.8896 55.8959 73.8897 56.6473 74.0053 57.5144C73.9475 57.5722 73.8896 57.63 73.8896 57.7456C73.8896 57.8612 73.8896 57.9768 73.9475 58.0346C74.0053 58.0924 74.1209 58.208 74.2365 58.208H74.4677H74.5255H74.5833C75.566 58.2658 76.5486 58.3814 77.5313 58.3814C77.7625 58.3814 77.9359 58.3814 78.1671 58.3814C79.67 58.3236 80.8839 58.0924 81.9243 57.6878C82.618 57.3988 83.2538 57.052 83.774 56.7051C84.2943 56.3583 84.6989 55.9537 85.1035 55.4913C85.9128 54.5664 86.5486 53.4681 86.9532 52.3699C87.4157 51.0982 87.5313 49.9421 87.4735 48.7861C87.4157 48.1502 87.3001 47.5722 87.0688 47.052C86.8376 46.5317 86.6064 46.0115 86.2596 45.4913C85.6816 44.6242 85.0457 44.0462 84.2943 43.7572C83.9475 43.5837 83.5428 43.5259 83.196 43.4681C83.0804 43.4681 82.9648 43.4681 82.8492 43.4681Z" fill="#FEA97E"/>
<path d="M84.0055 45.6648C82.676 45.896 81.4043 46.474 80.3639 47.3411C79.8436 47.8035 79.3234 48.266 78.9188 48.844C78.5142 49.422 78.1095 50.0001 77.8783 50.6937C77.8205 50.9249 77.9361 51.1561 78.1095 51.2139C78.2251 51.2717 78.3407 51.2717 78.3985 51.2139C78.5142 51.1561 78.572 51.0983 78.6298 50.9827C78.6876 50.8093 78.8032 50.6359 78.9188 50.4625C79.3234 49.711 79.7858 49.0752 80.3639 48.4394C80.8841 47.9191 81.4621 47.4567 82.0402 47.0521C82.0402 47.0521 82.0402 47.0521 81.9824 47.0521C81.9824 47.0521 81.9824 47.0521 82.0402 47.0521C82.0402 47.0521 82.0402 47.0521 82.098 47.0521C82.5604 46.7631 82.965 46.5897 83.4853 46.4162C83.4853 46.4162 83.4853 46.4162 83.5431 46.4162C83.5431 46.4162 83.5431 46.4162 83.4853 46.4162C83.7165 46.3584 83.8899 46.3006 84.1211 46.3006C84.2367 46.3006 84.3523 46.1272 84.3523 46.0116C84.2945 45.7226 84.1789 45.6648 84.0055 45.6648ZM78.861 50.4047C78.861 50.4625 78.8032 50.4625 78.8032 50.5203C78.8032 50.4625 78.861 50.4047 78.861 50.4047Z" fill="#CA8664"/>
<path d="M47.9939 68.2081C47.9939 68.2081 47.9361 68.2081 47.8783 68.2081C47.7627 68.2081 47.6471 68.2659 47.5893 68.3237C47.5314 68.3815 47.4736 68.4971 47.4736 68.6128C47.4158 69.422 47.358 70.2313 47.358 71.0405C47.3002 72.2544 47.2424 73.526 47.069 74.7977V74.7399C46.8956 76.0116 46.6066 77.1099 46.202 78.0347C45.9129 78.7284 45.5661 79.3064 45.1615 79.8266C44.8725 80.2313 44.5257 80.5781 44.121 80.8671C43.6586 81.2139 43.1384 81.5029 42.5604 81.7919C41.5777 82.1966 40.5372 82.4278 39.1499 82.659C39.1499 82.659 39.1499 82.659 39.0921 82.659C38.3985 82.7746 37.6471 82.8324 36.9534 82.8902C36.4332 82.948 35.913 83.0058 35.3927 83.0636C34.5257 83.1792 33.7742 83.2948 33.0806 83.4104C32.3291 83.5839 31.5777 83.8151 30.8841 84.1619C30.8262 84.2197 30.7684 84.2775 30.7106 84.3931C30.5372 84.5087 30.5372 84.7399 30.6528 84.9711C31.9245 86.7052 33.6008 88.1503 35.6817 89.3642C37.5314 90.4625 39.6702 91.3873 42.0979 92.0232C44.2366 92.6012 46.5488 93.0636 49.1499 93.2948C50.8262 93.4682 52.5604 93.5261 54.3523 93.5261C54.8725 93.5261 55.4505 93.5261 55.9708 93.5261C57.3002 93.4682 58.4563 93.4104 59.5546 93.2948C60.9419 93.1792 62.3291 92.948 63.7164 92.6012C66.5488 91.9654 69.2077 90.9827 71.5777 89.6532C72.7338 89.0174 73.832 88.2659 74.8725 87.4567C75.3927 87.0521 75.9129 86.5896 76.4332 86.1272C77.0112 85.607 77.5314 85.0867 78.0517 84.5665C78.1095 84.5087 78.1673 84.4509 78.1673 84.3353H78.2251C78.2829 84.3353 78.2829 84.3353 78.2829 84.3353C78.3985 84.3353 78.4563 84.2197 78.5141 84.1619C78.5719 84.0463 78.5719 83.9885 78.5719 83.8729C78.5719 83.8151 78.4563 83.6995 78.3985 83.6417C77.9361 83.4104 77.4736 83.237 76.9534 83.1214C76.5488 83.0058 76.0864 82.8324 75.5083 82.7168C75.1615 82.659 74.6991 82.5434 74.2945 82.4856C74.0054 82.4278 73.6586 82.37 73.1962 82.37C72.5603 82.3122 71.8667 82.2544 71.2309 82.1966C70.4216 82.1388 69.5546 82.081 68.6875 81.9654C67.7049 81.7919 66.8956 81.6185 66.202 81.3295C65.7395 81.1561 65.3349 80.8671 64.9881 80.6359C64.6991 80.4047 64.4101 80.1156 64.1788 79.7688C63.9476 79.422 63.7164 79.0752 63.543 78.6706C63.3118 78.1503 63.1962 77.6301 63.0806 77.0521C62.965 76.0694 62.965 75.0289 63.1384 73.6995C63.254 73.0636 63.3696 72.4278 63.4274 71.7919C63.4852 71.5029 63.543 71.1561 63.6008 70.8671C63.7164 70.8093 63.7742 70.6937 63.7742 70.5781C63.7742 70.4625 63.7742 70.3469 63.6586 70.2891C63.6008 70.2313 63.4852 70.1734 63.3696 70.1734C60.6528 70 57.9361 69.6532 55.3349 69.2486C52.965 68.7284 50.4794 68.3815 47.9939 68.2081Z" fill="#FEBE9C"/>
<path d="M47.8786 68.2081C47.763 68.2081 47.6474 68.2659 47.5896 68.3237C47.5318 68.3815 47.474 68.4971 47.474 68.6128C47.4162 69.2486 47.4162 69.9422 47.3584 70.5781C47.763 71.0405 48.2255 71.5607 48.6879 71.9654C49.3237 72.5434 49.9596 73.1214 50.6532 73.6417C51.3468 74.1619 52.0405 74.6243 52.7919 75.0289C53.4856 75.3758 54.1792 75.7226 54.8728 75.9538C55.5665 76.185 56.2601 76.4162 57.0116 76.5896C57.7052 76.763 58.3411 76.8787 59.0347 76.9365C59.7283 76.9943 60.422 77.0521 61.1734 76.9943H61.1156C61.7515 76.9943 62.3873 76.9365 63.0231 76.8208C62.9075 75.896 62.9653 74.8555 63.1387 73.526C63.2544 72.8902 63.3122 72.2544 63.4278 71.6763C63.4856 71.3295 63.5434 71.0405 63.6012 70.7515C63.7168 70.6937 63.7746 70.5781 63.7746 70.4625C63.7746 70.3469 63.7168 70.2313 63.659 70.1734C63.6012 70.1156 63.4856 70.0578 63.37 70.0578C60.6532 69.8844 57.9364 69.5376 55.3353 69.133C52.9075 68.7862 50.422 68.4393 47.9364 68.2659C47.9364 68.2081 47.9364 68.2081 47.8786 68.2081Z" fill="#FF9B68"/>
<path d="M77.5897 82.5433C77.5319 82.5433 77.4741 82.6011 77.4163 82.6589C76.8961 83.2948 76.2603 83.8728 75.5666 84.4509C73.6013 85.9537 71.347 87.052 69.4395 87.8613C68.5724 88.2081 67.821 88.5549 67.1273 88.7861C66.3181 89.0751 65.5088 89.3641 64.6996 89.5954C63.0811 90.0578 61.4048 90.4624 59.6707 90.6936C57.7632 90.9826 55.8556 91.0983 53.9481 91.0983C52.503 91.0983 51.0002 91.0404 49.5551 90.867C46.4337 90.5202 43.4279 89.711 40.6533 88.6127L40.7111 88.6705H40.7689C38.2834 87.63 35.9713 86.3584 33.9481 84.7977C33.3701 84.3352 32.7921 83.8728 32.214 83.3526C32.214 83.3526 32.1562 83.2948 32.0984 83.2948C32.0406 83.237 31.925 83.1792 31.8094 83.1792H31.7516C29.266 83.5838 26.7805 84.6243 24.1215 86.3584C22.9655 87.1098 21.8094 88.0347 20.7111 89.0173C19.7863 89.8266 18.977 90.7514 18.2256 91.6763C18.2834 91.7341 18.2834 91.7341 18.3412 91.7919C18.5146 91.9075 18.688 92.0809 18.8614 92.1965C20.4221 93.4104 22.214 94.3352 24.0059 95.0867C25.2198 95.6069 26.4915 96.0693 27.821 96.474C29.1504 96.8786 30.4799 97.2254 31.8094 97.5722C34.4684 98.2081 37.1851 98.6705 39.9019 99.0751C39.9597 99.0751 39.9597 99.0751 40.0175 99.0751C44.7574 99.711 49.5551 100 54.2949 100C59.0926 100 63.8903 99.711 68.6302 99.0751C68.6302 99.0751 68.6302 99.0751 68.5724 99.0751C71.2892 98.7283 74.0637 98.2081 76.7227 97.5722C79.3817 96.9364 81.9828 96.1272 84.4684 95.0867C84.4684 95.0867 84.4684 95.0867 84.4106 95.0867C86.2603 94.3352 87.9944 93.4104 89.6129 92.1965C89.9597 91.9075 90.3065 91.6763 90.5955 91.3873C90.7689 91.2139 90.9423 91.0404 91.1158 90.867C91.1736 90.8092 91.2314 90.7514 91.2892 90.6936C90.5377 89.8266 89.6707 89.0173 88.6302 88.2081C87.6476 87.3988 86.5493 86.6474 85.3354 85.8959C84.1793 85.2023 82.9655 84.5665 81.7516 83.9884C80.5377 83.4104 79.3238 82.948 78.11 82.6011C78.0522 82.6011 78.0522 82.6011 77.9944 82.6011C77.7632 82.4855 77.6476 82.4855 77.5897 82.5433Z" fill="#EF306C"/>
<path d="M77.5903 82.5433C77.5324 82.5433 77.4746 82.6011 77.4168 82.6589C76.8966 83.2947 76.2608 83.8728 75.5671 84.4508C73.6018 85.9537 71.3475 87.0519 69.44 87.8612C68.5729 88.208 67.8793 88.497 67.1278 88.7861C66.3764 89.0751 65.5671 89.3063 64.7001 89.5953C63.0816 90.0577 61.4053 90.4623 59.6712 90.6936C57.7637 90.9826 55.8561 91.0982 53.9486 91.0982C52.5035 91.0982 51.0007 91.0404 49.5556 90.867C46.4342 90.5202 43.4284 89.7687 40.6538 88.6126L40.7116 88.6704C38.2261 87.63 35.914 86.3005 33.9486 84.7976C33.3128 84.3352 32.7348 83.8728 32.2145 83.3525C32.1567 83.3525 32.1567 83.2947 32.0989 83.2947C32.0411 83.2369 31.9255 83.1791 31.8099 83.1791H31.7521C30.8272 83.2947 29.9024 83.5259 28.9775 83.8728C29.3244 84.393 29.729 84.8554 30.1914 85.3178C30.6538 85.7803 31.1163 86.2427 31.6365 86.6473C33.255 87.9768 35.1047 89.0751 37.0122 89.9999C40.2492 91.5028 43.7752 92.5433 47.3012 93.1213C49.0931 93.4103 50.9429 93.6415 52.7926 93.6994C53.7174 93.7572 54.6423 93.7572 55.5671 93.6994C56.492 93.6994 57.359 93.6415 58.2839 93.5259C58.2839 93.5259 58.2839 93.5259 58.2261 93.5259C60.2492 93.3525 62.2723 92.9479 64.2955 92.4855C65.8561 92.0809 67.4168 91.6184 68.9197 91.0404C71.7521 89.9421 74.5267 88.5548 77.0122 86.8207C77.8215 86.2427 78.6307 85.6069 79.3822 84.9132C79.9024 84.4508 80.3648 83.9884 80.8272 83.4681C79.9024 83.0635 78.9197 82.7167 77.9949 82.4855C77.9371 82.4855 77.8793 82.4855 77.8793 82.4855C77.7637 82.4855 77.6481 82.4855 77.5903 82.5433Z" fill="#F55E84"/>
<path d="M48.5147 15.029C47.9945 15.0868 47.5321 15.1446 47.0119 15.2602C45.7402 16.0694 44.4685 16.8209 43.1968 17.6301C39.3818 20.0001 35.5668 22.6012 32.3876 25.7804C31.5205 26.6475 30.7113 27.5723 29.902 28.555C29.1506 29.4798 28.5147 30.4625 27.8789 31.503C27.8789 31.9654 27.9367 32.4856 27.9367 33.0058C28.0523 34.2197 28.3413 35.4914 28.746 36.9365C29.3818 39.133 30.3067 41.2717 31.2315 43.2949C31.4049 43.6995 31.5783 44.1041 31.7517 44.4509C32.5032 46.1272 33.1968 47.9769 33.7749 49.8266C34.0639 50.9249 34.3529 52.081 34.5263 53.4105C34.5841 53.6995 34.6419 54.0463 34.6419 54.3353C34.7575 55.0868 34.8731 55.896 35.0465 56.6475C35.2778 57.8035 35.6246 58.7284 36.1448 59.5954C36.4338 60.0579 36.7806 60.5203 37.1853 60.9827C37.4165 61.2139 37.6477 61.4451 37.8789 61.6764C37.9945 61.792 38.1679 61.9076 38.2835 62.081C38.3991 62.1966 38.5147 62.2544 38.6304 62.37C38.8038 62.5434 38.9194 62.7168 39.035 62.8902C39.035 63.0058 39.0928 63.0636 39.0928 63.1214C40.2488 65.1446 41.8673 66.9943 43.9483 68.6128C45.9136 70.1157 48.1101 71.3873 50.5957 72.37C52.9656 73.2949 55.3356 73.8151 57.7633 73.9885C58.2257 74.0463 58.746 74.0463 59.2084 74.0463C59.8442 74.0463 60.4801 74.0463 61.1737 73.9885C62.272 73.9307 63.428 73.8151 64.5841 73.5839C69.2084 72.8324 73.3124 70.9827 76.3182 68.3238C77.8789 66.9365 79.2084 65.2024 80.191 63.4105C80.6535 62.4856 81.1159 61.4451 81.4049 60.3469C81.6939 59.2486 81.9251 58.1504 82.0408 56.8787C82.1564 55.896 82.1564 54.9134 82.0986 53.8729C82.0408 52.8902 81.9252 51.792 81.6939 50.4625C81.5205 49.4798 81.3471 48.4972 81.1737 47.5723C80.9425 46.3584 80.7113 45.029 80.4801 43.7573V43.6995C80.3645 42.8902 80.3067 42.1388 80.3067 41.4451C80.2488 40.6937 80.2489 40.0001 80.2489 39.2486V38.4394C80.1911 37.2833 80.191 36.1272 80.1332 34.9712C80.0176 33.4105 79.902 32.0232 79.613 30.8093C79.324 29.422 78.9194 28.0347 78.3413 26.7631C77.9945 26.0116 77.5899 25.2024 77.0697 24.4509C77.0697 24.3931 77.0119 24.2775 77.0119 24.2197C75.2778 22.4278 73.2546 20.8671 71.0003 19.5376C68.8616 18.266 66.4338 17.2833 63.8905 16.5319C60.3645 15.4914 56.7228 14.9712 52.9656 14.9712C51.4627 14.7977 50.0176 14.8556 48.5147 15.029Z" fill="#FEBE9C"/>
<path d="M54.6414 14.2196H54.5258C51.52 14.2196 48.6298 14.5664 45.7974 15.2023C42.9073 15.8381 40.2483 16.8208 37.9362 18.0346C36.6645 18.7283 35.3928 19.5375 34.3523 20.289C33.0229 21.2138 31.8668 22.1387 30.8263 23.0635C29.6703 24.1618 28.6876 25.2601 27.9362 26.4161C27.0691 27.7456 26.4333 29.1329 26.0286 30.578C25.8552 31.2138 25.7396 31.9075 25.6818 32.6011C25.624 33.2369 25.624 33.8728 25.624 34.682C25.6818 35.8959 25.8552 37.1676 26.2021 38.7861C26.4333 39.8265 26.7223 40.9248 27.0113 41.9653C27.4159 43.5838 27.8784 45.2023 28.1096 46.8786C27.994 46.9942 27.994 47.2254 28.1096 47.341C28.4564 47.8612 28.8032 48.2659 29.2078 48.6127C29.5547 48.9595 30.0171 49.1907 30.4795 49.4219C31.0576 49.6531 31.6934 49.7687 32.387 49.7687C32.676 49.7687 33.0229 49.7687 33.3119 49.7109C34.2367 49.5953 35.2194 49.2485 36.2599 48.6705C37.1847 48.1502 38.1096 47.5144 38.9766 46.763C39.7859 46.0693 40.5373 45.2601 41.231 44.4508C41.9824 43.526 42.5604 42.6011 42.9073 41.6185C43.1963 40.9248 43.3697 40.1734 43.4275 39.3641C43.4853 38.6127 43.4853 37.8612 43.3697 37.052C43.2541 36.3005 43.0807 35.5491 42.7917 34.7976C42.5604 34.2196 42.2714 33.6416 41.9824 33.2369C41.4622 32.3699 40.8263 31.5606 40.1905 30.7514L39.9015 30.3468C39.15 29.3641 38.4564 28.4393 37.8784 27.3988C37.5893 26.8208 37.3581 26.3005 37.2425 25.7803V25.7225C37.1847 25.5491 37.1847 25.3179 37.1269 25.1445C37.1269 24.971 37.1269 24.7398 37.1269 24.5664C37.1269 23.9884 37.2425 23.526 37.3581 23.0635C37.4737 22.7745 37.5315 22.5433 37.7049 22.3121C37.8206 22.1387 37.9362 21.9653 38.1096 21.8497C38.283 21.6763 38.4564 21.5606 38.6298 21.5028C38.861 21.3872 39.0922 21.3294 39.3234 21.2716C39.6125 21.2138 39.9593 21.156 40.3061 21.156H40.4217H40.4795C41.1732 21.2138 41.9246 21.3294 42.8495 21.6184C44.2367 22.0231 45.7396 22.6589 47.5893 23.6416C48.861 24.3352 50.1327 25.0289 51.2888 25.7225C52.0402 26.1849 52.8495 26.5895 53.8321 27.1676C55.335 27.9768 56.7223 28.6705 58.1096 29.3063C61.2888 30.8092 64.2367 31.7919 67.0691 32.3121C68.6298 32.6011 70.1327 32.7745 71.6356 32.7745C72.676 32.7745 73.7165 32.7167 74.6992 32.5433C75.7974 32.3699 77.0113 32.0809 78.5142 31.6763C80.0171 31.2138 81.0575 30.7514 81.8668 30.0578C81.9246 30 81.9824 29.9421 82.0402 29.8265C82.098 29.8265 82.1558 29.8265 82.1558 29.8265C82.2714 29.7687 82.3292 29.7109 82.387 29.5953C82.4448 29.4797 82.4448 29.4219 82.387 29.3063C81.9824 28.208 81.4044 27.1098 80.5373 25.8959C79.7859 24.8554 78.861 23.8728 77.7049 22.7745C76.7223 21.8497 75.5662 20.9826 74.2945 20.0578C73.1963 19.3063 71.9824 18.5549 70.7107 17.919C69.6125 17.341 68.3986 16.8208 67.1847 16.3583C65.9708 15.8959 64.6414 15.5491 63.1963 15.2023C60.4217 14.5086 57.5893 14.2196 54.6414 14.2196Z" fill="#192E35"/>
<path d="M41.289 18.7283C41.1156 18.7283 40.9422 18.7861 40.7688 18.7861C40.5954 18.7861 40.6532 19.0752 40.8266 19.0174C41 19.0174 41.1734 18.9595 41.3468 18.9595C41.3468 18.9595 41.3468 18.9595 41.289 18.9595C42.0404 18.9017 42.7341 18.9596 43.4855 19.0752C43.4855 19.0752 43.4855 19.0752 43.4277 19.0752C44.7572 19.3064 46.0867 19.7688 47.3006 20.3468H47.2428C48.4566 20.9249 49.6705 21.5607 50.8266 22.2543C51.9248 22.8902 53.0809 23.5838 54.1792 24.2197C55.3352 24.8555 56.4913 25.4335 57.7052 25.9538C59.0925 26.5318 60.4219 27.1098 61.867 27.5723C64.6994 28.5549 67.7052 29.1908 70.711 29.3642C72.2139 29.422 73.7167 29.3642 75.2196 29.133C76.7225 28.9017 78.1676 28.4971 79.5549 27.9191C79.8439 27.8035 80.1329 27.6301 80.4219 27.5145C80.5954 27.4567 80.711 27.3411 80.8844 27.2832C81.0578 27.1676 81.2312 27.052 81.4046 26.9942C81.7514 26.8208 81.867 26.4162 81.6936 26.0694C81.5202 25.7226 81.1156 25.6069 80.7688 25.7804C80.5954 25.896 80.3641 25.9538 80.1329 26.0694C79.9017 26.185 79.6705 26.3006 79.4393 26.4162C79.0347 26.5896 78.63 26.763 78.1676 26.9364C76.6647 27.4567 75.1618 27.7457 73.6011 27.9191C71.4046 28.0925 69.2081 27.9191 67.0693 27.5723C67.0693 27.5723 67.0693 27.5723 67.1271 27.5723C65.0462 27.2254 63.0809 26.6474 61.0578 26.0116C60.0751 25.7226 59.0925 25.3757 58.1098 24.9711C57.2428 24.6243 56.3179 24.2775 55.4508 23.8728C54.3526 23.3526 53.2543 22.7746 52.2139 22.1965C51 21.5607 49.8439 20.9249 48.5722 20.3468C47.3584 19.8266 46.1445 19.3064 44.8728 19.0174C44.0058 18.7861 43.0809 18.6705 42.156 18.6705C41.867 18.7283 41.578 18.7283 41.289 18.7283ZM55.4508 23.8728C55.5086 23.8728 55.5087 23.9306 55.5665 23.9306C55.5087 23.9306 55.4508 23.9306 55.4508 23.8728ZM78.2832 26.8786C78.2254 26.8786 78.2254 26.8786 78.1676 26.9364C78.2254 26.9364 78.2832 26.8786 78.2832 26.8786Z" fill="#0F1D21"/>
<path d="M55.7398 22.0809C55.682 22.1387 55.7398 22.2543 55.7976 22.2543C56.3178 22.5433 56.8958 22.8323 57.4161 23.1214C57.9941 23.4104 58.5721 23.6416 59.208 23.9306C60.4218 24.4508 61.6357 24.8555 62.9074 25.2023C64.1791 25.5491 65.4507 25.7803 66.7224 25.8959C67.9941 26.0115 69.2658 26.0115 70.5375 25.8381C70.6531 25.8381 70.7687 25.7225 70.8265 25.6647C70.8843 25.5491 70.8843 25.4335 70.8843 25.3179C70.8843 25.2023 70.7687 25.0867 70.7109 25.0289C70.6531 25.0289 70.6531 24.9711 70.5953 24.9711C70.5375 24.9711 70.4218 24.9711 70.364 24.9711C70.1328 24.9711 69.9016 25.0289 69.6704 25.0289H69.6126H69.5548C69.5548 25.0289 69.5548 25.0289 69.6126 25.0289C67.7051 25.2023 65.8554 25.0867 63.9479 24.7399C62.734 24.5086 61.5201 24.2196 60.3062 23.815C59.7282 23.6416 59.0924 23.4104 58.5143 23.1792C57.9363 22.9479 57.3005 22.7167 56.7224 22.4277C56.4334 22.3121 56.1444 22.1387 55.8554 22.0231H55.7976C55.8554 21.9653 55.7976 22.0231 55.7398 22.0809Z" fill="#0F1D21"/>
<path d="M35.2777 25.0289C35.2199 25.8381 35.2777 26.6474 35.4511 27.4566C35.6823 28.2659 35.9713 29.0751 36.3759 29.8266C36.7228 30.578 37.1274 31.3295 37.532 32.0809C37.8788 32.8323 38.2257 33.6416 38.4569 34.393C38.4569 34.393 38.4569 34.393 38.4569 34.3352C38.4569 34.3352 38.4569 34.3352 38.4569 34.393C38.6881 35.2601 38.7459 36.1271 38.7459 36.9942V36.8208C38.7459 38.0347 38.5725 39.1907 38.2835 40.3468C38.0522 41.156 37.7054 41.9075 37.3008 42.6589C37.0118 43.1214 36.665 43.5838 36.2603 43.9884C35.9135 44.2774 35.5667 44.5665 35.2199 44.7977C35.1043 44.8555 35.0465 44.9711 34.9887 45.0867C34.9309 45.2601 34.9309 45.4913 34.9887 45.6647C35.0465 45.8381 35.2199 46.0115 35.3933 46.0693C35.5667 46.1271 35.7979 46.1849 35.9713 46.0693C36.2603 45.9537 36.4916 45.7803 36.7228 45.6069C36.954 45.4335 37.243 45.2023 37.4164 44.9711C37.821 44.6243 38.1101 44.1618 38.3991 43.6994C38.6881 43.1792 38.9771 42.6589 39.2083 42.0809C39.4395 41.5029 39.5551 40.9248 39.6707 40.3468C39.902 39.2485 39.9598 38.0347 39.902 36.9364C39.8442 36.4162 39.7864 35.8959 39.6707 35.4335C39.4973 34.7977 39.3239 34.2196 39.0349 33.6416C38.7459 32.948 38.3991 32.3699 38.0522 31.7919C37.7054 31.156 37.3008 30.578 36.954 29.9422C36.954 29.9422 36.954 29.9422 36.954 29.8844C36.4916 29.0173 36.0291 28.0925 35.7401 27.1098C35.7401 27.1098 35.7401 27.1098 35.7401 27.1676C35.6245 26.6474 35.5089 26.0693 35.5089 25.5491C35.5089 25.3757 35.5089 25.2023 35.5089 25.0289C35.5089 24.9711 35.4511 24.8555 35.3933 24.8555C35.3933 24.8555 35.2777 24.9133 35.2777 25.0289Z" fill="#0F1D21"/>
<path d="M21.5202 46.1849C20.9422 47.7456 20.1907 49.1907 19.3815 50.6936C18.9769 51.5029 18.5144 52.2543 18.052 53.0636C17.5896 53.8728 17.1271 54.6821 16.6647 55.4335C16.0289 56.474 15.4508 57.4566 14.8728 58.4971C14.2948 59.5375 13.7167 60.6358 13.1387 61.6763C12.5607 62.7167 12.0982 63.815 11.6358 64.9133C11.1734 65.9537 10.8266 67.052 10.4797 68.1503C10.3063 68.7283 10.1329 69.3063 10.0173 69.8844C9.90171 70.4046 9.78611 70.9826 9.7283 71.5029C9.55489 72.6011 9.55489 73.6994 9.6127 74.8555C9.6705 75.9537 9.90171 77.052 10.2485 78.1503C10.5954 79.2485 11.1156 80.3468 11.7514 81.3294C12.2139 82.0809 12.7341 82.7167 13.3121 83.4104C13.6589 83.7572 14.0058 84.104 14.3526 84.4508C14.526 84.6242 14.6994 84.7977 14.8728 84.9711C15.0462 85.1445 15.2774 85.2601 15.4508 85.4335C15.7399 85.7225 16.2601 85.6069 16.4913 85.3179C16.6069 85.1445 16.6647 84.9711 16.6647 84.7399C16.6647 84.5664 16.5491 84.393 16.3757 84.2196C16.3179 84.1618 16.2601 84.104 16.2023 84.104C15.9711 83.8728 15.6821 83.5838 15.4508 83.3526C14.4682 82.3121 13.5433 81.156 12.7919 79.9422C12.2139 78.9595 11.8092 77.8612 11.5202 76.763C11.3468 76.1271 11.2312 75.4913 11.1734 74.8555C11.1156 74.2196 11.0578 73.5838 11.0578 72.9479C11.1156 71.2138 11.4046 69.4797 11.867 67.8034C12.156 66.7052 12.5607 65.6069 12.9653 64.5664C13.1965 64.0462 13.4277 63.4682 13.6589 62.9479C13.8902 62.4277 14.1214 61.8497 14.3526 61.3294C14.5838 60.8092 14.8728 60.2312 15.1618 59.711C15.4508 59.1907 15.6821 58.6127 15.9711 58.0925C16.2601 57.5722 16.5491 57.052 16.7803 56.474C17.0693 55.9537 17.3006 55.4335 17.5896 54.9133C19.0347 52.1387 20.5376 49.4219 21.6358 46.474C21.6936 46.3584 21.6358 46.3005 21.5202 46.2427H21.4624C21.6358 46.0693 21.5202 46.0693 21.5202 46.1849ZM12.8497 79.6531C12.8497 79.711 12.9075 79.7109 12.9075 79.7688C12.9075 79.7688 12.9075 79.711 12.8497 79.6531Z" fill="#0F1D21"/>
<path d="M67.4739 59.5376C66.9537 59.5376 66.4912 59.5954 65.971 59.6532C65.3352 59.7688 64.7571 59.9422 64.2947 60.2312C64.1213 60.3468 64.0635 60.5203 64.1213 60.6937C64.1213 60.8093 64.2369 60.8671 64.2947 60.9249C64.3525 60.9827 64.4103 60.9827 64.4681 60.9827C64.5259 60.9827 64.5259 60.9827 64.5837 60.9827C64.6993 60.9249 64.7571 60.9249 64.8727 60.8671C65.2196 60.6937 65.5086 60.6359 65.7976 60.5203C66.0866 60.4046 66.4334 60.3468 66.7224 60.289C67.0115 60.2312 67.2427 60.2312 67.5317 60.2312H67.6473C67.8207 60.2312 67.9941 60.0578 67.9941 59.8844C67.9941 59.711 67.8207 59.5376 67.6473 59.5376C67.6473 59.5376 67.5895 59.5376 67.4739 59.5376Z" fill="#192E35"/>
<path d="M55.277 43.0057C55.1035 42.2543 53.2538 42.0231 51.1151 42.4855C48.9764 42.9479 47.3579 43.8728 47.5313 44.6242C47.7047 45.3757 49.5544 45.6069 51.6931 45.1445C53.8319 44.682 55.4504 43.6994 55.277 43.0057Z" fill="#0F1D21"/>
<path d="M78.2252 41.5607C78.2252 40.867 76.5489 40.2312 74.5258 40.2312C72.4449 40.2312 70.7686 40.7514 70.7686 41.5029C70.7686 42.1965 72.4449 42.8324 74.468 42.8324C76.5489 42.8324 78.2252 42.2543 78.2252 41.5607Z" fill="#0F1D21"/>
<path d="M53.7743 49.4797H53.7164C53.3696 49.5375 53.0806 49.8844 52.9072 50.4046C52.7338 50.9826 52.676 51.6763 52.7916 52.4277C52.965 53.9306 53.6586 55.0867 54.3523 55.0867H54.4101C54.7569 55.0289 55.0459 54.682 55.2193 54.1618C55.3927 53.5838 55.4506 52.8901 55.3349 52.1387C55.1615 50.6358 54.4679 49.4797 53.7743 49.4797Z" fill="#192E35"/>
<path d="M73.6014 46.1272H73.5436C73.1968 46.185 72.9078 46.5318 72.7343 47.0521C72.5609 47.6301 72.5031 48.3237 72.6187 49.0752C72.7922 50.5781 73.4858 51.7341 74.1794 51.7341H74.2372C74.5841 51.6763 74.8731 51.3295 75.0465 50.8093C75.2199 50.2312 75.2777 49.5376 75.1621 48.7862C74.9887 47.2833 74.3528 46.1272 73.6014 46.1272Z" fill="#192E35"/>
<path d="M65.3927 44.2775C65.2771 44.2775 65.1615 44.3931 65.1615 44.5087C65.1037 45.6069 65.1037 46.6474 65.1615 47.6879C65.2193 48.6705 65.3349 49.7688 65.4505 50.9249C65.4505 51.0405 65.5661 51.0983 65.6817 51.0983H65.7396C66.2598 50.8671 66.7222 50.7515 67.1846 50.6937C67.358 50.6937 67.4737 50.6937 67.6471 50.6937C67.7627 50.6937 67.8783 50.6937 67.9939 50.6937C68.1673 50.7515 68.3407 50.7515 68.5141 50.8093C68.6297 50.8671 68.7453 50.9249 68.8609 51.0405C68.9765 51.0983 69.0343 51.2139 69.15 51.3295C69.2656 51.4451 69.3234 51.5607 69.3812 51.7341C69.439 51.9075 69.4968 52.0809 69.4968 52.2543C69.4968 52.5434 69.4968 52.7746 69.4968 53.0058C69.439 53.237 69.3812 53.526 69.2656 53.7572C69.15 53.9885 69.0343 54.2775 68.8609 54.5087C68.6875 54.7399 68.4563 54.9711 68.2251 55.1445C67.9939 55.3179 67.7627 55.4335 67.5315 55.5491H67.4737C67.2424 55.6647 66.9534 55.7226 66.6644 55.7804C66.5488 55.7804 66.4332 55.896 66.4332 55.9538C66.3754 56.0694 66.3754 56.185 66.3754 56.3006C66.3754 56.4162 66.491 56.474 66.5488 56.5318C66.6066 56.5896 66.6644 56.5896 66.7222 56.5896C66.78 56.5896 66.78 56.5896 66.8378 56.5896C67.2424 56.474 67.6471 56.3584 67.9939 56.185C68.2829 56.0116 68.6297 55.7804 68.9187 55.4913C69.3812 55.0289 69.7858 54.3931 69.9592 53.6994C70.1326 53.0636 70.1326 52.4278 69.9592 51.8497C69.7858 51.2717 69.439 50.8093 68.9187 50.5202C68.5719 50.289 68.1095 50.1734 67.5893 50.1734H67.4737C66.9534 50.1734 66.3754 50.3468 65.7396 50.578V50.4046L65.6817 50.1734C65.4505 48.3815 65.3927 46.474 65.4505 44.5087C65.4505 44.4509 65.4505 44.3931 65.3927 44.3931C65.5083 44.3353 65.4505 44.2775 65.3927 44.2775Z" fill="#CA8664"/>
</svg>
