<svg width="100" height="100" viewBox="0 0 100 100" fill="none" xmlns="http://www.w3.org/2000/svg">
<path d="M50.1314 0H49.9576C36.8638 0.0579374 24.5231 5.15643 15.311 14.4264C6.04104 23.6964 0.942551 35.9212 1.00049 48.9571C1.05843 75.7822 23.0746 97.6246 50.0735 97.6246H50.2473C63.3412 97.5666 75.6818 92.4681 84.8939 83.1981C94.1639 73.9282 99.2044 61.6454 99.2044 48.6095C99.0885 21.8424 77.1303 0 50.1314 0Z" fill="#F6E9E3"/>
<path d="M57.4312 12.1669C57.2574 12.1669 57.0836 12.1669 56.8518 12.1669C52.5644 12.2248 48.7985 12.6304 45.4381 13.4415C41.3246 14.4844 37.9063 16.1066 35.415 18.4241C35.2412 18.4241 35.0673 18.4241 34.8935 18.4241C34.43 18.4241 33.9665 18.4241 33.503 18.482C32.8657 18.54 32.2284 18.7138 31.5332 18.9455C30.3744 19.3511 29.2736 19.9305 28.2307 20.7995C27.3037 21.5527 26.4347 22.5377 25.6815 23.6964C24.9862 24.7393 24.3489 25.956 23.7116 27.3465C22.7846 29.4902 22.0314 31.9235 21.3362 35.0522C21.1044 36.095 20.8727 37.3117 20.583 38.6443L20.4671 39.2236C20.3512 39.803 20.2354 40.4403 20.1195 41.0197C19.9457 42.0046 19.7139 42.9316 19.4822 43.8586V43.8007V43.7428C19.0766 45.1333 18.6711 46.4658 18.1496 47.6825C17.6282 48.9571 16.9909 50.2897 16.2377 51.5643C15.7742 52.3754 15.1948 53.1866 14.5575 54.0556C14.1519 54.635 13.7464 55.2144 13.2829 55.7938L12.7035 56.6049C11.5448 58.1692 10.3281 59.9073 9.22725 61.7613C8.12644 63.6153 7.31532 65.5272 6.79388 67.4392C6.33038 69.1773 6.09863 70.9154 6.09863 72.6535C6.09863 73.4647 6.15657 74.3337 6.27245 75.1448C6.38832 75.898 6.56213 76.6512 6.79388 77.5203C7.19944 79.0267 7.83676 80.4751 8.70582 81.9235C10.2701 84.6466 12.6456 87.022 15.5424 88.934C16.5853 89.6292 17.7441 90.2665 19.0187 90.788C20.2933 91.3673 21.6838 91.8308 23.306 92.2943C23.5378 92.4102 23.8275 92.4681 24.0592 92.584C25.1021 92.9316 26.2609 93.2213 27.4775 93.4531C29.5054 93.8586 31.707 94.0904 34.488 94.2063C35.7626 94.2642 37.0952 94.2642 38.138 94.2642H39.4127C40.2238 94.2642 41.0928 94.2642 41.904 94.2642H42.831C44.9167 94.2642 47.0025 94.3221 49.0882 94.3221H49.6096C53.8391 94.3221 59.459 94.2063 65.021 93.569C66.2377 93.4531 67.4544 93.2793 68.729 93.0475C69.7139 92.8737 70.7568 92.6999 71.9735 92.4102C74.0013 92.0046 75.6235 91.5991 77.1299 91.1356C79.0418 90.5562 80.722 89.9189 82.2863 89.1078C83.9665 88.2387 85.4729 87.1958 86.6317 86.0371C87.211 85.4577 87.7904 84.7625 88.2539 84.0093C88.7174 83.314 89.123 82.5029 89.5285 81.4021C90.2238 79.4902 90.5135 77.3465 90.3976 75.1448C90.2817 73.5226 89.992 71.7845 89.3547 69.8725C88.8333 68.0765 88.0801 66.3384 87.3848 64.6582L86.9793 63.6732C86.3999 62.2827 85.8205 60.8343 85.2991 59.4438C84.9515 58.5168 84.6618 57.6477 84.43 56.8366C84.1403 55.8517 83.9665 54.9826 83.8507 54.1715V54.1136C83.7927 53.4183 83.7348 52.7231 83.7348 52.0278C83.7348 51.3905 83.7927 50.6953 83.9086 49.8841V50C84.1983 47.8563 84.8356 45.7706 85.415 43.7428C85.9943 41.7729 86.5737 39.803 86.8634 37.7752C87.0372 36.6744 87.0952 35.6315 87.0952 34.6466C87.0952 33.7196 86.9793 32.7347 86.6896 31.518C86.342 29.7219 85.7047 27.9258 84.8356 26.1877C84.0824 24.6234 83.0395 23.117 81.8228 21.6686C80.722 20.394 79.3315 19.1194 77.8252 18.0186C74.9862 15.9328 71.5679 14.3685 67.802 13.3836C66.0639 12.9201 64.1519 12.6304 62.24 12.4566C61.313 12.3986 60.386 12.3407 59.5749 12.3407C58.8796 12.2248 58.1844 12.1669 57.4312 12.1669Z" fill="#192E35"/>
<path d="M52.8542 20.1043C52.9122 20.1043 52.9122 20.1043 52.8542 20.1043C51.6955 20.2781 50.5367 20.5099 49.3201 20.7996C48.2192 21.0892 47.1184 21.4369 46.0756 21.9004C45.2065 22.248 44.3954 22.6536 43.6422 23.1171C42.889 23.5806 42.1358 24.102 41.3826 24.6234C40.7453 25.1449 40.108 25.6663 39.5286 26.2457C38.9493 26.825 38.4278 27.4044 37.9643 28.0417C37.5008 28.6211 37.0953 29.2005 36.7476 29.8378C36.5159 30.1854 36.3421 30.533 36.1683 30.8807C35.9365 31.2862 35.7627 31.6918 35.5889 32.0974V32.0394C35.1254 33.0823 34.7778 34.1831 34.4881 35.3418C34.3722 35.9212 34.2563 36.4427 34.1404 37.022C34.0246 37.6014 33.9666 38.1808 33.8508 38.7602C33.8508 38.7602 33.8508 38.7602 33.8508 38.7022C33.619 40.3245 33.5031 42.0047 33.3873 43.6848C33.2714 45.365 33.1555 46.9873 32.9238 48.6675C32.8079 49.7103 32.6341 50.8111 32.3444 51.854C32.1126 52.9548 31.765 53.9977 31.3595 55.0406C31.1856 55.5041 30.9539 55.9676 30.7221 56.4311C30.5483 56.8366 30.3166 57.2422 30.0848 57.5898C29.6213 58.343 29.0999 59.0962 28.5785 59.8494C28.057 60.5446 27.4776 61.1819 26.8983 61.8772C26.3189 62.5145 25.6816 63.2098 25.1022 63.8471C23.8855 65.1217 22.6688 66.3963 21.626 67.7868C21.1625 68.4241 20.699 69.0614 20.2934 69.7567C20.1196 70.1043 19.8878 70.4519 19.714 70.7996C19.5402 71.1472 19.3664 71.4948 19.1926 71.8424V71.7845C18.9029 72.4218 18.6712 73.1171 18.4973 73.7544C18.4394 74.102 18.3235 74.4496 18.2656 74.7393C18.2077 75.0869 18.1497 75.4346 18.0918 75.7822C17.9759 76.7671 17.918 77.6941 17.918 78.679C17.918 79.1425 17.918 79.606 17.9759 80.0116C18.0338 80.4751 18.0338 80.8807 18.0918 81.3442C18.0918 81.3442 18.0918 81.3442 18.0918 81.2862C18.2077 82.1553 18.3815 82.9664 18.6132 83.8355C18.7291 84.241 18.845 84.6466 18.9608 85.0522C19.0767 85.4577 19.2505 85.8054 19.4243 86.2109C19.772 86.9641 20.1196 87.7173 20.5252 88.4125C20.9307 89.1078 21.3942 89.803 21.9156 90.4403C22.3212 90.9618 22.7268 91.4832 23.1903 91.9467C23.2482 91.9467 23.2482 91.9467 23.3061 91.9467C23.5379 92.0626 23.8276 92.1205 24.0593 92.2364C25.1022 92.584 26.203 92.8737 27.4776 93.1055C29.5055 93.511 31.765 93.7428 34.4881 93.8587C35.8206 93.9166 37.1532 93.9166 38.1381 93.9166H39.4128H40.6874H41.962H42.889C44.9747 93.9166 47.0605 93.9745 49.1462 93.9745H49.6677C53.8971 93.9745 59.4591 93.8586 65.079 93.2213C66.2957 93.1055 67.5703 92.8737 68.787 92.6999C69.772 92.5261 70.8148 92.3523 72.0315 92.0626C74.0593 91.657 75.6816 91.2515 77.188 90.788C78.5205 90.3824 79.7951 89.9189 80.9539 89.4554C81.0118 89.3975 81.0118 89.3395 81.0698 89.2816C81.6491 88.2387 82.2285 87.1379 82.692 85.9792V86.0371C83.9087 83.1982 84.7198 80.2434 85.1254 77.1727C85.2413 76.0719 85.3571 75.029 85.3571 73.9282C85.3571 73.4067 85.3571 72.8853 85.3571 72.3639C85.2992 71.6107 85.2413 70.7996 85.1254 70.0464C85.1254 69.9305 85.1254 69.8726 85.0675 69.7567C84.8936 68.54 84.6619 67.3233 84.3722 66.1646C84.0825 64.9479 83.7928 63.7891 83.4452 62.5724C82.8079 60.2549 82.2285 57.8795 81.8809 55.5041C81.823 54.8668 81.7071 54.2295 81.7071 53.5342C81.7071 52.9548 81.6491 52.3755 81.7071 51.7381C81.7071 50.5215 81.823 49.3048 81.9968 48.0881C82.2865 45.7126 82.692 43.3952 83.0396 41.0197C83.2135 39.7451 83.3293 38.4125 83.3873 37.1379C83.3873 36.5006 83.4452 35.8633 83.3873 35.226C83.3873 34.8783 83.3873 34.5887 83.3293 34.241C83.3293 34.0093 83.2714 33.7775 83.2714 33.5458C83.2134 33.0823 83.0976 32.5609 82.9817 32.0974C82.9238 31.8656 82.8658 31.6339 82.75 31.4021C82.692 31.2283 82.6341 30.9965 82.5182 30.8227C82.3444 30.4172 82.1706 30.0695 81.9388 29.664C81.7071 29.3164 81.4753 28.9687 81.2436 28.6211C80.896 28.2155 80.5483 27.81 80.2007 27.4624C79.7951 27.1147 79.3896 26.7092 78.984 26.4195C77.8832 25.5504 76.6665 24.8552 75.4498 24.1599C74.8125 23.8123 74.2332 23.5226 73.5958 23.175C73.0744 22.8853 72.495 22.6536 71.9736 22.4218H72.0315C68.9029 21.0892 65.6005 20.2202 62.2401 19.7567C60.6758 19.5249 59.1115 19.4091 57.5472 19.4091H57.3734C55.809 19.8146 54.3606 19.9305 52.8542 20.1043Z" fill="#0F1D21"/>
<path d="M31.9388 48.7253C31.8229 48.7253 31.707 48.7253 31.5912 48.7253C31.2435 48.7253 30.8959 48.8412 30.4904 49.015C29.7951 49.3047 29.0999 49.8841 28.5205 50.7532C28.1729 51.2167 27.9411 51.7381 27.7094 52.3175C27.5355 52.8389 27.3617 53.4183 27.3038 54.0556C27.1879 55.2143 27.3617 56.3731 27.7673 57.6477C28.1729 58.7485 28.8102 59.8493 29.6213 60.7763C30.0269 61.2398 30.4904 61.6454 30.9539 61.993C31.4753 62.3986 32.1126 62.7462 32.8079 62.9779C33.8507 63.3835 35.0674 63.6153 36.5738 63.6732C36.8055 63.6732 36.9793 63.6732 37.2111 63.6732C38.254 63.6732 39.2968 63.6153 40.2818 63.4994H40.5135C40.6294 63.4994 40.7453 63.3835 40.7453 63.3256C40.8032 63.2676 40.8032 63.1518 40.8032 63.0359C40.8032 62.978 40.7453 62.8621 40.6873 62.8041C40.7453 61.8771 40.8032 61.124 40.8032 60.4287C40.8032 59.9073 40.7453 59.212 40.6294 58.5168C40.5135 57.8215 40.2818 57.1263 39.8762 56.2572C39.5286 55.4461 39.123 54.6929 38.5437 53.8818C38.0222 53.0127 37.3849 52.2595 36.8055 51.5643C36.1682 50.8111 35.473 50.2317 34.7777 49.7682C34.0245 49.2468 33.2713 48.9571 32.5761 48.7833C32.4602 48.7833 32.2285 48.7253 31.9388 48.7253Z" fill="#FEBE9C"/>
<path d="M32.8073 53.5342C32.6334 53.9398 32.4596 54.3454 32.4017 54.8089C32.3438 55.2144 32.3438 55.6779 32.3438 56.0835C32.4017 56.9525 32.6914 57.8216 33.1549 58.5748C33.3866 58.9804 33.6184 59.328 33.9081 59.6177C34.1977 59.9653 34.4874 60.255 34.8351 60.4867C35.4724 61.0082 36.2256 61.3558 37.0367 61.5875C37.0946 61.5875 37.2105 61.5875 37.2105 61.4717C37.2105 61.4137 37.2105 61.2979 37.0946 61.2979C36.9208 61.2399 36.8049 61.182 36.6311 61.124C36.1676 60.9502 35.7621 60.7185 35.4144 60.4288C35.0089 60.0812 34.6612 59.7335 34.3136 59.328C33.966 58.8645 33.6763 58.343 33.4446 57.8216C33.2707 57.3581 33.1549 56.8946 33.0969 56.4311C33.039 56.0256 33.039 55.62 33.0969 55.2144C33.1549 54.8668 33.2708 54.4612 33.3866 54.1136C33.4446 54.0557 33.4446 53.9398 33.5025 53.8819C33.5604 53.766 33.5604 53.7081 33.5604 53.5922C33.5604 53.4763 33.4446 53.4184 33.3866 53.3604C33.3287 53.3025 33.2707 53.3025 33.2128 53.3025C32.9811 53.3604 32.8652 53.4184 32.8073 53.5342Z" fill="#FF9B68"/>
<path d="M29.8529 52.4913C29.4474 52.6072 29.0997 52.8969 28.8101 53.1866C28.7521 53.2445 28.7521 53.3604 28.8101 53.4183C28.868 53.4763 28.9839 53.4763 29.0418 53.4183C29.1577 53.3025 29.2156 53.2445 29.3315 53.1866C29.4474 53.0707 29.6212 53.0128 29.795 52.9548C29.9688 52.8969 30.0847 52.839 30.2585 52.839C30.4323 52.839 30.6641 52.839 30.8379 52.839C31.1276 52.8969 31.3593 52.9548 31.649 53.0707C32.1125 53.2445 32.518 53.5342 32.9236 53.8239C32.9236 53.8239 32.9815 53.8239 32.9815 53.8818L33.0395 53.9398C33.0974 53.9977 33.1554 53.9977 33.2133 53.9977C33.3292 53.9977 33.3871 53.9398 33.445 53.8818C33.503 53.8239 33.5609 53.708 33.5609 53.6501C33.5609 53.5921 33.503 53.4763 33.445 53.4183C32.8077 52.839 31.9387 52.5493 31.0696 52.4334C31.0117 52.4334 30.8958 52.4334 30.8379 52.4334C30.4902 52.3175 30.1426 52.3755 29.8529 52.4913Z" fill="#FF9B68"/>
<path d="M82.9237 43.2213C82.6919 43.2213 82.4022 43.2213 82.1705 43.2793C81.4173 43.4531 80.6641 43.7428 79.9689 44.2642C79.2736 44.7277 78.5784 45.3071 77.941 46.0602C77.3037 46.7555 76.7244 47.5087 76.2029 48.3777C75.6815 49.1889 75.218 50 74.8704 50.7532C74.5227 51.6222 74.233 52.3175 74.1172 53.0127C74.0013 53.708 73.9434 54.4032 73.9434 54.9247C73.9434 55.6779 73.9434 56.431 74.0592 57.3001C74.0013 57.358 73.9434 57.416 73.9434 57.5319C73.9434 57.6477 73.9434 57.7636 74.0013 57.8215C74.0592 57.8795 74.1751 57.9954 74.291 57.9954H74.5227H74.5807H74.6386C75.6235 58.0533 76.6085 58.1692 77.5934 58.1692C77.8252 58.1692 77.999 58.1692 78.2307 58.1692C79.7371 58.1112 80.9538 57.8795 81.9967 57.4739C82.6919 57.1842 83.3292 56.8366 83.8507 56.489C84.3721 56.1414 84.7777 55.7358 85.1832 55.2723C85.9943 54.3453 86.6317 53.2445 87.0372 52.1437C87.5007 50.8691 87.6166 49.7103 87.5587 48.5516C87.5007 47.9142 87.3848 47.3349 87.1531 46.8134C86.9213 46.292 86.6896 45.7706 86.342 45.2491C85.7626 44.3801 85.1253 43.8007 84.3721 43.511C84.0245 43.3372 83.6189 43.2793 83.2713 43.2213C83.1554 43.2213 83.0395 43.2213 82.9237 43.2213Z" fill="#FEA97E"/>
<path d="M84.0822 45.365C82.7497 45.5967 81.475 46.1761 80.4322 47.0452C79.9107 47.5087 79.3893 47.9722 78.9837 48.5515C78.5782 49.1309 78.1726 49.7103 77.9409 50.4055C77.8829 50.6373 77.9988 50.869 78.1726 50.927C78.2885 50.9849 78.4043 50.9849 78.4623 50.927C78.5782 50.869 78.6361 50.8111 78.694 50.6952C78.752 50.5214 78.8679 50.3476 78.9837 50.1738C79.3893 49.4206 79.8528 48.7833 80.4322 48.146C80.9536 47.6245 81.533 47.161 82.1123 46.7555C82.1123 46.7555 82.1123 46.7555 82.0544 46.7555C82.0544 46.7555 82.0544 46.7555 82.1123 46.7555C82.1123 46.7555 82.1123 46.7555 82.1703 46.7555C82.6338 46.4658 83.0393 46.292 83.5608 46.1182C83.5608 46.1182 83.5608 46.1182 83.6187 46.1182C83.6187 46.1182 83.6187 46.1182 83.5608 46.1182C83.7925 46.0602 83.9663 46.0023 84.1981 46.0023C84.314 46.0023 84.4298 45.8285 84.4298 45.7126C84.3719 45.4809 84.256 45.365 84.0822 45.365Z" fill="#CA8664"/>
<path d="M48.3927 68.0764C48.3927 68.0764 48.3347 68.0764 48.2768 68.0764C48.1609 68.0764 48.045 68.1344 47.9871 68.1923C47.9291 68.2502 47.8712 68.3661 47.8712 68.482C47.8133 69.2931 47.7553 70.1042 47.7553 70.9154C47.6974 72.132 47.6395 73.4067 47.4656 74.6813V74.6233C47.2918 75.898 47.0021 76.9988 46.5966 77.9258C46.3069 78.621 45.9593 79.2004 45.5537 79.7218C45.264 80.1274 44.9164 80.475 44.5108 80.7647C44.0473 81.1123 43.5259 81.402 42.9465 81.6917C41.9616 82.0973 40.9187 82.387 39.5282 82.5608C39.5282 82.5608 39.5282 82.5608 39.4703 82.5608C38.775 82.6766 38.0219 82.7346 37.3266 82.7925C36.8052 82.8505 36.2837 82.9084 35.7623 82.9663C34.8932 83.0822 34.14 83.1981 33.4448 83.314C32.6916 83.4878 31.9384 83.7195 31.2432 84.0671C31.1852 84.1251 31.1273 84.183 31.0694 84.2989C30.8955 84.4148 30.8955 84.6465 31.0114 84.8783C32.286 86.6164 33.9662 88.0648 36.052 89.2815C37.906 90.3823 40.0497 91.3093 42.483 91.9466C44.6267 92.526 46.9442 92.9895 49.5514 93.2213C51.2316 93.3951 52.9697 93.453 54.7658 93.453C55.2872 93.453 55.8666 93.453 56.388 93.453C57.7206 93.3951 58.8793 93.3371 59.9801 93.2213C61.3706 93.1054 62.7611 92.8736 64.1516 92.526C66.9906 91.8887 69.6557 90.9038 72.0311 89.5712C73.1899 88.9339 74.2907 88.1807 75.3336 87.3696C75.855 86.964 76.3764 86.5005 76.8979 86.037C77.4772 85.5156 77.9987 84.9941 78.5201 84.4727C78.578 84.4148 78.636 84.3568 78.636 84.241H78.6939C78.7519 84.241 78.7519 84.241 78.7519 84.241C78.8677 84.241 78.9257 84.1251 78.9836 84.0671C79.0415 83.9513 79.0415 83.8933 79.0415 83.7775C79.0415 83.7195 78.9257 83.6036 78.8677 83.5457C78.4042 83.314 77.9407 83.1401 77.4193 83.0243C77.0137 82.9084 76.5502 82.7346 75.9709 82.6187C75.6232 82.5608 75.1597 82.4449 74.7542 82.387C74.4645 82.329 74.1169 82.2711 73.6534 82.2711C73.0161 82.2131 72.3208 82.1552 71.6835 82.0973C70.8724 82.0393 70.0033 81.9814 69.1342 81.8655C68.1493 81.6917 67.3382 81.5179 66.6429 81.2282C66.1794 81.0544 65.7739 80.7647 65.4263 80.533C65.1366 80.3012 64.8469 80.0115 64.6151 79.6639C64.3834 79.3163 64.1516 78.9687 63.9778 78.5631C63.7461 78.0417 63.6302 77.5202 63.5143 76.9408C63.3984 75.9559 63.3984 74.913 63.5723 73.5805C63.6881 72.9432 63.804 72.3058 63.8619 71.6685C63.9199 71.3788 63.9778 71.0312 64.0358 70.7415C64.1516 70.6836 64.2096 70.5677 64.2096 70.4518C64.2096 70.336 64.2096 70.2201 64.0937 70.1622C64.0358 70.1042 63.9199 70.0463 63.804 70.0463C61.0809 69.8725 58.3579 69.5249 55.7507 69.1193C53.3753 68.5979 50.884 68.3082 48.3927 68.0764Z" fill="#FEBE9C"/>
<path d="M48.2773 68.0764C48.1614 68.0764 48.0455 68.1344 47.9876 68.1923C47.9297 68.2502 47.8717 68.3661 47.8717 68.482C47.8138 69.1193 47.8138 69.8145 47.7559 70.4518C48.1614 70.9153 48.6249 71.4368 49.0884 71.8423C49.7257 72.4217 50.363 73.0011 51.0583 73.5225C51.7535 74.044 52.4488 74.5075 53.202 74.913C53.8972 75.2607 54.5925 75.6083 55.2877 75.84C55.983 76.0718 56.6782 76.3035 57.4314 76.4773C58.1267 76.6512 58.764 76.767 59.4592 76.825C60.1545 76.8829 60.8497 76.9408 61.6029 76.8829H61.545C62.1823 76.8829 62.8196 76.825 63.4569 76.7091C63.341 75.7821 63.399 74.7392 63.5728 73.4067C63.6887 72.7693 63.7466 72.132 63.8625 71.5527C63.9204 71.205 63.9783 70.9154 64.0363 70.6257C64.1522 70.5677 64.2101 70.4519 64.2101 70.336C64.2101 70.2201 64.1522 70.1042 64.0942 70.0463C64.0363 69.9884 63.9204 69.9304 63.8045 69.9304C61.0815 69.7566 58.3584 69.409 55.7512 69.0034C53.3179 68.6558 50.8265 68.3082 48.3352 68.1344C48.3352 68.0764 48.3352 68.0764 48.2773 68.0764Z" fill="#FF9B68"/>
<path d="M78.0564 82.5029C77.9985 82.5029 77.9405 82.5608 77.8826 82.6188C77.3612 83.2561 76.7239 83.8355 76.0286 84.4148C74.0587 85.9212 71.7992 87.022 69.8872 87.8331C69.0182 88.1808 68.265 88.5284 67.5698 88.7601C66.7586 89.0498 65.9475 89.3395 65.1364 89.5713C63.5141 90.0348 61.8339 90.4403 60.0958 90.6721C58.1839 90.9618 56.2719 91.0776 54.36 91.0776C52.9116 91.0776 51.4052 91.0197 49.9568 90.8459C46.8282 90.4983 43.8154 89.6871 41.0344 88.5863L41.0923 88.6443H41.1503C38.659 87.6014 36.3415 86.3268 34.3137 84.7625C33.7343 84.299 33.1549 83.8355 32.5755 83.314C32.5755 83.314 32.5176 83.2561 32.4597 83.2561C32.4017 83.1981 32.2859 83.1402 32.17 83.1402H32.112C29.6207 83.5458 27.1294 84.5886 24.4643 86.3268C23.3056 87.08 22.1468 88.007 21.046 88.9919C20.119 89.803 19.3079 90.73 18.5547 91.657C18.6126 91.715 18.6126 91.7149 18.6706 91.7729C18.8444 91.8888 19.0182 92.0626 19.192 92.1785C20.7563 93.3951 22.5524 94.3221 24.3484 95.0753C25.5651 95.5968 26.8397 96.0603 28.1723 96.4658C29.5049 96.8714 30.8374 97.219 32.17 97.5666C34.8351 98.2039 37.5582 98.6674 40.2812 99.073C40.3392 99.073 40.3392 99.073 40.3971 99.073C45.148 99.7103 49.9568 100 54.7076 100C59.5164 100 64.3253 99.7103 69.0761 99.073C69.0761 99.073 69.0761 99.073 69.0182 99.073C71.7412 98.7254 74.5222 98.2039 77.1874 97.5666C79.8525 96.9293 82.4597 96.1182 84.951 95.0753C84.951 95.0753 84.951 95.0753 84.893 95.0753C86.747 94.3221 88.4852 93.3951 90.1074 92.1785C90.455 91.8888 90.8027 91.657 91.0923 91.3673C91.2662 91.1935 91.44 91.0197 91.6138 90.8459C91.6717 90.788 91.7297 90.73 91.7876 90.6721C91.0344 89.803 90.1653 88.9919 89.1225 88.1808C88.1375 87.3696 87.0367 86.6165 85.82 85.8633C84.6613 85.168 83.4446 84.5307 82.2279 83.9513C81.0112 83.372 79.7945 82.9085 78.5779 82.5608C78.5199 82.5608 78.5199 82.5608 78.462 82.5608C78.2302 82.445 78.1144 82.445 78.0564 82.5029Z" fill="#EF306C"/>
<path d="M78.0574 82.5028C77.9995 82.5028 77.9415 82.5608 77.8836 82.6187C77.3622 83.256 76.7248 83.8354 76.0296 84.4148C74.0597 85.9211 71.8002 87.022 69.8882 87.8331C69.0192 88.1807 68.3239 88.4704 67.5707 88.7601C66.8175 89.0498 66.0064 89.2815 65.1374 89.5712C63.5151 90.0347 61.8349 90.4403 60.0968 90.672C58.1849 90.9617 56.2729 91.0776 54.361 91.0776C52.9126 91.0776 51.4062 91.0196 49.9578 90.8458C46.8291 90.4982 43.8164 89.6871 41.0354 88.5863L41.0933 88.6442C38.602 87.6013 36.2845 86.2688 34.3146 84.7624C33.6773 84.2989 33.098 83.8354 32.5765 83.314C32.5186 83.314 32.5186 83.256 32.4607 83.256C32.4027 83.1981 32.2868 83.1401 32.171 83.1401H32.113C31.186 83.256 30.259 83.4878 29.332 83.8354C29.6797 84.3568 30.0852 84.8203 30.5487 85.2838C31.0122 85.7473 31.4757 86.2108 31.9972 86.6164C33.6194 87.949 35.4734 89.0498 37.3853 89.9768C40.6298 91.4831 44.164 92.526 47.6982 93.1054C49.4943 93.3951 51.3483 93.6268 53.2022 93.6848C54.1292 93.7427 55.0562 93.7427 55.9832 93.6848C56.9102 93.6848 57.7793 93.6268 58.7063 93.5109C58.7063 93.5109 58.7063 93.5109 58.6484 93.5109C60.6762 93.3371 62.704 92.9316 64.7318 92.4681C66.2961 92.0625 67.8604 91.599 69.3668 91.0196C72.2057 89.9188 74.9867 88.5283 77.478 86.7902C78.2892 86.2108 79.1003 85.5735 79.8535 84.8783C80.3749 84.4148 80.8384 83.9513 81.3019 83.4298C80.3749 83.0243 79.39 82.6766 78.463 82.4449C78.405 82.4449 78.3471 82.4449 78.3471 82.4449C78.2312 82.387 78.1153 82.4449 78.0574 82.5028Z" fill="#F55E84"/>
<path d="M48.9724 14.774C47.8137 14.8899 46.7129 15.0637 45.612 15.2954C44.6271 15.5272 43.6422 15.7589 42.5414 16.1066H42.4834C42.1358 16.2804 41.8461 16.5121 41.4985 16.7439C40.3397 17.4971 39.2389 18.3661 38.1381 19.2931C37.0952 20.2201 36.1103 21.1471 35.2412 22.19C34.2563 23.2908 33.3873 24.3916 32.5761 25.6083C31.765 26.7671 31.0698 28.0417 30.4324 29.3163C29.8531 30.533 29.2737 31.8076 28.8681 33.0822C28.7523 33.4299 28.6364 33.7196 28.5205 34.0672C28.6364 34.8783 28.8681 35.8053 29.1578 36.7323C29.7951 38.9339 30.7221 41.0776 31.6491 43.1054C31.8229 43.511 31.9968 43.9165 32.1706 44.2642C32.9238 45.9443 33.619 47.7983 34.1984 49.6523C34.4881 50.7532 34.7777 51.9119 34.9516 53.2445C35.0095 53.5342 35.0674 53.8818 35.0674 54.1715C35.1833 54.9246 35.2992 55.7358 35.473 56.489C35.7047 57.6477 36.0524 58.5747 36.5738 59.4438C36.8635 59.9073 37.2111 60.3708 37.6167 60.8343C37.8484 61.066 38.0802 61.2978 38.3119 61.5295C38.4278 61.6454 38.6016 61.7613 38.7175 61.9351C38.8334 62.051 38.9492 62.1089 39.0651 62.2248C39.2389 62.3986 39.3548 62.5724 39.4707 62.7462C39.4707 62.8621 39.5286 62.92 39.5286 62.978C40.6874 65.0058 42.3096 66.8598 44.3954 68.482C46.3652 69.9884 48.5669 71.263 51.0582 72.2479C53.4336 73.1749 55.867 73.6964 58.2424 73.8702C58.7059 73.8702 59.2273 73.9281 59.6908 73.9281C60.3282 73.9281 60.9655 73.9281 61.6607 73.8702C62.7615 73.8122 63.9203 73.6964 65.079 73.4646C69.714 72.7114 73.8276 70.8574 76.8403 68.1923C78.4046 66.8018 79.7372 65.0637 80.7221 63.2676C81.1856 62.3406 81.6491 61.2978 81.9388 60.197C82.2285 59.0961 82.4603 57.9953 82.5761 56.7207C82.692 55.7358 82.692 54.7508 82.6341 53.708C82.5761 52.723 82.4603 51.6222 82.2285 50.2897C82.0547 49.3047 81.8809 48.3198 81.7071 47.3928C81.4753 46.1761 81.2436 44.8435 81.0118 43.5689V43.511C80.8959 42.6999 80.838 41.9467 80.838 41.2514C80.7801 40.4982 80.7801 39.803 80.7801 39.0498V38.2387C80.7221 37.0799 80.7221 35.9212 80.6642 34.7624C80.5483 33.1981 80.3745 31.8076 80.1428 30.5909C79.8531 29.2004 79.4475 27.8099 78.8681 26.5353C78.5205 25.7821 78.1149 24.971 77.5935 24.2178C77.5935 24.1599 77.5935 24.044 77.5356 23.9861C75.7975 22.19 73.7696 20.6257 71.5101 19.2931C69.3664 18.0185 66.933 17.0336 64.3838 16.2804C60.8496 15.2375 57.1995 14.7161 53.4336 14.7161C51.8693 14.5423 50.4209 14.6581 48.9724 14.774Z" fill="#FEBE9C"/>
<path d="M54.9976 13.9051C52.7959 13.9051 50.5943 14.0789 48.4506 14.3686C45.9593 14.7162 43.526 15.3535 41.3243 16.1646C38.9489 17.0337 36.8052 18.1924 34.9512 19.525C32.9813 20.9734 31.3012 22.7115 30.0845 24.7394C29.3892 25.7822 28.8678 26.9989 28.4043 28.2156C27.9408 29.5482 27.5932 30.9966 27.3035 32.6188C27.0717 34.1252 26.9559 35.6316 27.0138 37.08C27.0138 37.6594 27.0717 38.2388 27.1297 38.7602C27.1876 39.1078 27.2455 39.5134 27.3614 39.9769C27.5932 40.9039 27.8249 41.8888 28.2305 42.9317C28.636 44.0325 29.0416 45.0175 29.563 45.9445C30.1424 46.9873 30.7218 47.8564 31.3591 48.5516C32.0543 49.3048 32.8655 49.8842 33.6766 50.1739C34.0822 50.3477 34.5457 50.4056 35.0092 50.4636C35.5306 50.4636 36.052 50.3477 36.5735 50.116C37.037 49.9421 37.5005 49.6525 38.0798 49.189C38.5433 48.8413 38.9489 48.4358 39.4124 47.9143C40.1656 47.1032 40.8608 46.2341 41.672 45.0175C42.4831 43.8587 43.1783 42.7 43.7577 41.5412C45.7855 37.6594 47.2339 33.1403 48.2768 27.3465C50.1308 28.4474 52.2166 29.3744 54.4182 30.1855C56.9095 31.0545 59.5167 31.7498 62.1239 32.1553C64.1517 32.503 66.1795 32.6188 68.1494 32.6188C68.7867 32.6188 69.424 32.6188 70.0613 32.5609C72.7264 32.445 75.3336 31.9236 77.6511 31.1704C78.9257 30.7649 80.2003 30.1855 81.417 29.5482C81.475 29.4902 81.5329 29.4902 81.5329 29.3744C81.5908 29.3744 81.6488 29.4323 81.7067 29.4323H81.7646C81.9964 29.3744 82.1123 29.2005 82.0543 28.9688C81.8805 27.81 81.417 26.5934 80.6059 25.2608C79.9107 24.16 79.0416 23.0592 77.9408 21.8425C77.0717 20.9155 76.0868 20.0464 74.986 19.1194C74.4645 18.7139 73.9431 18.3083 73.4796 17.9607C72.9582 17.6131 72.3788 17.3234 71.7415 16.9757C69.5399 15.8749 66.9327 15.0638 63.7461 14.4844C61.2548 14.0209 58.5897 13.7892 55.5769 13.7892C55.4611 13.9051 55.2293 13.9051 54.9976 13.9051Z" fill="#192E35"/>
<path d="M22.0886 45.6546C21.6251 47.1031 20.9878 48.4936 20.2346 49.8261C20.2346 49.8261 20.2346 49.8261 20.2346 49.7682C18.9021 52.1436 17.2798 54.2873 15.7155 56.431C15.3099 56.9524 14.9623 57.5318 14.5568 58.1112C14.1512 58.6906 13.8036 59.212 13.4559 59.7914C12.7607 60.9501 12.0655 62.1089 11.4861 63.3835C10.5011 65.6431 9.86383 68.0185 9.63208 70.4519C9.40033 72.9432 9.45827 75.4345 10.1535 77.8679C10.4432 78.9687 10.8488 80.0115 11.4281 81.0544C11.7178 81.5758 12.0075 82.0393 12.3551 82.5028C12.7028 82.9663 13.1083 83.4299 13.5718 83.7775L13.6298 83.8354C13.7456 83.8933 13.8615 83.9513 13.9774 84.0092C14.1512 84.0092 14.3829 83.9513 14.5568 83.8354C14.7306 83.7195 14.7885 83.5457 14.8464 83.314C14.8464 83.1402 14.8464 82.9084 14.6726 82.7346C14.4988 82.5608 14.3829 82.387 14.2671 82.2711C14.1512 82.0973 13.9774 81.9235 13.8615 81.7497C13.6298 81.46 13.398 81.1124 13.2242 80.8227C12.5869 79.7798 12.1234 78.679 11.7758 77.5782C11.3123 75.898 11.0805 74.1019 11.0226 72.3638C10.9646 70.336 11.1964 68.3082 11.7178 66.2804V66.3383C11.7178 66.2804 11.7178 66.2804 11.7178 66.2224V66.1645C11.7178 66.1645 11.7178 66.1645 11.7178 66.2224C11.9496 65.2375 12.2972 64.2526 12.7028 63.3256C13.1083 62.2827 13.6298 61.2978 14.2091 60.2549C14.4988 59.6755 14.8464 59.1541 15.1941 58.5747C15.5417 57.9953 15.9473 57.4159 16.2949 56.8366C17.0481 55.6778 17.8013 54.577 18.4965 53.4183C19.9449 51.1587 21.2775 48.8412 22.1466 46.3499C22.2045 46.1181 22.3204 45.8864 22.3783 45.6546C22.3783 45.5967 22.3783 45.4808 22.3204 45.4808H22.2624C22.1466 45.5388 22.0886 45.5967 22.0886 45.6546ZM11.8337 77.4044C11.8337 77.4623 11.8337 77.4623 11.8916 77.5202C11.8337 77.5202 11.8337 77.4623 11.8337 77.4044Z" fill="#0F1D21"/>
<path d="M45.322 28.0996C45.2061 28.621 45.0902 29.0845 44.9743 29.606C44.8005 30.3012 44.6267 30.9965 44.395 31.6338C44.1632 32.329 43.8735 33.0243 43.5838 33.7195C43.468 34.0671 43.2941 34.4148 43.1203 34.7045C42.9465 35.0521 42.7727 35.3997 42.5989 35.8053C42.2513 36.5005 41.9036 37.1378 41.556 37.8331C40.3393 39.9188 38.9488 41.9466 37.2687 43.6848C36.3417 44.6118 35.3567 45.5388 34.2559 46.2919C33.9083 46.5237 33.9083 47.0451 34.14 47.3348C34.2559 47.5086 34.4297 47.5666 34.6615 47.6245C34.8932 47.6245 35.067 47.5666 35.1829 47.4507C35.7043 47.1031 36.1678 46.6975 36.6313 46.3499C37.1528 45.8864 37.6163 45.4229 38.0798 44.9594C38.9488 44.0324 39.76 42.9895 40.5131 41.9466C41.2663 40.8458 41.9036 39.6291 42.541 38.4704C42.8306 37.891 43.1203 37.2537 43.3521 36.6743C43.468 36.3846 43.5838 36.095 43.6997 35.8053C43.8156 35.4576 43.9315 35.168 44.0473 34.8203C44.395 33.7195 44.7426 32.5608 45.0323 31.46C45.1481 30.9385 45.264 30.3592 45.3799 29.8377C45.4958 29.2583 45.6116 28.7369 45.6696 28.1575C45.6696 28.0417 45.6116 27.9837 45.4958 27.9258C45.4378 27.9258 45.322 28.0417 45.322 28.0996Z" fill="#0F1D21"/>
<path d="M42.1353 31.518C41.9615 32.1553 41.7298 32.7346 41.4401 33.314C41.1504 33.8934 40.8607 34.4728 40.571 35.0521C40.571 35.0521 40.571 35.0521 40.571 35.1101C39.9337 36.2109 39.1805 37.3117 38.3115 38.2387C38.1376 38.4125 37.9638 38.5863 37.79 38.7601C37.7321 38.8181 37.6741 38.9339 37.6162 39.0498C37.6162 39.1657 37.6162 39.2816 37.6741 39.3395C37.7321 39.3974 37.848 39.4554 37.9638 39.5133C38.0797 39.5133 38.1956 39.5133 38.2535 39.4554C39.2964 38.4125 40.1075 37.1958 40.8028 35.8633C41.1504 35.2259 41.4401 34.5307 41.7298 33.8354C42.0195 33.1402 42.1933 32.4449 42.425 31.7497C42.425 31.6338 42.425 31.5759 42.3091 31.518H42.2512C42.1933 31.4021 42.1353 31.46 42.1353 31.518ZM40.5131 35.0521C40.571 35.0521 40.571 35.0521 40.5131 35.0521V35.0521Z" fill="#0F1D21"/>
<path d="M48.1035 22.9432C48.0455 23.0011 48.0455 23.1749 48.1614 23.2329C48.6829 23.6384 49.2622 23.9861 49.7837 24.3916C50.363 24.7393 50.8845 25.0869 51.4639 25.4345C52.6226 26.1298 53.8393 26.7091 55.1139 27.2306C57.6052 28.2734 60.2703 29.0266 62.9355 29.4901C65.5427 29.9536 68.2657 30.0116 70.8729 29.7798C72.1475 29.6639 73.4221 29.4901 74.6968 29.1425C75.392 28.9687 76.0293 28.7949 76.6666 28.6211C77.3039 28.3893 77.9413 28.2155 78.5786 27.9258C78.7524 27.8679 78.9262 27.6941 78.9841 27.5202C79.0421 27.3464 79.0421 27.1726 78.9841 26.9988C78.9262 26.825 78.7524 26.6512 78.5786 26.5933C78.4048 26.5353 78.2309 26.5353 78.0571 26.5933C77.4778 26.7671 76.8984 26.9988 76.2611 27.1726C75.6817 27.3464 75.1023 27.5202 74.523 27.6941C71.9158 28.3314 69.2506 28.679 66.5855 28.6211C65.195 28.6211 63.7466 28.5052 62.3561 28.3314C60.9077 28.1576 59.5172 27.8679 58.1267 27.4623C55.4615 26.7091 52.9123 25.6663 50.4789 24.2758C50.4789 24.2758 50.5369 24.2758 50.5369 24.3337C49.7837 23.8702 49.0884 23.4646 48.3932 22.9432C48.3352 22.9432 48.3352 22.8853 48.2773 22.8853C48.1614 22.8853 48.1035 22.8853 48.1035 22.9432ZM66.5855 28.6211H66.6435C66.6435 28.6211 66.6435 28.6211 66.5855 28.6211Z" fill="#0F1D21"/>
<path d="M54.3023 23.3487C54.2444 23.4066 54.3023 23.4646 54.3603 23.5225C54.9396 23.8122 55.519 24.1019 56.1563 24.3916C56.7357 24.6233 57.373 24.8551 58.0103 25.0868C58.6476 25.3186 59.2849 25.4924 59.8643 25.6083C60.5016 25.7821 61.1389 25.898 61.8342 26.0718C63.1667 26.3035 64.4414 26.4773 65.7739 26.5353C66.4692 26.5932 67.1065 26.5932 67.8017 26.5932C68.497 26.5932 69.1922 26.5932 69.8875 26.5353C70.1772 26.5353 70.4089 26.1876 70.4089 25.898C70.351 25.5503 70.0613 25.3765 69.7716 25.3765C69.0764 25.4345 68.3232 25.4924 67.6279 25.5503C66.8747 25.6083 66.1216 25.6083 65.3684 25.6083C64.2096 25.6083 62.9929 25.4924 61.8342 25.3765C61.2548 25.3186 60.6175 25.2027 60.0381 25.0868C59.4008 24.971 58.8214 24.8551 58.2421 24.6813C58.2421 24.6813 58.2421 24.6813 58.3 24.6813C57.6627 24.5075 57.0254 24.2757 56.3881 24.1019C55.7508 23.8701 55.1134 23.5805 54.4761 23.2908H54.4182C54.4182 23.2908 54.3603 23.2908 54.3023 23.3487Z" fill="#0F1D21"/>
<path d="M61.3128 57.1842C61.2548 57.1842 61.2549 57.1842 61.1969 57.1842C61.081 57.2421 61.0231 57.3001 60.9652 57.358C60.9072 57.4739 60.9072 57.5898 60.9072 57.7056C61.0231 58.343 61.3128 58.9803 61.8342 59.5596C62.066 59.8493 62.3557 60.0811 62.5874 60.2549C62.8192 60.4287 63.1668 60.6025 63.5144 60.7763C63.8041 60.8922 64.0938 61.0081 64.4414 61.0081C64.5573 61.0081 64.6732 61.0081 64.789 61.0081C64.9628 61.0081 65.1946 61.0081 65.3684 60.9501C66.0057 60.8343 66.5851 60.4866 67.0486 59.9652C67.1645 59.8493 67.1645 59.7335 67.0486 59.6176C66.9907 59.5596 66.9327 59.5596 66.8748 59.5596C66.8168 59.5596 66.7589 59.5596 66.701 59.6176C66.5851 59.7914 66.4113 59.9073 66.2954 60.0231C66.1795 60.139 66.0057 60.197 65.8319 60.3128C65.6581 60.3708 65.4843 60.4287 65.3105 60.4866C65.1946 60.4866 65.0787 60.4866 65.0208 60.4866C64.9049 60.4866 64.847 60.4866 64.7311 60.4866C64.4993 60.4287 64.2676 60.3708 64.0358 60.3128C63.8041 60.197 63.5144 60.0811 63.2827 59.8493C62.993 59.6176 62.7612 59.3858 62.5295 59.0961C62.3557 58.8065 62.1818 58.5747 62.066 58.285C62.008 58.0533 61.8922 57.8215 61.8342 57.5898C61.7183 57.358 61.5445 57.1842 61.3128 57.1842Z" fill="#192E35"/>
<path d="M55.1713 40.3244C54.8816 39.6292 53.0276 39.745 50.9998 40.6141C48.972 41.4832 47.5815 42.6999 47.8712 43.3951C48.1609 44.0904 50.0148 43.9745 52.0427 43.1054C54.0705 42.2943 55.461 41.0197 55.1713 40.3244Z" fill="#0F1D21"/>
<path d="M78.3467 40.3245C78.4626 39.6293 76.9562 38.7023 74.9284 38.2967C72.9006 37.8912 71.1625 38.1229 70.9887 38.8182C70.8728 39.5134 72.3792 40.4404 74.407 40.846C76.4348 41.2515 78.1729 41.0198 78.3467 40.3245Z" fill="#0F1D21"/>
<path d="M53.8968 48.6095H53.8388C53.4912 48.6674 53.2015 49.0151 53.0277 49.5365C52.8539 50.1159 52.796 50.8111 52.9118 51.5643C53.0857 53.0707 53.7809 54.2294 54.4762 54.2294H54.5341C54.8817 54.1715 55.1714 53.8239 55.3452 53.3024C55.519 52.7231 55.577 52.0278 55.4611 51.2746C55.2873 49.7682 54.592 48.6095 53.8968 48.6095Z" fill="#192E35"/>
<path d="M73.7698 45.2491H73.7119C73.3643 45.3071 73.0746 45.6547 72.9008 46.1761C72.727 46.7555 72.669 47.4508 72.7849 48.204C72.9587 49.7103 73.654 50.8691 74.3492 50.8691H74.4071C74.7548 50.8111 75.0445 50.4635 75.2183 49.9421C75.3921 49.3627 75.45 48.6675 75.3341 47.9143C75.1603 46.4079 74.523 45.2491 73.7698 45.2491Z" fill="#192E35"/>
<path d="M65.5418 43.3951C65.4259 43.3951 65.3101 43.511 65.3101 43.6269C65.2521 44.7277 65.2521 45.7706 65.3101 46.8135C65.368 47.7984 65.4839 48.8992 65.5997 50.0579C65.5997 50.1738 65.7156 50.2318 65.8315 50.2318H65.8894C66.4109 50 66.8744 49.8841 67.3379 49.8262C67.5117 49.8262 67.6276 49.8262 67.8014 49.8262C67.9172 49.8262 68.0331 49.8262 68.149 49.8262C68.3228 49.8841 68.4966 49.8841 68.6704 49.9421C68.7863 50 68.9022 50.0579 69.0181 50.1738C69.1339 50.2318 69.1919 50.3476 69.3077 50.4635C69.4236 50.5794 69.4816 50.6953 69.5395 50.8691C69.5974 51.0429 69.6554 51.2167 69.6554 51.3905C69.6554 51.6802 69.6554 51.9119 69.6554 52.1437C69.5974 52.3754 69.5395 52.6651 69.4236 52.8969C69.3077 53.1286 69.1919 53.4183 69.0181 53.6501C68.8442 53.8818 68.6125 54.1136 68.3807 54.2874C68.149 54.4612 67.9172 54.5771 67.6855 54.6929H67.6276C67.3958 54.8088 67.1061 54.8668 66.8164 54.9247C66.7006 54.9247 66.5847 55.0406 66.5847 55.0985C66.5267 55.2144 66.5267 55.3302 66.5267 55.4461C66.5267 55.562 66.6426 55.6199 66.7006 55.6779C66.7585 55.7358 66.8164 55.7358 66.8744 55.7358C66.9323 55.7358 66.9323 55.7358 66.9902 55.7358C67.3958 55.6199 67.8014 55.5041 68.149 55.3303C68.4387 55.1564 68.7863 54.9247 69.076 54.635C69.5395 54.1715 69.9451 53.5342 70.1189 52.8389C70.2927 52.2016 70.2927 51.5643 70.1189 50.9849C69.9451 50.4056 69.5974 49.9421 69.076 49.6524C68.7284 49.4206 68.2649 49.3048 67.7434 49.3048H67.6276C67.1061 49.3048 66.5267 49.4786 65.8894 49.7103V49.5365L65.8315 49.3048C65.5997 47.5087 65.5418 45.5968 65.5997 43.6269C65.5997 43.569 65.5997 43.511 65.5418 43.511C65.6577 43.4531 65.5997 43.3951 65.5418 43.3951Z" fill="#CA8664"/>
</svg>
