<svg width="100" height="100" viewBox="0 0 100 100" fill="none" xmlns="http://www.w3.org/2000/svg">
<path d="M50.1842 0H50.012C37.4412 0.0574011 25.6166 4.9365 16.7194 13.8337C7.8222 22.7309 2.9431 34.4981 3.0005 47.0115C3.0579 72.7847 24.1815 93.7361 50.1268 93.7361H50.299C62.8699 93.6787 74.6945 88.7996 83.5917 79.9024C92.4889 71.0052 97.368 59.238 97.3106 46.7245C97.1958 20.9514 76.0722 0 50.1842 0Z" fill="#E7EEEF"/>
<path d="M77.9661 24.4529C77.8513 24.4529 77.7365 24.5103 77.6791 24.6251C77.6217 24.6825 77.6217 24.7973 77.6217 24.9121C77.6217 25.0269 77.6791 25.0843 77.7939 25.1417C78.0809 25.3139 78.3679 25.4861 78.6549 25.7157C79.1141 26.0601 79.5159 26.4619 79.8603 26.9785C80.0325 27.2081 80.2048 27.4951 80.377 27.7247C77.9087 29.7338 76.0145 31.7428 74.5794 33.8667C74.522 33.9241 74.522 34.0389 74.522 34.0963C74.522 34.2111 74.6368 34.2685 74.6942 34.3259C74.7516 34.3833 74.809 34.3833 74.8664 34.3833C72.9722 36.1627 71.4798 37.8273 70.2743 39.5494C68.7819 41.6732 67.8635 43.7397 67.4617 45.7487C67.2321 46.8967 67.2321 47.9874 67.3469 49.078C67.4043 49.7094 67.5765 50.226 67.7487 50.7426C67.9209 51.2592 68.1505 51.7184 68.4375 52.1776C68.8393 52.7516 69.5281 53.6127 70.504 54.0719C70.9058 54.2441 71.365 54.3589 71.7668 54.4163C71.8242 54.4163 71.8816 54.4163 71.939 54.4163C72.2834 54.4163 72.6852 54.3589 73.0296 54.1867C74.1776 53.7849 74.9238 52.809 75.3831 52.0628C75.7275 51.4888 75.9571 50.8 76.1293 50.2834C76.2441 49.939 76.3589 49.5946 76.4737 49.1928C76.5311 48.9632 76.6459 48.6762 76.7033 48.4466C76.8181 48.1022 76.9329 47.7577 77.0477 47.4133C77.2199 47.0689 77.3921 46.7245 77.5643 46.4949C77.7939 46.1505 78.0235 45.8635 78.2531 45.5765C78.5401 45.2321 78.8271 44.8877 79.0567 44.5433C79.5733 43.9119 80.0899 43.2805 80.5492 42.5916C80.8936 42.075 81.238 41.501 81.525 40.8696C81.6972 40.4678 81.8694 40.0086 81.9842 39.5494C82.2138 38.8032 82.386 37.9422 82.5582 36.9089C82.673 35.9905 82.7304 35.0147 82.673 34.0389C82.6156 31.9724 82.2138 30.0782 81.525 28.471C81.1806 27.6099 80.664 26.8637 80.1473 26.1749C79.5733 25.4861 78.8845 24.9121 78.0809 24.5103C78.0809 24.4529 78.0235 24.4529 77.9661 24.4529Z" fill="#192E35"/>
<path d="M31.2417 17.45C30.1511 17.5648 29.1179 17.7944 28.1421 18.1962C27.2237 18.598 26.3052 19.1146 25.5016 19.746C23.8944 20.9514 22.5742 22.5587 21.4835 24.5103C20.4503 26.3471 19.7615 28.3562 19.4171 30.4226C19.2449 31.2836 19.1875 32.202 19.1875 33.2353C19.1875 34.1537 19.1875 35.0721 19.2449 35.9905C19.3023 37.0811 19.4745 38.1144 19.6467 39.0902C19.8763 40.1808 20.1059 41.1566 20.5077 42.0176C20.9095 42.9935 21.3687 43.7971 21.9428 44.4285C22.2298 44.7155 22.5168 45.0025 22.8612 45.2321C23.0334 45.3469 23.263 45.4617 23.4926 45.5191C23.6648 45.5765 23.8944 45.6339 24.0666 45.6339C24.2962 45.6339 24.4684 45.5765 24.698 45.5191C25.0998 45.4043 25.4442 45.1747 25.7886 44.7729C26.133 44.4859 26.42 44.0841 26.7645 43.5101C27.0515 43.0509 27.3385 42.5343 27.6255 41.8454C28.1421 40.64 28.6013 39.3198 29.1179 37.5978C29.5197 36.2201 29.9215 34.7277 30.2659 32.9483C30.7251 30.8818 31.1269 28.6432 31.5287 26.1175C31.7009 24.9121 31.9306 23.5919 31.988 22.2716C32.1028 20.607 32.0454 19.0572 31.7583 17.6796C31.7583 17.5648 31.6435 17.45 31.5287 17.45C31.4713 17.5074 31.3565 17.45 31.2417 17.45Z" fill="#192E35"/>
<path d="M31.2416 17.45C30.151 17.5648 29.1178 17.8518 28.1419 18.1962C27.7401 18.3684 27.2809 18.598 26.8791 18.8276C26.3625 19.2294 25.8459 19.6886 25.3293 20.1478C24.8701 20.607 24.4683 21.0662 24.0665 21.5828C23.6647 22.0994 23.3202 22.6161 22.9758 23.1901C22.6888 23.7067 22.4018 24.2807 22.1148 24.8547C21.8278 25.5435 21.5982 26.2897 21.3686 27.0359C21.1964 27.7822 21.0242 28.5284 20.9094 29.2746C20.6224 31.3984 20.6798 33.4649 20.9668 35.5887C21.426 38.8606 22.4018 42.075 23.6646 45.1173C23.7221 45.2895 23.8369 45.5191 23.8943 45.6913C23.8943 45.6913 23.8943 45.6913 23.9517 45.6913C24.1813 45.6913 24.3535 45.6339 24.5831 45.5765C24.9849 45.4617 25.3293 45.2321 25.6737 44.8303C26.0181 44.4859 26.3051 44.1415 26.6495 43.5675C26.9365 43.1083 27.2235 42.5917 27.5105 41.9028C28.0271 40.6974 28.4863 39.3772 29.003 37.6552C29.4048 36.2775 29.7492 34.7851 30.151 33.0057C30.6102 30.9392 31.012 28.7006 31.4138 26.1749C31.586 24.9695 31.8156 23.6493 31.873 22.329C31.9878 20.6644 31.9304 19.1146 31.6434 17.737C31.6434 17.6222 31.5286 17.5074 31.3564 17.5074C31.4712 17.5074 31.3564 17.45 31.2416 17.45Z" fill="#0F1D21"/>
<path d="M82.501 33.0057C82.4436 33.6945 82.2714 34.3259 82.0418 35.0147C81.8696 35.5888 81.5826 36.1054 81.3529 36.622C81.0659 37.1386 80.7215 37.6552 80.3771 38.1718C79.6883 39.1476 78.8847 40.1234 78.0811 41.0419C77.2775 41.9603 76.4738 42.8787 75.7276 43.8545C75.4406 44.1989 75.211 44.6007 74.924 44.9451C74.637 45.347 74.4074 45.7488 74.1204 46.0932C73.6038 46.8968 73.0872 47.7004 72.628 48.5614C71.6522 50.2835 70.7911 52.0055 70.0449 53.8423C70.2171 53.9571 70.3893 54.0719 70.6189 54.1293C71.0207 54.3015 71.4799 54.4163 71.9392 54.4737C71.9966 54.4737 72.054 54.4737 72.1114 54.4737C72.4558 54.4737 72.8576 54.4163 73.202 54.2441C74.35 53.8423 75.1536 52.8665 75.5554 52.1203C75.8998 51.5463 76.1294 50.8575 76.3016 50.3409C76.4164 50.0538 76.4738 49.7094 76.5886 49.4224V49.365V49.3076V49.2502V49.1928C76.646 48.9632 76.7035 48.791 76.7609 48.5614C76.8757 48.217 76.9905 47.8726 77.1053 47.5282C77.2775 47.1838 77.4497 46.8394 77.6219 46.6098C77.7941 46.3228 78.0237 46.0358 78.3107 45.6914C78.5977 45.347 78.8847 45.0025 79.1143 44.6581C79.5735 44.0841 80.1475 43.3953 80.6067 42.7065C80.9511 42.1899 81.2955 41.6159 81.5825 40.9845C81.7548 40.5827 81.927 40.1234 82.0418 39.6642C82.2714 38.8606 82.4436 37.9996 82.6158 37.0238C82.7306 36.1054 82.788 35.1295 82.7306 34.1537C82.7306 33.2353 82.6158 32.3743 82.4436 31.5707C82.5584 31.9725 82.5584 32.4891 82.501 33.0057Z" fill="#0F1D21"/>
<path d="M51.2168 64.2893C50.7002 64.2893 50.1262 64.3467 49.6096 64.4615C48.0598 64.7485 46.5673 65.4373 45.4767 66.528C44.9027 67.0446 44.4435 67.676 44.0991 68.4222C43.9269 68.7666 43.7547 69.1684 43.6399 69.5702C43.5825 69.7998 43.5251 69.972 43.4677 70.2016C43.4103 69.9146 43.3529 69.685 43.3529 69.398C43.2955 69.2258 43.1233 69.111 43.0085 69.111C42.951 69.111 42.9511 69.111 42.8937 69.111C42.7788 69.111 42.7214 69.2258 42.664 69.2832C42.6066 69.3406 42.6066 69.4554 42.6066 69.5702C42.7214 70.0294 42.7788 70.546 42.8362 71.0626V71.12C43.0085 72.5551 43.0085 73.7031 42.8937 74.7363C42.7788 75.3677 42.664 75.9417 42.4344 76.4583C42.2622 76.8602 42.09 77.2046 41.803 77.549C41.5734 77.836 41.3438 78.0656 41.0568 78.2952C40.7698 78.5248 40.4254 78.697 40.081 78.8692C39.5644 79.0988 39.0478 79.2136 38.4164 79.3284C38.1868 79.3858 37.9572 79.3858 37.6701 79.3858C37.4405 79.3858 37.3257 79.558 37.3257 79.7302V79.7876L37.2683 79.845C36.6369 80.706 36.0629 81.567 35.6611 82.4855C35.4315 82.9447 35.3167 83.4039 35.2019 83.8057C35.0871 84.2075 35.0297 84.6093 34.9149 85.1259C34.6853 86.7906 35.0871 88.3978 36.0055 89.6032C36.4647 90.2346 37.0961 90.7512 37.7849 91.153C38.5312 91.5549 39.3922 91.8419 40.368 91.9567C40.7698 92.0141 41.229 92.0141 41.6882 92.0141C42.3196 92.0141 42.9511 91.9567 43.6399 91.8419C44.8453 91.6697 46.1081 91.3252 47.4283 90.866C49.7818 90.0624 52.1352 88.7996 54.5461 87.135C56.6699 85.6999 58.7364 83.9779 60.688 81.9689C61.0324 81.6245 61.4342 81.2226 61.7786 80.8208C62.1804 80.419 62.5822 79.9598 62.9841 79.5006C63.0415 79.5006 63.0415 79.5006 63.0989 79.5006C63.2711 79.5006 63.3859 79.3858 63.4433 79.2136C63.4433 79.0988 63.4433 79.0414 63.3859 78.9266C63.3285 78.8692 63.2711 78.8118 63.1563 78.7544C62.7544 78.6396 62.2952 78.5248 61.8934 78.3526C61.3768 78.123 60.8602 77.836 60.401 77.4916C59.9992 77.1472 59.6548 76.8028 59.3678 76.4583C59.0234 75.9991 58.7364 75.4825 58.5068 74.9085C58.2198 74.1623 57.9902 73.3587 57.8753 72.4403C57.6457 70.833 57.7031 69.111 57.9902 66.9872C57.9902 66.8724 58.0476 66.7002 58.0476 66.5854C58.0476 66.4706 58.0476 66.4131 57.9902 66.2983C57.9328 66.2409 57.8753 66.1835 57.7605 66.1261C57.7031 66.1261 57.7031 66.1261 57.6457 66.1261C57.5883 66.1261 57.5309 66.1261 57.4735 66.1835C57.4161 66.2409 57.3013 66.2983 57.3013 66.4131C57.2439 66.7002 57.2439 66.9298 57.1865 67.2168C56.8995 66.815 56.5551 66.4131 56.1533 66.0687C55.5793 65.5521 54.8905 65.1503 54.0869 64.8059C53.3407 64.5189 52.3074 64.2893 51.2168 64.2893Z" fill="#FEBE9C"/>
<path d="M49.5518 64.4041C48.0019 64.6911 46.5095 65.4374 45.4189 66.4706C44.8449 66.9872 44.3857 67.676 44.0413 68.3648C43.8691 68.7092 43.6968 69.111 43.582 69.5128C43.5246 69.685 43.4672 69.9146 43.4098 70.1442C43.4098 69.8572 43.3524 69.5702 43.295 69.3406C43.2376 69.1684 43.0654 69.0536 42.9506 69.0536C42.9506 69.0536 42.8932 69.0536 42.8358 69.0536C42.721 69.0536 42.6636 69.1684 42.6062 69.2258C42.5488 69.2832 42.5488 69.398 42.5488 69.5128C42.6636 69.972 42.721 70.4887 42.7784 71.0053V71.0627C42.9506 72.4977 42.9506 73.6457 42.8358 74.6789C42.7784 74.966 42.7784 75.1955 42.721 75.4252C43.1802 75.4826 43.6394 75.4826 44.0987 75.4252C44.0987 75.4252 44.0987 75.4252 44.0413 75.4252C45.5911 75.3678 47.1409 75.0807 48.6333 74.6215C50.298 74.1049 51.8478 73.4161 53.2828 72.4977C54.4309 71.7515 55.5215 70.8905 56.4399 69.9146C56.7843 69.5128 57.1287 69.1684 57.4157 68.7092C57.5879 68.4222 57.7601 68.1926 57.9323 67.9056C57.9897 67.6186 57.9897 67.2742 58.0471 66.9872C58.0471 66.8724 58.1045 66.7002 58.1045 66.5854C58.1045 66.4706 58.1045 66.4132 58.0471 66.2984C57.9897 66.241 57.9323 66.1836 57.8175 66.1262C57.7601 66.1262 57.7601 66.1262 57.7027 66.1262C57.6453 66.1262 57.5879 66.1262 57.5305 66.1836C57.4731 66.241 57.3583 66.2984 57.3583 66.4132C57.3009 66.7002 57.3009 66.9298 57.2435 67.2168C56.9565 66.815 56.6121 66.4132 56.2103 66.0688C55.6363 65.5522 54.9475 65.1504 54.1439 64.8059C53.2254 64.4041 52.1922 64.2319 51.1016 64.2319C50.6998 64.2893 50.1258 64.3467 49.5518 64.4041Z" fill="#FF9B68"/>
<path d="M61.8357 78.0655C61.7783 78.0655 61.7783 78.1229 61.7783 78.1229C61.3191 78.6396 60.8024 79.1562 60.2284 79.6728L60.2858 79.6154C58.449 81.28 56.153 82.8298 53.3403 84.3223C52.6515 84.6667 51.9627 85.0111 51.2739 85.3555C50.4702 85.7573 49.8388 86.0443 49.2648 86.2739C47.5428 87.0775 46.1078 87.5367 44.7301 87.8811C43.8117 88.1107 43.0081 88.1681 42.2045 88.1681C42.1471 88.1681 42.0323 88.1681 41.9749 88.1681C41.9175 88.1681 41.9175 88.1681 41.9175 88.1681C41.4009 88.1107 40.8843 88.0533 40.3676 87.8811C39.9658 87.7663 39.6214 87.5941 39.3344 87.4219C39.1048 87.2497 38.8752 87.0775 38.6456 86.8479C38.4734 86.6183 38.3012 86.3887 38.1864 86.1591C38.0142 85.8147 37.8994 85.4703 37.7846 85.1259C37.6698 84.6093 37.6124 84.0927 37.6698 83.4612C37.7272 82.6002 37.8994 81.7392 38.129 80.8208C38.3012 80.3616 38.4734 79.845 38.6456 79.3858C38.703 79.271 38.703 79.1562 38.6456 79.0414C38.5882 78.9266 38.4734 78.8118 38.3012 78.8118C33.1351 79.2136 28.0264 80.8782 23.5491 83.6334C22.4585 84.2649 21.4253 85.0685 20.392 85.8721C19.3588 86.6757 18.383 87.5941 17.522 88.5125C16.6036 89.4884 15.7426 90.579 14.9389 91.727C14.3649 92.588 13.8483 93.449 13.5039 94.3675C14.8241 94.8841 16.1444 95.4007 17.522 95.8025C19.1292 96.3191 20.679 96.7209 22.2863 97.1227C25.4433 97.8689 28.6578 98.4429 31.9297 98.9022C32.7333 99.017 33.5369 99.1318 34.3405 99.1892C39.6214 99.7632 44.9023 100.05 50.1832 99.9928C55.5789 99.9354 61.0321 99.591 66.3704 98.9022C69.6422 98.4429 72.9141 97.8689 76.1286 97.0653C79.2282 96.3191 82.2705 95.4007 85.1405 94.1953C85.1405 94.1953 85.1405 94.1953 85.0831 94.1953C86.2312 93.7361 87.3218 93.2194 88.355 92.6454C88.4698 92.588 88.5272 92.5306 88.642 92.4732C87.3218 90.579 85.7719 88.8569 83.9925 87.3645C82.3279 85.9295 80.3762 84.6667 78.1376 83.5186C76.2434 82.5428 74.1195 81.6244 71.5939 80.7634C70.5606 80.419 69.47 80.0746 68.1498 79.6728L67.1166 79.3858L66.0834 79.0988C65.3371 78.8692 64.5909 78.6395 63.9021 78.4673C63.2707 78.2951 62.6967 78.1229 62.1227 78.0081H62.0653C62.0079 77.8933 61.8931 77.9507 61.8357 78.0655ZM35.3163 79.9024C35.2589 79.9024 35.1441 79.9598 35.0293 79.9598C35.0867 79.9598 35.1441 79.9598 35.3163 79.9024C35.2589 79.9598 35.2589 79.9598 35.3163 79.9024C35.3163 79.9598 35.2589 79.9598 35.3163 79.9024ZM87.494 91.9566C87.6662 92.1862 87.781 92.3584 87.9532 92.588C87.8384 92.4158 87.6662 92.1862 87.494 91.9566ZM31.9871 98.6151L32.3315 98.6725C32.2741 98.6725 32.1593 98.6726 32.1019 98.6151H31.9871Z" fill="#074E64"/>
<path d="M61.8362 78.0082C61.7788 78.0082 61.7788 78.0656 61.7788 78.0656C61.3196 78.5822 60.803 79.0988 60.229 79.6154L60.3438 79.558C58.4495 81.2226 56.2109 82.7725 53.3982 84.2649C52.652 84.6667 51.9058 85.0111 51.3318 85.2981C50.5282 85.6999 49.8967 85.9869 49.3227 86.2165C47.6007 87.0202 46.1657 87.4794 44.788 87.8238C43.8696 88.0534 43.066 88.1108 42.2624 88.1108H42.1476H42.0328H41.9754C41.4588 88.0534 40.9422 87.996 40.4256 87.8812C40.0237 87.7664 39.6793 87.5942 39.3923 87.422C39.1627 87.2498 38.9331 87.0776 38.7035 86.848C38.5313 86.6184 38.3591 86.3888 38.2443 86.1591C38.0721 85.8147 37.9573 85.4703 37.8425 85.1259C37.7277 84.6093 37.6703 84.0927 37.7277 83.5187C37.7851 82.6577 37.8999 81.7967 38.1869 80.8782C38.3591 80.419 38.5313 79.9598 38.7035 79.4432C38.7609 79.3284 38.7609 79.2136 38.7035 79.0988C38.6461 78.984 38.5313 78.8692 38.3591 78.8692C37.4981 78.9266 36.6371 79.0414 35.8335 79.1562C35.7187 79.4432 35.6039 79.6728 35.4891 79.9598C35.0298 81.0504 34.6854 82.2559 34.5132 83.4039C34.4558 83.8057 34.3984 84.2075 34.3984 84.6093C34.3984 85.0111 34.3984 85.4129 34.4558 85.8147C34.5132 86.1017 34.5706 86.3887 34.628 86.6183C34.6854 86.9054 34.8002 87.135 34.915 87.422C35.0298 87.6516 35.1447 87.8812 35.2595 88.0534C35.3743 88.283 35.4891 88.4552 35.6613 88.6848C35.8335 88.857 36.0057 89.0866 36.1779 89.2588C36.3501 89.431 36.5223 89.6032 36.6945 89.718C37.2685 90.1198 37.8425 90.4642 38.4739 90.7512C38.8757 90.9234 39.2775 91.0956 39.7367 91.153C40.1386 91.2678 40.5978 91.3252 41.057 91.3826C41.6884 91.44 42.2624 91.4974 42.8938 91.4974C43.4678 91.4974 44.0992 91.44 44.6732 91.3826C44.6732 91.3826 44.6732 91.3826 44.6158 91.3826C45.9361 91.2104 47.2563 90.866 48.5765 90.4642C49.7819 90.0624 50.9874 89.6032 52.1928 89.144C53.5704 88.57 54.8906 87.8812 56.2109 87.135C57.4737 86.3887 58.6791 85.5851 59.8271 84.7241C61.09 83.7483 62.3528 82.6577 63.5008 81.5096C64.3044 80.706 65.108 79.845 65.8543 78.984C65.2803 78.8118 64.6488 78.6396 64.0748 78.4674C63.4434 78.2952 62.8694 78.123 62.2954 78.0082H62.238C62.0084 77.8934 61.8936 77.9508 61.8362 78.0082Z" fill="#0A6F8F"/>
<path d="M22.1145 42.0176C21.9997 42.0176 21.8849 42.0176 21.7701 42.0176C21.1387 42.075 20.622 42.1898 20.1628 42.4194C19.7036 42.5916 19.2444 42.8786 18.9 43.1656C18.2112 43.797 17.6946 44.6006 17.4076 45.5765C17.1206 46.4949 17.0058 47.5281 17.0632 48.5039C17.1206 49.0779 17.178 49.5371 17.2928 49.9963C17.4076 50.5129 17.5798 51.0296 17.8094 51.4888C18.2112 52.4072 18.7852 53.3256 19.474 54.1292C20.1628 54.9328 20.9665 55.6791 21.8849 56.2531C22.8033 56.8845 23.7791 57.3437 24.7549 57.6307C25.7308 57.9177 26.7066 58.0899 27.625 58.0899C27.6824 58.0899 27.7972 58.0899 27.8546 58.0899C28.4286 58.0899 28.9452 58.0325 29.4044 57.9177C29.921 57.8029 30.4376 57.6307 30.9543 57.4011C31.0117 57.3437 31.0691 57.2863 31.1265 57.2289C31.1839 57.1141 31.1839 56.9993 31.1265 56.9419C31.0691 56.8845 31.0117 56.7697 30.8969 56.7697C30.8395 56.7697 30.8395 56.7697 30.7821 56.7697C30.7247 56.7697 30.6672 56.7697 30.6098 56.8271C30.495 56.8845 30.3802 56.9419 30.2654 56.9993L30.0358 57.0567H29.9784L29.8062 57.1141C29.921 56.9993 29.9784 56.8845 30.0932 56.7697C30.2654 56.5401 30.3802 56.3105 30.495 56.0235C30.7247 55.5068 30.8969 54.9328 30.9543 54.3588C31.0691 53.2682 30.9543 52.0628 30.5524 50.8C29.9784 48.9631 29.0026 47.1837 27.6824 45.6339C27.338 45.232 26.9936 44.8302 26.5918 44.4858C26.3622 44.2562 26.19 44.0266 25.9604 43.8544C25.5585 43.4526 25.1567 43.1082 24.7549 42.8786C23.8939 42.3046 22.9755 42.0176 22.1145 42.0176Z" fill="#FEA97E"/>
<path d="M19.9894 44.1989C19.8746 44.1989 19.7598 44.3137 19.7598 44.4285C19.7598 44.5433 19.8746 44.6581 19.9894 44.6581C20.219 44.6581 20.3912 44.6581 20.5634 44.6581C20.9078 44.7155 21.1948 44.7729 21.4818 44.8877C21.8836 45.0599 22.228 45.2895 22.5724 45.5191C22.9742 45.8061 23.3186 46.2079 23.6056 46.6097C23.8926 47.0115 24.1223 47.4133 24.3519 47.8725C24.4093 47.9873 24.5241 48.0447 24.5815 48.0447C24.6963 48.0447 24.8111 48.0447 24.8685 47.9873C24.9833 47.9299 25.0407 47.8725 25.0407 47.7577C25.0981 47.6429 25.0407 47.5281 24.9833 47.4707C24.5241 46.4949 23.7778 45.6913 22.8594 45.0599C21.9984 44.4859 21.0226 44.1989 20.0468 44.1989C20.1042 44.1415 20.0468 44.1989 19.9894 44.1989Z" fill="#CA8664"/>
<path d="M72.6285 45.5765C71.7675 45.5765 70.8491 45.8635 69.988 46.3801C69.5862 46.6097 69.1844 46.9541 68.7826 47.3559C68.553 47.5281 68.3808 47.7577 68.1512 47.9873C67.8068 48.3317 67.405 48.7335 67.0606 49.1353C65.7404 50.6852 64.7645 52.522 64.1905 54.3014C63.7887 55.5643 63.6739 56.7697 63.8461 57.8603C63.9035 58.4343 64.0757 59.0083 64.3053 59.525C64.4201 59.812 64.5349 60.0416 64.7071 60.2712C64.7645 60.386 64.8793 60.5008 64.9941 60.6156C64.8219 60.5582 64.7071 60.5008 64.5349 60.4434C64.4201 60.386 64.3053 60.3286 64.1905 60.2712C64.1331 60.2138 64.0757 60.2138 64.0183 60.2138C63.9609 60.2138 63.9609 60.2138 63.9035 60.2138C63.7887 60.2138 63.7313 60.3286 63.6739 60.386C63.6165 60.4434 63.6165 60.5582 63.6739 60.673C63.7313 60.7878 63.7887 60.8452 63.8461 60.8452C64.3627 61.0748 64.8793 61.247 65.3959 61.3618C65.8552 61.4766 66.3718 61.534 66.9458 61.534C67.0032 61.534 67.118 61.534 67.1754 61.534C68.0938 61.534 69.0696 61.3618 70.0454 61.0748C71.0213 60.7878 71.9971 60.3286 72.9155 59.6972C73.7765 59.1231 74.5801 58.3769 75.3263 57.5733C76.0152 56.7697 76.5892 55.8513 76.991 54.9329C77.2206 54.4736 77.3928 53.957 77.5076 53.4404C77.6224 52.9812 77.6798 52.522 77.7372 51.948C77.7946 50.9722 77.7372 49.939 77.4502 49.0205C77.1632 48.0447 76.6466 47.2411 75.9578 46.6097C75.6133 46.2653 75.1541 46.0357 74.6949 45.8635C74.1783 45.6339 73.6617 45.5191 73.0877 45.4617C72.8581 45.5765 72.7433 45.5765 72.6285 45.5765Z" fill="#FEBE9C"/>
<path d="M70.6768 49.4798C70.5046 49.5946 70.5046 49.7668 70.562 49.8816C70.6194 49.9964 70.6194 50.0538 70.6768 50.1686C70.849 50.5704 70.9638 50.9722 71.0212 51.374C71.0786 51.8333 71.0786 52.3499 71.0212 52.8665C70.9064 53.6127 70.7342 54.3015 70.4472 54.9903V54.9329C70.1602 55.6217 69.8158 56.2531 69.3566 56.8846C69.1844 57.0568 69.0696 57.229 68.8974 57.4012C68.7252 57.5734 68.553 57.7456 68.3234 57.9178C68.266 57.9752 68.2086 57.9752 68.1512 58.0326C68.0937 58.09 68.0938 58.1474 68.0938 58.2048C68.1512 58.2622 68.2085 58.2622 68.266 58.2622C68.8974 57.803 69.4714 57.229 69.988 56.6549C70.562 55.9661 70.9638 55.2199 71.3082 54.4163C71.6526 53.6127 71.8248 52.7517 71.8248 51.9481C71.8248 51.5462 71.7674 51.1444 71.6526 50.7426C71.5952 50.513 71.5378 50.3408 71.423 50.1686C71.3656 50.0538 71.3082 49.9964 71.3082 49.8816C71.2508 49.7668 71.1934 49.7094 71.136 49.652C71.0786 49.5946 71.0212 49.5372 70.9638 49.5372H70.9064C70.7916 49.4224 70.7342 49.4798 70.6768 49.4798Z" fill="#FEA06F"/>
<path d="M72.6275 48.4466C72.3979 48.4466 72.1109 48.5614 71.8813 48.6188C71.6517 48.6762 71.4795 48.791 71.2499 48.9058C71.1351 48.9632 71.0203 49.0206 70.9629 49.1354C70.9055 49.1928 70.8481 49.2502 70.7907 49.3076C70.7333 49.365 70.7333 49.4224 70.6759 49.4798C70.6185 49.5946 70.6185 49.7094 70.6759 49.7668C70.6759 49.8242 70.7333 49.8242 70.7907 49.8242C70.8481 49.8242 70.9055 49.8242 70.9629 49.8242H71.0203C71.0777 49.8242 71.0777 49.8242 71.1351 49.7668C71.1925 49.7668 71.2499 49.7094 71.3073 49.652C71.4221 49.5946 71.5943 49.5372 71.7091 49.4224C71.9387 49.3076 72.2257 49.1928 72.4553 49.1354C72.8571 49.0206 73.2015 48.9632 73.6033 48.9632C73.8903 48.9632 74.2347 49.0206 74.5217 49.078H74.4643C74.7513 49.1354 74.9809 49.2502 75.268 49.365C75.3828 49.4224 75.555 49.5372 75.6698 49.652C75.7272 49.7094 75.842 49.7094 75.8994 49.5946C75.9568 49.5372 75.9568 49.4224 75.842 49.365C75.4976 49.078 75.0958 48.8484 74.6365 48.6762C74.4069 48.6188 74.2347 48.5614 74.0051 48.504C73.7755 48.4466 73.4885 48.4466 73.2589 48.3892C73.2015 48.3892 73.1441 48.3892 73.0867 48.3892C72.9719 48.4466 72.7997 48.4466 72.6275 48.4466Z" fill="#FEA06F"/>
<path d="M50.241 9.87304C48.1746 9.93044 46.1656 10.16 44.1565 10.6193C44.0991 10.6193 44.0991 10.6193 44.0417 10.6193C43.9843 10.6193 43.9843 10.6193 43.9269 10.6193C43.5251 10.7341 43.1807 10.8489 42.7789 10.9637C42.6067 11.0211 42.4919 11.0211 42.3197 11.0785C40.3106 11.6525 38.3016 12.5135 36.4648 13.5467C36.35 13.6041 36.2352 13.6615 36.1204 13.7189C33.7095 15.0391 31.6431 16.589 29.921 18.3684C29.06 19.2868 28.2564 20.32 27.5676 21.4107C26.8788 22.4439 26.2474 23.6493 25.7307 24.9121C25.2141 26.175 24.8123 27.4952 24.5253 28.9876C24.1235 30.8819 23.9513 32.8335 23.8939 34.3259C23.8365 35.0721 23.8365 35.761 23.7791 36.5072C23.6643 38.4014 23.6069 40.2956 23.3199 42.1899C23.1477 43.3953 22.9181 44.6007 22.6885 45.8062C22.1719 48.3892 21.6553 51.0871 21.7701 53.7849C21.8275 54.5311 21.9423 55.3347 22.1145 56.2532C22.2293 56.942 22.4589 57.5734 22.6885 58.2622C23.0903 59.525 23.6643 60.7879 24.3531 61.9359C24.9845 63.0265 25.7882 64.0597 26.7066 65.0929C27.5676 66.0114 28.5434 66.8724 29.634 67.676C31.7005 69.1684 34.0539 70.3164 36.7518 71.0627C39.0478 71.7515 41.4587 72.0385 43.9843 72.0385C44.2713 72.0385 44.5583 72.0385 44.8453 72.0385C47.6006 71.9237 50.4132 71.4071 53.2259 70.4312C55.6941 69.5702 57.8754 68.4222 59.827 67.0446C61.7787 65.6095 63.3859 64.0023 64.4765 62.1655C64.5339 61.9933 64.6487 61.8785 64.7061 61.7063C64.9357 61.1897 65.2227 60.7305 65.5097 60.2138C66.7152 58.1474 68.0928 56.2532 69.5852 54.4163C69.9296 51.4889 70.4462 48.5614 71.0777 45.6339C71.2499 44.8877 71.4221 44.1415 71.5943 43.3953C71.7091 42.7639 71.8813 42.1325 72.0535 41.4437C72.3405 40.2382 72.6849 39.0328 73.1441 37.8848C73.5459 36.6794 74.0051 35.5313 74.5217 34.3833C75.0383 33.2353 75.6123 32.0873 76.3012 30.9967C76.9326 29.9634 77.6214 28.9876 78.3676 28.0118C78.1954 27.5526 78.0806 27.0934 77.851 26.6342C77.851 26.5194 77.851 26.462 77.7936 26.3472C77.3344 25.3139 76.8178 24.2233 76.2438 23.2475C75.6697 22.3291 75.0383 21.3533 74.3495 20.4348C73.0293 18.7128 71.4221 17.163 69.6426 15.7854C66.256 13.1449 62.0657 11.2507 57.5884 10.3322C55.4071 9.87304 53.1685 9.64343 50.9299 9.64343C50.5854 9.87304 50.4132 9.87304 50.241 9.87304Z" fill="#FEBE9C"/>
<path d="M45.1313 8.38049C43.2945 8.38049 41.3428 8.7249 39.219 9.35631C37.21 9.98772 35.4879 10.8487 33.9955 11.882C33.1345 12.5134 32.4457 13.2022 31.8716 13.9484C31.7568 14.1206 31.6994 14.2928 31.5846 14.465C31.5272 14.6372 31.4698 14.752 31.4124 14.9242C31.355 15.0964 31.2976 15.2112 31.2976 15.3834C31.2402 15.4982 31.2402 15.6704 31.2402 15.7852C31.2402 15.8426 31.2402 15.9574 31.2402 16.0148C31.2402 16.1296 31.2402 16.187 31.2402 16.3019C31.2402 16.3593 31.2976 16.4741 31.2976 16.5315C31.2976 16.6463 31.355 16.7037 31.4124 16.7611C31.4124 16.7611 31.4124 16.7611 31.4124 16.8185C32.3883 17.4499 33.3641 17.9665 34.3973 18.3683C35.4879 18.8275 36.7507 19.1145 38.071 19.3441C39.3912 19.5737 40.8836 19.6885 42.6057 19.6885C43.5241 19.6885 44.4425 19.6885 45.7053 19.5737C46.4515 19.5163 47.1403 19.5163 47.8866 19.4589C48.805 19.4015 49.666 19.3441 50.5844 19.2867C51.4454 19.2293 52.3065 19.2293 53.1101 19.2293C53.6267 19.2293 54.1433 19.2293 54.6599 19.2293C57.3578 19.3441 59.5964 19.6885 61.548 20.2625C62.7535 20.6643 63.8441 21.1235 64.8199 21.755H64.7625C65.4513 22.2142 66.0827 22.7308 66.6567 23.3048C67.116 23.8214 67.5752 24.4528 67.9196 25.0842V25.1416C68.2066 25.7156 68.4362 26.3471 68.6084 27.0359C68.7806 27.7821 68.838 28.5857 68.838 29.4467C68.7806 30.7669 68.551 32.0872 68.0344 33.6944L68.0918 33.5796C67.5178 35.359 66.7715 37.0811 66.0253 38.8031C65.7957 39.3197 65.5661 39.8363 65.3939 40.3529C65.0495 41.214 64.5903 42.3046 64.2459 43.3952C64.0163 44.084 63.7867 44.8876 63.6145 45.6912C63.4997 46.2078 63.4423 46.6671 63.3849 47.1263C63.3275 47.6429 63.3275 48.1021 63.3275 48.5039C63.3849 48.9057 63.4997 49.3075 63.6719 49.5945C63.8441 49.8815 64.1311 50.1111 64.4755 50.2259C64.5903 50.2259 64.6477 50.2833 64.7625 50.2833C64.8773 50.2833 64.9347 50.2833 65.0495 50.2833C65.2217 50.2833 65.3939 50.2259 65.5661 50.2259C65.9679 50.1111 66.3123 49.8815 66.5993 49.7093C67.0011 49.4797 67.3456 49.1353 67.6326 48.8483C67.9196 48.5613 68.2066 48.2743 68.6084 47.8725C68.9528 47.4707 69.2972 47.0689 69.6416 46.7245L69.7564 46.6097C70.0434 46.3226 70.273 45.9782 70.56 45.6912H70.6174C73.0283 44.3136 75.1521 42.7638 76.8741 40.9843C78.8832 38.9179 80.3182 36.6793 81.007 34.3832C81.1792 33.8092 81.3514 33.1778 81.4088 32.5464C81.4662 31.9724 81.5236 31.3984 81.5236 30.7669C81.5236 29.6763 81.294 28.6431 80.8922 27.6099C80.4904 26.6915 79.9164 25.773 79.1702 25.0842C78.424 24.338 77.4482 23.7066 76.3575 23.2474C75.8983 23.0752 75.4391 22.903 75.0373 22.7882C74.5207 22.616 74.0615 22.4438 73.5449 22.329C73.1431 22.2142 72.7413 22.0994 72.3395 21.9272C71.7654 21.755 71.2488 21.5828 70.6748 21.4106C69.699 21.1235 68.7806 20.7791 67.977 20.4921C67.0585 20.1477 66.1401 19.6885 65.2791 19.2293C64.6477 18.8849 64.0163 18.4831 63.3849 18.0239C62.8683 17.6795 62.3517 17.2777 61.835 16.8759C61.2036 16.4167 60.5722 15.9 59.9408 15.3834C59.539 15.039 59.0798 14.752 58.678 14.4076C56.6115 12.8578 54.3729 11.2506 51.962 10.0451C50.7566 9.47111 49.5512 9.01191 48.2884 8.6675C47.1404 8.4953 46.1071 8.38049 45.1313 8.38049Z" fill="#192E35"/>
<path d="M71.0195 44.8877C69.9863 45.8635 68.8382 46.7246 67.6902 47.5856L67.6328 47.643C67.6328 47.7004 67.6328 47.7004 67.6902 47.7004L67.7476 47.7578C67.805 47.7578 67.805 47.7578 67.805 47.7004C68.379 47.2986 68.953 46.8394 69.5271 46.4376C70.1011 45.9783 70.6177 45.5191 71.1343 45.0599C71.1917 45.0025 71.1917 44.9451 71.1343 44.8877C71.1343 44.8877 71.0769 44.8303 71.0195 44.8303C71.0769 44.8877 71.0195 44.8877 71.0195 44.8877Z" fill="#192E35"/>
<path d="M72.1113 44.1989C70.6762 45.6339 69.0116 46.7819 67.4044 48.1022C67.347 48.1596 67.347 48.217 67.4044 48.2744L67.4618 48.3318C67.5192 48.3318 67.5192 48.3318 67.5192 48.2744C69.069 47.0115 70.7336 45.8061 72.2261 44.3711C72.2835 44.3137 72.2835 44.2563 72.2261 44.1989L72.1687 44.1415C72.1687 44.1989 72.1113 44.1989 72.1113 44.1989Z" fill="#192E35"/>
<path d="M72.0545 44.371C70.5047 45.8634 68.7253 47.1263 67.0606 48.5039C67.0032 48.5613 67.0032 48.6187 67.0606 48.6761L67.118 48.7335C67.1754 48.7335 67.1754 48.7335 67.1754 48.6761C68.8401 47.3559 70.6195 46.093 72.1693 44.5432C72.2267 44.4858 72.2267 44.4284 72.1693 44.371L72.1119 44.3136L72.0545 44.371Z" fill="#192E35"/>
<path d="M71.9391 44.4859C70.5615 45.7487 69.1838 46.8967 67.7488 48.0448L67.6914 48.1022C67.6914 48.1596 67.6914 48.1596 67.7488 48.1596L67.8062 48.217C67.8636 48.217 67.8636 48.217 67.8636 48.1596C69.2986 47.0115 70.7337 45.8635 72.0539 44.6007C72.1113 44.5433 72.1113 44.4859 72.0539 44.4285L71.9965 44.3711C71.9965 44.4859 71.9965 44.4859 71.9391 44.4859Z" fill="#192E35"/>
<path d="M71.9376 44.5432C71.3062 45.1747 70.6174 45.7487 69.8711 46.3227C69.1823 46.8967 68.4361 47.4707 67.7473 47.9873C67.4603 48.2169 67.1159 48.4465 66.8289 48.6761C66.7715 48.6761 66.7715 48.7335 66.7715 48.7335C66.7715 48.7909 66.7715 48.7909 66.7715 48.8483C66.7715 48.9057 66.8289 48.9057 66.8289 48.9057C66.8863 48.9057 66.8863 48.9057 66.9437 48.9057C68.7231 47.5855 70.5026 46.2653 72.0524 44.7154C72.1098 44.658 72.1098 44.6006 72.0524 44.5432C72.0524 44.5432 71.995 44.4858 71.9376 44.4858C71.995 44.5432 71.9376 44.5432 71.9376 44.5432Z" fill="#192E35"/>
<path d="M71.9967 44.5432C71.1931 45.1747 70.3895 45.8061 69.6433 46.4949C68.8397 47.1837 68.0934 47.8151 67.2898 48.4465C67.2324 48.4465 67.2324 48.5039 67.2324 48.5613C67.2324 48.6187 67.2324 48.6187 67.2898 48.6761C67.3472 48.7335 67.3472 48.7335 67.4046 48.7335C67.462 48.7335 67.462 48.7335 67.5194 48.6761C68.323 48.0447 69.1267 47.4133 69.8729 46.7245C70.6765 46.0357 71.4227 45.4043 72.2263 44.7728C72.2837 44.7728 72.2837 44.7154 72.2837 44.658C72.2837 44.6006 72.2837 44.6006 72.2263 44.5432C72.1689 44.4858 72.1689 44.4858 72.1115 44.4858C72.0541 44.5432 71.9967 44.5432 71.9967 44.5432Z" fill="#192E35"/>
<path d="M71.7679 44.6581C71.0217 45.3469 70.3328 46.0357 69.5866 46.6671C68.8404 47.3559 68.0368 47.9873 67.2332 48.6762C67.2332 48.6762 67.1758 48.7336 67.1758 48.791C67.1758 48.8484 67.1758 48.8484 67.2332 48.9058C67.2332 48.9058 67.2906 48.9632 67.348 48.9632C67.4054 48.9632 67.4054 48.9632 67.4628 48.9058C69.07 47.6429 70.505 46.2653 71.9975 44.8877C72.0549 44.8303 72.0549 44.7729 71.9975 44.7155L71.9401 44.6581C71.8253 44.6581 71.7679 44.6581 71.7679 44.6581Z" fill="#192E35"/>
<path d="M71.1923 45.1173C70.5035 45.7487 69.8721 46.3802 69.1833 47.0116C68.4945 47.643 67.7483 48.2744 67.002 48.8484C66.9446 48.9058 66.9446 49.0206 67.002 49.0206C67.002 49.0206 67.0594 49.078 67.1168 49.078C67.1742 49.078 67.1742 49.078 67.2316 49.0206C68.7241 47.8726 70.0443 46.5524 71.4219 45.2895C71.4793 45.2321 71.4793 45.1747 71.4219 45.1173C71.4219 45.1173 71.3645 45.0599 71.3071 45.0599C71.2497 45.0599 71.2497 45.0599 71.1923 45.1173Z" fill="#192E35"/>
<path d="M71.9392 44.7729C70.332 46.0931 68.6673 47.4707 67.0027 48.7336L66.9453 48.791C66.9453 48.8484 66.9453 48.8484 67.0027 48.8484L67.0601 48.9058C67.1175 48.9058 67.1175 48.9058 67.1175 48.8484C68.7821 47.5281 70.3894 46.2079 72.054 44.8877C72.1114 44.8303 72.1114 44.7729 72.054 44.7155L71.9966 44.6581C71.9392 44.7155 71.9392 44.7729 71.9392 44.7729Z" fill="#192E35"/>
<path d="M71.7662 44.7729C70.2164 46.1505 68.724 47.5855 67.0594 48.8484L67.002 48.9058C67.002 48.9632 67.002 48.9632 67.0594 48.9632L67.1168 49.0206C67.1742 49.0206 67.1742 49.0206 67.1742 48.9632C68.7814 47.7003 70.3312 46.2653 71.8811 44.8877C71.9385 44.8303 71.9385 44.7729 71.8811 44.7155L71.8237 44.6581C71.8237 44.7729 71.7662 44.7729 71.7662 44.7729Z" fill="#192E35"/>
<path d="M71.3078 45.1173C69.8728 46.4375 68.5525 47.8725 67.0027 49.0205L66.9453 49.0779C66.9453 49.1354 66.9453 49.1353 67.0027 49.1353L67.0601 49.1927C67.1175 49.1927 67.1175 49.1928 67.1749 49.1353C67.9211 48.5613 68.6099 47.9299 69.2988 47.2411C69.9876 46.5523 70.7338 45.8635 71.4226 45.1747C71.48 45.1173 71.48 45.0599 71.4226 45.0025L71.3652 44.9451C71.3652 45.0599 71.3652 45.0599 71.3078 45.1173Z" fill="#192E35"/>
<path d="M71.7659 44.8877C70.1587 46.3228 68.5514 47.7004 66.8868 49.0206C66.8294 49.078 66.8294 49.1354 66.8868 49.1928L66.9442 49.2502C67.0016 49.2502 67.0016 49.2502 67.0016 49.1928C68.6662 47.8726 70.3309 46.495 71.8807 45.0599C71.9381 45.0025 71.9381 44.9451 71.8807 44.8877L71.8233 44.8303C71.8233 44.8303 71.7659 44.8303 71.7659 44.8877Z" fill="#192E35"/>
<path d="M69.9297 46.0931C69.4131 46.5523 68.9539 47.0689 68.4373 47.5281C67.9207 47.9873 67.4041 48.4465 66.8875 48.8483L66.8301 48.9057C66.8301 48.9631 66.8301 48.9631 66.8875 48.9631L66.9449 49.0205C67.0023 49.0205 67.0023 49.0205 67.0023 48.9631C67.5763 48.5613 68.0929 48.1021 68.5521 47.6429C69.0687 47.1837 69.5279 46.6671 70.0445 46.2079C70.1019 46.1505 70.1019 46.0931 70.0445 46.0357L69.9871 45.9783C69.9871 46.0931 69.9871 46.0931 69.9297 46.0931Z" fill="#192E35"/>
<path d="M34.2835 15.2687C34.2261 15.3261 34.2835 15.4409 34.3409 15.4983C35.4316 16.1298 36.5796 16.589 37.785 16.9334C38.359 17.1056 38.9904 17.2778 39.6218 17.3926C40.2533 17.5074 40.8847 17.6222 41.5161 17.6796C43.6399 17.9092 45.7638 17.9092 47.945 17.9092H49.3226C50.4707 17.9092 51.6761 17.9092 52.8241 17.9666C53.9147 18.024 55.0628 18.0814 56.1534 18.2536C56.5552 18.311 56.8996 18.3684 57.3014 18.4258H57.3588C57.4736 18.4258 57.6458 18.4258 57.7606 18.3684C57.8754 18.311 57.9328 18.1962 57.9902 18.0814C58.0476 17.8518 57.9328 17.5648 57.6458 17.45C57.4736 17.3926 57.3588 17.3926 57.244 17.3352C57.0718 17.2778 56.957 17.2778 56.7848 17.2204C56.4404 17.163 56.1534 17.1056 55.809 17.0482C55.1776 16.9334 54.4887 16.876 53.8573 16.876C52.5945 16.8186 51.2743 16.8186 50.0115 16.876C47.4284 16.9908 44.8454 17.163 42.2049 17.0482C41.4013 16.9908 40.6551 16.9334 39.8515 16.8186H39.9089C38.4738 16.6464 37.0962 16.302 35.776 15.7279C35.776 15.7279 35.776 15.7279 35.7186 15.7279C35.3168 15.5557 34.9724 15.3835 34.5705 15.1539C34.5705 15.1539 34.5131 15.1539 34.4557 15.1539C34.3983 15.2113 34.3409 15.2113 34.2835 15.2687ZM57.244 18.3684C57.3014 18.3684 57.3014 18.3684 57.3588 18.3684C57.3014 18.3684 57.244 18.3684 57.244 18.3684Z" fill="#0F1D21"/>
<path d="M46.9121 14.9817C46.9121 15.0391 46.9695 15.1539 47.0843 15.1539C48.1749 15.1539 49.2656 15.2688 50.2988 15.3836C50.9302 15.4984 51.5616 15.6132 52.193 15.728C52.5374 15.7854 52.8818 15.9002 53.2262 16.015C53.5706 16.1298 53.9151 16.2446 54.2595 16.3594C54.3169 16.3594 54.4317 16.3594 54.4891 16.302C54.5465 16.2446 54.6039 16.1872 54.6613 16.1298C54.7187 15.9576 54.6039 15.7854 54.4317 15.728C53.2836 15.3836 52.0782 15.1539 50.8728 15.0391C49.61 14.9243 48.4045 14.8669 47.1417 14.8669C46.9695 14.8669 46.9121 14.9243 46.9121 14.9817Z" fill="#0F1D21"/>
<path d="M70.331 25.4861C70.2162 25.5435 70.1588 25.6583 70.1588 25.7157C70.331 26.3471 70.5032 26.9785 70.5606 27.6099C70.7328 28.8153 70.7328 30.0208 70.5606 31.2262C70.5032 31.8576 70.331 32.4316 70.2162 33.063C70.1014 33.6944 69.8718 34.3259 69.6996 35.0147C69.5274 35.6461 69.2978 36.2201 69.0682 36.8515C68.8386 37.4829 68.609 38.0569 68.3794 38.6309C68.3794 38.6309 68.3794 38.6309 68.3794 38.5735C68.3794 38.5735 68.3794 38.6309 68.322 38.6309V38.6883C68.0924 39.2624 67.8054 39.8364 67.5184 40.4104C67.2313 41.0418 67.0017 41.6158 66.7147 42.2472C66.1981 43.3952 65.6241 44.5433 65.1649 45.7487C65.1649 45.8061 65.1075 45.8635 65.1075 45.9209C65.0501 46.0357 65.0501 46.1505 65.1075 46.2653C65.1649 46.4375 65.2797 46.6097 65.3945 46.6671C65.5667 46.7819 65.7389 46.7819 65.9111 46.7245C66.0259 46.6671 66.1407 46.6097 66.1981 46.5523C66.2555 46.4375 66.3703 46.3801 66.3703 46.2653C66.5999 45.6913 66.8295 45.1173 67.0591 44.6007C67.0591 44.6007 67.0591 44.6007 67.0591 44.6581C67.2887 44.1415 67.461 43.6248 67.6906 43.1656C67.6906 43.1082 67.748 43.0508 67.748 42.9934C67.8054 42.8786 67.8628 42.7638 67.9202 42.649C67.9202 42.7064 67.8628 42.7638 67.8628 42.8212C68.1498 42.1898 68.3794 41.5584 68.6664 40.8696C68.896 40.2382 69.1256 39.6068 69.3552 38.9754C69.5848 38.3439 69.8144 37.7125 69.9866 37.0811C70.1588 36.4497 70.331 35.7609 70.5032 35.1295C71.0772 32.6038 71.3642 29.9634 70.9624 27.3803C70.8476 26.8063 70.7328 26.2323 70.5606 25.7157C70.5606 25.5435 70.4458 25.4287 70.331 25.4861ZM67.1165 44.4859C67.1165 44.5433 67.0591 44.5433 67.0591 44.6007C67.1165 44.5433 67.1165 44.4859 67.1165 44.4859ZM68.322 38.6883C68.322 38.6309 68.322 38.6309 68.3794 38.6309C68.322 38.6309 68.322 38.6883 68.322 38.6883Z" fill="#0F1D21"/>
<path d="M24.9838 37.4829C25.0412 38.5161 26.9354 39.2623 29.2315 39.1475C31.5275 39.0327 33.3069 38.0569 33.2495 37.0237C33.1921 35.9905 31.2979 35.2443 29.0019 35.3591C26.7058 35.4739 24.9264 36.4497 24.9838 37.4829Z" fill="#0F1D21"/>
<path d="M48.2899 38.057C48.1177 39.205 50.0693 40.4679 52.595 40.8123C55.1206 41.1567 57.3019 40.5253 57.4741 39.3198C57.6463 38.1718 55.6946 36.909 53.169 36.5646C50.6433 36.2202 48.4621 36.8516 48.2899 38.057Z" fill="#0F1D21"/>
<path d="M50.8152 45.3469C50.069 45.3469 49.4376 46.4949 49.3802 47.9874C49.3228 48.7336 49.4376 49.4224 49.6098 49.939C49.8394 50.4556 50.1264 50.8 50.4708 50.8C51.217 50.8 51.8484 49.652 51.9632 48.1596C52.0206 47.4134 51.9058 46.7246 51.7336 46.2079C51.4466 45.6913 51.1596 45.4043 50.8152 45.3469Z" fill="#192E35"/>
<path d="M29.6336 44.3136C28.8873 44.3136 28.2559 45.4616 28.1985 46.9541C28.1411 47.7003 28.2559 48.3891 28.4281 48.9057C28.6577 49.4223 28.9447 49.7667 29.2891 49.7667C30.0354 49.7667 30.6668 48.6187 30.7816 47.1263C30.7816 45.6338 30.3224 44.371 29.6336 44.3136Z" fill="#192E35"/>
<path d="M41.5732 57.5734C41.114 57.5734 40.5974 57.6308 40.0808 57.7456C39.5642 57.8604 39.0475 57.9752 38.5309 58.09C38.4735 58.09 38.4161 58.1474 38.4161 58.2048C38.4161 58.2622 38.3587 58.3196 38.4161 58.377C38.4161 58.4918 38.5309 58.5492 38.6457 58.5492H38.7031C39.105 58.4344 39.5068 58.3196 39.8512 58.2622C40.3104 58.2048 40.7696 58.1474 41.2288 58.1474C41.3436 58.1474 41.4584 58.1474 41.5732 58.1474C41.6306 58.1474 41.688 58.1474 41.7454 58.09C41.8028 58.0326 41.8028 57.9752 41.8028 57.8604C41.8028 57.6882 41.688 57.5734 41.5732 57.5734Z" fill="#192E35"/>
<path d="M39.6796 40.6974C39.6222 40.6974 39.6222 40.6974 39.5648 40.7548L39.5074 40.8122C39.6222 42.7638 39.5648 44.4285 39.3352 45.9783C39.163 47.1263 38.9908 47.9873 38.6464 48.8483C38.2446 48.6187 37.8428 48.4465 37.3835 48.2743C36.9817 48.1595 36.5799 48.0447 36.2355 48.0447H36.1781C35.5467 48.0447 35.0301 48.2743 34.6283 48.6761C34.2839 49.078 34.1117 49.652 34.1691 50.226C34.2265 50.8574 34.4561 51.5462 34.8579 52.1202C35.0875 52.522 35.4319 52.8664 35.7763 53.1534C36.1781 53.4978 36.6373 53.7848 37.1539 54.0145C37.2113 54.0719 37.2687 54.0719 37.3835 54.0719C37.4409 54.0719 37.4409 54.0719 37.4983 54.0719C37.6131 54.0719 37.6706 53.9571 37.728 53.8997C37.7854 53.7848 37.7854 53.7274 37.7854 53.6126C37.728 53.4978 37.6706 53.383 37.4983 53.3256C37.3835 53.2682 37.3261 53.2682 37.2113 53.2108C36.8669 53.0386 36.5225 52.8664 36.2355 52.6368C35.9485 52.4072 35.6615 52.1776 35.4893 51.8906C35.2597 51.6036 35.1449 51.374 34.9727 51.087C34.8579 50.8 34.8005 50.5704 34.7431 50.3408C34.7431 50.1112 34.7431 49.939 34.7431 49.7094C34.7431 49.5946 34.8005 49.4224 34.8579 49.3076C34.9153 49.1928 34.9727 49.078 35.0301 49.0206L35.0875 48.9632C35.1449 48.9058 35.2023 48.9057 35.2023 48.8483C35.3171 48.7909 35.4319 48.7335 35.4893 48.6761C35.6041 48.6187 35.7763 48.5613 35.9485 48.5613C36.0633 48.5613 36.1781 48.5613 36.2929 48.5613C36.4077 48.5613 36.5799 48.5613 36.6947 48.6187H36.6373C37.0391 48.6761 37.4983 48.8484 37.9576 49.0206C38.1872 49.1354 38.4168 49.2502 38.6464 49.365H38.7038C38.7612 49.365 38.8186 49.3076 38.876 49.2502C39.1056 48.6187 39.2778 47.9873 39.3926 47.2985C39.5074 46.6671 39.6222 45.9783 39.6796 45.2321C39.7944 43.9693 39.7944 42.5916 39.737 40.9844C39.7944 40.7548 39.737 40.6974 39.6796 40.6974Z" fill="#CA8664"/>
</svg>
