<svg width="100" height="100" viewBox="0 0 100 100" fill="none" xmlns="http://www.w3.org/2000/svg">
<path d="M50.1842 0H50.012C37.4412 0.0574011 25.6166 4.9365 16.7194 13.8337C7.8222 22.7309 2.9431 34.4981 3.0005 47.0115C3.0579 72.7847 24.1815 93.7361 50.1268 93.7361H50.299C62.8699 93.6787 74.6945 88.7996 83.5917 79.9024C92.4889 71.0052 97.368 59.238 97.3106 46.7245C97.1958 20.9514 76.0722 0 50.1842 0Z" fill="#E7EEEF"/>
<path d="M51.7921 6.60107C49.496 6.60107 47.0278 7.00288 44.5596 7.8065C43.0097 8.32311 41.4025 9.01192 39.8527 9.87294C39.8527 9.81554 39.7953 9.75814 39.7953 9.70074C39.6805 9.52853 39.5657 9.35633 39.3934 9.12672C39.1638 8.83972 38.8194 8.61011 38.4176 8.49531C37.9584 8.32311 37.3844 8.20831 36.8104 8.20831C36.5234 8.20831 36.179 8.20831 35.8346 8.26571C35.031 8.38051 34.2847 8.55271 33.3663 8.83972C32.2757 9.18413 31.2425 9.75814 30.2667 10.447C27.9706 12.0542 26.4208 14.178 25.9616 16.4741H25.9042C24.9858 16.7037 24.1247 17.0481 23.2637 17.5073C22.4027 17.9665 21.5991 18.5979 20.9103 19.3441C20.2215 20.0329 19.7049 20.894 19.3604 21.755C19.016 22.6734 18.8438 23.6492 18.9586 24.625C18.2698 25.3713 17.6958 26.1175 17.2366 26.9785C16.72 27.8969 16.3756 28.8727 16.0886 29.9059C15.6294 31.8002 15.572 33.924 15.9738 36.2201C16.3182 38.2291 17.007 40.3529 18.0402 42.4768C18.9586 44.371 20.1067 46.1505 21.4843 47.8151C21.6565 47.9873 21.8287 48.2169 22.0009 48.3891C22.0583 48.4465 22.1157 48.5039 22.2305 48.5039C22.2879 48.5039 22.4027 48.5039 22.4601 48.4465C22.5175 48.5613 22.5749 48.6187 22.6897 48.6187C25.9042 49.3075 29.4056 50.0537 32.9071 50.9722C34.5143 51.374 36.179 51.8906 37.7862 52.3498L38.0158 52.4072C39.9675 52.9812 41.6321 53.4404 43.1245 53.8422C47.0278 54.8754 50.2997 55.6217 53.4567 56.1383C53.8585 56.1957 54.3177 56.2531 54.7196 56.3679C55.1214 56.4253 55.5232 56.4827 55.925 56.5975C56.786 56.7123 57.5896 56.8845 58.4506 56.9993C60.2301 57.2289 61.6651 57.3437 62.9853 57.3437C63.1575 57.3437 63.3297 57.3437 63.5019 57.3437C65.0518 57.2863 66.5442 57.0567 67.9218 56.5975C69.0124 56.2531 70.1031 55.7365 71.1363 55.105C72.2269 54.4736 73.1453 53.7274 73.9489 52.8664C74.7525 52.0054 75.384 50.9722 75.7284 49.9963C75.8432 49.6519 75.958 49.3649 76.0154 49.0205C76.0728 48.7335 76.1302 48.3891 76.1302 47.9873C76.1302 47.3559 76.0728 46.6671 75.8432 45.9783C76.0728 45.8061 76.3024 45.6913 76.4746 45.5191C76.7042 45.3468 76.9338 45.1172 77.2208 44.8302C77.5078 44.5432 77.7948 44.1988 78.0244 43.9118C78.4836 43.2804 78.9428 42.5916 79.402 41.788C80.1483 40.4104 80.6649 38.8031 80.9519 37.0237C81.2389 35.4164 81.2963 33.6944 81.1241 31.915C80.9519 30.1929 80.5501 28.5283 79.9761 26.8637C78.7706 23.5344 76.6468 20.6644 74.0637 18.8849C73.2027 18.3109 72.2269 17.7943 71.2511 17.4499C70.3327 17.1055 69.3568 16.8759 68.381 16.7611C68.381 16.6463 68.381 16.5889 68.3236 16.4741C68.3236 16.3593 68.2662 16.1871 68.2088 16.0723C68.1514 15.8427 68.0366 15.6131 67.9218 15.3834C67.7496 14.9242 67.4626 14.5224 67.1756 14.0632C66.6016 13.2596 65.9128 12.5134 64.9944 11.7672C64.2481 11.1358 63.3297 10.5044 62.2965 9.87294C61.4355 9.35633 60.5745 8.89712 59.5986 8.43791C58.4506 7.9213 57.36 7.51949 56.2694 7.28989C55.064 7.00288 53.7437 6.83068 52.3661 6.77328C52.1939 6.60107 52.0217 6.60107 51.7921 6.60107ZM47.3722 7.8065C47.4296 7.8065 47.487 7.8065 47.5444 7.7491C47.487 7.7491 47.4296 7.8065 47.3722 7.8065Z" fill="#192E35"/>
<path d="M63.6152 10.8488C63.8448 11.2506 64.0744 11.595 64.304 12.0542C64.7058 12.9152 65.0502 13.7762 65.3947 14.6947C65.5669 15.1539 65.7391 15.6705 65.8539 16.1297C65.9687 16.4167 66.0261 16.7037 66.1409 16.9907C66.1983 17.1055 66.2557 17.1629 66.3131 17.2777C66.3705 17.3351 66.3705 17.3925 66.4279 17.3925C66.6001 17.5073 66.7723 17.5647 66.9445 17.6221C67.2315 17.7369 67.5185 17.8517 67.8629 17.9665C68.2647 18.1387 68.6091 18.2535 68.9535 18.4257C69.6997 18.7701 70.3886 19.1719 71.02 19.6886C71.3644 19.9182 71.6514 20.2052 71.9384 20.4922C72.2254 20.7792 72.455 21.0662 72.742 21.4106C73.2586 22.042 73.6604 22.7308 74.0048 23.477C74.6936 24.8547 75.2103 26.2897 75.5547 27.7247C75.8991 29.2171 76.0713 30.767 76.0713 32.3168C76.0713 33.1204 76.0139 33.9814 75.8991 34.7851C75.7843 35.5887 75.6695 36.3349 75.4399 37.1385C75.2102 37.9421 74.9806 38.6883 74.6936 39.4345C74.4066 40.1808 74.0622 40.8696 73.6604 41.501C73.2586 42.1898 72.7994 42.8212 72.2828 43.3952C71.9958 43.7396 71.7088 44.0266 71.4218 44.3136C71.0774 44.6581 70.733 44.9451 70.3886 45.2895C68.8387 46.6097 67.1741 47.7577 65.5669 49.0205C64.9354 49.5372 64.2466 50.0538 63.6726 50.5704C63.3856 50.8574 63.0412 51.1444 62.7542 51.4314C62.5246 51.661 62.2376 51.948 62.008 52.1776C61.0322 53.2108 60.1138 54.3588 59.1953 55.5069C58.8509 55.9661 58.5065 56.4253 58.1621 56.9419C58.2769 56.9419 58.3343 56.9419 58.4491 56.9993C60.2286 57.2289 61.6636 57.3437 62.9838 57.3437C63.156 57.3437 63.3282 57.3437 63.5004 57.3437C65.0502 57.2863 66.5427 57.0567 67.9203 56.5975C69.0109 56.2531 70.1015 55.7365 71.1348 55.1051C72.2254 54.4737 73.1438 53.7274 73.9474 52.8664C74.751 52.0054 75.3825 50.9722 75.7269 49.939C75.8417 49.5946 75.9565 49.3075 76.0139 48.9057C76.0713 48.6187 76.1287 48.2743 76.1287 47.8725C76.1287 47.2411 76.0713 46.5523 75.8417 45.8635C76.0713 45.7487 76.2435 45.5765 76.4731 45.4043C76.7027 45.1747 76.9897 45.0025 77.2193 44.7155C77.5063 44.4285 77.7933 44.084 78.0229 43.797C78.4821 43.1656 78.9413 42.4768 79.4005 41.6732C80.1468 40.2956 80.6634 38.6883 80.9504 36.9089C81.2374 35.3017 81.2948 33.5796 81.1226 31.8002C80.9504 30.0782 80.5486 28.4135 79.9745 26.7489C78.7691 23.4196 76.6453 20.5496 74.0622 18.7701C73.2012 18.1961 72.2828 17.6795 71.2496 17.2777C70.3312 16.9333 69.3553 16.7037 68.3795 16.5315C68.3795 16.4741 68.3795 16.3593 68.3221 16.2445C68.3221 16.1297 68.2647 15.9575 68.2073 15.8427C68.1499 15.6131 68.0351 15.3835 67.9203 15.1539C67.7481 14.6947 67.4611 14.2929 67.1741 13.8336C66.6575 13.03 65.9113 12.2838 64.9928 11.5376C64.4188 11.021 63.73 10.5618 62.9838 10.0452C63.2708 10.3322 63.443 10.6192 63.6152 10.8488Z" fill="#0F1D21"/>
<path d="M27.4528 17.8517C27.2232 17.8517 27.051 17.8517 26.8213 17.9091C26.5343 17.9665 26.3047 18.0239 26.0177 18.0813C25.7881 18.1387 25.5011 18.2535 25.2715 18.3683C24.9845 18.4831 24.7549 18.5979 24.5253 18.7127C24.3531 18.8275 24.1809 18.8849 24.0661 18.9997C23.9513 19.0571 23.8365 19.1719 23.7217 19.2293C23.4921 19.4015 23.3199 19.5737 23.1477 19.7459C22.9755 19.9181 22.8033 20.1477 22.6311 20.3773C22.4589 20.6069 22.3441 20.7791 22.1719 21.0661C22.0571 21.2958 21.9422 21.468 21.8274 21.6976C21.7126 21.9272 21.6552 22.1568 21.5978 22.329C21.5404 22.5012 21.483 22.7308 21.483 22.903C21.483 23.0752 21.4256 23.3048 21.4256 23.477C21.4256 23.7066 21.4256 23.8788 21.483 24.051C21.483 24.2232 21.5404 24.3954 21.5978 24.5676C21.6552 24.7398 21.7126 24.912 21.77 25.0842C21.8274 25.2564 21.9422 25.4286 21.9996 25.5434C22.1144 25.7156 22.1719 25.8304 22.2867 26.0026C22.4015 26.1748 22.5163 26.2897 22.6885 26.4619C22.7459 26.5193 22.7459 26.6341 22.6885 26.6341C22.4589 26.8063 22.2293 26.9785 21.9996 27.1507C21.7126 27.3803 21.4256 27.6099 21.196 27.8969C20.9664 28.1265 20.7368 28.4135 20.5072 28.7005C20.2776 28.9875 20.1054 29.2745 19.8758 29.6189C19.7036 29.9059 19.5314 30.2503 19.4166 30.5373C19.2444 30.9391 19.0722 31.3984 18.9574 31.8002C18.8426 32.2594 18.7278 32.7186 18.6704 33.1778C18.6704 33.1778 18.6704 33.1778 18.6704 33.1204C18.4982 34.5554 18.5556 35.9904 18.7278 37.3681C18.9 38.8031 19.2444 40.1807 19.6462 41.5584C20.1054 42.9934 20.622 44.4284 21.196 45.806C21.196 45.806 21.196 45.806 21.196 45.7486C21.5978 46.6671 21.9996 47.5855 22.4589 48.4465H22.5163C22.5737 48.5613 22.6311 48.6187 22.7459 48.6187C25.9603 49.3075 29.4618 50.0537 32.9633 50.9721C34.4557 51.374 35.9481 51.7758 37.4406 52.235L37.6702 52.2924L37.8424 52.3498L38.072 52.4072C38.2442 52.4646 38.4738 52.522 38.646 52.5794C38.646 52.2924 38.646 52.0054 38.646 51.7184C38.5886 49.5371 38.4738 47.3559 38.359 45.1746C38.1868 42.9934 38.0146 40.8121 37.6702 38.6309C37.6702 38.6309 37.6702 38.6309 37.6702 38.6883C37.4406 36.8515 37.0961 35.0146 36.7517 33.2352C36.5795 32.3742 36.4073 31.5706 36.1777 30.7095C35.6611 28.5857 35.0297 26.4619 34.1687 24.4528C33.5947 23.0752 32.9059 21.6976 31.9874 20.4921C31.5282 19.9181 31.0116 19.4015 30.4376 18.9423C30.2654 18.7701 30.0358 18.6553 29.8636 18.5405C29.634 18.4257 29.4618 18.3109 29.2322 18.1961C29.06 18.1387 28.8304 18.0239 28.6582 17.9665C28.486 17.9091 28.2564 17.8517 28.0842 17.8517C27.8546 17.9091 27.6824 17.8517 27.4528 17.8517Z" fill="#0F1D21"/>
<path d="M48.2891 64.3467C47.7725 64.3467 47.1985 64.4041 46.6818 64.5189C45.132 64.8059 43.6396 65.4947 42.549 66.5853C41.975 67.1019 41.5157 67.7333 41.1713 68.4796C40.9991 68.824 40.8269 69.2258 40.7121 69.6276C40.6547 69.8572 40.5973 70.0294 40.5399 70.259C40.4825 69.972 40.4251 69.7424 40.4251 69.4554C40.3677 69.2832 40.1955 69.1684 40.0807 69.1684C40.0233 69.1684 40.0233 69.1684 39.9659 69.1684C39.8511 69.1684 39.7937 69.2832 39.7363 69.3406C39.6789 69.398 39.6789 69.5128 39.6789 69.6276C39.7937 70.0868 39.8511 70.6034 39.9085 71.12V71.1774C40.0807 72.6124 40.0807 73.7605 39.9659 74.7937C39.8511 75.4251 39.7363 75.9991 39.5067 76.5157C39.3345 76.9175 39.1623 77.2619 38.8753 77.6063C38.6457 77.8933 38.4161 78.123 38.1291 78.3526C37.8421 78.5822 37.4977 78.7544 37.1533 78.9266C36.6366 79.1562 36.12 79.271 35.4886 79.3858C35.259 79.4432 35.0294 79.4432 34.7424 79.4432C34.5128 79.4432 34.398 79.6154 34.398 79.7876V79.845L34.3406 79.9024C33.7092 80.7634 33.1352 81.6244 32.7334 82.5428C32.5038 83.0021 32.389 83.4613 32.2742 83.8631C32.1594 84.2649 32.102 84.6667 31.9872 85.1833C31.7576 86.8479 32.1594 88.4552 33.0778 89.6606C33.537 90.292 34.1684 90.8086 34.8572 91.2104C35.6034 91.6122 36.4644 91.8992 37.4403 92.014C37.8421 92.0714 38.3013 92.0714 38.7605 92.0714C39.3919 92.0714 40.0233 92.014 40.7121 91.8992C41.9176 91.727 43.1804 91.3826 44.5006 90.9234C46.8541 90.1198 49.2075 88.857 51.6183 87.1923C53.7422 85.7573 55.8086 84.0353 57.7603 82.0262C58.1047 81.6818 58.5065 81.28 58.8509 80.8782C59.2527 80.4764 59.6545 80.0172 60.0563 79.558C60.1137 79.558 60.1137 79.558 60.1711 79.558C60.3433 79.558 60.4581 79.4432 60.5155 79.271C60.5155 79.1562 60.5155 79.0988 60.4581 78.984C60.4007 78.9266 60.3433 78.8692 60.2285 78.8118C59.8267 78.697 59.3675 78.5822 58.9657 78.41C58.4491 78.1804 57.9325 77.8934 57.4733 77.5489C57.0715 77.2045 56.727 76.8601 56.44 76.5157C56.0956 76.0565 55.8086 75.5399 55.579 74.9659C55.292 74.2197 55.0624 73.4161 54.9476 72.4976C54.718 70.8904 54.7754 69.1684 55.0624 67.0445C55.0624 66.9297 55.1198 66.7575 55.1198 66.6427C55.1198 66.5279 55.1198 66.4705 55.0624 66.3557C55.005 66.2983 54.9476 66.2409 54.8328 66.1835C54.7754 66.1835 54.7754 66.1835 54.718 66.1835C54.6606 66.1835 54.6032 66.1835 54.5458 66.2409C54.4884 66.2983 54.3736 66.3557 54.3736 66.4705C54.3162 66.7575 54.3162 66.9871 54.2588 67.2741C53.9718 66.8723 53.6274 66.4705 53.2256 66.1261C52.6516 65.6095 51.9628 65.2077 51.1591 64.8633C50.4129 64.5189 49.3797 64.3467 48.2891 64.3467Z" fill="#FEBE9C"/>
<path d="M46.626 64.4615C45.0762 64.7485 43.5837 65.4947 42.4931 66.528C41.9191 67.0446 41.4599 67.7334 41.1155 68.4222C40.9433 68.7666 40.7711 69.1684 40.6563 69.5702C40.5989 69.7424 40.5415 69.972 40.4841 70.2016C40.4841 69.9146 40.4267 69.6276 40.3693 69.398C40.3119 69.2258 40.1397 69.111 40.0249 69.111C40.0249 69.111 39.9675 69.111 39.9101 69.111C39.7953 69.111 39.7379 69.2258 39.6804 69.2832C39.623 69.3406 39.623 69.4554 39.623 69.5702C39.7378 70.0294 39.7952 70.546 39.8527 71.0626V71.12C40.0249 72.5551 40.0249 73.7031 39.9101 74.7363C39.8527 75.0233 39.8527 75.2529 39.7952 75.4825C40.2545 75.5399 40.7137 75.5399 41.1729 75.4825C41.1729 75.4825 41.1729 75.4825 41.1155 75.4825C42.6653 75.4251 44.2151 75.1381 45.7076 74.6789C47.3722 74.1623 48.922 73.4735 50.3571 72.5551C51.5051 71.8089 52.5957 70.9478 53.5141 69.972C53.8585 69.5702 54.2029 69.2258 54.4899 68.7666C54.6621 68.4796 54.8343 68.25 55.0066 67.963C55.064 67.676 55.064 67.3316 55.1214 67.0446C55.1214 66.9298 55.1788 66.7576 55.1788 66.6428C55.1788 66.528 55.1788 66.4705 55.1214 66.3557C55.064 66.2983 55.0066 66.2409 54.8918 66.1835C54.8344 66.1835 54.8343 66.1835 54.7769 66.1835C54.7195 66.1835 54.6621 66.1835 54.6047 66.2409C54.5473 66.2983 54.4325 66.3557 54.4325 66.4706C54.3751 66.7576 54.3751 66.9872 54.3177 67.2742C54.0307 66.8724 53.6863 66.4705 53.2845 66.1261C52.7105 65.6095 52.0217 65.2077 51.2181 64.8633C50.2997 64.4615 49.2664 64.2893 48.1758 64.2893C47.7166 64.3467 47.2 64.3467 46.626 64.4615Z" fill="#FF9B68"/>
<path d="M58.9079 78.0655C58.8505 78.0655 58.8505 78.1229 58.8505 78.1229C58.3913 78.6396 57.8747 79.1562 57.3007 79.6728L57.3581 79.6154C55.5213 81.28 53.2252 82.8298 50.4126 84.3223C49.7238 84.6667 49.0349 85.0111 48.3461 85.3555C47.5425 85.7573 46.9111 86.0443 46.3371 86.2739C44.6151 87.0775 43.18 87.5367 41.8024 87.8811C40.884 88.1107 40.0804 88.1681 39.2767 88.1681C39.2193 88.1681 39.1045 88.1681 39.0471 88.1681C38.9897 88.1681 38.9897 88.1681 38.9897 88.1681C38.4731 88.1107 37.9565 88.0533 37.4399 87.8811C37.0381 87.7663 36.6937 87.5941 36.4067 87.4219C36.1771 87.2497 35.9475 87.0775 35.7179 86.8479C35.5457 86.6183 35.3735 86.3887 35.2587 86.1591C35.0865 85.8147 34.9717 85.4703 34.8569 85.1259C34.7421 84.6093 34.6847 84.0927 34.7421 83.4612C34.7995 82.6002 34.9717 81.7392 35.2013 80.8208C35.3735 80.3616 35.5457 79.845 35.7179 79.3858C35.7753 79.271 35.7753 79.1562 35.7179 79.0414C35.6605 78.9266 35.5457 78.8118 35.3735 78.8118C30.2074 79.2136 25.0987 80.8782 20.6214 83.6334C19.5308 84.2649 18.4975 85.0685 17.4643 85.8721C16.4311 86.6757 15.4553 87.5941 14.5943 88.5125C13.6758 89.4884 12.8148 90.579 12.0112 91.727C11.4372 92.588 10.9206 93.449 10.5762 94.3675C11.8964 94.8841 13.2166 95.4007 14.5943 95.8025C16.2015 96.3191 17.7513 96.7209 19.3585 97.1227C22.5156 97.8689 25.7301 98.4429 29.0019 98.9022C29.8056 99.017 30.6092 99.1318 31.4128 99.1892C36.6937 99.7632 41.9746 100.05 47.2555 99.9928C52.6512 99.9354 58.1043 99.591 63.4426 98.9022C66.7145 98.4429 69.9864 97.8689 73.2008 97.0653C76.3005 96.3191 79.3427 95.4007 82.2128 94.1953C82.2128 94.1953 82.2128 94.1953 82.1554 94.1953C83.3034 93.7361 84.3941 93.2194 85.4273 92.6454C85.5421 92.588 85.5995 92.5306 85.7143 92.4732C84.3941 90.579 82.8442 88.8569 81.0648 87.3645C79.4001 85.9295 77.3911 84.6667 75.2099 83.5186C73.3156 82.5428 71.1918 81.6244 68.6661 80.7634C67.6329 80.419 66.5423 80.0746 65.2221 79.6728L64.1888 79.3858L63.1556 79.0988C62.4094 78.8692 61.6632 78.6395 60.9744 78.4673C60.343 78.2951 59.769 78.1229 59.1949 78.0081H59.1375C59.0801 77.8933 58.9653 77.9507 58.9079 78.0655ZM32.3312 79.9598C32.2738 79.9598 32.159 80.0172 32.0442 80.0172C32.159 80.0172 32.2164 80.0172 32.3312 79.9598ZM29.0593 98.6151L29.4037 98.6725C29.3463 98.6725 29.2315 98.6726 29.1741 98.6151H29.0593Z" fill="#074E64"/>
<path d="M58.9085 78.0656C58.8511 78.0656 58.8511 78.123 58.8511 78.123C58.3918 78.6396 57.8752 79.1562 57.3012 79.6728L57.416 79.6154C55.5218 81.2801 53.2831 82.8299 50.4705 84.3223C49.7243 84.7241 48.9781 85.0685 48.404 85.3555C47.6004 85.7573 46.969 86.0444 46.395 86.274C44.673 87.0776 43.2379 87.5368 41.8603 87.8812C40.9419 88.1108 40.1383 88.1682 39.3347 88.1682H39.2199H39.1051H39.0477C38.531 88.1108 38.0144 88.0534 37.4978 87.9386C37.096 87.8238 36.7516 87.6516 36.4646 87.4794C36.235 87.3072 36.0054 87.135 35.7758 86.9054C35.6036 86.6758 35.4314 86.4462 35.3166 86.2166C35.1444 85.8721 35.0296 85.5277 34.9148 85.1833C34.8 84.6667 34.7426 84.1501 34.8 83.5761C34.8574 82.7151 34.9722 81.8541 35.2592 80.9356C35.4314 80.4764 35.6036 80.0172 35.7758 79.5006C35.8332 79.3858 35.8332 79.271 35.7758 79.1562C35.7184 79.0414 35.6036 78.9266 35.4314 78.9266C34.5704 78.984 33.7093 79.0988 32.9057 79.2136C32.7909 79.5006 32.6761 79.7302 32.5613 80.0172C32.1021 81.1078 31.7577 82.3133 31.5855 83.4613C31.5281 83.8631 31.4707 84.2649 31.4707 84.6667C31.4707 85.0685 31.4707 85.4703 31.5281 85.8722C31.5855 86.1592 31.6429 86.3888 31.7003 86.6758C31.7577 86.9628 31.8725 87.1924 31.9873 87.4794C32.1021 87.709 32.2169 87.9386 32.3317 88.1108C32.4465 88.3404 32.5613 88.5126 32.7335 88.7422C32.9057 88.9144 33.0779 89.144 33.2501 89.3162C33.4223 89.4884 33.5945 89.6606 33.7667 89.7754C34.3408 90.1772 34.9148 90.5216 35.5462 90.8086C35.948 90.9808 36.3498 91.153 36.809 91.2105C37.2108 91.3253 37.67 91.3827 38.1292 91.4401C38.7606 91.4975 39.3347 91.5549 39.9661 91.5549C40.5401 91.5549 41.1715 91.4975 41.7455 91.4401C41.7455 91.4401 41.7455 91.4401 41.6881 91.4401C43.0083 91.2679 44.3286 90.9234 45.6488 90.5216C46.8542 90.1198 48.0596 89.6606 49.2651 89.2014C50.6427 88.6274 51.9629 87.9386 53.2831 87.1924C54.546 86.4462 55.7514 85.6425 56.8994 84.7815C58.1622 83.8057 59.4251 82.7151 60.5731 81.5671C61.3767 80.7634 62.1803 79.9024 62.9265 79.0414C62.3525 78.8692 61.7211 78.697 61.1471 78.5248C60.5157 78.3526 59.9417 78.1804 59.3677 78.0656H59.3103C59.0807 77.8934 58.9659 77.9508 58.9085 78.0656Z" fill="#0A6F8F"/>
<path d="M19.1883 42.0176C19.0735 42.0176 18.9587 42.0176 18.8439 42.0176C18.2125 42.075 17.6959 42.1898 17.2366 42.4194C16.7774 42.5916 16.3182 42.8786 15.9738 43.1656C15.285 43.797 14.7684 44.6006 14.4814 45.5765C14.1944 46.4949 14.0796 47.5281 14.1944 48.5039C14.2518 49.0779 14.3092 49.5371 14.424 49.9963C14.5388 50.5129 14.711 51.0296 14.9406 51.4888C15.3424 52.4072 15.9164 53.3256 16.6052 54.1292C17.294 54.9328 18.0977 55.6791 19.0161 56.2531C19.9345 56.8845 20.9103 57.3437 21.8861 57.6307C22.862 57.9177 23.8378 58.0899 24.7562 58.0899C24.8136 58.0899 24.9284 58.0899 24.9858 58.0899C25.5598 58.0899 26.0764 58.0325 26.5356 57.9177C27.0522 57.8029 27.5689 57.6307 28.0855 57.4011C28.1429 57.3437 28.2003 57.2863 28.2577 57.2289C28.3151 57.1141 28.3151 56.9993 28.2577 56.9419C28.2003 56.8845 28.1429 56.7697 28.0281 56.7697C27.9707 56.7697 27.9707 56.7697 27.9133 56.7697C27.8559 56.7697 27.7985 56.7697 27.7411 56.8271C27.6263 56.8845 27.5114 56.9419 27.3966 56.9993L27.167 57.0567H27.1096L26.9374 57.1141C27.0522 56.9993 27.1096 56.8845 27.2244 56.7697C27.3966 56.5401 27.5114 56.3105 27.6263 56.0235C27.8559 55.5068 28.0281 54.9328 28.0855 54.3588C28.2003 53.2682 28.0855 52.0628 27.6837 50.8C27.1096 48.9631 26.1338 47.1837 24.8136 45.6339C24.4692 45.232 24.1248 44.8302 23.723 44.4858C23.4934 44.2562 23.3212 44.0266 23.0916 43.8544C22.6898 43.4526 22.2879 43.1082 21.8861 42.8786C20.9677 42.3046 20.0493 42.0176 19.1883 42.0176Z" fill="#FEA97E"/>
<path d="M17.0636 44.1989C16.9488 44.1989 16.834 44.3137 16.834 44.4285C16.834 44.5433 16.9488 44.6581 17.0636 44.6581C17.2932 44.6581 17.4654 44.6581 17.6376 44.6581C17.982 44.7155 18.269 44.7729 18.556 44.8877C18.9578 45.0599 19.3022 45.2895 19.6466 45.5191C20.0484 45.8061 20.3929 46.2079 20.6799 46.6097C20.9669 47.0115 21.1965 47.4133 21.4261 47.8725C21.4835 47.9873 21.5983 48.0447 21.6557 48.0447C21.7705 48.0447 21.8853 48.0447 21.9427 47.9873C22.0575 47.9299 22.1149 47.8725 22.1149 47.7577C22.1723 47.6429 22.1149 47.5281 22.0575 47.4707C21.5983 46.4949 20.8521 45.6913 19.9336 45.0599C19.0726 44.4859 18.0968 44.1989 17.121 44.1989C17.1784 44.1989 17.121 44.1989 17.0636 44.1989Z" fill="#CA8664"/>
<path d="M69.7008 45.5765C68.8397 45.5765 67.9213 45.8635 67.0603 46.3801C66.6585 46.6097 66.2567 46.9541 65.8549 47.3559C65.6253 47.5281 65.4531 47.7577 65.2235 47.9873C64.8791 48.3317 64.4773 48.7335 64.1328 49.1353C62.8126 50.6852 61.8368 52.522 61.2628 54.3014C60.861 55.5643 60.7462 56.7697 60.9184 57.8603C60.9758 58.4343 61.148 59.0083 61.3776 59.525C61.4924 59.812 61.6072 60.0416 61.7794 60.2712C61.8368 60.386 61.9516 60.5008 62.0664 60.6156C61.8942 60.5582 61.7794 60.5008 61.6072 60.4434C61.4924 60.386 61.3776 60.3286 61.2628 60.2712C61.2054 60.2138 61.148 60.2138 61.0906 60.2138C61.0332 60.2138 61.0332 60.2138 60.9758 60.2138C60.861 60.2138 60.8036 60.3286 60.7462 60.386C60.6888 60.4434 60.6888 60.5582 60.7462 60.673C60.8036 60.7878 60.861 60.8452 60.9184 60.8452C61.435 61.0748 61.9516 61.247 62.4682 61.3618C62.9274 61.4766 63.444 61.534 64.018 61.534C64.0754 61.534 64.1902 61.534 64.2476 61.534C65.1661 61.534 66.1419 61.3618 67.0603 61.0748C68.0361 60.7878 69.0119 60.3286 69.9304 59.6972C70.7914 59.1231 71.595 58.3769 72.3412 57.5733C73.03 56.7697 73.604 55.8513 74.0058 54.9329C74.2354 54.4736 74.4076 53.957 74.5225 53.4404C74.6373 52.9812 74.6947 52.522 74.7521 51.948C74.8095 50.9722 74.7521 49.939 74.4651 49.0205C74.178 48.0447 73.6614 47.2411 72.9726 46.6097C72.6282 46.2653 72.169 46.0357 71.7098 45.8635C71.1932 45.6339 70.6766 45.5191 70.1026 45.4617C69.9304 45.5765 69.8156 45.5765 69.7008 45.5765Z" fill="#FEBE9C"/>
<path d="M67.7491 49.5372C67.5769 49.652 67.5769 49.8242 67.6343 49.939C67.6917 50.0538 67.6917 50.1112 67.7491 50.226C67.9213 50.6278 68.0361 51.0296 68.0935 51.4315C68.1509 51.8907 68.1509 52.4073 68.0935 52.9239C67.9787 53.6701 67.8065 54.3589 67.5195 55.0477V54.9903C67.2325 55.6791 66.888 56.3105 66.4288 56.942C66.2566 57.1142 66.1418 57.2864 65.9696 57.4586C65.7974 57.6308 65.6252 57.803 65.3956 57.9752C65.3382 58.0326 65.2808 58.0326 65.2234 58.09C65.166 58.1474 65.166 58.2048 65.166 58.2622C65.2234 58.3196 65.2808 58.3196 65.3382 58.3196C65.9696 57.8604 66.5436 57.2864 67.0603 56.7124C67.6343 56.0235 68.0361 55.2773 68.3805 54.4737C68.7249 53.6701 68.8971 52.8091 68.8971 52.0055C68.8971 51.6037 68.8397 51.2018 68.7249 50.8C68.6675 50.5704 68.6101 50.3982 68.4953 50.226C68.4379 50.1112 68.3805 50.0538 68.3805 49.939C68.3231 49.8242 68.2657 49.7668 68.2083 49.7094C68.1509 49.652 68.0935 49.5946 68.0361 49.5946H67.9787C67.8065 49.4798 67.7491 49.4798 67.7491 49.5372Z" fill="#FEA06F"/>
<path d="M69.6998 48.504C69.4702 48.504 69.1832 48.6188 68.9536 48.6762C68.7239 48.7336 68.5517 48.8484 68.3221 48.9632C68.2073 49.0206 68.0925 49.078 68.0351 49.1354C67.9777 49.1928 67.9203 49.2502 67.8629 49.3076C67.8055 49.365 67.8055 49.4224 67.7481 49.4798C67.6907 49.5946 67.6907 49.7094 67.7481 49.7668C67.7481 49.8242 67.8055 49.8242 67.8629 49.8242C67.9203 49.8242 67.9777 49.8242 68.0351 49.8242H68.0925C68.1499 49.8242 68.1499 49.8242 68.2073 49.7668C68.2647 49.7668 68.3221 49.7094 68.3795 49.652C68.4943 49.5946 68.6665 49.5372 68.7813 49.4224C69.011 49.3076 69.298 49.1928 69.5276 49.1354C69.9294 49.0206 70.2738 48.9632 70.6756 48.9632C70.9626 48.9632 71.307 49.0206 71.594 49.078H71.5366C71.8236 49.1354 72.0532 49.2502 72.3402 49.365C72.455 49.4224 72.6272 49.5372 72.742 49.652C72.7994 49.7094 72.9142 49.7094 72.9716 49.5946C73.029 49.5372 73.029 49.4224 72.9142 49.365C72.5698 49.078 72.168 48.8484 71.7088 48.6762C71.4792 48.6188 71.307 48.5614 71.0774 48.504C70.8478 48.4466 70.5608 48.4466 70.3312 48.3892C70.2738 48.3892 70.2164 48.3892 70.159 48.3892C69.9868 48.504 69.8146 48.504 69.6998 48.504Z" fill="#FEA06F"/>
<path d="M28.4296 17.9665C27.5686 18.885 26.765 19.9182 26.0762 21.0088C25.3873 22.042 24.7559 23.2475 24.2393 24.5103C23.7227 25.7731 23.3209 27.0933 23.0339 28.5858C22.6321 30.48 22.4599 32.4316 22.4025 33.9241C22.3451 34.6703 22.3451 35.3591 22.2877 36.1053C22.1729 37.9995 22.1155 39.8938 21.8285 41.788C21.5989 42.9935 21.3693 44.1989 21.1397 45.3469C20.6231 47.9299 20.1064 50.6278 20.2212 53.3257C20.2786 54.0719 20.3934 54.8755 20.5657 55.7939C20.6805 56.4827 20.9101 57.1141 21.1397 57.8029C21.5415 59.0658 22.1155 60.3286 22.8043 61.4766C23.4357 62.5672 24.2393 63.6005 25.1577 64.6337C26.0188 65.5521 26.9946 66.4131 28.0852 67.2167C30.1516 68.7092 32.5051 69.8572 35.2029 70.6034C37.499 71.2922 39.9098 71.5792 42.4355 71.5792C42.7225 71.5792 43.0095 71.5792 43.2965 71.5792C46.0518 71.4644 48.8644 70.9478 51.6771 69.972C54.1453 69.111 56.3266 67.9629 58.2782 66.5853C60.2298 65.1503 61.8371 63.5431 62.9277 61.7062C62.9851 61.534 63.0999 61.4192 63.1573 61.247C63.3869 60.7304 63.6739 60.2712 63.9609 59.7546C64.5349 58.7214 65.2237 57.7455 65.9126 56.7697C66.0848 55.6791 66.257 54.5885 66.3718 53.4405C66.6588 51.3166 66.8884 49.1928 67.0606 47.0689C66.8884 46.3801 66.7736 45.6339 66.6588 44.8877C66.4866 43.7971 66.3718 42.649 66.257 41.5584C66.1422 40.4678 66.0848 39.3772 65.97 38.344C65.9126 37.8273 65.8552 37.3107 65.7978 36.7941C65.7404 36.2775 65.6829 35.7035 65.5681 35.1869C65.3385 34.0389 65.1089 32.9482 64.7071 31.8576C64.4201 30.9392 64.0183 30.0208 63.6165 29.1598C63.2147 28.2988 62.6981 27.4377 62.1815 26.6341C61.7223 25.8879 61.1483 25.1991 60.5742 24.5103C60.0002 23.8215 59.3688 23.2475 58.7374 22.6734C58.1634 22.1568 57.532 21.6976 56.9006 21.2384C56.2692 20.8366 55.5803 20.4348 54.8915 20.0904C54.2601 19.8034 53.6287 19.5164 52.9399 19.2868C52.3085 19.0572 51.6197 18.885 50.9883 18.7702C50.9883 18.7702 50.9883 18.7702 51.0457 18.7702C48.3478 18.2536 45.6499 18.3684 42.9521 18.4832C41.7467 18.5406 40.4838 18.598 39.2784 18.598C38.073 18.598 36.8676 18.5406 35.6622 18.4258C34.5141 18.2536 33.3661 18.024 32.2755 17.6221C31.7015 17.4499 31.1849 17.2203 30.6683 16.9333C30.3812 16.8185 30.1516 16.6463 29.8646 16.4741C29.2906 17.1055 28.8888 17.5647 28.4296 17.9665Z" fill="#FEBE9C"/>
<path d="M43.5823 12.9727H43.2379C40.8845 12.9727 38.531 13.2023 36.3498 13.6041C34.0537 14.0633 31.9299 14.6947 30.0357 15.5557C28.7154 16.1297 27.51 16.8759 26.362 17.6795C26.3046 17.737 26.2472 17.7944 26.1898 17.9092C26.1898 17.9666 26.1898 18.0814 26.1898 18.1388C26.1324 18.2536 26.1898 18.3684 26.2472 18.4832C27.7396 20.4922 29.3469 22.2716 31.1263 23.8789C33.0205 25.5435 34.9722 26.9785 36.9812 28.0692C38.0144 28.6432 39.1051 29.1598 40.2531 29.5616C41.3437 29.9634 42.4917 30.3078 43.6397 30.5374C44.9026 30.767 46.1654 30.9392 47.4856 30.9392C48.5762 30.9392 49.7243 30.8244 50.8149 30.6522C51.5037 30.5374 52.2499 30.3652 52.9387 30.193C53.4553 30.0208 53.9719 29.8486 54.4886 29.7338L55.0052 29.5616C56.2106 29.1598 57.4734 28.8154 58.7936 28.7006C58.9084 28.7006 59.0232 28.7006 59.1954 28.7006C59.5973 28.7006 59.9417 28.758 60.2861 28.8154C60.6305 28.8728 60.9749 28.9876 61.3193 29.1598C61.6637 29.332 62.0081 29.5616 62.2377 29.7912C62.4673 29.9634 62.6395 30.193 62.7543 30.4226C62.8691 30.6522 62.9839 30.8244 63.0413 31.1114C63.1561 31.3984 63.2135 31.6854 63.2135 32.0298C63.2135 32.6038 63.1561 33.1779 63.0413 33.8667C62.8117 35.0147 62.4673 36.1627 62.1229 37.2533C62.0081 37.5977 61.8933 37.9422 61.7785 38.2866C61.3193 39.8938 60.7453 41.788 60.4009 43.7971C60.2287 44.8303 60.1139 45.6339 60.1139 46.4375C60.1139 47.2985 60.2287 48.0448 60.4009 48.6762C60.5157 48.9632 60.6305 49.2502 60.8601 49.4798C61.0897 49.7094 61.3193 49.939 61.6637 50.1112C61.9507 50.226 62.2951 50.3408 62.6395 50.3408C62.9265 50.3408 63.2709 50.2834 63.5579 50.226C64.419 49.9964 65.1078 49.5372 65.6818 49.1354C66.3132 48.6762 66.9446 48.1596 67.7482 47.4707C68.2648 46.9541 68.8388 46.3801 69.5277 45.6913C69.7573 45.4043 70.0443 45.1173 70.2739 44.8303L70.6757 44.3711C70.7331 44.3137 70.7905 44.2563 70.7905 44.1989C70.8479 44.1989 70.9627 44.1415 71.0201 44.0267C71.5367 43.2231 71.9385 42.1898 72.2255 40.927C72.4551 39.8938 72.6273 38.7458 72.6847 37.3681C72.7421 36.3349 72.7421 35.1869 72.6847 34.0389C72.6273 32.9483 72.5125 31.8576 72.3403 30.767C71.9959 28.7006 71.4219 26.8063 70.5609 25.1417C69.7573 23.5345 68.6092 22.042 67.289 20.7218C65.9688 19.459 64.3041 18.311 62.4099 17.3351C60.6305 16.4167 58.6214 15.6131 56.4402 14.9817C54.4312 14.3503 52.2499 13.8911 50.0113 13.6041C48.0022 13.1449 45.7636 12.9727 43.5823 12.9727Z" fill="#192E35"/>
<path d="M29.463 18.0239C29.4056 18.0813 29.4056 18.1961 29.463 18.2535C30.2666 19.1145 31.1276 19.9755 31.9886 20.7217C32.907 21.468 33.8255 22.2142 34.8013 22.8456C35.7771 23.477 36.8103 24.051 37.9009 24.5676C38.9916 25.0842 40.0822 25.5434 41.2302 25.8878C41.8042 26.06 42.3782 26.2323 42.9522 26.4045C43.5263 26.5767 44.1003 26.6915 44.6743 26.8063C45.8223 27.0359 47.0277 27.1507 48.2332 27.2081C50.644 27.3229 53.0548 27.0933 55.4083 26.4619C55.8675 26.3471 56.3267 26.1748 56.7859 26.0026C57.0729 25.8878 57.2451 25.6008 57.1303 25.3138C57.0155 25.0268 56.7285 24.8546 56.4415 24.9694C55.3509 25.3138 54.2603 25.6008 53.1696 25.8304H53.3418C51.0458 26.2323 48.7498 26.3471 46.4537 26.1748C46.5111 26.1748 46.5111 26.1748 46.5685 26.1748C45.4205 26.06 44.2725 25.9452 43.1244 25.6582C42.0338 25.4286 40.8858 25.0842 39.8526 24.6824C38.8194 24.2806 37.7861 23.8214 36.7529 23.3048C35.7197 22.7882 34.7439 22.1568 33.7681 21.468C33.7681 21.468 33.7681 21.468 33.8255 21.5254C32.333 20.4921 30.9554 19.2867 29.6926 17.9091C29.6926 17.8517 29.6352 17.8517 29.5778 17.8517C29.5778 17.9665 29.5204 18.0239 29.463 18.0239Z" fill="#0F1D21"/>
<path d="M56.6125 22.5013C56.0384 22.5587 55.407 22.6735 54.833 22.7309C54.259 22.8457 53.6276 22.9031 53.0536 23.0179C52.4796 23.1327 51.9056 23.2475 51.2741 23.3049C50.7001 23.3623 50.1261 23.4771 49.5521 23.4771C49.0355 23.5345 48.5189 23.5345 47.9449 23.5345C47.8875 23.5345 47.8301 23.5919 47.8301 23.6493C47.8301 23.7067 47.8875 23.7641 47.9449 23.7641C48.7485 23.8215 49.5521 23.7641 50.3557 23.7067C51.2741 23.6493 52.1352 23.5345 53.0536 23.4197C53.5128 23.3623 53.972 23.3049 54.3738 23.2475C54.833 23.1901 55.3496 23.1901 55.8088 23.1327C56.6699 23.0753 57.5309 23.0753 58.3919 23.1327C58.7937 23.1901 59.1955 23.2475 59.5973 23.3049C59.9991 23.3623 60.3435 23.4771 60.7453 23.6493H60.6879C60.6879 23.6493 60.7453 23.6493 60.7453 23.7067H60.8027C60.8601 23.7067 60.9175 23.7641 60.9749 23.7641C61.0323 23.7641 61.0323 23.7641 61.0897 23.8215C61.1471 23.8215 61.2619 23.8215 61.3193 23.8215C61.4341 23.7641 61.549 23.7067 61.6064 23.5919C61.6638 23.4771 61.6638 23.3623 61.6638 23.2475C61.6064 23.1327 61.549 23.0179 61.4342 22.9605C61.2045 22.8457 60.9749 22.7883 60.6879 22.6735C60.4583 22.6161 60.1713 22.5587 59.9417 22.5013C59.3677 22.3865 58.8511 22.3865 58.2771 22.3865C58.2197 22.3865 58.2197 22.3865 58.1623 22.3865C57.6457 22.4439 57.1291 22.4439 56.6125 22.5013Z" fill="#0F1D21"/>
<path d="M65.2224 34.2685C65.1076 35.0721 64.9354 35.8757 64.6484 36.6219C64.3614 37.3681 64.0744 38.0569 63.7299 38.7458C63.5577 39.0902 63.3855 39.492 63.2707 39.8364C63.0985 40.2382 62.9837 40.64 62.8115 40.9844C62.6967 41.3288 62.5819 41.7306 62.4671 42.075C62.3523 42.4768 62.2949 42.8786 62.2375 43.2805C62.1227 44.1989 62.1227 45.1173 62.3523 46.0357C62.4097 46.1505 62.4671 46.2079 62.5245 46.2653C62.6393 46.3801 62.8115 46.4375 62.9263 46.4375C63.0985 46.4375 63.2133 46.3801 63.3281 46.2653C63.4429 46.1505 63.5003 45.9783 63.5003 45.8635C63.4429 45.4043 63.3281 44.9451 63.3281 44.4859C63.3281 44.0841 63.3281 43.6823 63.3281 43.2805C63.3855 42.936 63.4429 42.5342 63.5003 42.1898C63.5577 41.8454 63.6151 41.4436 63.7299 41.0992C63.8448 40.7548 63.9596 40.353 64.0744 40.0086C64.1892 39.6642 64.304 39.2624 64.4188 38.918C64.6484 38.1718 64.878 37.4255 65.0502 36.7367C65.165 36.3349 65.2224 35.9905 65.3372 35.5887C65.3946 35.1869 65.452 34.7851 65.5094 34.4407C65.5094 34.3833 65.5094 34.3259 65.3946 34.2685C65.2798 34.1537 65.2224 34.1537 65.2224 34.2685Z" fill="#0F1D21"/>
<path d="M50.1258 9.12682C49.437 9.18422 48.7482 9.29902 48.0594 9.41382C46.6817 9.64343 45.3041 9.98783 43.9265 10.3896C43.1803 10.6192 42.434 10.8488 41.6878 11.1359C41.573 11.1933 41.5156 11.3081 41.5156 11.4229C41.573 11.5377 41.6878 11.5951 41.8026 11.5951C43.5247 11.0211 45.2467 10.5618 47.0261 10.2748C47.0261 10.2748 47.0261 10.2748 47.0835 10.2748C47.0835 10.2748 47.0835 10.2748 47.1409 10.2748C48.1168 10.1026 49.0926 10.0452 50.011 10.0452C50.9868 10.0452 52.02 10.0452 52.9959 10.16C54.6605 10.3322 56.3251 10.734 57.875 11.3655C57.8176 11.3655 57.7602 11.3081 57.7028 11.3081C58.0472 11.4229 58.3916 11.5951 58.7934 11.7673C59.1952 11.9395 59.5396 12.1117 59.9414 12.3413C60.1136 12.3987 60.2858 12.4561 60.458 12.3987C60.6302 12.3413 60.745 12.2265 60.8598 12.1117C61.032 11.8247 60.9172 11.4229 60.5728 11.2507C59.884 10.9063 59.1378 10.6192 58.449 10.3322C57.7601 10.1026 57.0713 9.87303 56.3825 9.70083C55.0049 9.35642 53.6273 9.24162 52.2496 9.18422C52.0774 9.18422 51.9626 9.18422 51.7904 9.18422C51.2164 9.06941 50.6998 9.06941 50.1258 9.12682Z" fill="#0F1D21"/>
<path d="M23.6631 37.5977C23.9501 38.6309 25.9592 38.9179 28.1404 38.2865C30.3217 37.6551 31.8715 36.3349 31.5845 35.3016C31.2975 34.2684 29.2884 33.9814 27.1072 34.6128C24.926 35.2442 23.3761 36.6219 23.6631 37.5977Z" fill="#0F1D21"/>
<path d="M47.0267 36.3923C46.6249 37.4829 48.2895 39.0902 50.7003 39.9512C53.1112 40.8122 55.4072 40.5826 55.7516 39.492C56.1535 38.4014 54.4888 36.7941 52.078 35.9331C49.7245 35.0721 47.4285 35.2443 47.0267 36.3923Z" fill="#0F1D21"/>
<path d="M28.198 43.5675C27.4518 43.5675 26.8204 44.7155 26.763 46.208C26.7056 46.9542 26.8204 47.643 26.9926 48.1596C27.2222 48.6762 27.5092 49.0206 27.8536 49.0206C28.5998 49.0206 29.2312 47.8726 29.346 46.3802C29.346 44.8877 28.8868 43.6249 28.198 43.5675Z" fill="#192E35"/>
<path d="M49.3229 44.6007C48.5767 44.6007 47.9453 45.7487 47.8305 47.2412C47.7157 48.7336 48.2323 49.9964 48.9211 50.0538C49.6673 50.0538 50.2987 48.9058 50.4135 47.4134C50.4709 46.6672 50.3561 45.9783 50.1839 45.4617C50.0117 44.8877 49.6673 44.6007 49.3229 44.6007Z" fill="#192E35"/>
<path d="M41.9763 55.3921C41.9189 55.3921 41.8041 55.4495 41.7467 55.5069L41.5745 55.7365L41.4597 55.9661C41.3449 56.1383 41.2301 56.2531 41.1153 56.4253C40.8857 56.6549 40.7135 56.8845 40.4265 57.0567C40.1969 57.2289 40.0247 57.2863 39.7951 57.4011C39.5655 57.5159 39.2784 57.5733 39.0488 57.5733C38.9914 57.5733 38.934 57.5733 38.8766 57.5733C38.7044 57.5733 38.5322 57.5733 38.3026 57.5159H38.1878C38.073 57.5159 38.0156 57.5733 38.0156 57.6307C38.0156 57.6881 38.0156 57.7455 38.0156 57.7455C38.0156 57.8029 38.073 57.8029 38.1304 57.8029C38.4174 57.8603 38.7044 57.9177 38.9914 57.9177C39.1062 57.9177 39.221 57.9177 39.3933 57.9177C39.7951 57.8603 40.1969 57.7455 40.5413 57.5733C40.8857 57.4011 41.2301 57.1715 41.5171 56.8271C41.8615 56.4827 42.0337 56.1383 42.1485 55.7365C42.2059 55.6217 42.1485 55.5069 42.0337 55.4495C42.0337 55.3921 42.0337 55.3921 41.9763 55.3921Z" fill="#192E35"/>
<path d="M38.1874 39.8938C38.13 39.8938 38.13 39.8938 38.0726 39.9512L38.0152 40.0086C38.13 41.9602 38.0726 43.6249 37.843 45.1747C37.6708 46.3227 37.4986 47.1837 37.1542 48.0448C36.7524 47.8152 36.3506 47.643 35.8914 47.4707C35.4895 47.3559 35.0877 47.2411 34.7433 47.2411H34.6859C34.0545 47.2411 33.5379 47.4708 33.1361 47.8726C32.7917 48.2744 32.6195 48.8484 32.6769 49.4224C32.7343 50.0538 32.9639 50.7426 33.3657 51.3166C33.5953 51.661 33.9397 52.0628 34.2841 52.3498C34.6859 52.6943 35.1451 52.9813 35.6618 53.2109C35.7192 53.2683 35.7766 53.2683 35.8914 53.2683C35.9488 53.2683 35.9488 53.2683 36.0062 53.2683C36.121 53.2683 36.1784 53.1535 36.2358 53.0961C36.2932 52.9813 36.2932 52.9239 36.2932 52.8091C36.2358 52.6943 36.1784 52.5795 36.0062 52.5221C35.8914 52.4646 35.834 52.4647 35.7192 52.4073C35.3747 52.235 35.0303 52.0628 34.7433 51.8332C34.4563 51.6036 34.1693 51.374 33.9971 51.087C33.8249 50.8 33.6527 50.5704 33.4805 50.2834C33.3657 49.9964 33.3083 49.7668 33.2509 49.5372C33.2509 49.3076 33.2509 49.1354 33.2509 48.9058C33.2509 48.7336 33.3083 48.6188 33.3657 48.504C33.4231 48.3892 33.4805 48.2744 33.5379 48.217V48.1596L33.5953 48.1022C33.6527 48.0448 33.7101 48.0448 33.7101 47.9874C33.8249 47.93 33.8823 47.8726 33.9971 47.8152C34.1119 47.7578 34.2841 47.7004 34.4563 47.7004C34.5711 47.7004 34.6859 47.7004 34.8007 47.7004C34.9155 47.7004 35.0877 47.7004 35.2025 47.7004H35.1451C35.5469 47.7578 36.0062 47.93 36.4654 48.1022C36.695 48.217 36.9246 48.3318 37.1542 48.4466H37.2116C37.269 48.4466 37.3264 48.3892 37.3838 48.3318C37.6134 47.7004 37.7856 47.0689 37.9004 46.3801C38.0152 45.7487 38.13 45.0599 38.1874 44.3137C38.3022 43.0509 38.3022 41.6732 38.2448 40.066C38.3022 39.9512 38.2448 39.8938 38.1874 39.8938Z" fill="#CA8664"/>
</svg>
