<svg width="100" height="100" viewBox="0 0 100 100" fill="none" xmlns="http://www.w3.org/2000/svg">
<path d="M50.1842 0H50.012C37.4412 0.0574011 25.6165 4.9365 16.7194 13.8337C7.8222 22.7309 2.9431 34.4981 3.0005 47.0115C3.0579 72.7846 24.1815 93.7361 50.1268 93.7361H50.299C62.8699 93.6787 74.6945 88.7996 83.5917 79.9024C92.4889 71.0052 97.368 59.238 97.3106 46.7245C97.1958 20.9514 76.0721 0 50.1842 0Z" fill="#E7EEEF"/>
<path d="M72.6862 23.8789C72.5714 23.8789 72.4566 23.9363 72.4566 23.9937C72.3992 24.1085 72.3992 24.2233 72.514 24.3381C72.4566 24.4529 72.3992 24.6251 72.3418 24.7399C72.2844 24.8547 72.227 25.0269 72.1696 25.1417C72.0548 25.4287 71.94 25.7731 71.8252 26.0602L71.7103 26.3472C71.5381 26.9212 71.3085 27.4952 71.0789 28.0692C70.9641 28.2414 70.9067 28.471 70.7919 28.7006L70.6771 28.9876C70.5049 29.332 70.3327 29.6764 70.1605 30.0208C69.8735 30.5948 69.5291 31.1689 69.2421 31.7429L69.1273 31.9725C68.4959 33.1779 67.7497 34.4981 66.8887 35.9331C66.5442 36.5646 66.1998 37.1386 65.798 37.77C65.511 38.2866 65.1666 38.8032 64.8796 39.3772C64.2482 40.4104 63.789 41.3289 63.3298 42.1899C62.7558 43.3953 62.2966 44.4285 62.0096 45.4043C61.6078 46.6098 61.4355 47.7004 61.4355 48.6762C61.4355 49.2502 61.4929 49.7668 61.6077 50.2834C61.7225 50.8 61.9522 51.3167 62.2392 51.7759C62.5262 52.2925 62.928 52.8091 63.3872 53.2683C63.8464 53.7275 64.363 54.1293 64.8796 54.4163C65.3962 54.7033 65.9702 54.8755 66.5442 54.9329C66.6016 54.9329 66.7164 54.9329 66.7738 54.9329C67.2905 54.9329 67.8071 54.8181 68.3237 54.5311C68.7829 54.3015 69.2421 54.0145 69.7013 53.5553C70.1605 53.0961 70.5623 52.5795 70.9067 52.1777C71.3085 51.6611 71.5955 51.2019 71.8826 50.6852C72.1696 50.1686 72.3992 49.652 72.6862 48.9058C72.8584 48.504 73.0306 48.0448 73.1454 47.643C73.375 46.9542 73.662 46.208 73.949 45.5191L74.0064 45.4617C74.1212 45.2321 74.236 44.9451 74.4082 44.7155C74.5804 44.3711 74.81 44.0841 74.9822 43.8545C75.4414 43.1657 75.7858 42.6491 76.0728 42.1899C76.8765 40.8696 77.4505 39.6642 77.8523 38.5162C78.3115 37.196 78.5411 35.8757 78.5411 34.5555C78.5411 33.3501 78.3115 32.0873 77.9097 30.8244C77.4505 29.4468 76.7617 28.184 75.8432 26.9786C75.0396 25.9453 74.1212 24.9695 72.8584 23.9937C72.801 23.8789 72.7436 23.8789 72.6862 23.8789Z" fill="#192E35"/>
<path d="M72.5698 23.9937C72.455 24.0511 72.3402 24.0511 72.2254 24.1085C72.168 24.1085 72.168 24.1085 72.168 24.1659C72.168 24.1659 72.168 24.2233 72.168 24.2807C72.168 24.3381 72.168 24.3381 72.2254 24.3381C72.2254 24.3381 72.2828 24.3955 72.3402 24.3381C72.455 24.2807 72.5698 24.2807 72.6846 24.2233C72.742 24.2233 72.742 24.2233 72.742 24.1659C72.742 24.1659 72.742 24.1085 72.742 24.0511C72.742 23.9937 72.742 23.9937 72.6846 23.9937C72.6272 23.9937 72.6272 23.9937 72.5698 23.9937Z" fill="#192E35"/>
<path d="M72.5124 23.9363C72.3976 23.9937 72.2828 23.9937 72.2254 24.0511C72.168 24.0511 72.168 24.1085 72.168 24.1085C72.168 24.1659 72.168 24.1659 72.168 24.2233C72.168 24.2807 72.2254 24.2807 72.2254 24.2807C72.2828 24.2807 72.2828 24.2807 72.3402 24.2807C72.455 24.2233 72.5698 24.2233 72.6272 24.1659C72.6846 24.1659 72.6846 24.1085 72.6846 24.1085C72.6846 24.0511 72.6846 24.0511 72.6846 23.9937C72.6846 23.9363 72.6272 23.9363 72.6272 23.9363C72.5698 23.9363 72.5698 23.9363 72.5124 23.9363Z" fill="#192E35"/>
<path d="M72.5698 23.9363C72.455 23.9937 72.3402 23.9937 72.2254 24.0511L72.168 24.1085C72.168 24.1659 72.168 24.1659 72.168 24.2233C72.168 24.2807 72.2254 24.2807 72.2254 24.2807C72.2828 24.2807 72.2828 24.2807 72.3402 24.2807C72.455 24.2233 72.5698 24.2233 72.6846 24.1659L72.742 24.1085C72.742 24.0511 72.742 24.0511 72.742 23.9937C72.742 23.9363 72.6846 23.9363 72.6846 23.9363C72.6272 23.9363 72.6272 23.9363 72.5698 23.9363Z" fill="#192E35"/>
<path d="M72.5698 23.8789C72.5124 23.8789 72.455 23.8789 72.3976 23.8789C72.3402 23.8789 72.2828 23.9363 72.2254 23.9363L72.168 23.9937C72.168 23.9937 72.168 24.0511 72.168 24.1085L72.2254 24.1659C72.2828 24.1659 72.2828 24.1659 72.3402 24.1659H72.3976C72.455 24.1659 72.5698 24.1085 72.6272 24.1085C72.6846 24.1085 72.742 24.0511 72.742 23.9937C72.6846 23.9363 72.6272 23.8789 72.5698 23.8789Z" fill="#192E35"/>
<path d="M72.514 23.8789C72.4566 23.8789 72.3992 23.8789 72.3992 23.9363C72.3418 23.9363 72.3418 24.0511 72.3418 24.1085L72.3992 24.1659C72.4566 24.1659 72.4566 24.1659 72.514 24.1659C72.5714 24.1659 72.6288 24.1659 72.6288 24.1085C72.6862 24.1085 72.6862 23.9937 72.6862 23.9363L72.6288 23.8789C72.6288 23.8789 72.5714 23.8789 72.514 23.8789C72.5714 23.8789 72.5714 23.8789 72.514 23.8789Z" fill="#192E35"/>
<path d="M76.0146 27.4952C76.1868 28.0692 76.3016 28.5858 76.359 29.1599C76.4164 29.7339 76.4738 30.2505 76.4738 30.8245C76.4738 31.3411 76.4738 31.9151 76.4164 32.4317C76.359 33.0057 76.2442 33.5797 76.1294 34.1538C75.9572 34.7278 75.785 35.2444 75.5554 35.761C75.3258 36.2776 75.0388 36.7368 74.7518 37.2534C74.1778 38.1718 73.4889 39.0328 72.8001 39.8939C72.3983 40.3531 72.0539 40.8697 71.7095 41.3863C71.3651 41.9029 71.0207 42.4195 70.7337 42.9361C70.1023 43.9693 69.5857 45.1174 69.069 46.208C67.921 49.0206 67.1174 51.9481 66.6582 54.933C67.1174 54.933 67.6914 54.8182 68.208 54.5312C68.6672 54.3016 69.1265 53.9571 69.5857 53.5553C70.0449 53.0961 70.4467 52.5795 70.7911 52.1777C71.1929 51.6611 71.4799 51.1445 71.7669 50.6853C72.0539 50.1687 72.2835 49.6521 72.5705 48.9058C72.7427 48.504 72.9149 48.0448 73.0297 47.643V47.5856C73.2593 46.9542 73.5463 46.208 73.8333 45.5192L73.8907 45.4618C74.0055 45.2322 74.1203 44.9452 74.2926 44.7156C74.4648 44.3712 74.6944 44.0842 74.8666 43.7971C75.3258 43.1083 75.6702 42.5917 75.9572 42.1325C76.7608 40.8123 77.3348 39.6069 77.7366 38.4588C78.1958 37.1386 78.4254 35.8184 78.4254 34.4982C78.4254 33.2927 78.1958 32.0299 77.794 30.7671C77.3348 29.4469 76.7034 28.184 75.8424 27.036C75.8998 27.2082 75.9572 27.3804 76.0146 27.4952Z" fill="#0F1D21"/>
<path d="M23.3199 20.9514C22.4589 21.0662 21.6553 21.2958 20.9664 21.6402C20.335 21.9272 19.6462 22.329 19.0148 22.8457C18.4982 23.3049 17.9816 23.8789 17.465 24.5677C17.0632 25.1417 16.6614 25.8305 16.2596 26.6341C15.9151 27.3229 15.6281 28.1266 15.3985 28.9876C15.1689 29.7338 14.9967 30.5948 14.8245 31.5706C14.5949 33.1779 14.5375 34.9573 14.5949 36.7367C14.7097 38.4588 14.9967 40.066 15.3985 41.5584C15.6281 42.2472 15.8577 42.9361 16.1448 43.5675C16.3744 44.0841 16.604 44.4859 16.8336 44.8877C17.0632 45.2895 17.3502 45.6913 17.752 46.0357C17.8668 46.0931 17.9242 46.2079 18.039 46.2653C18.1538 46.3227 18.2686 46.3801 18.326 46.4375C18.4982 46.5523 18.7278 46.5523 18.9 46.5523H18.9574C19.0722 46.5523 19.187 46.5523 19.3018 46.4949C19.4166 46.4375 19.5314 46.3801 19.6462 46.3227C19.9332 46.1505 20.1628 45.9209 20.335 45.6913C20.5072 45.4617 20.6794 45.2321 20.8516 44.8877C21.0238 44.6007 21.1387 44.3137 21.3109 43.9693C21.5405 43.5101 21.7127 42.9361 21.8849 42.2472C22.2293 40.927 22.4589 39.6068 22.5737 38.344C22.6885 37.5403 22.7459 36.6793 22.8607 35.8757C22.9181 35.4165 22.9181 35.0147 22.9755 34.5555C23.0329 33.8667 23.1477 33.1205 23.2625 32.4316V32.2594L23.3773 31.628C23.5495 30.48 23.6643 29.3894 23.7791 28.2988C23.8365 27.7248 23.8939 27.2081 23.9513 26.6341C24.0087 26.1175 24.0087 25.5435 24.0661 24.9695V24.8547C24.0661 24.2807 24.0661 23.8215 24.0661 23.3049C24.0661 23.0179 24.0087 22.7309 23.9513 22.3864C23.8939 22.0994 23.8939 21.8124 23.7217 21.5254C23.6643 21.3532 23.5495 21.2384 23.4347 21.2384C23.4921 21.0088 23.4347 20.9514 23.3199 20.9514Z" fill="#0F1D21"/>
<path d="M46.166 64.2893C45.6494 64.2893 45.0754 64.3467 44.5588 64.4615C43.009 64.7485 41.5165 65.4373 40.4259 66.528C39.8519 67.0446 39.3927 67.676 39.0483 68.4222C38.8761 68.7666 38.7039 69.1684 38.5891 69.5702C38.5317 69.7998 38.4743 69.972 38.4169 70.2016C38.3595 69.9146 38.3021 69.685 38.3021 69.398C38.2447 69.2258 38.0725 69.111 37.9577 69.111C37.9003 69.111 37.9003 69.111 37.8429 69.111C37.7281 69.111 37.6707 69.2258 37.6133 69.2832C37.5559 69.3406 37.5559 69.4554 37.5559 69.5702C37.6707 70.0294 37.7281 70.546 37.7855 71.0626V71.12C37.9577 72.5551 37.9577 73.7031 37.8429 74.7363C37.7281 75.3677 37.6133 75.9417 37.3837 76.4583C37.2115 76.8602 37.0393 77.2046 36.7522 77.549C36.5226 77.836 36.293 78.0656 36.006 78.2952C35.719 78.5248 35.3746 78.697 35.0302 78.8692C34.5136 79.0988 33.997 79.2136 33.3656 79.3284C33.136 79.3858 32.9064 79.3858 32.6194 79.3858C32.3898 79.3858 32.275 79.558 32.275 79.7302V79.7876L32.2176 79.845C31.5861 80.706 31.0121 81.567 30.6103 82.4855C30.3807 82.9447 30.2659 83.4039 30.1511 83.8057C30.0363 84.2075 29.9789 84.6093 29.8641 85.1259C29.6345 86.7906 30.0363 88.3978 30.9547 89.6032C31.4139 90.2346 32.0454 90.7512 32.7342 91.153C33.4804 91.5548 34.3414 91.8419 35.3172 91.9567C35.719 92.0141 36.1782 92.0141 36.6374 92.0141C37.2689 92.0141 37.9003 91.9567 38.5891 91.8419C39.7945 91.6696 41.0573 91.3252 42.3776 90.866C44.731 90.0624 47.0845 88.7996 49.4953 87.135C51.6191 85.6999 53.6856 83.9779 55.6372 81.9689C55.9816 81.6245 56.3834 81.2226 56.7278 80.8208C57.1297 80.419 57.5315 79.9598 57.9333 79.5006C57.9907 79.5006 57.9907 79.5006 58.0481 79.5006C58.2203 79.5006 58.3351 79.3858 58.3925 79.2136C58.3925 79.0988 58.3925 79.0414 58.3351 78.9266C58.2777 78.8692 58.2203 78.8118 58.1055 78.7544C57.7037 78.6396 57.2445 78.5248 56.8426 78.3526C56.326 78.123 55.8094 77.836 55.3502 77.4916C54.9484 77.1472 54.604 76.8028 54.317 76.4583C53.9726 75.9991 53.6856 75.4825 53.456 74.9085C53.169 74.1623 52.9394 73.3587 52.8246 72.4403C52.595 70.833 52.6524 69.111 52.9394 66.9872C52.9394 66.8724 52.9968 66.7002 52.9968 66.5854C52.9968 66.4705 52.9968 66.4131 52.9394 66.2983C52.882 66.2409 52.8246 66.1835 52.7098 66.1261C52.6524 66.1261 52.6524 66.1261 52.595 66.1261C52.5376 66.1261 52.4802 66.1261 52.4228 66.1835C52.3654 66.2409 52.2506 66.2983 52.2506 66.4131C52.1932 66.7002 52.1932 66.9298 52.1357 67.2168C51.8487 66.815 51.5043 66.4131 51.1025 66.0687C50.5285 65.5521 49.8397 65.1503 49.0361 64.8059C48.2899 64.5189 47.2567 64.2893 46.166 64.2893Z" fill="#FEBE9C"/>
<path d="M44.501 64.4041C42.9512 64.6911 41.4587 65.4374 40.3681 66.4706C39.7941 66.9872 39.3349 67.676 38.9905 68.3648C38.8183 68.7092 38.6461 69.111 38.5313 69.5128C38.4739 69.685 38.4165 69.9146 38.3591 70.1442C38.3591 69.8572 38.3017 69.5702 38.2443 69.3406C38.1869 69.1684 38.0147 69.0536 37.8999 69.0536C37.8999 69.0536 37.8425 69.0536 37.7851 69.0536C37.6703 69.0536 37.6129 69.1684 37.5554 69.2258C37.498 69.2832 37.498 69.398 37.498 69.5128C37.6128 69.972 37.6703 70.4887 37.7277 71.0053V71.0627C37.8999 72.4977 37.8999 73.6457 37.7851 74.6789C37.7277 74.9659 37.7277 75.1955 37.6703 75.4252C38.1295 75.4826 38.5887 75.4826 39.0479 75.4252C39.0479 75.4252 39.0479 75.4252 38.9905 75.4252C40.5403 75.3678 42.0901 75.0807 43.5826 74.6215C45.2472 74.1049 46.797 73.4161 48.2321 72.4977C49.3801 71.7515 50.4707 70.8905 51.3891 69.9146C51.7335 69.5128 52.0779 69.1684 52.3649 68.7092C52.5371 68.4222 52.7094 68.1926 52.8816 67.9056C52.939 67.6186 52.939 67.2742 52.9964 66.9872C52.9964 66.8724 53.0538 66.7002 53.0538 66.5854C53.0538 66.4706 53.0538 66.4132 52.9964 66.2984C52.939 66.241 52.8816 66.1836 52.7667 66.1262C52.7093 66.1262 52.7093 66.1262 52.6519 66.1262C52.5945 66.1262 52.5371 66.1262 52.4797 66.1836C52.4223 66.241 52.3075 66.2984 52.3075 66.4132C52.2501 66.7002 52.2501 66.9298 52.1927 67.2168C51.9057 66.815 51.5613 66.4132 51.1595 66.0688C50.5855 65.5522 49.8967 65.1504 49.0931 64.8059C48.1747 64.4041 47.1414 64.2319 46.0508 64.2319C45.649 64.2893 45.075 64.3467 44.501 64.4041Z" fill="#FF9B68"/>
<path d="M56.7849 78.0655C56.7275 78.0655 56.7275 78.1229 56.7275 78.1229C56.2683 78.6396 55.7517 79.1562 55.1777 79.6728L55.2351 79.6154C53.3982 81.28 51.1022 82.8298 48.2895 84.3223C47.6007 84.6667 46.9119 85.0111 46.2231 85.3555C45.4195 85.7573 44.788 86.0443 44.214 86.2739C42.492 87.0775 41.057 87.5367 39.6793 87.8811C38.7609 88.1107 37.9573 88.1681 37.1537 88.1681C37.0963 88.1681 36.9815 88.1681 36.9241 88.1681C36.8667 88.1681 36.8667 88.1681 36.8667 88.1681C36.3501 88.1107 35.8335 88.0533 35.3169 87.8811C34.915 87.7663 34.5706 87.5941 34.2836 87.4219C34.054 87.2497 33.8244 87.0775 33.5948 86.8479C33.4226 86.6183 33.2504 86.3887 33.1356 86.1591C32.9634 85.8147 32.8486 85.4703 32.7338 85.1259C32.619 84.6093 32.5616 84.0927 32.619 83.4612C32.6764 82.6002 32.8486 81.7392 33.0782 80.8208C33.2504 80.3616 33.4226 79.845 33.5948 79.3858C33.6522 79.271 33.6522 79.1562 33.5948 79.0414C33.5374 78.9266 33.4226 78.8118 33.2504 78.8118C28.0843 79.2136 22.9756 80.8782 18.4983 83.6334C17.4077 84.2649 16.3745 85.0685 15.3413 85.8721C14.308 86.6757 13.3322 87.5941 12.4712 88.5125C11.5528 89.4884 10.6918 90.579 9.88815 91.727C9.31414 92.588 8.79753 93.449 8.45312 94.3675C9.77335 94.8841 11.0936 95.4007 12.4712 95.8025C14.0784 96.3191 15.6283 96.7209 17.2355 97.1227C20.3926 97.8689 23.607 98.4429 26.8789 98.9022C27.6825 99.017 28.4861 99.1318 29.2897 99.1892C34.5706 99.7632 39.8515 100.05 45.1325 99.9928C50.5282 99.9354 55.9813 99.591 61.3196 98.9022C64.5914 98.4429 67.8633 97.8689 71.0778 97.0653C74.1774 96.3191 77.2197 95.4007 80.0897 94.1953C80.0897 94.1953 80.0897 94.1953 80.0323 94.1953C81.1804 93.7361 82.271 93.2194 83.3042 92.6454C83.419 92.588 83.4764 92.5306 83.5912 92.4732C82.271 90.579 80.7212 88.8569 78.9417 87.3645C77.2771 85.9295 75.3254 84.6667 73.0868 83.5186C71.1926 82.5428 69.0687 81.6244 66.5431 80.7634C65.5099 80.419 64.4192 80.0746 63.099 79.6728L62.0658 79.3858L61.0326 79.0988C60.2864 78.8692 59.5401 78.6395 58.8513 78.4673C58.2199 78.2951 57.6459 78.1229 57.0719 78.0081H57.0145C56.9571 77.8933 56.8423 77.9507 56.7849 78.0655ZM30.2656 79.9024C30.2082 79.9024 30.0934 79.9598 29.9786 79.9598C30.036 79.9598 30.0934 79.9598 30.2656 79.9024C30.2082 79.9598 30.2082 79.9598 30.2656 79.9024C30.2656 79.9598 30.2082 79.9598 30.2656 79.9024ZM82.4432 91.9566C82.6154 92.1862 82.7302 92.3584 82.9024 92.588C82.7876 92.4158 82.6154 92.1862 82.4432 91.9566ZM26.9363 98.6151L27.2807 98.6725C27.2233 98.6725 27.1085 98.6725 27.0511 98.6151H26.9363Z" fill="#074E64"/>
<path d="M56.7854 78.0082C56.728 78.0082 56.728 78.0656 56.728 78.0656C56.2688 78.5822 55.7522 79.0988 55.1782 79.6154L55.293 79.558C53.3987 81.2226 51.1601 82.7725 48.3474 84.2649C47.6012 84.6667 46.855 85.0111 46.281 85.2981C45.4774 85.6999 44.846 85.9869 44.272 86.2165C42.5499 87.0202 41.1149 87.4794 39.7373 87.8238C38.8188 88.0534 38.0152 88.1108 37.2116 88.1108H37.0968H36.982H36.9246C36.408 88.0534 35.8914 87.996 35.3748 87.8812C34.973 87.7664 34.6286 87.5942 34.3416 87.422C34.1119 87.2498 33.8823 87.0776 33.6527 86.848C33.4805 86.6184 33.3083 86.3887 33.1935 86.1591C33.0213 85.8147 32.9065 85.4703 32.7917 85.1259C32.6769 84.6093 32.6195 84.0927 32.6769 83.5187C32.7343 82.6577 32.8491 81.7967 33.1361 80.8782C33.3083 80.419 33.4805 79.9598 33.6527 79.4432C33.7101 79.3284 33.7101 79.2136 33.6527 79.0988C33.5953 78.984 33.4805 78.8692 33.3083 78.8692C32.4473 78.9266 31.5863 79.0414 30.7827 79.1562C30.6679 79.4432 30.5531 79.6728 30.4383 79.9598C29.9791 81.0504 29.6347 82.2559 29.4625 83.4039C29.4051 83.8057 29.3477 84.2075 29.3477 84.6093C29.3477 85.0111 29.3477 85.4129 29.4051 85.8147C29.4625 86.1017 29.5199 86.3887 29.5773 86.6183C29.6347 86.9054 29.7495 87.135 29.8643 87.422C29.9791 87.6516 30.0939 87.8812 30.2087 88.0534C30.3235 88.283 30.4383 88.4552 30.6105 88.6848C30.7827 88.857 30.9549 89.0866 31.1271 89.2588C31.2993 89.431 31.4715 89.6032 31.6437 89.718C32.2177 90.1198 32.7917 90.4642 33.4231 90.7512C33.8249 90.9234 34.2268 91.0956 34.686 91.153C35.0878 91.2678 35.547 91.3252 36.0062 91.3826C36.6376 91.44 37.2116 91.4974 37.843 91.4974C38.417 91.4974 39.0484 91.44 39.6225 91.3826C39.6225 91.3826 39.6225 91.3826 39.5651 91.3826C40.8853 91.2104 42.2055 90.866 43.5257 90.4642C44.7312 90.0624 45.9366 89.6032 47.142 89.144C48.5196 88.57 49.8399 87.8812 51.1601 87.135C52.4229 86.3887 53.6283 85.5851 54.7764 84.7241C56.0392 83.7483 57.302 82.6577 58.45 81.5096C59.2536 80.706 60.0573 79.845 60.8035 78.984C60.2295 78.8118 59.5981 78.6396 59.024 78.4674C58.3926 78.2952 57.8186 78.123 57.2446 78.0082H57.1872C56.9576 77.8934 56.8428 77.9508 56.7854 78.0082Z" fill="#0A6F8F"/>
<path d="M17.0637 42.0177C16.9489 42.0177 16.8341 42.0177 16.7193 42.0177C16.0879 42.0751 15.5713 42.1899 15.1121 42.4195C14.6528 42.5917 14.1936 42.8787 13.8492 43.1657C13.1604 43.7971 12.6438 44.6008 12.3568 45.5766C12.0698 46.495 11.955 47.5282 12.0124 48.504C12.0698 49.078 12.1272 49.5373 12.242 49.9965C12.3568 50.5131 12.529 51.0297 12.7586 51.4889C13.1604 52.4073 13.7344 53.3257 14.4232 54.1293C15.1121 54.933 15.9157 55.6792 16.8341 56.2532C17.7525 56.8846 18.7283 57.3438 19.7041 57.6308C20.68 57.9178 21.6558 58.09 22.5742 58.09C22.6316 58.09 22.7464 58.09 22.8038 58.09C23.3778 58.09 23.8944 58.0326 24.3536 57.9178C24.8703 57.803 25.3869 57.6308 25.9035 57.4012C25.9609 57.3438 26.0183 57.2864 26.0757 57.229C26.1331 57.1142 26.1331 56.9994 26.0757 56.942C26.0183 56.8846 25.9609 56.7698 25.8461 56.7698C25.7887 56.7698 25.7887 56.7698 25.7313 56.7698C25.6739 56.7698 25.6165 56.7698 25.5591 56.8272C25.4443 56.8846 25.3295 56.942 25.2147 56.9994L24.9851 57.0568H24.9277L24.7555 57.1142C24.8703 56.9994 24.9277 56.8846 25.0425 56.7698C25.2147 56.5402 25.3295 56.3106 25.4443 56.0236C25.6739 55.507 25.8461 54.933 25.9035 54.3589C26.0183 53.2683 25.9035 52.0629 25.5017 50.8001C24.9277 48.9632 23.9518 47.1838 22.6316 45.634C22.2872 45.2322 21.9428 44.8304 21.541 44.486C21.3114 44.2563 21.1392 44.0267 20.9096 43.8545C20.5078 43.4527 20.106 43.1083 19.7041 42.8787C18.8431 42.3047 17.9247 42.0177 17.0637 42.0177Z" fill="#FEA97E"/>
<path d="M14.9405 44.1989C14.8257 44.1989 14.7109 44.3137 14.7109 44.4285C14.7109 44.5433 14.8257 44.6581 14.9405 44.6581C15.1701 44.6581 15.3423 44.6581 15.5146 44.6581C15.859 44.7155 16.146 44.7729 16.433 44.8877C16.8348 45.0599 17.1792 45.2895 17.5236 45.5191C17.9254 45.8061 18.2698 46.2079 18.5568 46.6097C18.8438 47.0115 19.0734 47.4133 19.303 47.8725C19.3604 47.9873 19.4752 48.0447 19.5326 48.0447C19.6474 48.0447 19.7622 48.0447 19.8196 47.9873C19.9344 47.9299 19.9918 47.8725 19.9918 47.7577C20.0492 47.6429 19.9918 47.5281 19.9344 47.4707C19.4752 46.4949 18.729 45.6913 17.8106 45.0599C16.9496 44.4859 15.9738 44.1989 14.9979 44.1989C15.0553 44.1415 14.9979 44.1989 14.9405 44.1989Z" fill="#CA8664"/>
<path d="M67.5758 45.5766C66.7147 45.5766 65.7963 45.8636 64.9353 46.3802C64.5335 46.6098 64.1317 46.9542 63.7299 47.356C63.5003 47.5282 63.3281 47.7578 63.0985 47.9874C62.7541 48.3318 62.3523 48.7337 62.0078 49.1355C60.6876 50.6853 59.7118 52.5221 59.1378 54.3016C58.736 55.5644 58.6212 56.7698 58.7934 57.8604C58.8508 58.4345 59.023 59.0085 59.2526 59.5251C59.3674 59.8121 59.4822 60.0417 59.6544 60.2713C59.7118 60.3861 59.8266 60.5009 59.9414 60.6157C59.7692 60.5583 59.6544 60.5009 59.4822 60.4435C59.3674 60.3861 59.2526 60.3287 59.1378 60.2713C59.0804 60.2713 59.023 60.2139 58.9656 60.2139C58.9082 60.2139 58.9082 60.2139 58.8508 60.2139C58.736 60.2139 58.6786 60.3287 58.6212 60.3861C58.5638 60.4435 58.5638 60.5583 58.6212 60.6731C58.6786 60.7879 58.736 60.8453 58.7934 60.8453C59.31 61.0749 59.8266 61.2471 60.3432 61.3619C60.8024 61.4767 61.319 61.5341 61.893 61.5341C61.9504 61.5341 62.0652 61.5341 62.1226 61.5341C63.0411 61.5341 64.0169 61.3619 64.9927 61.0749C65.9685 60.7879 66.9443 60.3287 67.8628 59.6973C68.7238 59.1233 69.5274 58.3771 70.2736 57.5734C70.9624 56.7698 71.5364 55.8514 71.9382 54.933C72.1678 54.4738 72.34 53.9572 72.4549 53.4406C72.5697 52.9813 72.6271 52.5221 72.6845 51.9481C72.7419 50.9723 72.6845 49.9391 72.3974 49.0207C72.1104 48.0448 71.5938 47.2412 70.905 46.6098C70.5606 46.2654 70.1014 46.0358 69.6422 45.8636C69.1256 45.634 68.609 45.5192 68.035 45.4618C67.8054 45.5766 67.6906 45.5766 67.5758 45.5766Z" fill="#FEBE9C"/>
<path d="M65.6241 49.4798C65.4519 49.5946 65.4519 49.7668 65.5093 49.8816C65.5667 49.9964 65.5667 50.0538 65.6241 50.1686C65.7963 50.5704 65.9111 50.9722 65.9685 51.374C66.0259 51.8333 66.0259 52.3499 65.9685 52.8665C65.8537 53.6127 65.6815 54.3015 65.3945 54.9903V54.9329C65.1075 55.6217 64.7631 56.2531 64.3038 56.8846C64.1316 57.0568 64.0168 57.229 63.8446 57.4012C63.6724 57.5734 63.5002 57.7456 63.2706 57.9178C63.2132 57.9752 63.1558 57.9752 63.0984 58.0326C63.041 58.09 63.041 58.1474 63.041 58.2048C63.0984 58.2622 63.1558 58.2622 63.2132 58.2622C63.8446 57.803 64.4186 57.229 64.9353 56.6549C65.5093 55.9661 65.9111 55.2199 66.2555 54.4163C66.5999 53.6127 66.7721 52.7517 66.7721 51.9481C66.7721 51.5462 66.7147 51.1444 66.5999 50.7426C66.5425 50.513 66.4851 50.3408 66.3703 50.1686C66.3129 50.0538 66.2555 49.9964 66.2555 49.8816C66.1981 49.7668 66.1407 49.7094 66.0833 49.652C66.0259 49.5946 65.9685 49.5372 65.9111 49.5372H65.8537C65.7389 49.4224 65.6815 49.4798 65.6241 49.4798Z" fill="#FEA06F"/>
<path d="M67.5767 48.4466C67.3471 48.4466 67.0601 48.5614 66.8305 48.6188C66.6009 48.6762 66.4287 48.791 66.1991 48.9058C66.0843 48.9632 65.9695 49.0206 65.9121 49.1354C65.8547 49.1928 65.7973 49.2502 65.7399 49.3076C65.6825 49.365 65.6825 49.4224 65.6251 49.4798C65.5677 49.5946 65.5677 49.7094 65.6251 49.7668C65.6251 49.8242 65.6825 49.8242 65.7399 49.8242C65.7973 49.8242 65.8547 49.8242 65.9121 49.8242H65.9695C66.0269 49.8242 66.0269 49.8242 66.0843 49.7668C66.1417 49.7668 66.1991 49.7094 66.2565 49.652C66.3713 49.5946 66.5435 49.5372 66.6583 49.4224C66.8879 49.3076 67.1749 49.1928 67.4045 49.1354C67.8063 49.0206 68.1507 48.9632 68.5525 48.9632C68.8395 48.9632 69.184 49.0206 69.471 49.078H69.4136C69.7006 49.1354 69.9302 49.2502 70.2172 49.365C70.332 49.4224 70.5042 49.5372 70.619 49.652C70.6764 49.7094 70.7912 49.7094 70.8486 49.5946C70.906 49.5372 70.906 49.4224 70.7912 49.365C70.4468 49.078 70.045 48.8484 69.5858 48.6762C69.3562 48.6188 69.184 48.5614 68.9543 48.504C68.7247 48.4466 68.4377 48.4466 68.2081 48.3892C68.1507 48.3892 68.0933 48.3892 68.0359 48.3892C67.9211 48.4466 67.7489 48.4466 67.5767 48.4466Z" fill="#FEA06F"/>
<path d="M45.3621 9.47125C43.2957 9.52865 41.2866 9.75825 39.2776 10.2175C39.2202 10.2175 39.2202 10.2175 39.1628 10.2175C39.1054 10.2175 39.1054 10.2175 39.048 10.2175C38.6462 10.3323 38.3018 10.4471 37.9 10.5619C37.7278 10.6193 37.613 10.6193 37.4408 10.6767C35.4317 11.2507 33.4227 12.1117 31.5859 13.1449C31.4711 13.2023 31.3563 13.2597 31.2415 13.3171C28.8306 14.6374 26.7642 16.1872 25.0421 17.9666C24.1811 18.885 23.3775 19.9183 22.6887 21.0089C21.9999 22.0421 21.3685 23.2475 20.8518 24.5103C20.3352 25.7732 19.9334 27.0934 19.6464 28.5858C19.2446 30.4801 19.0724 32.4317 19.015 33.9241C18.9576 34.6703 18.9576 35.3592 18.9002 36.1054C18.7854 37.9996 18.728 39.8939 18.441 41.7881C18.2688 42.9935 18.0392 44.1989 17.8096 45.4044C17.293 47.9874 16.7764 50.6853 16.8912 53.3831C16.9486 54.1293 17.0634 54.9329 17.2356 55.8514C17.3504 56.5402 17.58 57.1716 17.8096 57.8604C18.2114 59.1232 18.7854 60.3861 19.4742 61.5341C20.1056 62.6247 20.9092 63.6579 21.8277 64.6911C22.6887 65.6096 23.6645 66.4706 24.7551 67.2742C26.8216 68.7666 29.175 69.9146 31.8729 70.6609C34.1689 71.3497 36.5798 71.6367 39.1054 71.6367C39.3924 71.6367 39.6794 71.6367 39.9664 71.6367C42.7217 71.5219 45.5343 71.0053 48.347 70.0294C50.8152 69.1684 52.9965 68.0204 54.9481 66.6428C56.8998 65.2078 58.507 63.6005 59.5976 61.7637C59.655 61.5915 59.7698 61.4767 59.8272 61.3045C60.0568 60.7879 60.3438 60.3287 60.6308 59.812C61.7215 57.9752 62.9269 56.2532 64.2471 54.5885C64.4193 53.8997 64.5915 53.1535 64.7637 52.4647V52.3499C64.7063 51.1445 64.7637 49.8816 64.8785 48.6762C64.9359 48.3318 64.9359 48.0448 64.9933 47.7004C64.9359 47.356 64.9359 47.069 64.9359 46.7246C64.9359 46.6098 64.9359 46.4376 64.9359 46.3228C64.9359 46.0358 64.9359 45.8062 64.9359 45.5192C64.9359 45.2322 64.9359 45.0026 64.9933 44.7155C64.9933 44.6581 64.9933 44.6581 65.0507 44.6581L65.1081 44.6007C65.1081 44.6007 65.1081 44.6007 65.1655 44.6007C65.1655 44.6007 65.2229 44.5433 65.2803 44.5433C65.3377 44.5433 65.3951 44.6007 65.3951 44.6581V44.6007C65.3951 44.4859 65.4525 44.3711 65.4525 44.2563C65.4525 44.1989 65.5099 44.1989 65.5673 44.1989C65.5673 44.1415 65.5673 44.1415 65.5673 44.0841L65.6247 44.0267H65.6821C65.6821 44.0267 65.6821 44.0267 65.7395 44.0267C65.7969 44.0267 65.7969 44.0267 65.7969 44.0841C65.7969 44.1415 65.7969 44.1415 65.7969 44.1989V44.2563C65.7969 44.4859 65.7395 44.7155 65.7395 44.8877C65.8543 44.4859 66.0265 44.0841 66.1987 43.7397C66.4283 43.2231 66.658 42.7639 66.8876 42.2473C67.4042 41.2141 68.0356 40.2383 68.667 39.3198C69.241 37.8848 69.815 36.4498 70.4464 35.0722C70.6186 34.7277 70.7334 34.4407 70.9056 34.1537C71.0778 33.8093 71.25 33.4649 71.4796 33.1205C71.9389 32.2595 72.3981 31.3985 72.7999 30.5375C73.1443 29.8487 73.4313 29.1598 73.6609 28.4136C73.6609 28.3562 73.7183 28.2988 73.7183 28.2988C73.5461 27.61 73.3165 26.9786 73.0295 26.3472C73.0295 26.2324 73.0295 26.175 72.9721 26.0602C72.5129 25.027 71.9963 23.9363 71.4222 22.9605C70.8482 22.0421 70.2168 21.0663 69.528 20.1479C68.2078 18.4258 66.6006 16.876 64.8211 15.4984C61.4344 12.8579 57.2442 10.9637 52.7669 10.0453C50.5856 9.58605 48.347 9.35645 46.1083 9.35645C45.7639 9.47125 45.5343 9.47125 45.3621 9.47125Z" fill="#FEBE9C"/>
<path d="M72.3405 23.9363C71.4221 24.1659 70.5611 24.4529 69.7575 24.9121C69.0112 25.3139 68.265 25.8305 67.5188 26.5193C66.8874 27.0933 66.256 27.7248 65.5672 28.5858C65.2228 28.9876 64.9358 29.3894 64.6488 29.7912C64.3617 30.193 64.0747 30.6522 63.8451 31.054C63.3859 31.8002 62.9267 32.6613 62.4101 33.7519C61.9509 34.7277 61.5491 35.6461 61.2047 36.6219C60.5733 38.4014 60.0567 40.2382 59.6548 42.075C59.3678 43.3953 59.1956 44.7729 59.0808 46.0931C59.0234 46.9541 59.0234 47.6429 59.0234 48.217C59.0234 48.5614 59.0808 48.9058 59.1382 49.2502C59.1956 49.5372 59.3104 49.8242 59.4252 50.0538C59.5401 50.226 59.6549 50.3982 59.7697 50.513L59.8271 50.5704C59.8845 50.6278 59.9419 50.6278 59.9993 50.6852C60.0567 50.7426 60.1141 50.7426 60.1715 50.7426H60.2289C60.3437 50.8 60.4585 50.8 60.5733 50.8C60.6881 50.8 60.8029 50.8 60.9177 50.7426C61.0325 50.7426 61.1473 50.6852 61.2621 50.6278H61.3195C61.6065 50.513 61.8361 50.3408 62.0657 50.1112C62.4101 49.8242 62.6971 49.4798 62.9267 49.2502C63.3285 48.791 63.6155 48.3318 63.9025 47.93C64.0747 47.6429 64.2469 47.4133 64.4191 47.1263C64.7636 46.5523 65.1654 45.9783 65.5672 45.4617C65.8542 45.0599 66.1986 44.7155 66.4856 44.3711L66.7726 44.0267C67.2318 43.5101 67.691 42.9935 68.1502 42.4194C69.2408 41.1566 70.0445 40.066 70.6759 38.9754C71.2499 38.057 71.7665 37.0237 72.3405 35.7035C72.9145 34.4407 73.3163 33.2927 73.6033 32.1446C73.7755 31.4558 73.9477 30.767 74.0051 30.0208C74.1199 29.2746 74.1199 28.6432 74.1199 27.9544C74.0625 27.2081 74.0051 26.5193 73.7755 25.9453C73.6607 25.6009 73.5459 25.2565 73.3737 24.9695C73.2015 24.6251 73.0293 24.3381 72.7997 24.1085C72.7423 24.0511 72.6275 23.9937 72.5701 23.9937C72.4553 23.9363 72.3979 23.9363 72.3405 23.9363Z" fill="#192E35"/>
<path d="M72.3405 23.9363C71.4221 24.1659 70.5611 24.4529 69.7575 24.9121C69.0112 25.3139 68.265 25.8305 67.5188 26.5193C66.8874 27.0933 66.256 27.7248 65.5672 28.5858C65.2228 28.9876 64.9358 29.3894 64.6488 29.7912C64.3617 30.193 64.0747 30.6522 63.8451 31.054C63.3859 31.8002 62.9267 32.6613 62.4101 33.7519C61.9509 34.7277 61.5491 35.6461 61.2047 36.6219C60.5733 38.4014 60.0567 40.2382 59.6548 42.075C59.3678 43.3953 59.1956 44.7729 59.0808 46.0931C59.0234 46.9541 59.0234 47.6429 59.0234 48.217C59.0234 48.5614 59.0808 48.9058 59.1382 49.2502C59.1956 49.5372 59.3104 49.8242 59.4252 50.0538C59.5401 50.226 59.6549 50.3982 59.7697 50.513L59.8271 50.5704C59.8845 50.6278 59.9419 50.6278 59.9993 50.6852C60.0567 50.7426 60.1141 50.7426 60.1715 50.7426H60.2289C60.3437 50.8 60.4585 50.8 60.5733 50.8C60.6881 50.8 60.8029 50.8 60.9177 50.7426C61.0325 50.7426 61.1473 50.6852 61.2621 50.6278H61.3195C61.6065 50.513 61.8361 50.3408 62.0657 50.1112C62.4101 49.8242 62.6971 49.4798 62.9267 49.2502C63.3285 48.791 63.6155 48.3318 63.9025 47.93C64.0747 47.6429 64.2469 47.4133 64.4191 47.1263C64.7636 46.5523 65.1654 45.9783 65.5672 45.4617C65.8542 45.0599 66.1986 44.7155 66.4856 44.3711L66.7726 44.0267C67.2318 43.5101 67.691 42.9935 68.1502 42.4194C69.2408 41.1566 70.0445 40.066 70.6759 38.9754C71.2499 38.057 71.7665 37.0237 72.3405 35.7035C72.9145 34.4407 73.3163 33.2927 73.6033 32.1446C73.7755 31.4558 73.9477 30.767 74.0051 30.0208C74.1199 29.2746 74.1199 28.6432 74.1199 27.9544C74.0625 27.2081 74.0051 26.5193 73.7755 25.9453C73.6607 25.6009 73.5459 25.2565 73.3737 24.9695C73.2015 24.6251 73.0293 24.3381 72.7997 24.1085C72.7423 24.0511 72.6275 23.9937 72.5701 23.9937C72.4553 23.9363 72.3979 23.9363 72.3405 23.9363Z" fill="#192E35"/>
<path d="M67.2898 29.332C66.9454 29.906 66.601 30.48 66.2566 31.054C65.9122 31.628 65.6252 32.202 65.2808 32.7761C64.9938 33.3501 64.6494 33.8667 64.3623 34.4407C64.0753 35.0147 63.8457 35.5887 63.5587 36.1627C63.3291 36.7367 63.0995 37.3108 62.8699 37.8848C62.6403 38.4588 62.4681 39.0902 62.2959 39.6642C62.1237 40.2956 62.0089 40.927 61.9515 41.5584C61.8367 42.2473 61.7793 42.9361 61.7793 43.6249C61.7793 43.7971 61.7793 43.9693 61.7793 44.1415C61.7793 44.4285 62.0089 44.6581 62.2959 44.6581C62.4107 44.6581 62.5829 44.6007 62.6403 44.4859C62.7551 44.3711 62.7551 44.2563 62.8125 44.1415C62.8699 43.6249 62.8699 43.1657 62.9273 42.6491C62.9847 42.1899 62.9847 41.7306 63.0995 41.2714C63.1569 40.6974 63.2717 40.1808 63.3865 39.6068C63.5013 39.0328 63.6161 38.4014 63.7883 37.8274C64.0753 36.6793 64.5346 35.5887 64.9938 34.5555C64.9938 34.5555 64.9938 34.6129 64.9364 34.6129C65.2808 33.7519 65.74 32.8909 66.1418 32.0298C66.3714 31.628 66.601 31.1688 66.8306 30.767C67.0602 30.3078 67.3472 29.8486 67.5768 29.3894C67.6342 29.2746 67.5194 29.1598 67.462 29.1598C67.3472 29.2746 67.2898 29.332 67.2898 29.332Z" fill="#0F1D21"/>
<path d="M66.4862 34.4981C65.74 35.8184 65.2234 37.196 64.8216 38.631C64.7642 38.8032 64.879 38.9754 65.0512 39.0328C65.2234 39.0902 65.453 38.9754 65.453 38.8032C65.6826 37.8274 65.9696 36.8516 66.3714 35.9332C66.3714 35.9332 66.3714 35.9332 66.3714 35.9906C66.5436 35.5888 66.7732 35.1295 67.0028 34.7277C67.0602 34.6129 67.0602 34.4407 66.888 34.3833C66.8306 34.3833 66.8306 34.3259 66.7732 34.3259C66.6584 34.3833 66.5436 34.4407 66.4862 34.4981Z" fill="#0F1D21"/>
<path d="M36.5806 58.7788C35.3178 58.7788 34.1124 59.2954 33.3088 60.1565C33.194 60.2713 33.194 60.4435 33.3088 60.5009C33.3662 60.5583 33.4236 60.5583 33.481 60.5583C33.5384 60.5583 33.5958 60.5583 33.6532 60.5009C33.8254 60.3287 33.9402 60.2139 34.1124 60.0991C34.342 59.9269 34.5716 59.8121 34.8586 59.6973C35.203 59.5825 35.49 59.525 35.8918 59.4676C36.0066 59.4676 36.1214 59.4676 36.2936 59.4676C36.5806 59.4676 36.8102 59.4676 37.0972 59.525C37.499 59.5824 37.9008 59.7547 38.3027 59.8695C38.6471 60.0417 38.9915 60.2713 39.3359 60.5009C39.5081 60.6157 39.6229 60.7879 39.7951 60.9601C39.8525 61.0175 39.9673 61.0749 40.0821 61.0749C40.1395 61.0749 40.1969 61.0749 40.2543 61.0175C40.3117 60.9601 40.4265 60.9027 40.4265 60.7879C40.4265 60.6731 40.4265 60.6157 40.3691 60.5583C39.7377 59.525 38.4175 58.8362 36.925 58.7214C36.7528 58.7788 36.6954 58.7788 36.5806 58.7788Z" fill="#192E35"/>
<path d="M20.7942 39.5494C21.4256 40.3531 23.4346 39.9513 25.2141 38.5162C26.9935 37.1386 27.9693 35.3018 27.3379 34.4981C26.7065 33.6945 24.6975 34.0963 22.918 35.5314C21.1386 36.909 20.1628 38.6884 20.7942 39.5494Z" fill="#0F1D21"/>
<path d="M44.2722 35.4739C43.526 36.3924 44.5018 38.4588 46.4534 40.066C48.4051 41.7307 50.5863 42.3047 51.3899 41.3863C52.1361 40.4678 51.1603 38.4014 49.2087 36.7942C47.257 35.1869 45.0184 34.5555 44.2722 35.4739Z" fill="#0F1D21"/>
<path d="M24.5828 44.1415C23.8366 44.1415 23.2051 45.2895 23.1477 46.7819C23.0903 47.5281 23.2051 48.217 23.3773 48.7336C23.607 49.2502 23.894 49.5946 24.2384 49.5946C24.9846 49.5946 25.616 48.4466 25.7308 46.9541C25.7882 45.4617 25.329 44.1415 24.5828 44.1415Z" fill="#192E35"/>
<path d="M45.7643 45.1173C45.0181 45.1173 44.3867 46.2653 44.2719 47.7578C44.1571 49.2502 44.6737 50.513 45.3625 50.5704C46.1087 50.5704 46.7401 49.4224 46.8549 47.93C46.9123 47.1838 46.7975 46.4949 46.6253 45.9783C46.3957 45.4617 46.1087 45.1747 45.7643 45.1173Z" fill="#192E35"/>
<path d="M34.6269 40.4678C34.5695 40.4678 34.5695 40.4678 34.5121 40.5252L34.4547 40.5826C34.5695 42.5342 34.5121 44.1988 34.2824 45.7487C34.1102 46.8967 33.938 47.7577 33.5936 48.6187C33.1918 48.3891 32.79 48.2169 32.3308 48.0447C31.929 47.9299 31.5272 47.8151 31.1828 47.8151H31.1254C30.494 47.8151 29.9774 48.0447 29.5756 48.4465C29.2311 48.8483 29.0589 49.4223 29.1163 49.9964C29.1737 50.6278 29.4034 51.3166 29.8052 51.8906C30.0348 52.235 30.3792 52.6368 30.7236 52.9238C31.1254 53.2682 31.5846 53.5552 32.1012 53.7848C32.1586 53.8422 32.216 53.8422 32.3308 53.8422C32.3882 53.8422 32.3882 53.8422 32.4456 53.8422C32.5604 53.8422 32.6178 53.7274 32.6752 53.67C32.7326 53.5552 32.7326 53.4978 32.7326 53.383C32.6752 53.2682 32.6178 53.1534 32.4456 53.096C32.3308 53.0386 32.2734 53.0386 32.1586 52.9812C31.8142 52.809 31.4698 52.6368 31.1828 52.4072C30.8958 52.1776 30.6088 51.948 30.4366 51.661C30.2644 51.374 30.0922 51.1444 29.92 50.8574C29.8052 50.5704 29.7478 50.3408 29.6904 50.1112C29.6904 49.8816 29.6904 49.7094 29.6904 49.4798C29.6904 49.3075 29.7478 49.1927 29.8052 49.0779C29.8626 48.9631 29.92 48.8483 29.9774 48.7909V48.7335L30.0348 48.6761C30.0922 48.6187 30.1496 48.6187 30.1496 48.5613C30.2644 48.5039 30.3218 48.4465 30.4366 48.3891C30.5514 48.3317 30.7236 48.2743 30.8958 48.2743C31.0106 48.2743 31.1254 48.2743 31.2402 48.2743C31.355 48.2743 31.5272 48.2743 31.642 48.2743L31.6994 48.2169C32.1012 48.2743 32.5604 48.4465 33.0196 48.6187C33.2492 48.7335 33.4788 48.8483 33.7084 48.9631H33.7658C33.8232 48.9631 33.8806 48.9057 33.938 48.8483C34.1676 48.2169 34.3398 47.5855 34.4547 46.8967C34.5695 46.2653 34.6843 45.5765 34.7417 44.8303C34.8565 43.5674 34.8565 42.1898 34.7991 40.5826C34.7417 40.5252 34.6843 40.4678 34.6269 40.4678Z" fill="#CA8664"/>
</svg>
