<svg width="100" height="100" viewBox="0 0 100 100" fill="none" xmlns="http://www.w3.org/2000/svg">
<path d="M50.0178 0H49.8444C36.7808 0.0578035 24.4687 5.14451 15.2779 14.3931C6.02939 23.6416 0.942684 35.8382 1.00049 48.8439C1.05829 75.6069 23.0236 97.3988 49.96 97.3988H50.1334C63.197 97.341 75.5092 92.2543 84.6999 83.0058C93.9485 73.7572 98.9774 61.5029 98.9774 48.4971C98.8618 21.7919 76.9542 0 50.0178 0Z" fill="#F6E9E3"/>
<path d="M50.4264 0H50.2542C37.6834 0.0574011 25.8587 4.9365 16.9616 13.8337C8.06438 22.7309 3.18529 34.4981 3.24269 47.0115C3.30009 72.7846 24.4237 93.7361 50.369 93.7361H50.5412C63.1121 93.6787 74.9367 88.7996 83.8339 79.9024C92.7311 71.0052 97.6102 59.238 97.5528 46.7245C97.438 20.9514 76.3143 0 50.4264 0Z" fill="#E7EEEF"/>
<path d="M25.3405 19.9756C24.4795 19.9756 23.5611 20.32 22.6427 20.9514C21.7817 21.5254 20.978 22.329 20.117 23.3623C18.7394 25.0843 17.7636 27.3229 17.1896 29.906C16.673 32.3168 16.5582 34.7851 16.8452 37.2533C17.0174 38.631 17.3044 39.9512 17.7636 41.214C18.2228 42.5916 18.8542 43.7971 19.543 44.8303C19.7726 45.1173 20.0022 45.5191 20.3466 45.7487C20.5188 45.9209 20.8058 46.0931 21.1502 46.1505C21.2076 46.1505 21.3224 46.1505 21.3798 46.1505C21.5521 46.1505 21.7243 46.0931 21.8965 46.0357C22.1261 45.9209 22.2983 45.7487 22.4705 45.5191C22.6427 45.2895 22.7575 45.0025 22.8723 44.7155C22.9871 44.4285 23.1019 44.1415 23.2167 43.7397C23.4463 42.936 23.5611 42.1324 23.6759 41.501C23.7907 40.8696 23.8481 40.2382 23.9055 39.5494C24.0777 38.2291 24.2499 36.8515 24.3647 35.4739C24.5369 33.8093 24.7091 32.0872 24.8813 30.4226C24.9961 28.9876 25.1683 27.6099 25.2831 26.1749C25.3979 25.1991 25.4553 24.2233 25.5701 23.3049C25.5701 23.0752 25.6275 22.8456 25.6849 22.5586C25.7423 21.9272 25.8571 21.2384 25.8571 20.607C25.9145 20.607 25.9719 20.5496 25.9719 20.5496C26.0293 20.4922 26.0867 20.3774 26.0867 20.32C26.0867 20.2052 26.0293 20.1478 25.9719 20.0904C25.9145 20.033 25.7997 19.9756 25.7423 19.9756C25.6849 19.9756 25.5127 19.9756 25.3405 19.9756Z" fill="#192E35"/>
<path d="M23.963 21.6402C23.2742 22.2717 22.6428 22.9605 22.0687 23.7067C21.6669 24.2807 21.2651 24.7973 20.9207 25.4287C20.5763 26.0027 20.3467 26.5193 20.0597 27.0934C19.7727 27.7248 19.5431 28.4136 19.3709 29.1024C19.1987 29.7912 19.0839 30.4226 18.9691 31.1114C18.8543 31.9725 18.7969 32.8909 18.7969 33.8093C18.7969 34.6703 18.8543 35.5887 19.0265 36.4497C19.4283 39.3772 20.3467 42.1899 21.4373 44.8877C21.4373 44.8877 21.4373 44.8877 21.4373 44.8303C21.6095 45.2321 21.7817 45.6913 22.0113 46.0931C22.1835 45.9783 22.3557 45.8061 22.5279 45.5765C22.7002 45.3469 22.8724 45.0025 22.9298 44.7729C23.0446 44.4859 23.1594 44.1989 23.2742 43.7971C23.5038 42.9935 23.6186 42.1899 23.7334 41.5584C23.8482 40.927 23.9056 40.2956 23.963 39.6068C24.1352 37.9996 24.3074 36.7367 24.4222 35.5313C24.5944 33.8093 24.7666 32.0873 24.9388 30.48L24.9962 30.0208C25.111 28.758 25.2258 27.4952 25.3406 26.2323C25.4554 25.2565 25.5702 24.2807 25.6276 23.3623C25.6276 23.1327 25.685 22.9031 25.7424 22.6161C25.8572 21.9273 25.9146 21.2958 25.9146 20.6644C25.972 20.6644 25.972 20.607 26.0294 20.607C26.0868 20.5496 26.1442 20.4348 26.1442 20.32C26.1442 20.2052 26.0868 20.1478 26.0294 20.033C25.972 19.9756 25.9146 19.9182 25.7998 19.9182C25.1684 20.5496 24.537 21.0662 23.963 21.6402Z" fill="#0F1D21"/>
<path d="M79.0672 39.6641C79.0098 39.5493 78.9524 39.4919 78.8376 39.4919C78.7802 39.4919 78.7802 39.4919 78.7228 39.4919C78.6654 39.4919 78.608 39.4919 78.5506 39.5493C78.4932 39.6067 78.3784 39.6641 78.3784 39.7789C78.321 40.066 78.2062 40.4104 78.0914 40.7548L78.034 40.8122C77.6322 41.501 77.173 42.075 76.7138 42.649L76.5416 42.8786C76.5416 42.8786 76.5416 42.8212 76.4842 42.8212C76.4268 42.7064 76.4268 42.649 76.3694 42.5916C76.312 42.5342 76.312 42.4768 76.2546 42.4768C76.1398 42.362 76.0824 42.3046 75.9676 42.2472C75.738 42.075 75.3935 41.9602 75.0491 41.9028C74.9917 41.9028 74.8769 41.9028 74.8195 41.9028C74.5899 41.9028 74.3603 41.9602 74.1307 42.0176C73.8437 42.075 73.4993 42.2472 73.1549 42.4194C72.8679 42.5916 72.5235 42.7638 72.1791 43.0508C71.8921 43.2804 71.5477 43.51 71.2033 43.8544L71.0311 44.0266L70.9737 43.9692C70.8015 43.9692 70.5719 44.0266 70.3996 44.0266H70.3422H70.2848C69.9978 44.084 69.7682 44.084 69.4812 44.1414C68.9646 44.1988 68.448 44.2562 67.874 44.371C67.8166 44.371 67.7592 44.4284 67.7592 44.5432C67.6444 44.6006 67.587 44.6006 67.4722 44.6006C67.3574 44.6006 67.3 44.658 67.2426 44.7728C67.0704 44.945 66.9556 45.1747 67.013 45.4043C67.0704 45.5765 67.1852 45.6913 67.3 45.8061C67.4148 45.8635 67.4722 45.8635 67.587 45.8635C67.6444 45.8635 67.7018 45.8635 67.7592 45.8635C67.874 45.8635 67.9888 45.8635 68.0462 45.8061C67.9888 45.8635 67.9888 45.8635 67.9314 45.9209C67.8166 46.0357 67.7018 46.1505 67.587 46.2653C67.5296 46.3227 67.5296 46.4375 67.587 46.4949C67.6444 46.5523 67.6444 46.5523 67.7018 46.5523C67.7018 46.6097 67.7018 46.6097 67.7592 46.6671C67.8166 46.7245 67.874 46.7245 67.9314 46.6671C68.2184 46.3801 68.448 46.0931 68.6776 45.8061C68.735 45.8061 68.735 45.7487 68.7924 45.7487C69.022 45.7487 69.1942 45.7487 69.4238 45.7487C69.2516 45.9783 69.0794 46.1505 68.9646 46.3801C68.6776 46.7245 68.448 47.0689 68.2184 47.3559C68.1036 47.5281 67.9888 47.7577 67.874 47.9873C67.7018 48.3317 67.5296 48.7335 67.4722 49.1927C67.3 49.9389 67.1852 51.087 67.6444 52.1776C67.8166 52.5794 68.1036 52.8664 68.448 53.1534C68.7924 53.383 69.1942 53.4978 69.596 53.4978C70.2274 53.4978 70.9163 53.2682 71.6625 52.6942C72.2939 52.235 72.9253 51.6036 73.4419 50.7426C73.9011 50.0538 74.2455 49.3075 74.6473 48.4465C74.7621 48.2169 74.8769 47.9299 74.9917 47.7003L75.0491 47.5281L75.1065 47.4707C75.2787 47.0689 75.4509 46.6097 75.6805 46.2079C75.9102 45.6913 76.2546 45.2321 76.5416 44.7728C76.7712 44.4284 77.0008 44.084 77.2304 43.797L77.5174 43.3952L77.6322 43.223C77.9192 42.7638 78.2636 42.2472 78.608 41.6158L78.7802 41.3288C78.8376 41.2714 78.8376 41.1566 78.8376 41.0992C79.0098 40.7548 79.1246 40.353 79.182 40.066C79.1246 39.8938 79.1246 39.7789 79.0672 39.6641Z" fill="#0F1D21"/>
<path d="M48.5313 64.2893C48.0147 64.2893 47.4406 64.3467 46.924 64.4615C45.3742 64.7485 43.8818 65.4373 42.7912 66.528C42.2171 67.0446 41.7579 67.676 41.4135 68.4222C41.2413 68.7666 41.0691 69.1684 40.9543 69.5702C40.8969 69.7998 40.8395 69.972 40.7821 70.2016C40.7247 69.9146 40.6673 69.685 40.6673 69.398C40.6099 69.2258 40.4377 69.111 40.3229 69.111C40.2655 69.111 40.2655 69.111 40.2081 69.111C40.0933 69.111 40.0359 69.2258 39.9785 69.2832C39.9211 69.3406 39.9211 69.4554 39.9211 69.5702C40.0359 70.0294 40.0933 70.546 40.1507 71.0626V71.12C40.3229 72.5551 40.3229 73.7031 40.2081 74.7363C40.0933 75.3677 39.9785 75.9417 39.7489 76.4583C39.5767 76.8602 39.4045 77.2046 39.1175 77.549C38.8879 77.836 38.6583 78.0656 38.3713 78.2952C38.0843 78.5248 37.7399 78.697 37.3954 78.8692C36.8788 79.0988 36.3622 79.2136 35.7308 79.3284C35.5012 79.3858 35.2716 79.3858 34.9846 79.3858C34.755 79.3858 34.6402 79.558 34.6402 79.7302V79.7876L34.5828 79.845C33.9514 80.706 33.3774 81.567 32.9756 82.4855C32.746 82.9447 32.6312 83.4039 32.5163 83.8057C32.4015 84.2075 32.3441 84.6093 32.2293 85.1259C31.9997 86.7906 32.4015 88.3978 33.32 89.6032C33.7792 90.2346 34.4106 90.7512 35.0994 91.153C35.8456 91.5548 36.7066 91.8419 37.6825 91.9567C38.0843 92.0141 38.5435 92.0141 39.0027 92.0141C39.6341 92.0141 40.2655 91.9567 40.9543 91.8419C42.1597 91.6696 43.4226 91.3252 44.7428 90.866C47.0962 90.0624 49.4497 88.7996 51.8605 87.135C53.9844 85.6999 56.0508 83.9779 58.0025 81.9689C58.3469 81.6245 58.7487 81.2226 59.0931 80.8208C59.4949 80.419 59.8967 79.9598 60.2985 79.5006C60.3559 79.5006 60.3559 79.5006 60.4133 79.5006C60.5855 79.5006 60.7003 79.3858 60.7577 79.2136C60.7577 79.0988 60.7577 79.0414 60.7003 78.9266C60.6429 78.8692 60.5855 78.8118 60.4707 78.7544C60.0689 78.6396 59.6097 78.5248 59.2079 78.3526C58.6913 78.123 58.1747 77.836 57.7155 77.4916C57.3136 77.1472 56.9692 76.8028 56.6822 76.4583C56.3378 75.9991 56.0508 75.4825 55.8212 74.9085C55.5342 74.1623 55.3046 73.3587 55.1898 72.4403C54.9602 70.833 55.0176 69.111 55.3046 66.9872C55.3046 66.8724 55.362 66.7002 55.362 66.5854C55.362 66.4705 55.362 66.4131 55.3046 66.2983C55.2472 66.2409 55.1898 66.1835 55.075 66.1261C55.0176 66.1261 55.0176 66.1261 54.9602 66.1261C54.9028 66.1261 54.8454 66.1261 54.788 66.1835C54.7306 66.2409 54.6158 66.2983 54.6158 66.4131C54.5584 66.7002 54.5584 66.9298 54.501 67.2168C54.214 66.815 53.8696 66.4131 53.4678 66.0687C52.8938 65.5521 52.2049 65.1503 51.4013 64.8059C50.6551 64.5189 49.6219 64.2893 48.5313 64.2893Z" fill="#FEBE9C"/>
<path d="M46.8662 64.4041C45.3164 64.6911 43.824 65.4374 42.7333 66.4706C42.1593 66.9872 41.7001 67.676 41.3557 68.3648C41.1835 68.7092 41.0113 69.111 40.8965 69.5128C40.8391 69.685 40.7817 69.9146 40.7243 70.1442C40.7243 69.8572 40.6669 69.5702 40.6095 69.3406C40.5521 69.1684 40.3799 69.0536 40.2651 69.0536C40.2651 69.0536 40.2077 69.0536 40.1503 69.0536C40.0355 69.0536 39.9781 69.1684 39.9207 69.2258C39.8633 69.2832 39.8633 69.398 39.8633 69.5128C39.9781 69.972 40.0355 70.4887 40.0929 71.0053V71.0627C40.2651 72.4977 40.2651 73.6457 40.1503 74.6789C40.0929 74.9659 40.0929 75.1955 40.0355 75.4252C40.4947 75.4826 40.9539 75.4826 41.4131 75.4252C41.4131 75.4252 41.4131 75.4252 41.3557 75.4252C42.9055 75.3678 44.4554 75.0807 45.9478 74.6215C47.6124 74.1049 49.1623 73.4161 50.5973 72.4977C51.7453 71.7515 52.8359 70.8905 53.7544 69.9146C54.0988 69.5128 54.4432 69.1684 54.7302 68.7092C54.9024 68.4222 55.0746 68.1926 55.2468 67.9056C55.3042 67.6186 55.3042 67.2742 55.3616 66.9872C55.3616 66.8724 55.419 66.7002 55.419 66.5854C55.419 66.4706 55.419 66.4132 55.3616 66.2984C55.3042 66.241 55.2468 66.1836 55.132 66.1262C55.0746 66.1262 55.0746 66.1262 55.0172 66.1262C54.9598 66.1262 54.9024 66.1262 54.845 66.1836C54.7876 66.241 54.6728 66.2984 54.6728 66.4132C54.6154 66.7002 54.6154 66.9298 54.558 67.2168C54.271 66.815 53.9266 66.4132 53.5248 66.0688C52.9507 65.5522 52.2619 65.1504 51.4583 64.8059C50.5399 64.4041 49.5067 64.2319 48.416 64.2319C47.9568 64.2893 47.4402 64.3467 46.8662 64.4041Z" fill="#FF9B68"/>
<path d="M59.1501 78.0655C59.0927 78.0655 59.0927 78.1229 59.0927 78.1229C58.6335 78.6396 58.1169 79.1562 57.5429 79.6728L57.6003 79.6154C55.7635 81.28 53.4674 82.8298 50.6548 84.3223C49.9659 84.6667 49.2771 85.0111 48.5883 85.3555C47.7847 85.7573 47.1533 86.0443 46.5793 86.2739C44.8572 87.0775 43.4222 87.5367 42.0446 87.8811C41.1262 88.1107 40.3225 88.1681 39.5189 88.1681C39.4615 88.1681 39.3467 88.1681 39.2893 88.1681C39.2319 88.1681 39.2319 88.1681 39.2319 88.1681C38.7153 88.1107 38.1987 88.0533 37.6821 87.8811C37.2803 87.7663 36.9359 87.5941 36.6489 87.4219C36.4193 87.2497 36.1897 87.0775 35.9601 86.8479C35.7879 86.6183 35.6157 86.3887 35.5009 86.1591C35.3286 85.8147 35.2138 85.4703 35.099 85.1259C34.9842 84.6093 34.9268 84.0927 34.9842 83.4612C35.0416 82.6002 35.2138 81.7392 35.4434 80.8208C35.6157 80.3616 35.7879 79.845 35.9601 79.3858C36.0175 79.271 36.0175 79.1562 35.9601 79.0414C35.9027 78.9266 35.7879 78.8118 35.6157 78.8118C30.4496 79.2136 25.3408 80.8782 20.8636 83.6334C19.7729 84.2649 18.7397 85.0685 17.7065 85.8721C16.6733 86.6757 15.6975 87.5941 14.8364 88.5125C13.918 89.4884 13.057 90.579 12.2534 91.727C11.6794 92.588 11.1628 93.449 10.8184 94.3675C12.1386 94.8841 13.4588 95.4007 14.8364 95.8025C16.4437 96.3191 17.9935 96.7209 19.6007 97.1227C22.7578 97.8689 25.9723 98.4429 29.2441 98.9022C30.0477 99.017 30.8514 99.1318 31.655 99.1892C36.9359 99.7632 42.2168 100.05 47.4977 99.9928C52.8934 99.9354 58.3465 99.591 63.6848 98.9022C66.9567 98.4429 70.2285 97.8689 73.443 97.0653C76.5427 96.3191 79.5849 95.4007 82.455 94.1953C82.455 94.1953 82.455 94.1953 82.3976 94.1953C83.5456 93.7361 84.6362 93.2194 85.6695 92.6454C85.7843 92.588 85.8417 92.5306 85.9565 92.4732C84.6362 90.579 83.0864 88.8569 81.307 87.3645C79.6423 85.9295 77.6333 84.6667 75.452 83.5186C73.5578 82.5428 71.434 81.6244 68.9083 80.7634C67.8751 80.419 66.7845 80.0746 65.4643 79.6728L64.431 79.3858L63.3978 79.0988C62.6516 78.8692 61.9054 78.6395 61.2166 78.4673C60.5852 78.2951 60.0111 78.1229 59.4371 78.0081H59.3797C59.3223 77.8933 59.2075 77.9507 59.1501 78.0655ZM32.5734 79.9024C32.516 79.9024 32.4012 79.9598 32.2864 79.9598C32.4012 79.9598 32.4586 79.9598 32.5734 79.9024ZM84.8084 91.9566C84.9806 92.1862 85.0954 92.3584 85.2676 92.588C85.0954 92.4158 84.9806 92.1862 84.8084 91.9566ZM29.3015 98.6151L29.6459 98.6725C29.5885 98.6725 29.4737 98.6725 29.4163 98.6151H29.3015Z" fill="#074E64"/>
<path d="M59.1506 78.0082C59.0932 78.0082 59.0932 78.0656 59.0932 78.0656C58.634 78.5822 58.1174 79.0988 57.5434 79.6154L57.6582 79.558C55.764 81.2226 53.5253 82.7725 50.7127 84.2649C49.9665 84.6667 49.2202 85.0111 48.6462 85.2981C47.8426 85.6999 47.2112 85.9869 46.6372 86.2165C44.9152 87.0202 43.4801 87.4794 42.1025 87.8238C41.1841 88.0534 40.3805 88.1108 39.5768 88.1108H39.462H39.3472H39.2898C38.7732 88.0534 38.2566 87.996 37.74 87.8812C37.3382 87.7664 36.9938 87.5942 36.7068 87.422C36.4772 87.2498 36.2476 87.0776 36.018 86.848C35.8458 86.6184 35.6736 86.3887 35.5588 86.1591C35.3866 85.8147 35.2718 85.4703 35.157 85.1259C35.0422 84.6093 34.9848 84.0927 35.0422 83.5187C35.0996 82.6577 35.2144 81.7967 35.5014 80.8782C35.6736 80.419 35.8458 79.9598 36.018 79.4432C36.0754 79.3284 36.0754 79.2136 36.018 79.0988C35.9606 78.984 35.8458 78.8692 35.6736 78.8692C34.8126 78.9266 33.9515 79.0414 33.1479 79.1562C33.0331 79.4432 32.9183 79.6728 32.8035 79.9598C32.3443 81.0504 31.9999 82.2559 31.8277 83.4039C31.7703 83.8057 31.7129 84.2075 31.7129 84.6093C31.7129 85.0111 31.7129 85.4129 31.7703 85.8147C31.8277 86.1017 31.8851 86.3313 31.9425 86.6183C31.9999 86.9054 32.1147 87.135 32.2295 87.422C32.3443 87.6516 32.4591 87.8812 32.5739 88.0534C32.6887 88.283 32.8035 88.4552 32.9757 88.6848C33.1479 88.857 33.3201 89.0866 33.4923 89.2588C33.6645 89.431 33.8367 89.6032 34.0089 89.718C34.5829 90.1198 35.157 90.4642 35.7884 90.7512C36.1902 90.9234 36.592 91.0956 37.0512 91.153C37.453 91.2678 37.9122 91.3252 38.3714 91.3826C39.0028 91.44 39.5768 91.4974 40.2083 91.4974C40.7823 91.4974 41.4137 91.44 41.9877 91.3826C41.9877 91.3826 41.9877 91.3826 41.9303 91.3826C43.2505 91.2104 44.5707 90.866 45.891 90.4642C47.0964 90.0624 48.3018 89.6032 49.5072 89.144C50.8849 88.57 52.2051 87.8812 53.5253 87.135C54.7881 86.3887 55.9936 85.5851 57.1416 84.7241C58.4044 83.7483 59.6672 82.6577 60.8153 81.5096C61.6189 80.706 62.4225 79.845 63.1687 78.984C62.5947 78.8118 61.9633 78.6396 61.3893 78.4674C60.7579 78.2952 60.1839 78.123 59.6098 78.0082H59.5524C59.3228 77.8934 59.208 77.9508 59.1506 78.0082Z" fill="#0A6F8F"/>
<path d="M19.4285 42.0176C19.3137 42.0176 19.1989 42.0176 19.0841 42.0176C18.4527 42.075 17.9361 42.1898 17.4769 42.4194C17.0177 42.5916 16.5585 42.8786 16.2141 43.1656C15.5252 43.797 15.0086 44.6006 14.7216 45.5765C14.4346 46.4949 14.3198 47.5281 14.4346 48.5039C14.492 49.0779 14.5494 49.5371 14.6642 49.9963C14.779 50.5129 14.9512 51.0296 15.1808 51.4888C15.5826 52.4072 16.1567 53.3256 16.8455 54.1292C17.5343 54.9328 18.3379 55.6791 19.2563 56.2531C20.1747 56.8845 21.1506 57.3437 22.1264 57.6307C23.1022 57.9177 24.078 58.0899 24.9964 58.0899C25.0538 58.0899 25.1686 58.0899 25.226 58.0899C25.8 58.0899 26.3167 58.0325 26.7759 57.9177C27.2925 57.8029 27.8091 57.6307 28.3257 57.4011C28.3831 57.3437 28.4405 57.2863 28.4979 57.2289C28.5553 57.1141 28.5553 56.9993 28.4979 56.9419C28.4405 56.8845 28.3831 56.7697 28.2683 56.7697C28.2109 56.7697 28.2109 56.7697 28.1535 56.7697C28.0961 56.7697 28.0387 56.7697 27.9813 56.8271C27.8665 56.8845 27.7517 56.9419 27.6369 56.9993L27.4073 57.0567H27.3499L27.1777 57.1141C27.2925 56.9993 27.3499 56.8845 27.4647 56.7697C27.6369 56.5401 27.7517 56.3105 27.8665 56.0235C28.0961 55.5068 28.2683 54.9328 28.3257 54.3588C28.4405 53.2682 28.3257 52.0628 27.9239 50.8C27.3499 48.9631 26.3741 47.1837 25.0538 45.6339C24.7094 45.232 24.365 44.8302 23.9632 44.4858C23.7336 44.2562 23.5614 44.0266 23.3318 43.8544C22.93 43.4526 22.5282 43.1082 22.1264 42.8786C21.208 42.3046 20.2895 42.0176 19.4285 42.0176Z" fill="#FEA97E"/>
<path d="M17.3058 44.1989C17.191 44.1989 17.0762 44.3137 17.0762 44.4285C17.0762 44.5433 17.191 44.6581 17.3058 44.6581C17.5354 44.6581 17.7076 44.6581 17.8798 44.6581C18.2242 44.7155 18.5112 44.7729 18.7982 44.8877C19.2 45.0599 19.5444 45.2895 19.8888 45.5191C20.2906 45.8061 20.635 46.2079 20.922 46.6097C21.2091 47.0115 21.4387 47.4133 21.6683 47.8725C21.7257 47.9873 21.8405 48.0447 21.8979 48.0447C22.0127 48.0447 22.1275 48.0447 22.1849 47.9873C22.2997 47.9299 22.3571 47.8725 22.3571 47.7577C22.4145 47.6429 22.3571 47.5281 22.2997 47.4707C21.8405 46.4949 21.0943 45.6913 20.1758 45.0599C19.3148 44.4859 18.339 44.1989 17.3632 44.1989C17.4206 44.1415 17.3632 44.1989 17.3058 44.1989Z" fill="#CA8664"/>
<path d="M69.941 45.5765C69.08 45.5765 68.1616 45.8635 67.3005 46.3801C66.8987 46.6097 66.4969 46.9541 66.0951 47.3559C65.8655 47.5281 65.6933 47.7577 65.4637 47.9873C65.1193 48.3317 64.7175 48.7335 64.3731 49.1353C63.0529 50.6852 62.077 52.522 61.503 54.3014C61.1012 55.5643 60.9864 56.7697 61.1586 57.8603C61.216 58.4343 61.3882 59.0083 61.6178 59.5249C61.7326 59.812 61.8474 60.0416 62.0196 60.2712C62.077 60.386 62.1918 60.5008 62.3066 60.6156C62.1344 60.5582 62.0196 60.5008 61.8474 60.4434C61.7326 60.386 61.6178 60.3286 61.503 60.2712C61.4456 60.2138 61.3882 60.2138 61.3308 60.2138C61.2734 60.2138 61.2734 60.2138 61.216 60.2138C61.1012 60.2138 61.0438 60.3286 60.9864 60.386C60.929 60.4434 60.929 60.5582 60.9864 60.673C61.0438 60.7878 61.1012 60.8452 61.1586 60.8452C61.6752 61.0748 62.1918 61.247 62.7084 61.3618C63.1677 61.4766 63.6843 61.534 64.2583 61.534C64.3157 61.534 64.4305 61.534 64.4879 61.534C65.4063 61.534 66.3821 61.3618 67.3005 61.0748C68.2764 60.7878 69.2522 60.3286 70.1706 59.6972C71.0316 59.1231 71.8352 58.3769 72.5814 57.5733C73.2703 56.7697 73.8443 55.8513 74.2461 54.9329C74.4757 54.4736 74.6479 53.957 74.7627 53.4404C74.8775 52.9812 74.9349 52.522 74.9923 51.948C75.0497 50.9722 74.9923 49.939 74.7053 49.0205C74.4183 48.0447 73.9017 47.2411 73.2129 46.6097C72.8684 46.2653 72.4092 46.0357 71.95 45.8635C71.4334 45.6339 70.9168 45.5191 70.3428 45.4617C70.1706 45.5765 70.0558 45.5765 69.941 45.5765Z" fill="#FEBE9C"/>
<path d="M67.9893 49.4798C67.8171 49.5946 67.8171 49.7668 67.8745 49.8816C67.9319 49.9964 67.9319 50.0538 67.9893 50.1686C68.1615 50.5704 68.2763 50.9722 68.3337 51.374C68.3911 51.8333 68.3911 52.3499 68.3337 52.8665C68.2189 53.6127 68.0467 54.3015 67.7597 54.9903V54.9329C67.4727 55.6217 67.1283 56.2531 66.6691 56.8846C66.4969 57.0568 66.3821 57.229 66.2099 57.4012C66.0377 57.5734 65.8655 57.7456 65.6359 57.9178C65.5784 57.9752 65.5211 57.9752 65.4637 58.0326C65.4062 58.09 65.4062 58.1474 65.4062 58.2048C65.4637 58.2622 65.521 58.2622 65.5785 58.2622C66.2099 57.803 66.7839 57.229 67.3005 56.6549C67.8745 55.9661 68.2763 55.2199 68.6207 54.4163C68.9651 53.6127 69.1373 52.7517 69.1373 51.9481C69.1373 51.5462 69.0799 51.1444 68.9651 50.7426C68.9077 50.513 68.8503 50.3408 68.7355 50.1686C68.6781 50.0538 68.6207 49.9964 68.6207 49.8816C68.5633 49.7668 68.5059 49.7094 68.4485 49.652C68.3911 49.5946 68.3337 49.5372 68.2763 49.5372H68.2189C68.0467 49.4224 67.9893 49.4798 67.9893 49.4798Z" fill="#FEA06F"/>
<path d="M69.942 48.4466C69.7123 48.4466 69.4253 48.5614 69.1957 48.6188C68.9661 48.6762 68.7939 48.791 68.5643 48.9058C68.4495 48.9632 68.3347 49.0206 68.2773 49.1354C68.2199 49.1928 68.1625 49.2502 68.1051 49.3076C68.0477 49.365 68.0477 49.4224 67.9903 49.4798C67.9329 49.5946 67.9329 49.7094 67.9903 49.7668C67.9903 49.8242 68.0477 49.8242 68.1051 49.8242C68.1625 49.8242 68.2199 49.8242 68.2773 49.8242H68.3347C68.3921 49.8242 68.3921 49.8242 68.4495 49.7668C68.5069 49.7668 68.5643 49.7094 68.6217 49.652C68.7365 49.5946 68.9087 49.5372 69.0235 49.4224C69.2531 49.3076 69.5401 49.1928 69.7698 49.1354C70.1716 49.0206 70.516 48.9632 70.9178 48.9632C71.2048 48.9632 71.5492 49.0206 71.8362 49.078H71.7788C72.0658 49.1354 72.2954 49.2502 72.5824 49.365C72.6972 49.4224 72.8694 49.5372 72.9842 49.652C73.0416 49.7094 73.1564 49.7094 73.2138 49.5946C73.2712 49.5372 73.2712 49.4224 73.1564 49.365C72.812 49.078 72.4102 48.8484 71.951 48.6762C71.7214 48.6188 71.5492 48.5614 71.3196 48.504C71.09 48.4466 70.803 48.4466 70.5734 48.3892C70.516 48.3892 70.4586 48.3892 70.4012 48.3892C70.229 48.4466 70.0568 48.4466 69.942 48.4466Z" fill="#FEA06F"/>
<path d="M47.7274 9.29898C45.6609 9.35638 43.6519 9.58598 41.6428 10.0452C41.5854 10.0452 41.5854 10.0452 41.528 10.0452C41.4706 10.0452 41.4706 10.0452 41.4132 10.0452C41.0114 10.16 40.667 10.2748 40.2652 10.3896C40.093 10.447 39.9782 10.447 39.806 10.5044C37.797 11.0784 35.7879 11.9394 33.9511 12.9727C33.8363 13.0301 33.7215 13.0875 33.6067 13.1449C31.1958 14.4651 29.1294 16.0149 27.4074 17.7943C26.5463 18.7128 25.7427 19.746 25.0539 20.8366C24.3651 21.8698 23.7337 23.0753 23.2171 24.3381C22.7005 25.6009 22.2987 26.9211 22.0117 28.4136C21.6098 30.3078 21.4376 32.2594 21.3802 33.7519C21.3228 34.4981 21.3228 35.1869 21.2654 35.9331C21.1506 37.8273 21.0932 39.7216 20.8062 41.6158C20.634 42.8212 20.4044 44.0267 20.1748 45.2321C19.6582 47.8151 19.1416 50.513 19.2564 53.2108C19.3138 53.9571 19.4286 54.7607 19.6008 55.6791C19.7156 56.3679 19.9452 56.9993 20.1748 57.6881C20.5766 58.951 21.1506 60.2138 21.8395 61.3618C22.4709 62.4524 23.2745 63.4857 24.1929 64.5189C25.0539 65.4373 26.0297 66.2983 27.1204 67.1019C29.1868 68.5944 31.5402 69.7424 34.2381 70.4886C36.5341 71.1774 38.945 71.4644 41.4706 71.4644C41.7576 71.4644 42.0447 71.4644 42.3317 71.4644C45.0869 71.3496 47.8996 70.833 50.7122 69.8572C53.1805 68.9962 55.3617 67.8481 57.3134 66.4705C59.265 65.0355 60.8722 63.4283 61.9628 61.5914C62.0202 61.4192 62.135 61.3044 62.1924 61.1322C62.4221 60.6156 62.7091 60.1564 62.9961 59.6398C63.0535 59.525 63.1109 59.4676 63.1683 59.3528C63.2257 58.7788 63.3405 58.2048 63.4553 57.6307C63.8571 55.3921 64.5459 53.1535 65.4643 51.087C66.3827 48.9058 67.5308 46.7819 68.851 44.8303C70.1712 42.8786 71.6636 41.0992 73.3283 39.492C73.5579 39.2624 73.8449 39.0328 74.0745 38.8032C74.3041 38.2866 74.4763 37.8273 74.6485 37.3107C74.6485 37.3107 74.6485 37.3107 74.6485 37.3681C75.4521 35.1295 76.0835 32.776 76.4279 30.4226C76.2557 28.8728 75.9113 27.4951 75.3373 26.2323C75.3373 26.1175 75.3373 26.0601 75.2799 25.9453C74.8207 24.9121 74.3041 23.8215 73.7301 22.8456C73.1561 21.9272 72.5247 20.9514 71.8358 20.033C70.5156 18.311 68.9084 16.7611 67.1289 15.3835C63.7423 12.743 59.552 10.8488 55.0747 9.93039C52.8935 9.47118 50.6548 9.24158 48.4162 9.24158C48.0718 9.29898 47.8996 9.29898 47.7274 9.29898Z" fill="#FEBE9C"/>
<path d="M79.8157 28.8727C79.4139 27.7821 78.8399 26.7489 78.2085 25.7731C77.5197 24.8546 76.716 24.051 75.7976 23.3622C75.0514 22.8456 74.2478 22.4438 73.4442 22.0994C73.2146 22.042 73.0424 21.9846 72.8128 21.9272C72.6406 21.8698 72.4684 21.8124 72.2962 21.755C71.8943 21.6402 71.4351 21.468 71.0333 21.3532C69.7131 20.894 68.3929 20.3199 67.1301 19.8033C65.8672 19.2293 64.547 18.6553 63.2842 18.1387C61.9639 17.6221 60.5863 17.1055 59.2087 16.7037C58.5199 16.4741 57.7737 16.3019 57.0274 16.1871C56.3386 16.0149 55.5924 15.9001 54.8462 15.7853C52.8946 15.4983 50.8855 15.326 48.8765 15.326C48.1303 15.326 47.3841 15.326 46.6378 15.326C45.8916 15.326 45.088 15.326 44.3418 15.326C46.7526 15.6705 49.2209 16.1871 51.6891 16.8759L51.6317 16.8185C54.961 17.7943 57.6589 18.9423 59.9549 20.3199C61.3899 21.181 62.538 22.0994 63.5138 23.0752C64.1452 23.764 64.6618 24.4528 65.121 25.199C64.547 24.5676 63.973 24.051 63.3416 23.477C62.7102 22.9604 62.0213 22.5012 61.3325 22.042H61.2751C61.2177 22.042 61.1603 22.042 61.1603 22.0994C61.1029 22.1568 61.1603 22.2142 61.2177 22.2716C61.2751 22.329 61.3325 22.329 61.3899 22.3864C62.0788 22.8456 62.7102 23.477 63.2842 24.1658C63.9156 24.912 64.4322 25.6583 64.9488 26.4619C64.7192 26.2323 64.4896 26.0027 64.26 25.7731C62.4806 23.9362 60.4715 22.329 58.2903 21.0662C57.7737 20.7792 57.2571 20.4922 56.7978 20.2625C56.2812 20.0329 55.7646 19.8033 55.248 19.5737C54.2148 19.1719 53.1242 18.8275 52.0336 18.5405H51.9762C51.9187 18.5405 51.8039 18.5979 51.8039 18.6553C51.8039 18.7701 51.8613 18.8849 51.9187 18.8849C52.8372 19.1145 53.6982 19.4015 54.5592 19.7459C56.2238 20.4348 57.7737 21.4106 59.2661 22.5586C61.1029 23.9936 62.825 25.6583 64.26 27.5525C64.834 28.2987 65.408 29.1023 65.9246 29.9059C65.982 30.0207 66.0394 30.0781 66.0968 30.1929C66.0394 31.2262 65.8098 32.3168 65.4654 33.5796C65.0062 35.1868 64.3748 36.7367 63.7434 38.2291C63.5138 38.8605 63.2268 39.4919 62.9972 40.1233C62.538 41.3862 62.1361 42.4768 61.9065 43.4526C61.6195 44.658 61.4473 45.6913 61.3899 46.7245C61.3899 47.3559 61.3899 47.8725 61.5047 48.3891C61.5621 48.8483 61.7343 49.1927 61.9065 49.4797C61.9639 49.5945 62.0787 49.7093 62.1936 49.7667C62.3084 49.8815 62.4806 49.9389 62.6528 49.9389C62.7102 49.9389 62.825 49.9963 62.9398 49.9963C63.112 49.9963 63.2842 49.9389 63.5138 49.8815C63.8582 49.7667 64.1452 49.5945 64.4322 49.4223C64.7192 49.2501 65.0062 49.0205 65.3506 48.6761C65.8098 48.2743 66.2116 47.8725 66.6134 47.4707C66.6708 47.4707 66.6708 47.4707 66.7282 47.4133C67.1875 47.0115 67.5893 46.6097 68.0485 46.2079C68.5077 45.7487 68.9095 45.232 69.3113 44.7154C69.3113 44.7154 69.3113 44.7154 69.3687 44.658C69.3687 44.658 69.3687 44.658 69.4261 44.658C69.6557 44.5432 69.8853 44.4284 70.1149 44.371C70.1149 44.371 70.1149 44.371 70.1723 44.371C70.2871 44.3136 70.3445 44.3136 70.4593 44.3136C70.6315 44.2562 70.8037 44.2562 70.9759 44.2562C71.0333 44.2562 71.0907 44.2562 71.1481 44.2562C71.3777 44.2562 71.6647 44.3136 71.8943 44.371C72.0665 44.4284 72.2962 44.4858 72.4684 44.6006C72.8128 44.7728 73.0998 45.0024 73.272 45.2894C73.3294 45.3468 73.3868 45.4616 73.3868 45.5191C73.846 45.3468 74.2478 45.1746 74.707 45.0024C75.568 44.6006 76.3716 44.084 77.0605 43.4526C77.7493 42.8786 78.3807 42.1324 78.8973 41.3288C79.9305 39.7789 80.6193 37.8273 80.8489 35.5313C80.9063 33.4648 80.6193 31.1114 79.8157 28.8727Z" fill="#192E35"/>
<path d="M75.7976 24.9695C76.0272 25.5435 76.1994 26.1175 76.3142 26.6915C76.4291 27.2656 76.5439 27.7822 76.6013 28.3562C76.6587 28.9302 76.6587 29.5042 76.6013 30.0208C76.5439 30.5948 76.4865 31.1114 76.3716 31.628C76.142 32.7187 75.7976 33.8093 75.3384 34.8425C74.8218 36.0479 74.1904 37.1959 73.5016 38.2866C73.1572 38.8606 72.7554 39.4346 72.3536 40.0086C72.124 40.2956 71.9518 40.64 71.7222 40.927C71.55 41.214 71.3203 41.4436 71.1481 41.7306C70.4593 42.7065 69.8279 43.6823 69.2539 44.7155C69.2539 44.7155 69.2539 44.7155 69.3113 44.7155C69.5409 44.6007 69.7705 44.4859 70.0001 44.4285C70.0001 44.4285 70.0001 44.4285 70.0575 44.4285C70.1723 44.3711 70.2297 44.3711 70.3445 44.3711C70.5167 44.3137 70.6889 44.3137 70.8611 44.3137C70.9185 44.3137 70.9759 44.3137 71.0333 44.3137C71.2629 44.3137 71.55 44.3711 71.7796 44.4285C72.0092 44.4859 72.1814 44.6007 72.3536 44.6581C72.698 44.8303 72.985 45.0599 73.1572 45.3469C73.2146 45.4043 73.272 45.5191 73.272 45.5765C73.7312 45.4043 74.1904 45.2321 74.5922 45.0599C75.4532 44.6581 76.2568 44.1415 76.9457 43.5101C77.6345 42.9361 78.2659 42.1898 78.7825 41.3862C79.8157 39.8364 80.5045 37.8848 80.7341 35.5887C80.9637 33.4075 80.6767 31.054 79.8157 28.8154C79.4139 27.7248 78.8399 26.6915 78.2085 25.7157C77.5197 24.7973 76.7161 23.9937 75.7976 23.3049C75.4532 23.0753 75.1088 22.8457 74.707 22.6735C75.1088 23.4771 75.4532 24.2233 75.7976 24.9695Z" fill="#0F1D21"/>
<path d="M32.3432 17.3351C32.3432 17.2777 32.2858 17.2203 32.2284 17.2203H32.171C31.7691 17.3351 31.4247 17.4499 31.0229 17.6221L30.8507 17.6795C30.5063 17.7943 30.1619 17.9092 29.8175 18.024C28.8991 18.311 28.0955 18.6554 27.4067 18.9424C27.2919 18.9998 27.1771 19.0572 27.0623 19.1146C26.8901 19.172 26.7178 19.2868 26.5456 19.3442C26.316 19.459 26.0864 19.5738 25.9142 19.6886C25.742 19.8034 25.6272 19.8608 25.455 19.9756C25.3402 20.033 25.2254 20.0904 25.168 20.1478C24.5366 20.607 23.9052 21.181 23.3312 21.8124C23.2164 21.9272 23.2164 22.042 23.3312 22.1568L23.3886 22.2142C23.1016 22.5012 22.8146 22.903 22.585 23.3049C22.4128 23.5345 22.2406 23.8215 22.0684 24.1085C21.8962 24.3955 21.7813 24.6825 21.7239 24.9121C21.6665 25.0269 21.6665 25.1417 21.6665 25.2565C21.6665 25.3139 21.6665 25.3713 21.7239 25.4287C21.6091 25.6009 21.4369 25.7731 21.3221 26.0027C21.0351 26.4045 20.8629 26.7489 20.7481 27.0933C20.6907 27.2655 20.6907 27.3803 20.7481 27.5525C20.8055 27.7247 20.9203 27.8395 21.0925 27.8969C21.1499 27.9543 21.2647 27.9544 21.3221 27.9544C21.3795 27.9544 21.4943 27.9543 21.5517 27.8969L21.6091 27.8395L21.6665 27.7821C21.7813 27.7247 21.8388 27.6099 21.8962 27.5525L22.0684 27.2081C22.1832 27.0359 22.298 26.8637 22.3554 26.6915C22.4128 26.5767 22.5276 26.4619 22.585 26.3471C22.6424 26.2897 22.6424 26.2323 22.6998 26.1749C22.9868 25.7731 23.2738 25.3713 23.6182 24.9121C23.8478 24.6251 24.0774 24.3381 24.3644 24.0511C24.4792 23.8789 24.6514 23.7641 24.7662 23.6493C24.881 23.5345 24.9958 23.4197 25.1106 23.3049L25.168 23.2475C25.6272 22.8456 25.9716 22.5012 26.316 22.2142C26.7178 21.8698 27.1197 21.5828 27.6937 21.2384C27.7511 21.2384 27.7511 21.181 27.7511 21.181C27.7511 21.1236 27.7511 21.1236 27.7511 21.0662C27.7511 21.0088 27.6937 21.0088 27.6363 21.0088C27.5789 21.0088 27.5789 21.0088 27.5789 21.0088C27.1771 21.2384 26.8327 21.468 26.4308 21.6976L25.6846 22.1568C25.455 22.329 25.168 22.5012 24.8236 22.7308H24.881C25.3402 22.1568 25.8568 21.6402 26.316 21.181C26.7752 20.7218 27.2345 20.3774 27.6363 20.033C28.0955 19.6886 28.6121 19.3442 29.1861 19.0572C30.3341 18.4258 31.4247 17.9666 32.458 17.6221C32.5154 17.6221 32.5154 17.5647 32.5154 17.5647C32.4006 17.3925 32.4006 17.3351 32.3432 17.3351Z" fill="#0F1D21"/>
<path d="M68.393 29.9634C68.393 30.3652 68.3356 30.767 68.2782 31.1688C68.2208 31.628 68.106 32.0298 68.0486 32.489C67.9338 32.9482 67.819 33.35 67.7042 33.8092C67.5894 34.2684 67.4172 34.6703 67.245 35.1295C67.0727 35.5887 66.9005 35.9905 66.7283 36.4497C66.2117 37.7125 65.6377 38.9179 65.1785 40.1808C64.7193 41.4436 64.2601 42.8212 64.0879 44.1414C64.0879 44.2562 64.0879 44.3136 64.1453 44.4285C64.2027 44.5433 64.3175 44.6581 64.4897 44.6581C64.7767 44.7155 65.0637 44.5433 65.1211 44.3136C65.2359 43.7396 65.3507 43.1656 65.5229 42.5916C65.6951 41.9602 65.8673 41.3862 66.0395 40.8122C66.4413 39.6068 66.8431 38.4013 67.245 37.1959C67.4172 36.6219 67.5894 36.0479 67.7616 35.4739C67.9338 34.8999 68.106 34.2684 68.2208 33.6944C68.5078 32.489 68.68 31.2836 68.68 30.0782C68.68 29.9634 68.6226 29.906 68.5078 29.906C68.5078 29.7912 68.393 29.8486 68.393 29.9634Z" fill="#0F1D21"/>
<path d="M70.515 28.4136C70.5724 29.2172 70.5724 30.0208 70.4576 30.8244C70.2854 32.202 69.8836 33.5223 69.3096 34.7851V34.7277C69.3096 34.7277 69.3096 34.7851 69.2522 34.7851C69.1374 35.0721 68.9652 35.4165 68.8504 35.7035C68.793 35.7609 68.793 35.8757 68.793 35.9331C68.793 35.9905 68.8504 36.1053 68.9078 36.1053C68.9652 36.1627 69.08 36.1627 69.1374 36.1627C69.1948 36.1627 69.3096 36.1053 69.3096 35.9905C69.8262 34.7851 70.228 33.5223 70.515 32.2594C70.6298 31.628 70.7446 30.9966 70.7446 30.3652C70.802 29.7338 70.802 29.045 70.6872 28.3562C70.6872 28.2414 70.6298 28.184 70.515 28.184C70.6298 28.2414 70.515 28.3562 70.515 28.4136Z" fill="#0F1D21"/>
<path d="M39.0028 57.3438H38.9454H38.888C38.5436 57.3438 38.1992 57.4012 37.8548 57.5734C37.5104 57.6882 37.166 57.9178 36.879 58.2048C36.8216 58.2622 36.8216 58.377 36.879 58.4344C36.9364 58.4918 36.9364 58.4918 36.9938 58.4918C37.0512 58.4918 37.0512 58.4918 37.1086 58.4344C37.166 58.377 37.2808 58.2622 37.3956 58.2048C37.5678 58.09 37.74 58.0326 37.9122 57.9178C38.1418 57.8604 38.3714 57.803 38.601 57.803C38.6584 57.803 38.7158 57.803 38.8306 57.803C39.0028 57.803 39.175 57.803 39.3472 57.8604C39.6342 57.9178 39.8639 57.9752 40.1509 58.1474C40.3231 58.2622 40.5527 58.377 40.7249 58.4918C40.7823 58.4918 40.8397 58.5492 40.8397 58.5492C40.9545 58.5492 41.0119 58.4918 41.0693 58.4344C41.1267 58.377 41.1267 58.3196 41.1267 58.2048C41.1267 58.1474 41.0693 58.09 41.0119 58.0326C40.4953 57.5734 39.749 57.3438 39.0028 57.3438Z" fill="#192E35"/>
<path d="M23.2747 37.9995C23.7339 38.9754 25.7429 38.9754 27.8094 37.9995C29.8758 37.0811 31.2534 35.5313 30.7942 34.5555C30.335 33.5797 28.326 33.5797 26.2595 34.5555C24.1357 35.5313 22.8155 37.0237 23.2747 37.9995Z" fill="#0F1D21"/>
<path d="M46.8092 35.3018C46.1778 36.2776 47.4406 38.2292 49.6218 39.5495C51.8031 40.8697 54.0417 41.1567 54.6731 40.1235C55.3045 39.1477 54.0417 37.196 51.8605 35.8758C49.6792 34.613 47.4406 34.326 46.8092 35.3018Z" fill="#0F1D21"/>
<path d="M27.5222 43.3953C26.776 43.3953 26.1446 44.5433 26.0872 46.0357C26.0298 46.7819 26.1446 47.4707 26.3168 47.9874C26.5464 48.504 26.8334 48.8484 27.1778 48.8484C27.924 48.8484 28.5554 47.7003 28.6702 46.2079C28.7276 44.7155 28.211 43.4527 27.5222 43.3953Z" fill="#192E35"/>
<path d="M48.7038 44.4285C47.9575 44.4285 47.3261 45.5765 47.2113 47.0689C47.0965 48.5613 47.6131 49.8242 48.302 49.8816C49.0482 49.8816 49.6796 48.7336 49.7944 47.2411C49.8518 46.4949 49.737 45.8061 49.5648 45.2895C49.3352 44.7729 49.0482 44.4285 48.7038 44.4285Z" fill="#192E35"/>
<path d="M37.5663 39.7216C37.5089 39.7216 37.5089 39.7216 37.4515 39.779L37.3941 39.8364C37.5089 41.788 37.4515 43.4526 37.2219 45.0025C37.0497 46.1505 36.8775 47.0115 36.5331 47.8725C36.1313 47.6429 35.7295 47.4707 35.2703 47.2985C34.8685 47.1837 34.4666 47.0689 34.1222 47.0689H34.0648C33.4334 47.0689 32.9168 47.2985 32.515 47.7003C32.1706 48.1021 31.9984 48.6761 32.0558 49.2501C32.1132 49.8816 32.3428 50.5704 32.7446 51.1444C32.9742 51.4888 33.3186 51.8906 33.663 52.1776C34.0648 52.522 34.524 52.809 35.0407 53.0386C35.0981 53.096 35.1555 53.096 35.2703 53.096C35.3277 53.096 35.3277 53.096 35.3851 53.096C35.4999 53.096 35.5573 52.9812 35.6147 52.9238C35.6721 52.809 35.6721 52.7516 35.6721 52.6368C35.6147 52.522 35.5573 52.4072 35.3851 52.3498C35.2703 52.2924 35.2129 52.2924 35.0981 52.235C34.7537 52.0628 34.4092 51.8906 34.1222 51.661C33.8352 51.4314 33.5482 51.2018 33.376 50.9148C33.2038 50.6278 33.0316 50.3982 32.8594 50.1112C32.7446 49.8242 32.6872 49.5946 32.6298 49.365C32.6298 49.1353 32.6298 48.9631 32.6298 48.7335C32.6298 48.5613 32.6872 48.4465 32.7446 48.3317C32.802 48.2169 32.8594 48.1021 32.9168 48.0447V47.9873L32.9742 47.9299C33.0316 47.8725 33.089 47.8725 33.089 47.8151C33.2038 47.7577 33.2612 47.7003 33.376 47.6429C33.4908 47.5855 33.663 47.5281 33.8352 47.5281C33.95 47.5281 34.0648 47.5281 34.1796 47.5281C34.2944 47.5281 34.4666 47.5281 34.5814 47.5281H34.524C34.9259 47.5855 35.3851 47.7577 35.8443 47.9299C36.0739 48.0447 36.3035 48.1595 36.5331 48.2743H36.5905C36.6479 48.2743 36.7053 48.2169 36.7627 48.1595C36.9923 47.5281 37.1645 46.8967 37.2793 46.2079C37.3941 45.5765 37.5089 44.8877 37.5663 44.1414C37.6811 42.8786 37.6811 41.501 37.6237 39.8938C37.6811 39.779 37.6237 39.7216 37.5663 39.7216Z" fill="#CA8664"/>
</svg>
