<svg width="100" height="100" viewBox="0 0 100 100" fill="none" xmlns="http://www.w3.org/2000/svg">
<path d="M50.1842 0H50.012C37.4412 0.0574011 25.6166 4.9365 16.7194 13.8337C7.8222 22.7309 2.9431 34.4981 3.0005 47.0115C3.0579 72.7847 24.1815 93.7361 50.1268 93.7361H50.299C62.8699 93.6787 74.6945 88.7996 83.5917 79.9024C92.4889 71.0052 97.368 59.238 97.3106 46.7245C97.1958 20.9514 76.0722 0 50.1842 0Z" fill="#E7EEEF"/>
<path d="M76.7027 25.0269C76.6453 25.0269 76.5879 25.0269 76.5305 25.0843C76.3583 25.1417 76.3009 25.3713 76.3583 25.5435C76.6453 26.2897 76.9323 27.0359 77.1619 27.7821C77.3915 28.4709 77.5637 29.1597 77.7359 29.8486H77.6785C77.6211 29.8486 77.5637 29.8486 77.5637 29.906C75.1529 31.2262 73.2586 32.4316 71.6514 33.6944C69.8146 35.0721 68.1499 36.5645 66.7723 38.1717C65.2799 39.8364 64.0171 41.8454 62.869 44.084C62.4098 45.0025 62.008 45.8635 61.6636 46.6671C61.2044 47.7577 60.86 48.7909 60.6304 49.7093C60.3434 50.9148 60.286 51.8906 60.4582 52.809C60.5156 53.2682 60.6878 53.7274 60.9174 54.1292C61.147 54.531 61.4914 54.9329 61.8932 55.2773C62.2376 55.5643 62.6968 55.8513 63.2134 56.0235C63.6727 56.1957 64.1893 56.3105 64.7633 56.3105C64.9355 56.3105 65.0503 56.3105 65.2225 56.3105C66.0835 56.3105 67.0019 56.1383 67.9777 55.8513C68.3795 55.7365 68.7814 55.5643 69.1832 55.3347C69.5276 55.1625 69.872 54.9329 70.3312 54.5884C71.1348 53.957 71.881 53.2682 72.5124 52.4072C73.0864 51.6036 73.6031 50.6852 73.8901 49.7667C74.0623 49.3075 74.1771 48.7909 74.2345 48.2743C74.2919 47.8151 74.3493 47.2985 74.2919 46.7245C75.3251 45.6339 76.1287 44.7155 76.8175 43.797C77.2193 43.223 77.5637 42.649 77.9081 42.0176C78.1951 41.501 78.4247 40.927 78.597 40.353C78.9414 39.2623 79.171 38.0569 79.2284 36.7367C79.2858 35.5313 79.2284 34.3258 79.1136 32.9482C78.9414 31.6854 78.7118 30.3652 78.3099 28.9875C77.9655 27.7821 77.5637 26.5193 77.0471 25.3139C76.9897 25.0843 76.8175 25.0269 76.7027 25.0269Z" fill="#192E35"/>
<path d="M78.655 32.3743C78.4828 32.3743 78.3105 32.5465 78.3105 32.7761C78.3679 34.1537 78.3679 35.4739 78.3105 36.8516C78.3105 36.9664 78.3679 37.0238 78.4253 37.0812C78.4827 37.1386 78.5976 37.196 78.7124 37.1386C78.8272 37.1386 78.8846 37.0812 78.942 37.0238C78.9994 36.9664 78.9994 36.8516 78.9994 36.7942C79.0568 35.4165 79.0568 34.0963 78.9994 32.7187C79.0568 32.5465 78.8846 32.3743 78.655 32.3743C78.7124 32.3743 78.7124 32.3743 78.655 32.3743Z" fill="#192E35"/>
<path d="M78.5397 30.9392C78.3675 30.9392 78.1953 31.1114 78.1953 31.341C78.4249 32.7186 78.5971 34.0389 78.4823 35.4165C78.4249 35.8183 78.4249 36.2775 78.3101 36.6793C78.2527 36.8515 78.4249 37.0811 78.5971 37.0811C78.7693 37.1385 78.9989 36.9663 78.9989 36.7941C79.3433 34.9573 79.1711 33.0631 78.8841 31.2262C78.8841 31.1114 78.8267 31.054 78.7693 30.9966C78.7119 30.9392 78.6545 30.9392 78.5397 30.9392Z" fill="#192E35"/>
<path d="M78.5964 31.054C78.4242 31.054 78.252 31.2262 78.252 31.4558C78.3668 32.776 78.539 34.0388 78.4816 35.359C78.4816 35.5886 78.4241 35.7609 78.4241 35.9905C78.4241 36.1627 78.4816 36.3923 78.7112 36.3923C78.8834 36.4497 79.113 36.2775 79.113 36.1053C79.3426 34.498 79.113 32.9482 78.9408 31.3984C78.9982 31.1688 78.826 31.054 78.5964 31.054Z" fill="#192E35"/>
<path d="M78.5393 30.767C78.4245 30.767 78.3671 30.8244 78.3097 30.8818C78.2523 30.9392 78.1949 31.054 78.2523 31.1688C78.4819 32.489 78.5967 33.8092 78.5393 35.1295C78.5393 35.4165 78.4819 35.7035 78.4819 35.9905C78.4819 36.1053 78.4819 36.1627 78.5393 36.2775C78.5967 36.3349 78.6541 36.3923 78.7689 36.4497C78.9411 36.5071 79.1707 36.3349 79.1707 36.1627C79.3429 34.498 79.2855 32.776 78.9985 31.1114C78.9985 30.9966 78.9411 30.9392 78.8837 30.8818C78.7115 30.767 78.6541 30.767 78.5393 30.767Z" fill="#192E35"/>
<path d="M78.5964 30.8243C78.4242 30.8243 78.252 30.9965 78.252 31.2261C78.3668 32.4316 78.4816 33.637 78.4241 34.8424V34.785C78.4241 35.1868 78.3668 35.5312 78.3093 35.933C78.2519 36.1052 78.4242 36.3348 78.5964 36.3348C78.7686 36.3923 78.9982 36.22 78.9982 36.0478C79.2852 34.4406 79.113 32.776 78.9408 31.1687C78.9982 30.9391 78.826 30.8243 78.5964 30.8243C78.6538 30.8243 78.6538 30.8243 78.5964 30.8243Z" fill="#192E35"/>
<path d="M78.4831 30.3652C78.3109 30.3652 78.1387 30.5374 78.1387 30.767C78.3683 32.1447 78.4831 33.5223 78.4257 34.8999C78.4257 35.2443 78.3683 35.6461 78.3109 35.9905C78.2535 36.1627 78.4257 36.3924 78.5979 36.3924C78.7701 36.4498 78.9997 36.2776 78.9997 36.1053C79.1719 35.1869 79.1719 34.2685 79.1145 33.4075C79.0571 32.4891 78.9423 31.5707 78.8275 30.7096C78.8275 30.48 78.7127 30.3652 78.4831 30.3652Z" fill="#192E35"/>
<path d="M25.214 17.1056C25.1566 17.1056 25.0992 17.1056 25.0418 17.163C24.1234 17.5648 23.2623 18.024 22.4587 18.6554C21.7125 19.172 21.0237 19.8608 20.3349 20.6071C19.1295 21.9847 18.211 23.7067 17.4648 25.6584C16.8334 27.4378 16.3742 29.4468 16.202 31.5133C16.0298 33.4649 16.1446 35.474 16.4316 37.4256C16.6612 38.918 17.1204 40.4679 17.7518 42.1325C18.0962 42.9935 18.4406 43.7397 18.7851 44.4859C19.2443 45.347 19.6461 45.9784 20.1053 46.5524C20.6219 47.1838 21.1385 47.5856 21.6551 47.8152C21.8847 47.93 22.1143 47.93 22.4013 47.93C22.4587 47.93 22.5161 47.93 22.5735 47.93C22.9179 47.93 23.2623 47.7578 23.4345 47.643C24.2382 47.1264 24.6974 46.3228 25.1566 45.5192C25.4436 45.0026 25.6732 44.4285 25.9602 43.7397C26.1898 43.1657 26.362 42.5343 26.5916 41.8455C27.3378 39.0902 27.7396 36.2202 27.9692 33.7519L28.084 32.8909L28.1414 32.4317L28.1988 31.7429L28.2562 31.3985C28.3136 30.8245 28.371 30.1931 28.4284 29.619C28.5432 28.0118 28.5433 26.5194 28.371 25.1418C28.3136 24.3955 28.1414 23.6493 27.9692 22.9605C27.797 22.3865 27.6248 21.7551 27.3952 21.0663C27.1656 20.4349 26.8786 19.8608 26.5916 19.2868C26.2472 18.6554 25.9028 18.1388 25.501 17.737C25.6158 17.6796 25.6732 17.45 25.5584 17.3352C25.501 17.2204 25.3288 17.1056 25.214 17.1056Z" fill="#0F1D21"/>
<path d="M77.7926 26.5768C78.0222 27.7248 78.1944 28.8728 78.1944 30.0783C78.1944 31.4559 78.0796 32.8909 77.7926 34.2112C77.6204 34.9 77.4482 35.5888 77.1612 36.2776C76.9316 36.909 76.6446 37.5978 76.3576 38.2292C76.0132 38.8606 75.6688 39.4921 75.267 40.0661C75.2096 40.1809 75.0948 40.2957 75.0374 40.4105C74.98 40.5253 74.8651 40.5827 74.8077 40.6975C74.6355 40.8697 74.4633 41.0419 74.2911 41.2141C73.4875 41.9029 72.5691 42.4769 71.7081 43.1083C71.3637 43.3953 70.9619 43.6823 70.6749 44.0842C70.6175 44.1416 70.5601 44.199 70.5601 44.2564C70.5027 44.3138 70.5027 44.3712 70.4453 44.4286C70.4453 44.486 70.3879 44.486 70.3879 44.5434C70.3879 44.6008 70.3879 44.6582 70.3879 44.6582C70.3879 44.7156 70.3879 44.8304 70.3879 44.8878C70.3879 44.9452 70.3879 45.0026 70.3879 45.06C70.4453 45.347 70.5027 45.634 70.5601 45.9784C70.5601 46.0932 70.6175 46.2654 70.5601 46.3802C70.5601 46.5524 70.5601 46.7246 70.5027 46.8968C70.4453 47.5282 70.3305 48.1596 70.2157 48.791C70.0435 49.4225 69.8712 50.1113 69.6416 50.7427C69.412 51.3167 69.1824 51.8907 68.9528 52.4647C68.3788 53.7275 67.8048 54.933 67.0586 56.081C67.3456 56.0236 67.6326 55.9088 67.9196 55.8514C68.3214 55.7366 68.7232 55.5644 69.125 55.3348C69.4694 55.1626 69.8138 54.933 70.2731 54.5886C71.0767 53.9571 71.8229 53.2683 72.4543 52.4073C73.0283 51.6037 73.5449 50.6853 73.8319 49.7669C74.0041 49.3077 74.1189 48.791 74.1763 48.2744C74.2337 47.8152 74.2911 47.2986 74.2337 46.7246C75.267 45.634 76.0706 44.7156 76.7594 43.7971C77.1612 43.2231 77.5056 42.6491 77.85 42.0177C78.137 41.5011 78.3666 40.9271 78.5388 40.3531C78.8832 39.2625 79.1128 38.057 79.2276 36.7368C79.2276 36.2776 79.285 35.8184 79.285 35.3592C79.285 34.8426 79.285 34.326 79.285 33.7519C79.285 33.5797 79.285 33.4075 79.285 33.1779C79.285 32.7187 79.2276 32.2595 79.2276 31.8577C79.1702 30.7097 78.998 29.6191 78.711 28.6432C78.4814 27.7822 78.1944 27.036 77.7926 26.2898C77.7352 26.3472 77.7352 26.462 77.7926 26.5768Z" fill="#0F1D21"/>
<path d="M52.708 10.2174C54.0282 12.1116 55.6929 13.7189 57.4149 15.2113C58.1611 15.8427 58.9647 16.4167 59.8258 16.9907C60.572 17.5074 61.3182 17.9666 62.0644 18.4258C63.4994 19.3442 64.9919 20.2052 66.4843 21.0662C68.3785 22.1568 70.3302 23.2475 72.167 24.4529C72.6836 24.7973 73.1428 25.0843 73.6594 25.4287C73.7168 25.3139 73.8316 25.1991 73.889 25.0843C74.0038 24.9121 74.1186 24.7399 74.2334 24.5677C73.9464 23.9363 73.602 23.3623 73.2576 22.7883C72.6836 21.8698 72.0522 20.894 71.3634 19.9756C70.0432 18.2536 68.4359 16.7037 66.6565 15.3261C63.2698 12.6857 59.0795 10.7914 54.6023 9.873C53.7986 9.7008 52.995 9.58599 52.1914 9.47119C52.3636 9.7008 52.5358 9.9878 52.708 10.2174Z" fill="#FEBE9C"/>
<path d="M62.6402 21.6403C62.181 21.6403 61.7792 21.6403 61.32 21.6977C59.7701 21.8699 58.2203 22.3291 56.6705 23.0753C55.5799 23.5919 54.604 24.2233 53.743 24.9121C53.743 24.0511 53.8004 23.1901 53.8004 22.4439C53.8004 22.2717 53.743 22.0995 53.6282 21.9273C53.5134 21.7551 53.2838 21.6977 53.1116 21.6977C52.9394 21.6977 52.7098 21.7551 52.595 21.9273L52.4802 22.0995C52.4228 22.2143 52.3654 22.3291 52.3654 22.4439C52.2506 23.7641 52.2506 25.1991 52.3654 26.6916C52.4802 28.0692 52.7098 29.4468 53.0542 30.8818C53.3986 32.2021 53.8004 33.5223 54.3744 34.8999C54.8336 36.0479 55.4077 37.3682 56.1539 38.5162C56.4409 39.0328 56.7853 39.4346 57.1871 39.8364C57.4741 40.1808 57.8759 40.5252 58.2777 40.8122C58.9665 41.2714 59.7701 41.5585 60.6312 41.5585H60.746C61.607 41.5585 62.5254 41.2141 63.4438 40.64C64.5918 39.8938 65.4529 38.9754 66.1991 38.1144C67.0601 37.0812 67.8637 36.0479 68.4951 34.8999C68.7821 34.3259 69.0691 33.7519 69.3561 33.1205C69.5857 32.5465 69.7579 31.9151 69.8727 31.2837C69.9875 30.6522 70.045 30.0208 70.045 29.332C70.045 28.758 69.9875 28.184 69.8727 27.5526C69.7005 26.6342 69.4135 25.7731 69.0117 25.0269C68.6673 24.3381 68.2081 23.7641 67.6341 23.2475C67.1175 22.7883 66.4861 22.4439 65.7973 22.1569C64.764 21.8125 63.7308 21.6403 62.6402 21.6403Z" fill="#FEBE9C"/>
<path d="M46.2813 64.3467C45.7647 64.3467 45.1906 64.4041 44.674 64.5189C43.1242 64.8059 41.6318 65.4947 40.5412 66.5853C39.9671 67.1019 39.5079 67.7333 39.1635 68.4796C38.9913 68.824 38.8191 69.2258 38.7043 69.6276C38.6469 69.8572 38.5895 70.0294 38.5321 70.259C38.4747 69.972 38.4173 69.7424 38.4173 69.4554C38.3599 69.2832 38.1877 69.1684 38.0729 69.1684C38.0155 69.1684 38.0155 69.1684 37.9581 69.1684C37.8433 69.1684 37.7859 69.2832 37.7285 69.3406C37.6711 69.398 37.6711 69.5128 37.6711 69.6276C37.7859 70.0868 37.8433 70.6034 37.9007 71.12V71.1774C38.0729 72.6124 38.0729 73.7605 37.9581 74.7937C37.8433 75.4251 37.7285 75.9991 37.4989 76.5157C37.3267 76.9175 37.1545 77.2619 36.8675 77.6063C36.6379 77.8933 36.4083 78.123 36.1213 78.3526C35.8343 78.5822 35.4899 78.7544 35.1454 78.9266C34.6288 79.1562 34.1122 79.271 33.4808 79.3858C33.2512 79.4432 33.0216 79.4432 32.7346 79.4432C32.505 79.4432 32.3902 79.6154 32.3902 79.7876V79.845L32.3328 79.9024C31.7014 80.7634 31.1274 81.6244 30.7256 82.5428C30.496 83.0021 30.3812 83.4613 30.2663 83.8631C30.1515 84.2649 30.0941 84.6667 29.9793 85.1833C29.7497 86.8479 30.1515 88.4552 31.07 89.6606C31.5292 90.292 32.1606 90.8086 32.8494 91.2104C33.5956 91.6122 34.4566 91.8992 35.4325 92.014C35.8343 92.0714 36.2935 92.0714 36.7527 92.0714C37.3841 92.0714 38.0155 92.014 38.7617 91.8992C39.9671 91.727 41.23 91.3826 42.5502 90.9234C44.9036 90.1198 47.2571 88.857 49.6679 87.1923C51.7918 85.7573 53.8582 84.0353 55.8099 82.0262C56.1543 81.6818 56.5561 81.28 56.9005 80.8782C57.3023 80.4764 57.7041 80.0172 58.1059 79.558C58.1633 79.558 58.1633 79.558 58.2207 79.558C58.3929 79.558 58.5077 79.4432 58.5651 79.271C58.5651 79.1562 58.5651 79.0988 58.5077 78.984C58.4503 78.9266 58.3929 78.8692 58.2781 78.8118C57.8763 78.697 57.4171 78.5822 57.0153 78.41C56.4987 78.1804 55.9821 77.8934 55.5229 77.5489C55.121 77.2045 54.7766 76.8601 54.4896 76.5157C54.1452 76.0565 53.8582 75.5399 53.6286 74.9659C53.3416 74.2197 53.112 73.4161 52.9972 72.4976C52.7676 70.8904 52.825 69.1684 53.112 67.0445C53.112 66.9297 53.1694 66.7575 53.1694 66.6427C53.1694 66.5279 53.1694 66.4705 53.112 66.3557C53.0546 66.2983 52.9972 66.2409 52.8824 66.1835C52.825 66.1835 52.825 66.1835 52.7676 66.1835C52.7102 66.1835 52.6528 66.1835 52.5954 66.2409C52.538 66.2983 52.4232 66.3557 52.4232 66.4705C52.3658 66.7575 52.3658 66.9871 52.3084 67.2741C52.0214 66.8723 51.677 66.4705 51.2752 66.1261C50.7012 65.6095 50.0123 65.2077 49.2087 64.8633C48.4051 64.5189 47.3719 64.3467 46.2813 64.3467Z" fill="#FEBE9C"/>
<path d="M44.6729 64.4615C43.123 64.7485 41.6306 65.4947 40.54 66.528C39.966 67.0446 39.5068 67.7334 39.1624 68.4222C38.9901 68.7666 38.8179 69.1684 38.7031 69.5702C38.6457 69.7424 38.5883 69.972 38.5309 70.2016C38.5309 69.9146 38.4735 69.6276 38.4161 69.398C38.3587 69.2258 38.1865 69.111 38.0717 69.111C38.0717 69.111 38.0143 69.111 37.9569 69.111C37.8421 69.111 37.7847 69.2258 37.7273 69.2832C37.6699 69.3406 37.6699 69.4554 37.6699 69.5702C37.7847 70.0294 37.8421 70.546 37.8995 71.0626V71.12C38.0717 72.5551 38.0717 73.7031 37.9569 74.7363C37.8995 75.0233 37.8995 75.2529 37.8421 75.4825C38.3013 75.5399 38.7605 75.5399 39.2198 75.4825C39.2198 75.4825 39.2198 75.4825 39.1624 75.4825C40.7122 75.4251 42.262 75.1381 43.7544 74.6789C45.4191 74.1623 46.9689 73.4735 48.4039 72.5551C49.552 71.8089 50.6426 70.9478 51.561 69.972C51.9054 69.5702 52.2498 69.2258 52.5368 68.7666C52.709 68.4796 52.8812 68.25 53.0534 67.963C53.1108 67.676 53.1108 67.3316 53.1682 67.0446C53.1682 66.9298 53.2256 66.7576 53.2256 66.6428C53.2256 66.528 53.2256 66.4705 53.1682 66.3557C53.1108 66.2983 53.0534 66.2409 52.9386 66.1835C52.8812 66.1835 52.8812 66.1835 52.8238 66.1835C52.7664 66.1835 52.709 66.1835 52.6516 66.2409C52.5942 66.2983 52.4794 66.3557 52.4794 66.4706C52.422 66.7576 52.422 66.9872 52.3646 67.2742C52.0776 66.8724 51.7332 66.4705 51.3314 66.1261C50.7574 65.6095 50.0686 65.2077 49.265 64.8633C48.3465 64.4615 47.3133 64.2893 46.2227 64.2893C45.7635 64.3467 45.2469 64.3467 44.6729 64.4615Z" fill="#FF9B68"/>
<path d="M56.9568 78.0655C56.8994 78.0655 56.8994 78.1229 56.8994 78.1229C56.4402 78.6396 55.9235 79.1562 55.3495 79.6728L55.4069 79.6154C53.5701 81.28 51.274 82.8298 48.4614 84.3223C47.7726 84.6667 47.0838 85.0111 46.395 85.3555C45.5913 85.7573 44.9599 86.0443 44.3859 86.2739C42.6639 87.0775 41.2288 87.5367 39.8512 87.8811C38.9328 88.1107 38.1292 88.1681 37.3256 88.1681C37.2682 88.1681 37.1534 88.1681 37.096 88.1681C37.0386 88.1681 37.0386 88.1681 37.0386 88.1681C36.522 88.1107 36.0053 88.0533 35.4887 87.8811C35.0869 87.7663 34.7425 87.5941 34.4555 87.4219C34.2259 87.2497 33.9963 87.0775 33.7667 86.8479C33.5945 86.6183 33.4223 86.3887 33.3075 86.1591C33.1353 85.8147 33.0205 85.4703 32.9057 85.1259C32.7909 84.6093 32.7335 84.0927 32.7909 83.4612C32.8483 82.6002 33.0205 81.7392 33.2501 80.8208C33.4223 80.3616 33.5945 79.845 33.7667 79.3858C33.8241 79.271 33.8241 79.1562 33.7667 79.0414C33.7093 78.9266 33.5945 78.8118 33.4223 78.8118C28.2562 79.2136 23.1475 80.8782 18.6702 83.6334C17.5796 84.2649 16.5464 85.0685 15.5131 85.8721C14.4799 86.6757 13.5041 87.5941 12.6431 88.5125C11.7247 89.4884 10.8636 90.579 10.06 91.727C9.48602 92.588 8.96941 93.449 8.625 94.3675C9.94523 94.8841 11.2655 95.4007 12.6431 95.8025C14.2503 96.3191 15.8001 96.7209 17.4074 97.1227C20.5644 97.8689 23.7789 98.4429 27.0508 98.9022C27.8544 99.017 28.658 99.1318 29.4616 99.1892C34.7425 99.7632 40.0234 100.05 45.3043 99.9928C50.7 99.9354 56.1531 99.591 61.4915 98.9022C64.7633 98.4429 68.0352 97.8689 71.2496 97.0653C74.3493 96.3191 77.3916 95.4007 80.2616 94.1953C80.2616 94.1953 80.2616 94.1953 80.2042 94.1953C81.3522 93.7361 82.4429 93.2194 83.4761 92.6454C83.5909 92.588 83.6483 92.5306 83.7631 92.4732C82.4429 90.579 80.893 88.8569 79.1136 87.3645C77.449 85.9295 75.4973 84.6667 73.2587 83.5186C71.3644 82.5428 69.2406 81.6244 66.715 80.7634C65.6817 80.419 64.5911 80.0746 63.2709 79.6728L62.2377 79.3858L61.2044 79.0988C60.4582 78.8692 59.712 78.6395 59.0232 78.4673C58.3918 78.2951 57.8178 78.1229 57.2438 78.0081H57.1864C57.129 77.8933 57.0142 77.9507 56.9568 78.0655ZM30.38 79.9598C30.3226 79.9598 30.2078 80.0172 30.093 80.0172C30.1504 80.0172 30.2652 80.0172 30.38 79.9598ZM27.0508 98.6151L27.3952 98.6725C27.3378 98.6725 27.223 98.6726 27.1656 98.6151H27.0508Z" fill="#074E64"/>
<path d="M56.8987 78.0656C56.8413 78.0656 56.8413 78.123 56.8413 78.123C56.3821 78.6396 55.8655 79.1562 55.2915 79.6728L55.4063 79.6154C53.512 81.2801 51.2734 82.8299 48.4607 84.3223C47.7145 84.7241 46.9683 85.0685 46.3943 85.3555C45.5907 85.7573 44.9592 86.0444 44.3852 86.274C42.6632 87.0776 41.2282 87.5368 39.8505 87.8812C38.9321 88.1108 38.1285 88.1682 37.3249 88.1682H37.2101H37.0953H37.0379C36.5213 88.1108 36.0047 88.0534 35.4881 87.9386C35.0862 87.8238 34.7418 87.6516 34.4548 87.4794C34.2252 87.3072 33.9956 87.135 33.766 86.9054C33.5938 86.6758 33.4216 86.4462 33.3068 86.2166C33.1346 85.8721 33.0198 85.5277 32.905 85.1833C32.7902 84.6667 32.7328 84.1501 32.7902 83.5761C32.8476 82.7151 32.9624 81.8541 33.2494 80.9356C33.4216 80.4764 33.5938 80.0172 33.766 79.5006C33.8234 79.3858 33.8234 79.271 33.766 79.1562C33.7086 79.0414 33.5938 78.9266 33.4216 78.9266C32.5606 78.984 31.6996 79.0988 30.896 79.2136C30.7812 79.5006 30.6664 79.7302 30.5516 80.0172C30.0924 81.1078 29.7479 82.3133 29.5757 83.4613C29.5183 83.8631 29.4609 84.2649 29.4609 84.6667C29.4609 85.0685 29.4609 85.4703 29.5183 85.8722C29.5757 86.1592 29.6331 86.3888 29.6905 86.6758C29.7479 86.9628 29.8627 87.1924 29.9775 87.4794C30.0924 87.709 30.2072 87.9386 30.322 88.1108C30.4368 88.3404 30.5516 88.5126 30.7238 88.7422C30.896 88.9144 31.0682 89.144 31.2404 89.3162C31.4126 89.4884 31.5848 89.6606 31.757 89.7754C32.331 90.1772 32.905 90.5216 33.5364 90.8086C33.9382 90.9808 34.34 91.153 34.7992 91.2105C35.2011 91.3253 35.6603 91.3827 36.1195 91.4401C36.7509 91.4975 37.3249 91.5549 37.9563 91.5549C38.5303 91.5549 39.1617 91.4975 39.7357 91.4401C39.7357 91.4401 39.7357 91.4401 39.6783 91.4401C40.9986 91.2679 42.3188 90.9234 43.639 90.5216C44.8444 90.1198 46.0499 89.6606 47.2553 89.2014C48.6329 88.6274 49.9531 87.9386 51.2734 87.1924C52.5362 86.4462 53.7416 85.6425 54.8896 84.7815C56.1525 83.8057 57.4153 82.7151 58.5633 81.5671C59.3669 80.7634 60.1706 79.9024 60.9168 79.0414C60.3428 78.8692 59.7113 78.697 59.1373 78.5248C58.5059 78.3526 57.9319 78.1804 57.3579 78.0656H57.3005C57.1283 77.8934 57.0135 77.9508 56.8987 78.0656Z" fill="#0A6F8F"/>
<path d="M17.235 42.0176C17.1202 42.0176 17.0054 42.0176 16.8906 42.0176C16.2592 42.075 15.7425 42.1898 15.2833 42.4194C14.8241 42.5916 14.3649 42.8786 14.0205 43.1656C13.3317 43.797 12.8151 44.6006 12.5281 45.5765C12.1837 46.4949 12.0689 47.5281 12.1837 48.5613C12.2411 49.1353 12.2985 49.5945 12.4133 50.0537C12.5281 50.5703 12.7003 51.087 12.9299 51.5462C13.3317 52.4646 13.9057 53.383 14.5945 54.1866C15.2833 54.9902 16.087 55.7365 17.0054 56.3105C17.9238 56.9419 18.8996 57.4011 19.8754 57.6881C20.8512 57.9751 21.8271 58.1473 22.7455 58.1473C22.8029 58.1473 22.9177 58.1473 22.9751 58.1473C23.5491 58.1473 24.0657 58.0899 24.5249 57.9751C25.0415 57.8603 25.5581 57.6881 26.0748 57.4585C26.1322 57.4011 26.1896 57.3437 26.247 57.2863C26.3044 57.1715 26.3044 57.0567 26.247 56.9993C26.1896 56.9419 26.1322 56.8271 26.0174 56.8271C25.96 56.8271 25.96 56.8271 25.9026 56.8271C25.8451 56.8271 25.7877 56.8271 25.7303 56.8845C25.6155 56.9419 25.5007 56.9993 25.3859 57.0567L25.1563 57.1141H25.0989L24.9267 57.1715C25.0415 57.0567 25.0989 56.9419 25.2137 56.8271C25.3859 56.5975 25.5007 56.3679 25.6155 56.0809C25.8451 55.5642 26.0174 54.9902 26.0748 54.4162C26.1896 53.3256 26.0748 52.1202 25.6729 50.8574C25.0989 49.0205 24.1231 47.2411 22.8029 45.6913C22.4585 45.2894 22.1141 44.8876 21.7123 44.5432C21.4827 44.3136 21.3105 44.084 21.0809 43.9118C20.679 43.51 20.2772 43.1656 19.8754 42.936C19.0144 42.3046 18.096 42.0176 17.235 42.0176Z" fill="#FEA97E"/>
<path d="M15.1105 44.1989C14.9957 44.1989 14.8809 44.3137 14.8809 44.4285C14.8809 44.5433 14.9957 44.6581 15.1105 44.6581C15.3401 44.6581 15.5123 44.6581 15.6845 44.6581C16.0289 44.7155 16.3159 44.7729 16.6029 44.8877C17.0047 45.0599 17.3491 45.2895 17.6935 45.5191C18.0953 45.8061 18.4397 46.2079 18.7267 46.6097C19.0137 47.0115 19.2433 47.4133 19.473 47.8725C19.5304 47.9873 19.6452 48.0447 19.7026 48.0447C19.8174 48.0447 19.9322 48.0447 19.9896 47.9873C20.1044 47.9299 20.1618 47.8725 20.1618 47.7577C20.2192 47.6429 20.1618 47.5281 20.1044 47.4707C19.6452 46.4949 18.8989 45.6913 17.9805 45.0599C17.1195 44.4859 16.1437 44.1989 15.1679 44.1989C15.2253 44.1989 15.1679 44.1989 15.1105 44.1989Z" fill="#CA8664"/>
<path d="M67.7484 45.5765C66.8874 45.5765 65.969 45.8635 65.1079 46.3801C64.7061 46.6097 64.3043 46.9541 63.9025 47.3559C63.6729 47.5281 63.5007 47.7577 63.2711 47.9873C62.9267 48.3317 62.5249 48.7335 62.1805 49.1353C60.8603 50.6852 59.8844 52.522 59.3104 54.3014C58.9086 55.5643 58.7938 56.7697 58.9086 57.8603C58.966 58.4343 59.1382 59.0083 59.3678 59.525C59.4826 59.812 59.5974 60.0416 59.7696 60.2712C59.827 60.386 59.9418 60.5008 60.0566 60.6156C59.8844 60.5582 59.7696 60.5008 59.5974 60.4434C59.4826 60.386 59.3678 60.3286 59.253 60.2712C59.1956 60.2138 59.1382 60.2138 59.0808 60.2138C59.0234 60.2138 59.0234 60.2138 58.966 60.2138C58.8512 60.2138 58.7938 60.3286 58.7364 60.386C58.679 60.4434 58.679 60.5582 58.7364 60.673C58.7938 60.7878 58.8512 60.8452 58.9086 60.8452C59.4252 61.0748 59.9418 61.247 60.4584 61.3618C60.9177 61.4766 61.4343 61.534 62.0083 61.534C62.0657 61.534 62.1805 61.534 62.2379 61.534C63.1563 61.534 64.1321 61.3618 65.0505 61.0748C66.0264 60.7878 67.0022 60.3286 67.9206 59.6972C68.7816 59.1231 69.5852 58.3769 70.3314 57.5733C71.0203 56.7697 71.5943 55.8513 71.9961 54.9329C72.2257 54.4736 72.3979 53.957 72.5127 53.4404C72.6275 52.9812 72.6849 52.522 72.7423 51.948C72.7997 50.9722 72.7423 49.939 72.4553 49.0205C72.1683 48.0447 71.6517 47.2411 70.9629 46.6097C70.6184 46.2653 70.1592 46.0357 69.7 45.8635C69.1834 45.6339 68.6668 45.5191 68.0928 45.4617C67.9206 45.5765 67.8632 45.5765 67.7484 45.5765Z" fill="#FEBE9C"/>
<path d="M65.7393 49.5372C65.5671 49.652 65.5671 49.8242 65.6245 49.939C65.6819 50.0538 65.6819 50.1112 65.7393 50.226C65.9115 50.6278 66.0263 51.0296 66.0837 51.4315C66.1411 51.8907 66.1411 52.4073 66.0837 52.9239C65.9689 53.6701 65.7967 54.3589 65.5097 55.0477V54.9903C65.2227 55.6791 64.8783 56.3105 64.4191 56.942C64.2469 57.1142 64.1321 57.2864 63.9599 57.4586C63.7877 57.6308 63.6155 57.803 63.3859 57.9752C63.3284 58.0326 63.2711 58.0326 63.2137 58.09C63.1562 58.1474 63.1563 58.2048 63.1563 58.2622C63.2137 58.3196 63.271 58.3196 63.3285 58.3196C63.9599 57.8604 64.5339 57.2864 65.0505 56.7124C65.6245 56.0235 66.0263 55.2773 66.3707 54.4737C66.7151 53.6701 66.8873 52.8091 66.8873 52.0055C66.8873 51.6037 66.8299 51.2018 66.7151 50.8C66.6577 50.5704 66.6003 50.3982 66.4855 50.226C66.4281 50.1112 66.3707 50.0538 66.3707 49.939C66.3133 49.8242 66.2559 49.7668 66.1985 49.7094C66.1411 49.652 66.0837 49.5946 66.0263 49.5946H65.9689C65.8541 49.4798 65.7967 49.4798 65.7393 49.5372Z" fill="#FEA06F"/>
<path d="M67.69 48.504C67.4604 48.504 67.1734 48.6188 66.9438 48.6762C66.7142 48.7336 66.542 48.8484 66.3124 48.9632C66.1976 49.0206 66.0828 49.078 66.0254 49.1354C65.968 49.1928 65.9106 49.2502 65.8532 49.3076C65.7958 49.365 65.7958 49.4224 65.7384 49.4798C65.681 49.5946 65.681 49.7094 65.7384 49.7668C65.7384 49.8242 65.7958 49.8242 65.8532 49.8242C65.9106 49.8242 65.968 49.8242 66.0254 49.8242H66.0828C66.1402 49.8242 66.1402 49.8242 66.1976 49.7668C66.255 49.7668 66.3124 49.7094 66.3698 49.652C66.4846 49.5946 66.6568 49.5372 66.7716 49.4224C67.0012 49.3076 67.2882 49.1928 67.5178 49.1354C67.9196 49.0206 68.264 48.9632 68.6658 48.9632C68.9528 48.9632 69.2972 49.0206 69.5842 49.078H69.5268C69.8138 49.1354 70.0434 49.2502 70.3305 49.365C70.4453 49.4224 70.6175 49.5372 70.7323 49.652C70.7897 49.7094 70.9045 49.7094 70.9619 49.5946C71.0193 49.5372 71.0193 49.4224 70.9045 49.365C70.5601 49.078 70.1582 48.8484 69.699 48.6762C69.4694 48.6188 69.2972 48.5614 69.0676 48.504C68.838 48.4466 68.551 48.4466 68.3214 48.3892C68.264 48.3892 68.2066 48.3892 68.1492 48.3892C68.0344 48.504 67.8622 48.504 67.69 48.504Z" fill="#FEA06F"/>
<path d="M26.4765 17.9665C25.6155 18.885 24.8118 19.9182 24.123 21.0088C23.4342 22.042 22.8028 23.2475 22.2862 24.5103C21.7696 25.7731 21.3678 27.0933 21.0808 28.5858C20.679 30.48 20.5068 32.4316 20.4494 33.9241C20.392 34.6703 20.392 35.3591 20.3346 36.1053C20.2198 37.9995 20.1624 39.8938 19.8753 41.788C19.6457 42.9935 19.4161 44.1989 19.1865 45.3469C18.6699 47.9299 18.1533 50.6278 18.2681 53.3257C18.3255 54.0719 18.4403 54.8755 18.6125 55.7939C18.7273 56.4827 18.9569 57.1141 19.1865 57.8029C19.5883 59.0658 20.1624 60.3286 20.8512 61.4766C21.4826 62.5672 22.2862 63.6005 23.2046 64.6337C24.0656 65.5521 25.0415 66.4131 26.1321 67.2167C28.1985 68.7092 30.552 69.8572 33.2498 70.6034C35.5459 71.2922 37.9567 71.5792 40.4824 71.5792C40.7694 71.5792 41.0564 71.5792 41.3434 71.5792C44.0986 71.4644 46.9113 70.9478 49.7239 69.972C52.1922 69.111 54.3734 67.9629 56.3251 66.5853C58.2767 65.1503 59.8839 63.5431 60.9746 61.7062C61.032 61.534 61.1468 61.4192 61.2042 61.247C61.4338 60.7304 61.7208 60.2712 62.0078 59.7546C62.5818 58.7214 63.2706 57.7455 63.9594 56.7697C64.1316 55.6791 64.3038 54.5885 64.4186 53.4405C64.7056 51.3166 64.9352 49.1928 65.1074 47.0689C64.9352 46.3801 64.8204 45.6339 64.7056 44.8877C64.5334 43.7971 64.4186 42.649 64.3038 41.5584C64.189 40.4678 64.1316 39.3772 64.0168 38.344C63.9594 37.8273 63.902 37.3107 63.8446 36.7941C63.7872 36.2775 63.7298 35.7035 63.615 35.1869C63.3854 34.0389 63.1558 32.9482 62.754 31.8576C62.467 30.9392 62.0652 30.0208 61.6634 29.1598C61.2616 28.2988 60.745 27.4377 60.2284 26.6341C59.7691 25.8879 59.1951 25.1991 58.6211 24.5103C58.0471 23.8215 57.4157 23.2475 56.7843 22.6734C56.2103 22.1568 55.5789 21.6976 54.9474 21.2384C54.316 20.8366 53.6272 20.4348 52.9384 20.0904C52.307 19.8034 51.6756 19.5164 50.9868 19.2868C50.3554 19.0572 49.6665 18.885 49.0351 18.7702C49.0351 18.7702 49.0351 18.7702 49.0925 18.7702C46.3947 18.2536 43.6968 18.3684 40.999 18.4832C39.7935 18.5406 38.5307 18.598 37.3253 18.598C36.1199 18.598 34.9144 18.5406 33.709 18.4258C32.561 18.2536 31.413 18.024 30.3224 17.6221C29.7483 17.4499 29.2317 17.2203 28.7151 16.9333C28.4281 16.8185 28.1985 16.6463 27.9115 16.4741C27.3375 17.1055 26.8783 17.5647 26.4765 17.9665Z" fill="#FEBE9C"/>
<path d="M79.1146 31.8002C79.0572 30.7096 78.885 29.619 78.598 28.5858C78.311 27.5525 77.9666 26.5767 77.3926 25.7157C77.3926 25.6583 77.3352 25.6583 77.3352 25.6583C77.2204 25.4287 77.1056 25.1991 76.9334 24.9695C76.8186 24.7973 76.7038 24.5677 76.5316 24.3955C76.1872 23.8789 75.7854 23.3623 75.3836 22.903C74.0059 21.4106 72.2839 20.2626 70.5045 19.2294C68.6676 18.1962 66.8308 17.3351 64.994 16.3019C64.4773 16.0149 63.9607 15.7279 63.4441 15.3835C62.8701 15.0391 62.3535 14.6373 61.7795 14.2355C60.6889 13.4319 59.6557 12.6282 58.565 11.882C57.4744 11.0784 56.3838 10.3322 55.1784 9.75819C54.5469 9.47118 53.8581 9.18417 53.1693 8.95457C52.4805 8.72497 51.7917 8.55276 51.1029 8.38056C49.6679 8.03615 48.2328 7.86395 46.7978 7.80655C46.3386 7.80655 45.822 7.74915 45.3628 7.74915C44.4443 7.74915 43.5259 7.80655 42.6075 7.86395C41.1151 7.97875 39.5652 8.09355 38.0728 8.43796C36.81 8.66756 35.5472 8.95457 34.3417 9.35638C32.1605 10.1026 30.2089 11.0784 28.5442 12.3412C27.1666 13.3745 25.9612 14.6947 25.1002 16.0723C24.928 16.3593 24.7558 16.7037 24.641 16.9907C24.5836 17.1055 24.5262 17.2777 24.4688 17.3925C24.5262 17.7943 24.5836 18.1962 24.6984 18.5406C24.8132 18.9998 25.0428 19.459 25.3298 19.9182C25.789 20.7792 26.4204 21.5828 27.2814 22.4438C28.0276 23.1901 28.8312 23.8789 29.8645 24.5677C30.7255 25.1417 31.6439 25.7157 32.5623 26.1749C33.5955 26.6915 34.6288 27.1507 35.7768 27.4951C37.097 27.9543 38.532 28.2414 40.0245 28.4136C40.8855 28.5284 41.7465 28.5858 42.6075 28.5858C44.5592 28.5858 46.5682 28.3562 48.5772 27.8395C49.6679 27.5525 50.7585 27.2081 51.8491 26.8063C52.3657 26.6341 52.8823 26.4045 53.5137 26.1175L53.8007 26.0027C54.7766 25.6009 55.7524 25.1417 56.7282 24.7399C57.991 24.2807 59.426 23.7641 61.0333 23.5345C61.3777 23.4771 61.6647 23.4771 61.9517 23.4771C62.2387 23.4771 62.5257 23.4771 62.7553 23.5345C63.0997 23.5919 63.3867 23.7067 63.6737 23.8215C63.9033 23.9363 64.0755 24.0511 64.3051 24.1659C64.4773 24.3381 64.6495 24.5103 64.8218 24.6825C64.994 24.9695 65.1662 25.1991 65.281 25.4861C65.3958 25.8879 65.5106 26.2897 65.568 26.8063V26.8637C65.6828 27.8969 65.6254 28.8728 65.5106 29.906V29.9634C65.1662 32.202 64.3051 34.2685 63.3293 36.5071L63.0997 36.9663C62.2387 38.918 61.3203 40.927 60.8611 43.1082C60.5741 44.3137 60.4593 45.5191 60.5167 46.6097C60.5167 47.1837 60.5741 47.6429 60.6889 48.0447C60.8037 48.3892 60.9185 48.7336 61.1481 49.0206C61.3203 49.2502 61.5499 49.4224 61.8369 49.4798C61.9517 49.5372 62.1239 49.5372 62.2387 49.5372C62.3535 49.5372 62.5257 49.5372 62.6405 49.4798C62.8701 49.4224 63.1571 49.3076 63.5015 49.1354C63.8459 48.9632 64.1329 48.7336 64.4199 48.5614C65.1662 47.9873 65.855 47.2985 66.3142 46.7245C66.6012 46.3801 66.8882 46.0357 67.1752 45.6913C67.29 45.5191 67.4048 45.3469 67.577 45.1747L67.7492 45.0025C67.8066 44.8877 67.9214 44.7729 67.9788 44.6581L68.0362 44.6007L68.0936 44.5433C68.2084 44.4859 68.3232 44.3711 68.438 44.3137L68.6676 44.1415C68.9546 43.9693 69.1842 43.7397 69.4712 43.5675C70.0453 43.1657 70.5619 42.7638 71.0785 42.4194C72.2265 41.501 73.2597 40.64 74.1207 39.779C76.302 37.6551 77.6796 35.3591 78.311 33.1205C78.4258 32.776 78.4832 32.489 78.5406 32.1446C78.598 33.2927 78.598 34.3833 78.5406 35.5313C78.4832 36.2775 78.4258 37.0811 78.3684 37.8273C78.3684 37.9421 78.3684 37.9995 78.4258 38.1144C78.4832 38.1718 78.5406 38.2292 78.6554 38.2866C78.8276 38.344 79.0572 38.1718 79.0572 37.9995C79.1146 35.9331 79.2868 33.8667 79.1146 31.8002Z" fill="#192E35"/>
<path d="M28.1993 18.9425C28.1419 19.0573 28.1419 19.1721 28.1993 19.2295C29.0029 20.1479 29.9213 20.9515 30.8972 21.6403C31.873 22.3291 32.9062 22.9605 33.9968 23.4772C36.1781 24.5104 38.5315 25.1418 40.9424 25.3714C41.5738 25.4288 42.1478 25.4862 42.7792 25.4862C43.3532 25.4862 43.9846 25.4862 44.5586 25.4288C45.8789 25.3714 47.2565 25.0844 48.5193 24.74C49.8969 24.3956 51.2172 23.9364 52.5374 23.4772C53.8576 23.0179 55.1778 22.5587 56.5555 22.2143C57.0721 22.0995 57.6461 21.9847 58.1627 21.8699C58.6793 21.7551 59.1959 21.6977 59.7699 21.6403C59.9421 21.6403 60.0569 21.5829 60.1717 21.4681C60.2865 21.3533 60.3439 21.1811 60.3439 21.0663C60.3439 20.8941 60.2865 20.7793 60.1717 20.6645C60.0569 20.5497 59.8847 20.4923 59.7699 20.4923C59.1959 20.4923 58.5645 20.5497 57.9905 20.6071C57.3591 20.7219 56.7277 20.8367 56.1537 21.0089C54.9482 21.2959 53.8002 21.6977 52.6522 22.1569C51.5042 22.5587 50.2987 23.0179 49.1507 23.4198C47.9453 23.8216 46.7973 24.166 45.5344 24.3956C43.8698 24.6826 42.2052 24.7974 40.5405 24.6252C38.8759 24.453 37.2113 24.166 35.604 23.592H35.5466C34.1116 23.0753 32.734 22.3865 31.5286 21.5255L31.586 21.5829C30.4953 20.8367 29.4621 19.9757 28.5437 18.9999C28.4863 18.9425 28.4863 18.9425 28.4289 18.9425C28.3141 18.8851 28.1993 18.8851 28.1993 18.9425Z" fill="#0F1D21"/>
<path d="M59.4827 18.1388C58.9661 18.1962 58.3921 18.2536 57.8755 18.311C57.3015 18.4258 56.7848 18.4832 56.2108 18.6554C55.1776 18.885 54.2018 19.172 53.1686 19.459C53.0538 19.5164 52.9964 19.6312 53.0538 19.6886C53.1112 19.8034 53.226 19.8608 53.2834 19.8034C53.9722 19.5738 54.7184 19.459 55.4072 19.2868H55.3498C56.0386 19.172 56.7274 19.0572 57.4163 19.0572C57.7607 19.0572 58.1625 19.0572 58.5069 19.0572C58.8513 19.0572 59.1957 19.0572 59.5401 19.1146C59.5975 19.1146 59.7123 19.1146 59.7697 19.1146C59.7697 19.1146 59.7697 19.1146 59.7123 19.1146C59.7697 19.1146 59.8845 19.1146 59.9419 19.1146C60.9177 19.2294 61.8935 19.4016 62.8694 19.6886C63.6156 19.9756 64.3044 20.32 64.9358 20.7218C65.0506 20.7792 65.1654 20.7792 65.2228 20.7792C65.395 20.7792 65.5672 20.7218 65.682 20.5496C65.9116 20.32 65.9116 19.8608 65.6246 19.6886C65.2228 19.3442 64.7636 19.0572 64.247 18.8276C63.7304 18.598 63.2138 18.4258 62.6398 18.2536C62.1232 18.1388 61.5491 18.0814 61.0325 18.024C60.7455 18.024 60.5159 17.9666 60.2289 17.9666C60.0567 18.0814 59.7697 18.0814 59.4827 18.1388ZM59.9993 19.1146C59.9419 19.1146 59.9419 19.1146 59.8845 19.1146C59.8845 19.1146 59.9419 19.1146 59.9993 19.1146Z" fill="#0F1D21"/>
<path d="M67.2894 31.3984C67.232 32.3168 67.0024 33.2352 66.7153 34.0962C66.6005 34.498 66.4283 34.8998 66.2561 35.3016C66.0839 35.7035 65.9117 36.1053 65.6821 36.4497C65.5099 36.8515 65.2803 37.2533 65.1081 37.5977C64.8785 37.9995 64.6489 38.4013 64.4767 38.8031C64.0749 39.6067 63.7305 40.4104 63.3861 41.2714C63.0417 42.1324 62.8121 43.0508 62.6973 43.9692C62.6973 44.1414 62.6973 44.3136 62.8121 44.4284C62.9269 44.5432 63.0417 44.658 63.2139 44.7154C63.5583 44.7728 63.9027 44.5432 63.9601 44.2562C64.0749 43.6822 64.1897 43.1082 64.3045 42.5342C64.4767 41.9602 64.6489 41.3862 64.8211 40.8696C64.8211 40.927 64.7637 40.9844 64.7637 40.9844C65.0507 40.1807 65.3377 39.4345 65.6247 38.6309C65.7969 38.2291 65.9117 37.8847 66.0839 37.4829C66.2561 37.0811 66.3709 36.6793 66.5431 36.2201C66.8301 35.4739 67.0598 34.6702 67.232 33.924C67.4616 33.1204 67.5764 32.2594 67.6912 31.4558C67.6912 31.3984 67.6912 31.2836 67.5764 31.2836C67.3468 31.2836 67.2894 31.341 67.2894 31.3984Z" fill="#0F1D21"/>
<path d="M22.919 39.4346C23.206 40.4678 25.215 40.7548 27.3963 40.1234C29.5775 39.492 31.1274 38.1718 30.8404 37.1386C30.5533 36.1053 28.5443 35.8183 26.3631 36.4498C24.1818 37.0812 22.632 38.4014 22.919 39.4346Z" fill="#0F1D21"/>
<path d="M46.2806 38.1717C45.8788 39.2624 47.5434 40.8696 49.9542 41.7306C52.3651 42.5916 54.6611 42.362 55.0055 41.2714C55.4074 40.1808 53.7427 38.5735 51.3319 37.7125C48.921 36.8515 46.6824 37.0811 46.2806 38.1717Z" fill="#0F1D21"/>
<path d="M48.5769 45.0026C47.8307 45.0026 47.1993 46.1506 47.1419 47.643C47.0845 48.3892 47.1993 49.078 47.3715 49.5947C47.6011 50.1113 47.8881 50.4557 48.2325 50.4557C48.9787 50.4557 49.6101 49.3077 49.7249 47.8152C49.7823 46.3228 49.2657 45.06 48.5769 45.0026Z" fill="#192E35"/>
<path d="M27.3957 43.9692C26.6495 43.9692 26.0181 45.1173 25.9033 46.6097C25.8459 47.7003 26.0755 48.6761 26.4773 49.1353C26.6495 49.3075 26.8217 49.4223 26.9939 49.4223C27.7401 49.4223 28.3715 48.2743 28.4289 46.7819C28.4863 46.0357 28.3715 45.3469 28.1993 44.8303C28.0271 44.3136 27.7401 44.0266 27.3957 43.9692Z" fill="#192E35"/>
<path d="M40.4834 57.0568C40.426 57.0568 40.3686 57.0568 40.3686 57.1142L40.1964 57.1716C39.9093 57.2864 39.6223 57.4586 39.3353 57.5734C38.9335 57.6882 38.5891 57.803 38.1873 57.803C38.0725 57.803 37.9577 57.803 37.8429 57.803C37.5559 57.803 37.2689 57.803 36.9245 57.7456C36.8671 57.7456 36.8097 57.7456 36.8097 57.7456C36.7523 57.7456 36.7523 57.7456 36.6949 57.7456C36.6375 57.7456 36.5801 57.803 36.5801 57.8604C36.5801 57.9178 36.5801 57.9752 36.5801 58.0326C36.5801 58.09 36.6375 58.1474 36.6949 58.1474C37.0393 58.2048 37.3263 58.2622 37.6707 58.2622C37.7281 58.2622 37.8429 58.2622 37.9003 58.2622C38.1299 58.2622 38.4169 58.2622 38.7039 58.2048C39.0483 58.1474 39.3927 58.09 39.7371 57.9752C39.9093 57.9178 40.0241 57.8604 40.1964 57.803C40.3686 57.7456 40.5408 57.6308 40.6556 57.516C40.713 57.4586 40.713 57.4586 40.713 57.4012C40.713 57.3438 40.713 57.229 40.713 57.1716C40.6556 57.1142 40.5982 57.0568 40.4834 57.0568Z" fill="#192E35"/>
<path d="M37.4413 40.2955C37.3839 40.2955 37.3839 40.2955 37.3265 40.3529L37.2691 40.4103C37.3839 42.362 37.3265 44.0266 37.0969 45.5764C36.9247 46.7245 36.7525 47.6429 36.4081 48.4465C36.0063 48.2169 35.5471 48.0447 35.1453 47.8725C34.7435 47.7577 34.3416 47.6429 33.9972 47.6429H33.9398C33.3084 47.6429 32.7918 47.8725 32.39 48.2743C32.0456 48.6761 31.8734 49.2501 31.9308 49.8241C31.9882 50.4555 32.2178 51.1443 32.6196 51.7184C32.8492 52.0628 33.1936 52.4646 33.538 52.7516C33.9398 53.096 34.399 53.383 34.9157 53.6126C34.9731 53.67 35.0305 53.67 35.1453 53.67C35.2027 53.67 35.2027 53.67 35.2601 53.67C35.3749 53.67 35.4323 53.5552 35.4897 53.4978C35.5471 53.383 35.5471 53.3256 35.5471 53.2108C35.4897 53.096 35.4323 52.9812 35.2601 52.9238C35.1453 52.8664 35.0879 52.8664 34.9731 52.809C34.6287 52.6368 34.2842 52.4646 33.9972 52.235C33.7102 52.0054 33.4806 51.7758 33.251 51.4888C33.0788 51.2017 32.9066 50.9721 32.7344 50.6851C32.6196 50.4555 32.5622 50.1685 32.5048 49.9389C32.5048 49.7093 32.5048 49.5371 32.5048 49.3075C32.5048 49.1927 32.5622 49.0205 32.6196 48.9057C32.677 48.7909 32.7344 48.6761 32.7918 48.6187C32.8492 48.5039 32.964 48.4465 33.0214 48.3891C33.1362 48.3317 33.251 48.2743 33.3084 48.2169C33.4232 48.1595 33.5954 48.1021 33.7676 48.1021C33.8824 48.1021 33.9972 48.1021 34.112 48.1021C34.2268 48.1021 34.399 48.1021 34.5139 48.1595H34.4564C34.8583 48.2169 35.3175 48.3891 35.7767 48.5613C36.0063 48.6761 36.2359 48.7909 36.4655 48.9057H36.5229C36.5803 48.9057 36.6377 48.8483 36.6951 48.7909C36.9247 48.1595 37.0969 47.5281 37.2117 46.8393C37.3265 46.2079 37.4413 45.519 37.4987 44.7728C37.6135 43.51 37.6135 42.1324 37.5561 40.5251C37.5561 40.3529 37.4987 40.2955 37.4413 40.2955Z" fill="#CA8664"/>
</svg>
