<svg width="100" height="100" viewBox="0 0 100 100" fill="none" xmlns="http://www.w3.org/2000/svg">
<path d="M50.1842 0H50.012C37.4412 0.0574011 25.6166 4.9365 16.7194 13.8337C7.8222 22.7309 2.9431 34.4981 3.0005 47.0115C3.0579 72.7847 24.1815 93.7361 50.1268 93.7361H50.299C62.8699 93.6787 74.6945 88.7996 83.5917 79.9024C92.4889 71.0052 97.368 59.238 97.3106 46.7245C97.1958 20.9514 76.0722 0 50.1842 0Z" fill="#E7EEEF"/>
<path d="M82.5008 25.7158C81.6972 24.0511 80.7214 22.5013 79.5159 21.1237C78.3105 19.746 76.8755 18.5406 75.3831 17.6796C74.2924 17.0482 73.087 16.5316 71.8816 16.1872C71.8816 16.1298 71.8242 16.0724 71.8242 15.9576C71.5946 15.1539 71.2502 14.4651 70.8484 13.7763C70.4466 13.1449 69.9873 12.5135 69.4133 11.9395C68.3801 10.8489 67.0599 9.93044 65.5101 9.18423C64.075 8.49542 62.4104 7.9214 60.5736 7.5196C58.8515 7.17519 57.0721 6.94558 55.1779 6.88818C54.9482 6.88818 54.6612 6.88818 54.4316 6.88818C52.8818 6.88818 51.3894 7.00299 49.8395 7.23259C48.1749 7.4622 46.5677 7.864 45.1327 8.43801C44.329 8.72502 43.5828 9.06943 42.894 9.47124C42.8366 9.12683 42.6644 8.78242 42.4922 8.43801C42.2626 8.09361 41.9182 7.7492 41.5164 7.5196C41.172 7.28999 40.7702 7.17519 40.311 7.06039C39.9665 7.00299 39.5647 6.94558 39.1629 6.94558C39.1055 6.94558 38.9907 6.94558 38.9333 6.94558C37.9575 7.00299 36.9817 7.23259 36.0059 7.6918C35.0875 8.15101 34.169 8.78242 33.3654 9.70084C32.734 10.3323 32.16 11.1359 31.4712 12.2265C31.1268 12.8005 30.725 13.4319 30.3806 14.0059L30.151 14.4077C29.6343 14.3503 29.1177 14.2929 28.6011 14.2929C28.2567 14.2929 27.9123 14.2929 27.5679 14.3503C26.4773 14.4077 25.4441 14.5799 24.4682 14.8669C23.435 15.1539 22.5166 15.6132 21.8278 16.1872C21.0242 16.8186 20.4502 17.6796 20.2206 18.6554C19.9909 19.6886 20.1058 20.8941 20.6224 21.9273C20.852 22.4439 21.1964 22.9031 21.6556 23.3049C21.8278 23.4771 22.0574 23.6493 22.287 23.8215C21.713 24.2233 21.1964 24.6825 20.7372 25.1992C20.1632 25.8306 19.6465 26.5194 19.1873 27.2656C18.3263 28.7006 17.6949 30.3653 17.3505 32.1447C17.0061 33.8667 16.8913 35.7036 17.0635 37.5404C17.1209 38.4588 17.2931 39.3772 17.4653 40.2382C17.6375 41.0419 17.9245 41.9603 18.2689 42.8213C18.9003 44.3711 19.7039 45.7488 20.7372 46.8968C21.7704 48.1022 23.0332 49.078 24.4108 49.7668C24.4682 49.8242 24.5256 49.8242 24.583 49.8242H24.6404C24.6978 49.8242 24.6978 49.7668 24.7552 49.7668C27.0513 51.2019 29.6343 52.1777 31.6434 52.8091C32.8488 53.2109 34.1116 53.5553 35.3171 53.8997L35.4893 53.9571C36.1781 54.1293 36.8669 54.3589 37.5557 54.5885C38.2445 54.8181 38.9333 54.9903 39.6221 55.2199C42.2052 55.9662 45.2475 56.8272 48.4045 57.4586C49.8969 57.7456 51.3894 57.9752 52.8818 58.1474C53.5132 58.2048 54.2594 58.2622 55.1205 58.377L55.8667 58.4344C56.3833 58.4918 56.8999 58.4918 57.4165 58.5492C59.8847 58.7214 61.9512 58.8362 64.0176 58.8362C64.4768 58.8362 64.8786 58.8362 65.3379 58.8362C65.5675 58.8362 65.6823 58.664 65.6823 58.4918H65.7971C66.8303 58.4918 67.8635 58.377 68.9541 58.1474C70.1596 57.8604 71.365 57.4586 72.4556 56.942C73.6036 56.368 74.6368 55.6792 75.4979 54.9329C75.9571 54.5311 76.3015 54.1867 76.6459 53.7849C76.9329 53.4405 77.2199 53.0387 77.5069 52.5795C78.2531 51.3741 78.7697 50.226 78.9993 49.078C79.1141 48.4466 79.1715 47.8726 79.0567 47.2986C78.9993 46.8394 78.8271 46.3228 78.5975 45.921C79.1715 45.5192 79.6307 45.1747 79.9752 44.8303C80.3196 44.5433 80.6066 44.1989 80.951 43.7971C81.525 43.1083 82.099 42.3621 82.5582 41.5011C83.4192 39.9512 83.9932 38.2866 84.2228 36.4498C84.7394 32.8909 84.108 29.2172 82.5008 25.7158Z" fill="#192E35"/>
<path d="M66.1405 9.98778C66.6571 10.5618 67.1163 11.1932 67.4607 11.882C67.8051 12.5708 68.0921 13.2596 68.2643 14.0059C68.4365 14.7521 68.4939 15.5557 68.4365 16.3019C68.3791 16.7037 68.3217 17.1055 68.2643 17.4499C68.2069 17.6795 68.1495 17.8517 68.0921 18.0813C68.0347 18.2535 67.9773 18.3683 67.9199 18.5406C68.0347 18.598 68.2069 18.6554 68.3217 18.7128C69.0679 19.0572 69.8715 19.459 70.5604 19.8608C71.2492 20.2052 71.938 20.607 72.5694 21.0662C73.1434 21.468 73.7174 21.9272 74.234 22.3864C74.7506 22.8456 75.2099 23.4197 75.6117 23.9363C75.8413 24.2233 76.0709 24.5677 76.2431 24.9121C76.4153 25.2565 76.5875 25.5435 76.7023 25.8879C77.0467 26.6341 77.2763 27.4377 77.4485 28.2413C77.6207 29.045 77.7355 29.906 77.7929 30.7096C77.8503 31.4558 77.7929 32.2594 77.6781 33.0056C77.5633 33.8093 77.3911 34.5555 77.1615 35.3017C76.9319 36.0479 76.6449 36.7367 76.3005 37.4829C75.6117 38.9754 74.7506 40.4104 73.8322 41.7306C71.8806 44.5433 69.6419 47.0689 67.5755 49.7668C66.7145 50.8574 65.8535 52.0054 65.1072 53.2108C64.7628 53.7849 64.361 54.4163 64.074 54.9903C63.9018 55.2773 63.787 55.5643 63.6148 55.9087C63.4426 56.2531 63.3278 56.5975 63.1556 56.9419C62.926 57.5159 62.6964 58.0899 62.4668 58.7214C62.926 58.7214 63.4426 58.7214 63.9018 58.7214C64.361 58.7214 64.7628 58.7214 65.2221 58.7214C65.4517 58.7214 65.5665 58.5492 65.5665 58.3769H65.6813C66.7145 58.3769 67.7477 58.2621 68.8383 58.0325C70.1011 57.7455 71.2492 57.3437 72.3972 56.8271C73.5452 56.2531 74.5784 55.5643 75.4395 54.8181C75.8987 54.4163 76.2431 54.0719 76.5875 53.6701C76.8745 53.3256 77.1615 52.9238 77.4485 52.4646C78.1947 51.2592 78.7113 50.1112 78.9409 48.9632C79.0557 48.3317 79.1131 47.7577 78.9983 47.1837C78.9409 46.7245 78.7687 46.2079 78.5391 45.8061C79.1131 45.4617 79.5149 45.1173 79.9167 44.7155C80.2612 44.4285 80.5482 44.0841 80.8926 43.6823C81.4666 42.9934 82.0406 42.2472 82.4998 41.3862C83.3608 39.8364 83.9348 38.1717 84.1644 36.3349C84.681 32.8334 84.0496 29.1024 82.4424 25.6009C81.6388 23.9363 80.663 22.3864 79.4575 21.0088C78.2521 19.6312 76.8171 18.4258 75.3247 17.5647C74.234 16.9333 73.0286 16.4167 71.8232 16.0723C71.8232 15.9575 71.7658 15.9001 71.7084 15.7853C71.4788 15.0391 71.1344 14.3503 70.7326 13.7189C70.3308 13.0874 69.8715 12.456 69.2975 11.882C68.2643 10.7914 66.9441 9.87298 65.3943 9.12677C65.2795 9.06936 65.2221 9.06936 65.1072 9.01196C65.5091 9.29897 65.8535 9.64338 66.1405 9.98778Z" fill="#0F1D21"/>
<path d="M27.7395 17.7369C27.4525 17.7369 27.1081 17.7369 26.8211 17.7943C26.1323 17.9091 25.4435 18.0813 24.8121 18.3109C24.6398 18.3684 24.4102 18.4832 24.238 18.598C24.1232 18.6554 23.951 18.7702 23.8362 18.885C23.7214 18.9424 23.664 19.0572 23.5492 19.1146C23.4918 19.172 23.4344 19.2294 23.377 19.3442C23.3196 19.459 23.2622 19.5164 23.2048 19.6312C23.1474 19.6886 23.1474 19.8034 23.09 19.8608C23.0326 19.9756 23.0326 20.033 22.9752 20.1478C22.9752 20.2626 22.9178 20.32 22.9178 20.4348C22.9178 20.4348 22.9178 20.4348 22.9178 20.3774C22.9178 20.4922 22.9178 20.6644 22.9178 20.7792C22.9178 20.894 22.9178 21.0088 22.9178 21.181C22.9752 21.4106 22.9752 21.6402 23.0326 21.8124C23.09 22.042 23.1474 22.2142 23.2622 22.3864C23.664 23.3623 24.238 24.2233 24.8695 25.0269C24.9269 25.1417 25.0417 25.1991 25.0991 25.3139L25.1565 25.3713C25.1565 25.3713 25.1565 25.4287 25.0991 25.4287C24.6398 25.8305 24.1806 26.2323 23.7788 26.6915C23.377 27.0933 23.0326 27.5525 22.6882 28.0117C22.2864 28.5858 21.8846 29.1024 21.5402 29.7338C21.1958 30.3078 20.9088 30.9392 20.6218 31.5706C20.3348 32.2594 20.0478 33.0056 19.8756 33.7519C19.7034 34.4407 19.5311 35.1869 19.4163 35.9331C19.3015 36.9089 19.2441 37.8273 19.2441 38.8032C19.2441 39.779 19.3015 40.6974 19.4737 41.6732C19.7608 43.5675 20.22 45.4617 20.8514 47.2411C21.8272 48.3317 22.9752 49.1928 24.238 49.8242C24.2954 49.8816 24.3528 49.8816 24.4102 49.8816H24.4676C24.525 49.8816 24.525 49.8816 24.5824 49.8242C26.8785 51.3166 29.4615 52.235 31.4706 52.8664C32.676 53.2682 33.8814 53.6127 35.0295 53.9571H35.1443L35.3165 54.0145C36.0053 54.1867 36.6941 54.4163 37.3829 54.6459C38.0717 54.8755 38.7605 55.0477 39.4493 55.2773C40.1382 55.4495 40.827 55.6791 41.5732 55.9087C41.8602 50.8574 41.8028 45.7487 41.114 40.6974C40.8844 39.1476 40.6548 37.6551 40.3104 36.1627C40.1382 35.3017 39.9086 34.3833 39.6789 33.5223C39.1049 31.3984 38.4161 29.2746 37.5551 27.2655C37.5551 27.2655 37.5551 27.2655 37.5551 27.3229C36.7515 25.3713 35.7183 23.4771 34.4554 21.8124C33.824 20.9514 33.0778 20.1478 32.2168 19.5164C31.9298 19.2868 31.5854 19.0572 31.2984 18.885C31.0114 18.7128 30.667 18.5406 30.3226 18.4258C30.0356 18.3109 29.7486 18.1961 29.4041 18.1387C29.1171 18.0813 28.7727 17.9665 28.4857 17.9665C28.1987 17.9091 27.9117 17.9091 27.6247 17.9091C27.7969 17.7369 27.7969 17.7369 27.7395 17.7369Z" fill="#0F1D21"/>
<path d="M50.2403 64.3467C49.7236 64.3467 49.1496 64.4041 48.633 64.5189C47.0832 64.8059 45.5908 65.4947 44.5001 66.5853C43.9261 67.1019 43.4669 67.7333 43.1225 68.4796C42.9503 68.824 42.7781 69.2258 42.6633 69.6276C42.6059 69.8572 42.5485 70.0294 42.4911 70.259C42.4337 69.972 42.3763 69.7424 42.3763 69.4554C42.3189 69.2832 42.1467 69.1684 42.0319 69.1684C41.9745 69.1684 41.9745 69.1684 41.9171 69.1684C41.8023 69.1684 41.7449 69.2832 41.6875 69.3406C41.6301 69.398 41.6301 69.5128 41.6301 69.6276C41.7449 70.0868 41.8023 70.6034 41.8597 71.12V71.1774C42.0319 72.6124 42.0319 73.7605 41.9171 74.7937C41.8023 75.4251 41.6875 75.9991 41.4579 76.5157C41.2857 76.9175 41.1135 77.2619 40.8265 77.6063C40.5969 77.8933 40.3673 78.123 40.0802 78.3526C39.7932 78.5822 39.4488 78.7544 39.1044 78.9266C38.5878 79.1562 38.0712 79.271 37.4398 79.3858C37.2102 79.4432 36.9806 79.4432 36.6936 79.4432C36.464 79.4432 36.3492 79.6154 36.3492 79.7876V79.845L36.2918 79.9024C35.6604 80.7634 35.0863 81.6244 34.6845 82.5428C34.4549 83.0021 34.3401 83.4613 34.2253 83.8631C34.1105 84.2649 34.0531 84.6667 33.9383 85.1833C33.7087 86.8479 34.1105 88.4552 35.0289 89.6606C35.4882 90.292 36.1196 90.8086 36.8084 91.2104C37.5546 91.6122 38.4156 91.8992 39.3914 92.014C39.7932 92.0714 40.2525 92.0714 40.7117 92.0714C41.3431 92.0714 41.9745 92.014 42.6633 91.8992C43.8687 91.727 45.1315 91.3826 46.4518 90.9234C48.8052 90.1198 51.1587 88.857 53.5695 87.1923C55.6934 85.7573 57.7598 84.0353 59.7114 82.0262C60.0558 81.6818 60.4577 81.28 60.8021 80.8782C61.2039 80.4764 61.6057 80.0172 62.0075 79.558C62.0649 79.558 62.0649 79.558 62.1223 79.558C62.2945 79.558 62.4093 79.4432 62.4667 79.271C62.4667 79.1562 62.4667 79.0988 62.4093 78.984C62.3519 78.9266 62.2945 78.8692 62.1797 78.8118C61.7779 78.697 61.3187 78.5822 60.9169 78.41C60.4003 78.1804 59.8836 77.8934 59.4244 77.5489C59.0226 77.2045 58.6782 76.8601 58.3912 76.5157C58.0468 76.0565 57.7598 75.5399 57.5302 74.9659C57.2432 74.2197 57.0136 73.4161 56.8988 72.4976C56.6692 70.8904 56.7266 69.1684 57.0136 67.0445C57.0136 66.9297 57.071 66.7575 57.071 66.6427C57.071 66.5279 57.071 66.4705 57.0136 66.3557C56.9562 66.2983 56.8988 66.2409 56.784 66.1835C56.7266 66.1835 56.7266 66.1835 56.6692 66.1835C56.6118 66.1835 56.5544 66.1835 56.497 66.2409C56.4396 66.2983 56.3248 66.3557 56.3248 66.4705C56.2674 66.7575 56.2674 66.9871 56.21 67.2741C55.923 66.8723 55.5786 66.4705 55.1768 66.1261C54.6027 65.6095 53.9139 65.2077 53.1103 64.8633C52.3641 64.5189 51.3309 64.3467 50.2403 64.3467Z" fill="#FEBE9C"/>
<path d="M48.5752 64.4615C47.0254 64.7485 45.5329 65.4947 44.4423 66.528C43.8683 67.0446 43.4091 67.7334 43.0647 68.4222C42.8925 68.7666 42.7203 69.1684 42.6055 69.5702C42.5481 69.7424 42.4907 69.972 42.4333 70.2016C42.4333 69.9146 42.3759 69.6276 42.3185 69.398C42.2611 69.2258 42.0889 69.111 41.9741 69.111C41.9741 69.111 41.9167 69.111 41.8593 69.111C41.7445 69.111 41.6871 69.2258 41.6297 69.2832C41.5723 69.3406 41.5723 69.4554 41.5723 69.5702C41.6871 70.0294 41.7445 70.546 41.8019 71.0626V71.12C41.9741 72.5551 41.9741 73.7031 41.8593 74.7363C41.8019 75.0233 41.8019 75.2529 41.7445 75.4825C42.2037 75.5399 42.6629 75.5399 43.1221 75.4825C43.1221 75.4825 43.1221 75.4825 43.0647 75.4825C44.6145 75.4251 46.1644 75.1381 47.6568 74.6789C49.3214 74.1623 50.8713 73.4735 52.3063 72.5551C53.4543 71.8089 54.5449 70.9478 55.4633 69.972C55.8078 69.5702 56.1522 69.2258 56.4392 68.7666C56.6114 68.4796 56.7836 68.25 56.9558 67.963C57.0132 67.676 57.0132 67.3316 57.0706 67.0446C57.0706 66.9298 57.128 66.7576 57.128 66.6428C57.128 66.528 57.128 66.4705 57.0706 66.3557C57.0132 66.2983 56.9558 66.2409 56.841 66.1835C56.7836 66.1835 56.7836 66.1835 56.7262 66.1835C56.6688 66.1835 56.6114 66.1835 56.554 66.2409C56.4966 66.2983 56.3818 66.3557 56.3818 66.4706C56.3244 66.7576 56.3244 66.9872 56.267 67.2742C55.98 66.8724 55.6355 66.4705 55.2337 66.1261C54.6597 65.6095 53.9709 65.2077 53.1673 64.8633C52.2489 64.4615 51.2157 64.2893 50.125 64.2893C49.6658 64.2893 49.1492 64.3467 48.5752 64.4615Z" fill="#FF9B68"/>
<path d="M60.8611 78.0655C60.8037 78.0655 60.8037 78.1229 60.8037 78.1229C60.3444 78.6396 59.8278 79.1562 59.2538 79.6728L59.3112 79.6154C57.4744 81.28 55.1783 82.8298 52.3657 84.3223C51.6769 84.6667 50.9881 85.0111 50.2993 85.3555C49.4956 85.7573 48.8642 86.0443 48.2902 86.2739C46.5682 87.0775 45.1331 87.5367 43.7555 87.8811C42.8371 88.1107 42.0335 88.1681 41.2299 88.1681C41.1725 88.1681 41.0577 88.1681 41.0003 88.1681C40.9429 88.1681 40.9429 88.1681 40.9429 88.1681C40.4263 88.1107 39.9096 88.0533 39.393 87.8811C38.9912 87.7663 38.6468 87.5941 38.3598 87.4219C38.1302 87.2497 37.9006 87.0775 37.671 86.8479C37.4988 86.6183 37.3266 86.3887 37.2118 86.1591C37.0396 85.8147 36.9248 85.4703 36.81 85.1259C36.6952 84.6093 36.6378 84.0927 36.6952 83.4612C36.7526 82.6002 36.9248 81.7392 37.1544 80.8208C37.3266 80.3616 37.4988 79.845 37.671 79.3858C37.7284 79.271 37.7284 79.1562 37.671 79.0414C37.6136 78.9266 37.4988 78.8118 37.3266 78.8118C32.1605 79.2136 27.0518 80.8782 22.5745 83.6334C21.4839 84.2649 20.4507 85.0685 19.4174 85.8721C18.3842 86.6757 17.4084 87.5941 16.5474 88.5125C15.629 89.4884 14.7679 90.579 13.9643 91.727C13.3903 92.588 12.8737 93.449 12.5293 94.3675C13.8495 94.8841 15.1697 95.4007 16.5474 95.8025C18.1546 96.3191 19.7044 96.7209 21.3117 97.1227C24.4687 97.8689 27.6832 98.4429 30.9551 98.9022C31.7587 99.017 32.5623 99.1318 33.3659 99.1892C38.6468 99.7632 43.9277 100.05 49.2086 99.9928C54.6043 99.9354 60.0574 99.591 65.3958 98.9022C68.6676 98.4429 71.9395 97.8689 75.1539 97.0653C78.2536 96.3191 81.2959 95.4007 84.1659 94.1953C84.1659 94.1953 84.1659 94.1953 84.1085 94.1953C85.2565 93.7361 86.3472 93.2194 87.3804 92.6454C87.4952 92.588 87.5526 92.5306 87.6674 92.4732C86.3472 90.579 84.7973 88.8569 83.0179 87.3645C81.3533 85.9295 79.4016 84.6667 77.163 83.5186C75.2687 82.5428 73.1449 81.6244 70.6193 80.7634C69.586 80.419 68.4954 80.0746 67.1752 79.6728L66.142 79.3858L65.1087 79.0988C64.3625 78.8692 63.6163 78.6395 62.9275 78.4673C62.2961 78.2951 61.7221 78.1229 61.1481 78.0081H61.0907C61.0333 77.8933 60.9185 77.9507 60.8611 78.0655ZM34.3417 79.9598C34.2843 79.9598 34.1695 80.0172 34.0547 80.0172C34.1121 80.0172 34.1695 80.0172 34.3417 79.9598C34.2843 79.9598 34.2843 79.9598 34.3417 79.9598ZM86.5194 92.014C86.6916 92.2436 86.8064 92.4158 86.9786 92.6454C86.8638 92.4158 86.6916 92.2436 86.5194 92.014ZM31.0125 98.6151L31.3569 98.6725C31.2995 98.6725 31.1847 98.6726 31.1273 98.6151H31.0125Z" fill="#074E64"/>
<path d="M60.8596 78.0656C60.8022 78.0656 60.8022 78.123 60.8022 78.123C60.343 78.6396 59.8264 79.1562 59.2524 79.6728L59.3672 79.6154C57.473 81.2801 55.2343 82.8299 52.4217 84.3223C51.6754 84.7241 50.9292 85.0685 50.3552 85.3555C49.5516 85.7573 48.9202 86.0444 48.3462 86.274C46.6241 87.0776 45.1891 87.5368 43.8115 87.8812C42.8931 88.1108 42.0894 88.1682 41.2858 88.1682H41.171H41.0562H40.9988C40.4822 88.1108 39.9656 88.0534 39.449 87.9386C39.0472 87.8238 38.7028 87.6516 38.4158 87.4794C38.1862 87.3072 37.9566 87.135 37.727 86.9054C37.5548 86.6758 37.3826 86.4462 37.2678 86.2166C37.0955 85.8721 36.9807 85.5277 36.8659 85.1833C36.7511 84.6667 36.6937 84.1501 36.7511 83.5761C36.8085 82.7151 36.9233 81.8541 37.2103 80.9356C37.3826 80.4764 37.5548 80.0172 37.727 79.5006C37.7844 79.3858 37.7844 79.271 37.727 79.1562C37.6696 79.0414 37.5548 78.9266 37.3826 78.9266C36.5215 78.984 35.6605 79.0988 34.8569 79.2136C34.7421 79.5006 34.6273 79.7302 34.5125 80.0172C34.0533 81.1078 33.7089 82.3133 33.5367 83.4613C33.4793 83.8631 33.4219 84.2649 33.4219 84.6667C33.4219 85.0685 33.4219 85.4703 33.4793 85.8722C33.5367 86.1592 33.5941 86.4462 33.6515 86.6758C33.7089 86.9628 33.8237 87.1924 33.9385 87.4794C34.0533 87.709 34.1681 87.9386 34.2829 88.1108C34.3977 88.3404 34.5125 88.5126 34.6847 88.7422C34.8569 88.9144 35.0291 89.144 35.2013 89.3162C35.3735 89.4884 35.5457 89.6606 35.7179 89.7754C36.2919 90.1772 36.8659 90.5216 37.4974 90.8086C37.8992 90.9808 38.301 91.153 38.7602 91.2105C39.162 91.3253 39.6212 91.3827 40.0804 91.4401C40.7118 91.4975 41.2858 91.5549 41.9172 91.5549C42.4913 91.5549 43.1227 91.4975 43.6967 91.4401C43.6967 91.4401 43.6967 91.4401 43.6393 91.4401C44.9595 91.2679 46.2797 90.9234 47.6 90.5216C48.8054 90.1198 50.0108 89.6606 51.2162 89.2014C52.5939 88.6274 53.9141 87.9386 55.2343 87.1924C56.4971 86.4462 57.7026 85.6425 58.8506 84.7815C60.1134 83.8057 61.3762 82.7151 62.5243 81.5671C63.3279 80.7634 64.1315 79.9024 64.8777 79.0414C64.3037 78.8692 63.6723 78.697 63.0983 78.5248C62.4669 78.3526 61.8928 78.1804 61.3188 78.0656H61.2614C61.0318 77.8934 60.917 77.9508 60.8596 78.0656Z" fill="#0A6F8F"/>
<path d="M21.1399 42.0176C21.0251 42.0176 20.9103 42.0176 20.7955 42.0176C20.1641 42.075 19.6474 42.1898 19.1882 42.4194C18.729 42.5916 18.2698 42.8786 17.9254 43.1656C17.2366 43.797 16.72 44.6006 16.433 45.5765C16.146 46.4949 16.0312 47.5281 16.0886 48.5039C16.146 49.0779 16.2034 49.5371 16.3182 49.9963C16.433 50.5129 16.6052 51.0296 16.8348 51.4888C17.2366 52.4072 17.8106 53.3256 18.4994 54.1292C19.1882 54.9328 19.9918 55.6791 20.9103 56.2531C21.8287 56.8845 22.8045 57.3437 23.7803 57.6307C24.7561 57.9177 25.732 58.0899 26.6504 58.0899C26.7078 58.0899 26.8226 58.0899 26.88 58.0899C27.454 58.0899 27.9706 58.0325 28.4298 57.9177C28.9464 57.8029 29.463 57.6307 29.9796 57.4011C30.037 57.3437 30.0944 57.2863 30.1518 57.2289C30.2093 57.1141 30.2093 56.9993 30.1518 56.9419C30.0944 56.8845 30.037 56.7697 29.9222 56.7697C29.8648 56.7697 29.8648 56.7697 29.8074 56.7697C29.75 56.7697 29.6926 56.7697 29.6352 56.8271C29.5204 56.8845 29.4056 56.9419 29.2908 56.9993L29.0612 57.0567H29.0038L28.8316 57.1141C28.9464 56.9993 29.0038 56.8845 29.1186 56.7697C29.2908 56.5401 29.4056 56.3105 29.5204 56.0235C29.75 55.5068 29.9222 54.9328 29.9796 54.3588C30.0944 53.2682 29.9796 52.0628 29.5778 50.8C29.0038 48.9631 28.028 47.1837 26.7078 45.6339C26.3634 45.232 26.019 44.8302 25.6172 44.4858C25.3876 44.2562 25.2154 44.0266 24.9857 43.8544C24.5839 43.4526 24.1821 43.1082 23.7803 42.8786C22.9193 42.3046 22.0009 42.0176 21.1399 42.0176Z" fill="#FEA97E"/>
<path d="M19.0148 44.1989C18.9 44.1989 18.7852 44.3137 18.7852 44.4285C18.7852 44.5433 18.9 44.6581 19.0148 44.6581C19.2444 44.6581 19.4166 44.6581 19.5888 44.6581C19.9332 44.7155 20.2202 44.7729 20.5072 44.8877C20.909 45.0599 21.2534 45.2895 21.5978 45.5191C21.9996 45.8061 22.344 46.2079 22.631 46.6097C22.918 47.0115 23.1476 47.4133 23.3772 47.8725C23.4346 47.9873 23.5495 48.0447 23.6069 48.0447C23.7217 48.0447 23.8365 48.0447 23.8939 47.9873C24.0087 47.9299 24.0661 47.8725 24.0661 47.7577C24.1235 47.6429 24.0661 47.5281 24.0087 47.4707C23.5495 46.4949 22.8032 45.6913 21.8848 45.0599C21.0238 44.4859 20.048 44.1989 19.0722 44.1989C19.1296 44.1989 19.0722 44.1989 19.0148 44.1989Z" fill="#CA8664"/>
<path d="M71.6519 45.5765C70.7909 45.5765 69.8725 45.8635 69.0115 46.3801C68.6097 46.6097 68.2079 46.9541 67.8061 47.3559C67.5764 47.5281 67.4042 47.7577 67.1746 47.9873C66.8302 48.3317 66.4284 48.7335 66.084 49.1353C64.7638 50.6852 63.788 52.522 63.214 54.3014C62.8122 55.5643 62.6973 56.7697 62.8696 57.8603C62.927 58.4343 63.0992 59.0083 63.3288 59.525C63.4436 59.812 63.5584 60.0416 63.7306 60.2712C63.788 60.386 63.9028 60.5008 64.0176 60.6156C63.8454 60.5582 63.7306 60.5008 63.5584 60.4434C63.4436 60.386 63.3288 60.3286 63.214 60.2712C63.1566 60.2138 63.0992 60.2138 63.0418 60.2138C62.9844 60.2138 62.9844 60.2138 62.927 60.2138C62.8122 60.2138 62.7547 60.3286 62.6973 60.386C62.6399 60.4434 62.6399 60.5582 62.6973 60.673C62.7547 60.7878 62.8122 60.8452 62.8696 60.8452C63.3862 61.0748 63.9028 61.247 64.4194 61.3618C64.8786 61.4766 65.3952 61.534 65.9692 61.534C66.0266 61.534 66.1414 61.534 66.1988 61.534C67.1172 61.534 68.0931 61.3618 69.0689 61.0748C70.0447 60.7878 71.0205 60.3286 71.9389 59.6972C72.7999 59.1231 73.6036 58.3769 74.3498 57.5733C75.0386 56.7697 75.6126 55.8513 76.0144 54.9329C76.244 54.4736 76.4162 53.957 76.531 53.4404C76.6458 52.9812 76.7032 52.522 76.7606 51.948C76.818 50.9722 76.7606 49.939 76.4736 49.0205C76.1866 48.0447 75.67 47.2411 74.9812 46.6097C74.6368 46.2653 74.1776 46.0357 73.7184 45.8635C73.2018 45.6339 72.6851 45.5191 72.1111 45.4617C71.8815 45.5765 71.7667 45.5765 71.6519 45.5765Z" fill="#FEBE9C"/>
<path d="M69.7002 49.5372C69.528 49.652 69.528 49.8242 69.5854 49.939C69.6428 50.0538 69.6428 50.1112 69.7002 50.226C69.8724 50.6278 69.9872 51.0296 70.0446 51.4315C70.1021 51.8907 70.1021 52.4073 70.0446 52.9239C69.9298 53.6701 69.7576 54.3589 69.4706 55.0477V54.9903C69.1836 55.6791 68.8392 56.3105 68.38 56.942C68.2078 57.1142 68.093 57.2864 67.9208 57.4586C67.7486 57.6308 67.5764 57.803 67.3468 57.9752C67.2894 58.0326 67.232 58.0326 67.1746 58.09C67.1172 58.1474 67.1172 58.2048 67.1172 58.2622C67.1746 58.3196 67.232 58.3196 67.2894 58.3196C67.9208 57.8604 68.4948 57.2864 69.0114 56.7124C69.5854 56.0235 69.9872 55.2773 70.3317 54.4737C70.6761 53.6701 70.8483 52.8091 70.8483 52.0055C70.8483 51.6037 70.7909 51.2018 70.6761 50.8C70.6187 50.5704 70.5613 50.3982 70.4465 50.226C70.3891 50.1112 70.3317 50.0538 70.3317 49.939C70.2743 49.8242 70.2169 49.7668 70.1594 49.7094C70.102 49.652 70.0446 49.5946 69.9872 49.5946H69.9298C69.815 49.4798 69.7576 49.4798 69.7002 49.5372Z" fill="#FEA06F"/>
<path d="M71.6509 48.5039C71.4213 48.5039 71.1343 48.6187 70.9047 48.6761C70.6751 48.7335 70.5029 48.8483 70.2733 48.9631C70.1585 49.0205 70.0437 49.0779 69.9863 49.1927C69.9289 49.2501 69.8715 49.3075 69.8141 49.365C69.7567 49.4224 69.7567 49.4798 69.6993 49.5372C69.6419 49.652 69.6419 49.7668 69.6993 49.8242C69.6993 49.8816 69.7567 49.8816 69.8141 49.8816C69.8715 49.8816 69.9289 49.8816 69.9863 49.8816H70.0437C70.1011 49.8816 70.1011 49.8816 70.1585 49.8242C70.2159 49.8242 70.2733 49.7668 70.3307 49.7094C70.4455 49.652 70.6177 49.5946 70.7325 49.4798C70.9621 49.3649 71.2491 49.2501 71.4787 49.1927C71.8805 49.0779 72.225 49.0205 72.6268 49.0205C72.9138 49.0205 73.2582 49.0779 73.5452 49.1353H73.4878C73.7748 49.1927 74.0044 49.3075 74.2914 49.4224C74.4062 49.4798 74.5784 49.5946 74.6932 49.7094C74.7506 49.7668 74.8654 49.7668 74.9228 49.652C74.9802 49.5946 74.9802 49.4798 74.8654 49.4224C74.521 49.1353 74.1192 48.9057 73.66 48.7335C73.4304 48.6761 73.2582 48.6187 73.0286 48.5613C72.799 48.5039 72.512 48.5039 72.2824 48.4465C72.225 48.4465 72.1676 48.4465 72.1102 48.4465C71.9379 48.5039 71.8231 48.5039 71.6509 48.5039Z" fill="#FEA06F"/>
<path d="M30.3808 17.9665C29.5198 18.885 28.7161 19.9182 28.0273 21.0088C27.3385 22.042 26.7071 23.2475 26.1905 24.5103C25.6739 25.7731 25.2721 27.0933 24.9851 28.5858C24.5833 30.48 24.4111 32.4316 24.3537 33.9241C24.2963 34.6703 24.2963 35.3591 24.2389 36.1053C24.1241 37.9995 24.0667 39.8938 23.7796 41.788C23.55 42.9935 23.3204 44.1989 23.0908 45.3469C22.5742 47.9299 22.0576 50.6278 22.1724 53.3257C22.2298 54.0719 22.3446 54.8755 22.5168 55.7939C22.6316 56.4827 22.8612 57.1141 23.0908 57.8029C23.4926 59.0658 24.0667 60.3286 24.7555 61.4766C25.3869 62.5672 26.1905 63.6005 27.1089 64.6337C27.9699 65.5521 28.9457 66.4131 30.0364 67.2167C32.1028 68.7092 34.4563 69.8572 37.1541 70.6034C39.4502 71.2922 41.861 71.5792 44.3867 71.5792C44.6737 71.5792 44.9607 71.5792 45.2477 71.5792C48.0029 71.4644 50.8156 70.9478 53.6282 69.972C56.0965 69.111 58.2777 67.9629 60.2294 66.5853C62.181 65.1503 63.7882 63.5431 64.8789 61.7062C64.9363 61.534 65.0511 61.4192 65.1085 61.247C65.3381 60.7304 65.6251 60.2712 65.9121 59.7546C66.4861 58.7214 67.1749 57.7455 67.8637 56.7697C68.0359 55.6791 68.2081 54.5885 68.3229 53.4405C68.6099 51.3166 68.8395 49.1928 69.0117 47.0689C68.8395 46.3801 68.7247 45.6339 68.6099 44.8877C68.4377 43.7971 68.3229 42.649 68.2081 41.5584C68.0933 40.4678 68.0359 39.3772 67.9211 38.344C67.8637 37.8273 67.8063 37.3107 67.7489 36.7941C67.6915 36.2775 67.6341 35.7035 67.5193 35.1869C67.2897 34.0389 67.0601 32.9482 66.6583 31.8576C66.3713 30.9392 65.9695 30.0208 65.5677 29.1598C65.1659 28.2988 64.6493 27.4377 64.1326 26.6341C63.6734 25.8879 63.0994 25.1991 62.5254 24.5103C61.9514 23.8215 61.32 23.2475 60.6886 22.6734C60.1146 22.1568 59.4832 21.6976 58.8517 21.2384C58.2203 20.8366 57.5315 20.4348 56.8427 20.0904C56.2113 19.8034 55.5799 19.5164 54.8911 19.2868C54.2597 19.0572 53.5708 18.885 52.9394 18.7702C52.9394 18.7702 52.9394 18.7702 52.9968 18.7702C50.299 18.2536 47.6011 18.3684 44.9033 18.4832C43.6978 18.5406 42.435 18.598 41.2296 18.598C40.0242 18.598 38.8187 18.5406 37.6133 18.4258C36.4653 18.2536 35.3173 18.024 34.2267 17.6221C33.6526 17.4499 33.136 17.2203 32.6194 16.9333C32.3324 16.8185 32.1028 16.6463 31.8158 16.4741C31.2992 17.1055 30.84 17.5647 30.3808 17.9665Z" fill="#FEBE9C"/>
<path d="M44.8455 13.1449C43.8696 13.1449 42.9512 13.2023 42.0328 13.2597C40.1386 13.4319 38.3017 13.7763 36.5223 14.2355C34.7429 14.6947 33.0208 15.3835 31.4136 16.2446C30.7248 16.589 30.0934 16.9908 29.5768 17.3352C29.5194 17.3352 29.5194 17.3926 29.462 17.45C29.4046 17.45 29.3472 17.45 29.2898 17.5074C29.1176 17.6222 29.1176 17.8518 29.2324 18.024C30.3804 19.8608 31.8154 21.6403 33.48 23.3623C35.0873 25.0269 36.9241 26.462 38.9331 27.7248C43.1234 30.4226 47.6581 31.9151 52.0206 32.0299C52.2502 32.0299 52.5372 32.0299 52.7668 32.0299C53.8 32.0299 54.8333 31.9725 55.8665 31.8003C57.0719 31.6281 58.2773 31.3411 59.4254 30.9393C59.368 31.4559 59.368 31.9725 59.4254 32.4891C59.4828 33.3501 59.7124 34.2111 59.9994 35.0721C60.6308 36.909 61.7214 38.2866 63.0416 38.918C63.4434 39.1476 63.96 39.2624 64.4193 39.3198C64.5341 39.3198 64.6489 39.3198 64.7063 39.3198C64.6489 39.5494 64.5915 39.779 64.5341 40.0086C64.4193 40.5826 64.2471 41.2141 64.1323 41.9029C64.0174 42.5917 63.9026 43.3379 63.8452 44.0267C63.7878 44.8303 63.7304 45.5765 63.7304 46.208C63.7304 46.8968 63.7878 47.5282 63.96 48.1022C64.0174 48.3892 64.0748 48.6188 64.1897 48.8484C64.3045 49.1354 64.4193 49.3076 64.5341 49.4798C64.7063 49.7094 64.8785 49.8242 65.1081 49.939C65.3377 50.0538 65.5673 50.1112 65.7969 50.1112C66.0265 50.1112 66.2561 50.0538 66.5431 49.939C66.8301 49.8242 67.1171 49.7094 67.4615 49.4798C67.8059 49.2502 68.2077 48.9632 68.6669 48.5614C69.0113 48.217 69.3558 47.8726 69.7002 47.4708C70.3316 46.7246 70.9056 45.8635 71.3648 44.8877C71.824 44.0267 72.1684 42.9935 72.4554 41.9603C72.7424 40.9845 72.9146 39.9512 73.0294 38.8606C73.259 36.7942 73.1442 34.6703 72.7424 32.6039C72.5702 31.6855 72.3406 30.7096 71.9962 29.7912C71.7092 28.9302 71.3074 28.0692 70.8482 27.1508C69.2409 23.9937 66.7727 21.1811 63.6156 18.9424C60.6308 16.8186 57.1867 15.2113 53.2834 14.2355C51.4466 13.7763 49.5524 13.4319 47.6007 13.3171C46.7971 13.1449 45.8213 13.1449 44.8455 13.1449Z" fill="#192E35"/>
<path d="M31.0124 17.1056C31.6438 17.9666 32.3326 18.8276 33.0788 19.6312C33.8251 20.4922 34.6861 21.2385 35.4897 21.9847C37.2691 23.5345 39.2208 24.9121 41.2872 26.1176C42.3204 26.6916 43.411 27.2082 44.5017 27.6674C45.5923 28.1266 46.7403 28.5284 47.8883 28.8154C50.127 29.3894 52.423 29.6764 54.7765 29.5042C55.5801 29.4468 56.3837 29.332 57.1873 29.1598C57.5891 29.045 58.0483 28.9302 58.4501 28.8154C58.6223 28.758 58.852 28.7006 59.0242 28.5858C59.1964 28.5284 59.426 28.4136 59.5982 28.3562C59.8852 28.2414 60.0574 27.897 59.9426 27.61C59.8278 27.323 59.4834 27.1508 59.1964 27.2656C59.0242 27.323 58.7946 27.3804 58.6223 27.4952C58.4501 27.5526 58.2205 27.61 58.0483 27.6674C57.7039 27.7822 57.3021 27.897 56.9577 27.9544C56.2689 28.1266 55.5801 28.2414 54.8339 28.2988C54.0877 28.3562 53.284 28.4136 52.5378 28.4136C50.6436 28.3562 48.7493 28.0692 46.9125 27.5526C44.3869 26.8064 41.976 25.7158 39.7374 24.3955C37.2691 22.9031 34.9731 21.0663 32.964 18.9424C32.39 18.311 31.7586 17.6796 31.242 16.9334C31.1846 16.876 31.1846 16.876 31.1272 16.876C31.0124 16.876 30.8976 16.9908 31.0124 17.1056Z" fill="#0F1D21"/>
<path d="M36.5216 19.9182C36.4642 19.9756 36.4642 20.0904 36.5216 20.1478C36.9808 20.5496 37.44 21.0088 37.8992 21.4106C38.3584 21.8125 38.875 22.1569 39.3916 22.5587C40.4248 23.3049 41.5155 23.9363 42.6635 24.5103C43.8115 25.0843 45.0169 25.5435 46.2798 25.8305C46.8538 26.0027 47.4852 26.1175 48.1166 26.2323C48.748 26.3471 49.4368 26.4045 50.0682 26.4045C50.1256 26.4045 50.2404 26.3471 50.2978 26.3471C50.4126 26.2897 50.47 26.1749 50.47 26.0601C50.5274 25.8305 50.3552 25.6009 50.1256 25.5435C49.7238 25.4861 49.322 25.4861 48.9776 25.4287C48.5758 25.3713 48.174 25.3139 47.7148 25.2565C46.9112 25.1417 46.165 24.9695 45.3613 24.7399H45.4761C43.6393 24.2233 41.8599 23.4197 40.1952 22.4439C40.1952 22.4439 40.2526 22.4439 40.2526 22.5013C38.9898 21.7551 37.8418 20.894 36.7512 19.9182C36.7512 19.9182 36.6938 19.8608 36.6364 19.8608C36.579 19.8034 36.5216 19.8608 36.5216 19.9182Z" fill="#0F1D21"/>
<path d="M61.7203 31.054C61.6629 31.054 61.6055 31.1688 61.6055 31.2262C61.7203 32.2594 62.0647 33.2926 62.6387 34.211C62.9257 34.6702 63.2127 35.072 63.6145 35.4164C64.0163 35.8183 64.4755 36.1627 64.9347 36.4497C65.0495 36.5071 65.1643 36.5071 65.2791 36.4497C65.3939 36.3923 65.4513 36.3349 65.5087 36.2201C65.5661 36.1053 65.5661 35.9905 65.5087 35.8757C65.4513 35.7608 65.3939 35.7034 65.2791 35.646C64.9921 35.5312 64.6477 35.4164 64.4181 35.3016C64.1311 35.1294 63.8441 34.8998 63.6145 34.6702C63.3275 34.3832 63.0405 33.9814 62.8109 33.637C62.8109 33.637 62.8109 33.637 62.8109 33.5796C62.5239 33.1204 62.3517 32.6038 62.1795 32.0298C62.1221 31.7428 62.0647 31.3984 62.0073 31.1114C61.8925 31.1114 61.8351 31.054 61.7203 31.054Z" fill="#0F1D21"/>
<path d="M51.2172 9.87302C50.9302 9.93042 50.6432 9.98782 50.3562 10.0452C50.0692 10.1026 49.7248 10.2174 49.4378 10.2748C48.8063 10.447 48.2323 10.6192 47.6009 10.7914C47.0269 10.9636 46.4529 11.1932 45.8789 11.3654C45.3049 11.5377 44.7309 11.7673 44.1569 11.9395C44.042 11.9969 43.9846 12.1117 44.0421 12.2265C44.0995 12.3413 44.2143 12.3987 44.3291 12.3413C45.2475 12.0543 46.1659 11.7673 47.0843 11.5377C48.0601 11.308 48.9786 11.021 49.9544 10.8488C50.2988 10.7914 50.6432 10.734 50.9876 10.6766C50.9302 10.6766 50.9302 10.6766 50.8728 10.6766C52.9966 10.2748 55.1205 10.1026 57.3017 10.2748C58.5071 10.3896 59.7126 10.6766 60.918 11.0784C61.8938 11.4802 62.8696 11.9395 63.7306 12.5709C63.6732 12.5135 63.6732 12.5135 63.6158 12.4561C63.9028 12.6283 64.1325 12.8579 64.4195 13.0301C64.5343 13.1449 64.7065 13.2023 64.8213 13.2023C64.9935 13.2023 65.1083 13.1449 65.2231 13.0301C65.4527 12.8005 65.4527 12.3987 65.1657 12.1691C64.6491 11.7673 64.1325 11.3654 63.5584 11.021C63.0418 10.734 62.4678 10.447 61.9512 10.2174C60.8032 9.75822 59.6552 9.47121 58.4497 9.29901C57.7035 9.1842 57.0147 9.1842 56.2685 9.1842C54.6039 9.29901 52.8818 9.52861 51.2172 9.87302ZM60.8032 11.1358C60.8606 11.1358 60.8606 11.1358 60.918 11.1932C60.918 11.1358 60.8606 11.1358 60.8032 11.1358Z" fill="#0F1D21"/>
<path d="M26.5928 38.6884C26.8798 39.7216 28.8889 40.0086 31.0701 39.3772C33.2514 38.7458 34.8012 37.4256 34.5142 36.3923C34.2272 35.3591 32.2181 35.0721 30.0369 35.7035C27.8557 36.3923 26.3058 37.7126 26.5928 38.6884Z" fill="#0F1D21"/>
<path d="M49.9544 37.483C49.5526 38.5736 51.2172 40.1809 53.6281 41.0419C56.0389 41.9029 58.335 41.6733 58.6794 40.5827C59.0812 39.492 57.4165 37.8848 55.0057 37.0238C52.5949 36.1628 50.3562 36.3924 49.9544 37.483Z" fill="#0F1D21"/>
<path d="M31.0688 44.6581C30.3225 44.6581 29.6911 45.8061 29.6337 47.2985C29.5763 48.3892 29.8059 49.365 30.2077 49.8242C30.3799 49.9964 30.5521 50.1112 30.7243 50.1112C31.4706 50.1112 32.102 48.9632 32.2168 47.4707C32.2742 46.7245 32.1594 46.0357 31.9872 45.5191C31.7002 45.0025 31.4132 44.7155 31.0688 44.6581Z" fill="#192E35"/>
<path d="M52.2506 45.6913C51.5044 45.6913 50.873 46.8393 50.7582 48.3317C50.6434 49.8242 51.16 51.087 51.8488 51.1444C52.595 51.1444 53.2265 49.9964 53.3413 48.5039C53.4561 47.0115 52.9395 45.7487 52.2506 45.6913Z" fill="#192E35"/>
<path d="M44.8454 54.1293C44.788 54.1293 44.6732 54.1867 44.6732 54.2441C44.6158 54.3015 44.6158 54.3589 44.6158 54.4163C44.6158 54.7033 44.6158 54.9329 44.5584 55.2199C44.501 55.5643 44.4436 55.9087 44.3288 56.1957C44.2139 56.4827 44.0417 56.7123 43.8695 56.9419L43.9269 56.8845C43.7547 57.1141 43.5825 57.2863 43.3529 57.4011C43.1807 57.5159 43.0085 57.6307 42.7789 57.7455C42.6067 57.8029 42.3771 57.8603 42.1475 57.9177C42.0327 57.9177 41.8605 57.9177 41.7457 57.9177C41.6309 57.9177 41.5161 57.9177 41.4013 57.9177C41.2291 57.9177 40.9995 57.8603 40.8273 57.8029H40.7699C40.6551 57.8029 40.5977 57.8603 40.5977 57.9751C40.5403 58.0899 40.6551 58.2048 40.7125 58.2048C40.9995 58.3196 41.3439 58.377 41.6309 58.377C41.6883 58.377 41.8031 58.377 41.8605 58.377C42.0901 58.377 42.3197 58.377 42.5493 58.3196C43.0659 58.2048 43.5251 57.9751 43.9843 57.5733C44.3862 57.2289 44.6732 56.7697 44.9028 56.1957C45.1324 55.6791 45.1898 55.0477 45.1898 54.4163C45.1324 54.2441 45.0176 54.1293 44.8454 54.1293Z" fill="#192E35"/>
<path d="M41.1151 41.0419C41.0577 41.0419 41.0577 41.0419 41.0003 41.0993L40.9429 41.1567C41.0577 43.1083 41.0003 44.7729 40.7707 46.3228C40.5985 47.4708 40.4263 48.3318 40.0819 49.1928C39.6801 48.9632 39.2209 48.791 38.8191 48.6188C38.4173 48.504 38.0155 48.3892 37.6711 48.3892H37.6137C36.9823 48.3892 36.4656 48.6188 36.0638 49.0206C35.7194 49.4224 35.5472 49.9964 35.6046 50.5705C35.662 51.2019 35.8916 51.8907 36.2934 52.4647C36.523 52.8091 36.8675 53.2109 37.2119 53.4979C37.6137 53.8423 38.0729 54.1293 38.5895 54.3589C38.6469 54.4163 38.7043 54.4163 38.8191 54.4163C38.8765 54.4163 38.8765 54.4163 38.9339 54.4163C39.0487 54.4163 39.1061 54.3015 39.1635 54.2441C39.2209 54.1293 39.2209 54.0719 39.2209 53.9571C39.1635 53.8423 39.1061 53.7275 38.9339 53.6701C38.8191 53.6127 38.7617 53.6127 38.6469 53.5553C38.3025 53.3831 37.9581 53.2109 37.6711 52.9813C37.3841 52.7517 37.1545 52.5221 36.9249 52.2351C36.6952 51.9481 36.5804 51.7185 36.4082 51.4315C36.2934 51.2019 36.236 50.9723 36.1786 50.6853V50.6279C36.1786 50.4557 36.1786 50.2261 36.1786 50.0538C36.1786 49.8816 36.236 49.7668 36.2934 49.652C36.3508 49.5372 36.4082 49.4224 36.4656 49.365V49.3076L36.523 49.2502C36.5804 49.1928 36.6378 49.1928 36.6378 49.1354C36.7527 49.078 36.8675 49.0206 36.9249 48.9632C37.0971 48.9058 37.2119 48.8484 37.3841 48.8484C37.4989 48.8484 37.6137 48.8484 37.7285 48.8484C37.8433 48.8484 38.0155 48.8484 38.1303 48.9058H38.0729C38.4747 48.9632 38.9339 49.1354 39.3931 49.3076C39.6227 49.4224 39.8523 49.5372 40.0819 49.652H40.1393C40.1967 49.652 40.2541 49.5946 40.3115 49.5372C40.5411 48.9058 40.7133 48.2744 40.8281 47.5856C40.9429 46.9542 41.0577 46.2654 41.1151 45.5192C41.2299 44.2563 41.2299 42.8787 41.1725 41.2715C41.2299 41.0419 41.1725 41.0419 41.1151 41.0419Z" fill="#CA8664"/>
</svg>
